<?xml version="1.0" encoding="UTF-8"?>
<svg version="1.1" xmlns="http://www.w3.org/2000/svg" width="512" height="512">
<path d="M0 0 C2.45048807 0.03013692 4.90101184 0.05750612 7.3515625 0.08203125 C13.31849469 0.1477282 19.284079 0.24778112 25.25 0.375 C26.24 2.85 26.24 2.85 27.25 5.375 C30.22 5.375 33.19 5.375 36.25 5.375 C36.58 4.055 36.91 2.735 37.25 1.375 C38.25 0.375 38.25 0.375 41.8125 0.3125 C42.946875 0.333125 44.08125 0.35375 45.25 0.375 C46.24 2.85 46.24 2.85 47.25 5.375 C50.22 5.375 53.19 5.375 56.25 5.375 C56.58 4.055 56.91 2.735 57.25 1.375 C59.12038968 -0.49538968 62.28752687 0.22813941 64.78132629 0.21437073 C65.81733893 0.206739 65.81733893 0.206739 66.87428111 0.19895309 C69.20630574 0.18316223 71.53829925 0.17468588 73.87036133 0.16625977 C75.53574829 0.15672599 77.20113324 0.14683505 78.86651611 0.13661194 C84.35499704 0.10514911 89.84349343 0.08494041 95.33203125 0.06640625 C96.73293963 0.06146027 96.73293963 0.06146027 98.16214919 0.05641437 C106.97384541 0.02561167 115.78554498 -0.00109474 124.59727955 -0.01800442 C135.862057 -0.03987404 147.12635545 -0.08174422 158.39094144 -0.15144199 C166.31294921 -0.19878656 174.23482831 -0.22295257 182.15697306 -0.2302013 C186.88598043 -0.23514509 191.61444884 -0.25010221 196.34330177 -0.2899456 C200.80122491 -0.32700657 205.25830576 -0.33515845 209.71635437 -0.32193947 C211.34486967 -0.32199311 212.9734241 -0.33216324 214.6017971 -0.3536911 C224.57846553 -0.47843594 232.80823292 0.41919797 241.25 6.375 C248.33584131 13.36709142 251.33643515 20.89247874 251.53111267 30.75572205 C251.55140431 34.81741946 251.50049088 38.87637118 251.4375 42.9375 C251.42242858 44.6308475 251.40874451 46.32420794 251.39648438 48.01757812 C251.36366704 52.13704222 251.31202063 56.2558763 251.25 60.375 C252.37494873 60.35928955 253.49989746 60.3435791 254.65893555 60.32739258 C258.84278165 60.27298784 263.02659662 60.23861164 267.21069336 60.21020508 C269.01966617 60.19514245 270.8286026 60.17468823 272.63745117 60.14868164 C275.24146515 60.1121868 277.8449952 60.09524843 280.44921875 60.08203125 C281.65731453 60.05880547 281.65731453 60.05880547 282.88981628 60.03511047 C287.50146402 60.03373626 290.52082516 60.35803534 294.25 63.375 C296.21457553 66.62671122 297.25 68.56192647 297.25 72.375 C297.92207489 72.37055878 298.59414978 72.36611755 299.28659058 72.36154175 C306.26151408 72.31740366 313.23639813 72.28717333 320.21142578 72.26513672 C322.81691091 72.25505936 325.42238469 72.2413973 328.02783203 72.22412109 C331.76597899 72.19994898 335.50397685 72.1885344 339.2421875 72.1796875 C340.41304901 72.16936493 341.58391052 72.15904236 342.79025269 72.14840698 C343.87122223 72.14825592 344.95219177 72.14810486 346.06591797 72.14794922 C347.02078094 72.143508 347.97564392 72.13906677 348.95944214 72.13449097 C351.25 72.375 351.25 72.375 353.25 74.375 C353.80743243 79.61486486 353.80743243 79.61486486 351.875 82.25 C350.25 83.375 350.25 83.375 348.25 83.375 C348.25 91.625 348.25 99.875 348.25 108.375 C349.57 109.035 350.89 109.695 352.25 110.375 C353.25 111.375 353.25 111.375 353.4375 114.3125 C353.25 117.375 353.25 117.375 351.25 119.375 C348.95944214 119.61550903 348.95944214 119.61550903 346.06591797 119.60205078 C344.98494843 119.60189972 343.90397888 119.60174866 342.79025269 119.60159302 C341.61939117 119.59127045 340.44852966 119.58094788 339.2421875 119.5703125 C338.04643097 119.5674826 336.85067444 119.56465271 335.61868286 119.56173706 C331.78735481 119.55051305 327.95625778 119.52540431 324.125 119.5 C321.53255545 119.48997308 318.94010725 119.48084673 316.34765625 119.47265625 C309.98169158 119.45056646 303.61586229 119.41706706 297.25 119.375 C297.13527344 120.30699219 297.02054687 121.23898438 296.90234375 122.19921875 C296.06723854 126.26473092 294.35870355 127.72122868 291.25 130.375 C287.97056355 132.01471823 284.34441377 131.49540074 280.7421875 131.47265625 C279.99718994 131.47164917 279.25219238 131.47064209 278.48461914 131.46960449 C275.6980638 131.46436714 272.91153038 131.45040589 270.125 131.4375 C263.89625 131.416875 257.6675 131.39625 251.25 131.375 C251.25 144.245 251.25 157.115 251.25 170.375 C263.86008772 170.21694875 263.86008772 170.21694875 276.46948242 170.01464844 C278.05646691 170.00296027 279.64346342 169.99276874 281.23046875 169.984375 C282.04696899 169.96391113 282.86346924 169.94344727 283.70471191 169.92236328 C287.52952875 169.92002644 289.77125522 170.11647702 293.1887207 171.96191406 C295.73423616 174.94188265 296.44599007 177.5742258 297.25 181.375 C297.9073262 181.36833817 298.5646524 181.36167633 299.24189758 181.35481262 C306.07096475 181.28854537 312.89994088 181.2432352 319.72924805 181.21020508 C322.27941598 181.19509995 324.82955786 181.17461467 327.37963867 181.14868164 C331.04091819 181.11237496 334.70185485 181.09529085 338.36328125 181.08203125 C339.5071077 181.06654739 340.65093414 181.05106354 341.829422 181.03511047 C342.89029526 181.03488388 343.95116852 181.03465729 345.04418945 181.03442383 C345.97906693 181.02776199 346.9139444 181.02110016 347.87715149 181.01423645 C350.25 181.375 350.25 181.375 352.05583191 182.70487976 C353.88292745 185.26018941 353.57397723 187.32961404 353.25 190.375 C352.59 191.035 351.93 191.695 351.25 192.375 C350.26 192.375 349.27 192.375 348.25 192.375 C348.25 200.955 348.25 209.535 348.25 218.375 C349.57 218.705 350.89 219.035 352.25 219.375 C353.25 220.375 353.25 220.375 353.5625 223.25 C353.25 226.375 353.25 226.375 351.55718994 228.04902649 C348.80701686 229.62958845 347.17960984 229.73856512 344.02246094 229.71557617 C342.98168396 229.71534958 341.94090698 229.71512299 340.86859131 229.71488953 C339.75179993 229.69940567 338.63500854 229.68392181 337.484375 229.66796875 C336.33584045 229.66372391 335.18730591 229.65947906 334.00396729 229.65510559 C330.3357397 229.63831333 326.66806153 229.60065898 323 229.5625 C320.51302877 229.54745392 318.02604892 229.53376539 315.5390625 229.52148438 C309.44252088 229.48840796 303.34629969 229.43820256 297.25 229.375 C297.12496094 230.14328125 296.99992187 230.9115625 296.87109375 231.703125 C296.08700849 235.07617101 294.56950353 236.84463251 292.25 239.375 C288.91783752 241.04108124 285.18526241 240.49517692 281.5234375 240.47265625 C280.37645386 240.47114563 280.37645386 240.47114563 279.20629883 240.46960449 C276.34585066 240.46436661 273.48542385 240.45040537 270.625 240.4375 C261.034375 240.4065625 261.034375 240.4065625 251.25 240.375 C251.25 253.245 251.25 266.115 251.25 279.375 C263.53083993 279.25647269 263.53083993 279.25647269 275.8112793 279.10473633 C277.35725279 279.09596989 278.90323322 279.08832632 280.44921875 279.08203125 C281.2441272 279.06668335 282.03903564 279.05133545 282.85803223 279.03552246 C287.48238814 279.03334766 290.5100449 279.34931393 294.25 282.375 C296.21457553 285.62671122 297.25 287.56192647 297.25 291.375 C297.92207489 291.37055878 298.59414978 291.36611755 299.28659058 291.36154175 C306.26151408 291.31740366 313.23639813 291.28717333 320.21142578 291.26513672 C322.81691091 291.25505936 325.42238469 291.2413973 328.02783203 291.22412109 C331.76597899 291.19994898 335.50397685 291.1885344 339.2421875 291.1796875 C340.41304901 291.16936493 341.58391052 291.15904236 342.79025269 291.14840698 C343.87122223 291.14825592 344.95219177 291.14810486 346.06591797 291.14794922 C347.02078094 291.143508 347.97564392 291.13906677 348.95944214 291.13449097 C351.25 291.375 351.25 291.375 353.25 293.375 C353.80743243 298.61486486 353.80743243 298.61486486 351.875 301.25 C350.25 302.375 350.25 302.375 348.25 302.375 C348.25 310.625 348.25 318.875 348.25 327.375 C349.57 328.035 350.89 328.695 352.25 329.375 C353.25 330.375 353.25 330.375 353.4375 333.3125 C353.25 336.375 353.25 336.375 351.25 338.375 C348.95944214 338.61550903 348.95944214 338.61550903 346.06591797 338.60205078 C344.98494843 338.60189972 343.90397888 338.60174866 342.79025269 338.60159302 C341.61939117 338.59127045 340.44852966 338.58094788 339.2421875 338.5703125 C338.04643097 338.5674826 336.85067444 338.56465271 335.61868286 338.56173706 C331.78735481 338.55051305 327.95625778 338.52540431 324.125 338.5 C321.53255545 338.48997308 318.94010725 338.48084673 316.34765625 338.47265625 C309.98169158 338.45056646 303.61586229 338.41706706 297.25 338.375 C297.13527344 339.30699219 297.02054687 340.23898437 296.90234375 341.19921875 C296.06723854 345.26473092 294.35870355 346.72122868 291.25 349.375 C287.97108075 351.01445963 284.34386466 350.49530178 280.7421875 350.47265625 C279.90156769 350.4712413 279.06094788 350.46982635 278.19485474 350.46836853 C275.50486725 350.46276237 272.81496241 350.45020886 270.125 350.4375 C268.30338662 350.43248579 266.48177193 350.42792275 264.66015625 350.42382812 C260.19007223 350.41279094 255.72005014 350.3955222 251.25 350.375 C251.27094727 351.40794189 251.29189453 352.44088379 251.31347656 353.50512695 C251.38661829 357.38714387 251.4320652 361.26910168 251.46972656 365.15161133 C251.489675 366.82261442 251.51684401 368.49354924 251.55175781 370.16430664 C251.78084546 381.41992175 251.71034739 391.69912593 244.75 401.1875 C233.22830824 412.4806687 219.66324766 411.23367971 204.578125 411.15136719 C202.07368049 411.15950597 199.56924316 411.17019386 197.06481934 411.18322754 C190.99020808 411.20767319 184.91621466 411.20419739 178.84162807 411.18675169 C173.90109554 411.17315503 168.96068751 411.17138358 164.0201416 411.17789459 C162.96203872 411.17927369 162.96203872 411.17927369 161.88256001 411.18068065 C160.44917516 411.18259916 159.01579035 411.18454444 157.58240557 411.1865162 C144.16784679 411.20359131 130.75353474 411.18400743 117.33901644 411.151714 C105.84958541 411.12491039 94.36051822 411.1295675 82.87109375 411.15722656 C69.50181982 411.1893964 56.13276168 411.20194368 42.76345444 411.18355298 C41.33558912 411.18164185 39.90772378 411.17975563 38.4798584 411.17789459 C37.77747457 411.17696894 37.07509074 411.17604329 36.35142255 411.17508958 C31.42160656 411.16992717 26.49192842 411.17861396 21.56213379 411.19277191 C14.91673395 411.21143895 8.27191169 411.19799064 1.62654114 411.16340637 C-0.80660366 411.1554993 -3.23980644 411.15770594 -5.67292786 411.17098236 C-30.01750013 411.29153289 -30.01750013 411.29153289 -38.75 404.375 C-46.58656911 396.53986541 -48.98890717 388.44238494 -49.04296875 377.62109375 C-49.03432968 374.35096801 -48.98821531 371.08220243 -48.9375 367.8125 C-48.92242858 366.1191525 -48.90874451 364.42579206 -48.89648438 362.73242188 C-48.86366704 358.61295778 -48.81202063 354.4941237 -48.75 350.375 C-49.86971191 350.39594727 -50.98942383 350.41689453 -52.14306641 350.43847656 C-56.31383377 350.51110426 -60.48454568 350.55688211 -64.65576172 350.59472656 C-66.45794081 350.61479033 -68.26005521 350.64204813 -70.06201172 350.67675781 C-72.65869136 350.72550829 -75.25450729 350.74802082 -77.8515625 350.765625 C-79.05191635 350.79659271 -79.05191635 350.79659271 -80.27651978 350.82818604 C-85.56374375 350.83028695 -88.56835691 349.90530436 -92.75 346.375 C-94.34381802 343.40470278 -94.75 341.75110023 -94.75 338.375 C-95.42207489 338.37944122 -96.09414978 338.38388245 -96.78659058 338.38845825 C-103.76151408 338.43259634 -110.73639813 338.46282667 -117.71142578 338.48486328 C-120.31691091 338.49494064 -122.92238469 338.5086027 -125.52783203 338.52587891 C-129.26597899 338.55005102 -133.00397685 338.5614656 -136.7421875 338.5703125 C-138.49847977 338.58579636 -138.49847977 338.58579636 -140.29025269 338.60159302 C-141.911707 338.60181961 -141.911707 338.60181961 -143.56591797 338.60205078 C-144.52078094 338.606492 -145.47564392 338.61093323 -146.45944214 338.61550903 C-148.75 338.375 -148.75 338.375 -150.75 336.375 C-151.30743243 331.13513514 -151.30743243 331.13513514 -149.375 328.5 C-147.75 327.375 -147.75 327.375 -145.75 327.375 C-145.75 319.125 -145.75 310.875 -145.75 302.375 C-147.07 301.715 -148.39 301.055 -149.75 300.375 C-150.75 299.375 -150.75 299.375 -150.9375 296.4375 C-150.75 293.375 -150.75 293.375 -148.75 291.375 C-146.45944214 291.13449097 -146.45944214 291.13449097 -143.56591797 291.14794922 C-141.94446365 291.14817581 -141.94446365 291.14817581 -140.29025269 291.14840698 C-138.53396042 291.16389084 -138.53396042 291.16389084 -136.7421875 291.1796875 C-134.9485527 291.18393234 -134.9485527 291.18393234 -133.11868286 291.18826294 C-129.28735481 291.19948695 -125.45625778 291.22459569 -121.625 291.25 C-119.03255545 291.26002692 -116.44010725 291.26915327 -113.84765625 291.27734375 C-107.48169158 291.29943354 -101.11586229 291.33293294 -94.75 291.375 C-94.63527344 290.44300781 -94.52054688 289.51101563 -94.40234375 288.55078125 C-93.56723854 284.48526908 -91.85870355 283.02877132 -88.75 280.375 C-85.47056355 278.73528177 -81.84441377 279.25459926 -78.2421875 279.27734375 C-77.49718994 279.27835083 -76.75219238 279.27935791 -75.98461914 279.28039551 C-73.1980638 279.28563286 -70.41153038 279.29959411 -67.625 279.3125 C-61.39625 279.333125 -55.1675 279.35375 -48.75 279.375 C-48.75 266.505 -48.75 253.635 -48.75 240.375 C-61.36008772 240.53305125 -61.36008772 240.53305125 -73.96948242 240.73535156 C-75.55646691 240.74703973 -77.14346342 240.75723126 -78.73046875 240.765625 C-79.54696899 240.78608887 -80.36346924 240.80655273 -81.20471191 240.82763672 C-85.25086996 240.83010879 -87.23506987 240.70234934 -90.73168945 238.47949219 C-93.64749924 235.43917764 -94.75 233.60752724 -94.75 229.375 C-95.4073262 229.38166183 -96.0646524 229.38832367 -96.74189758 229.39518738 C-103.57096475 229.46145463 -110.39994088 229.5067648 -117.22924805 229.53979492 C-119.77941598 229.55490005 -122.32955786 229.57538533 -124.87963867 229.60131836 C-128.54091819 229.63762504 -132.20185485 229.65470915 -135.86328125 229.66796875 C-137.0071077 229.68345261 -138.15093414 229.69893646 -139.329422 229.71488953 C-140.92073189 229.71522942 -140.92073189 229.71522942 -142.54418945 229.71557617 C-143.94650566 229.72556892 -143.94650566 229.72556892 -145.37715149 229.73576355 C-147.75 229.375 -147.75 229.375 -149.55583191 228.04512024 C-151.38292745 225.48981059 -151.07397723 223.42038596 -150.75 220.375 C-149.76 219.385 -149.76 219.385 -148.75 218.375 C-147.76 218.375 -146.77 218.375 -145.75 218.375 C-145.75 209.795 -145.75 201.215 -145.75 192.375 C-147.07 192.045 -148.39 191.715 -149.75 191.375 C-150.75 190.375 -150.75 190.375 -151 187.5 C-150.75 184.375 -150.75 184.375 -149.55973816 182.70097351 C-147.11791957 180.91188223 -145.55638694 181.01295924 -142.54418945 181.03442383 C-140.95287956 181.03476372 -140.95287956 181.03476372 -139.329422 181.03511047 C-137.61368233 181.05833626 -137.61368233 181.05833626 -135.86328125 181.08203125 C-134.10506294 181.08839851 -134.10506294 181.08839851 -132.31132507 181.09489441 C-128.56148466 181.11170928 -124.81217843 181.14936768 -121.0625 181.1875 C-118.52279421 181.20254316 -115.98308001 181.2162322 -113.44335938 181.22851562 C-107.21205681 181.26162204 -100.98106656 181.31184972 -94.75 181.375 C-94.56244141 180.22257812 -94.56244141 180.22257812 -94.37109375 179.046875 C-93.58700849 175.67382899 -92.06950353 173.90536749 -89.75 171.375 C-86.41783752 169.70891876 -82.68526241 170.25482308 -79.0234375 170.27734375 C-78.25878174 170.27835083 -77.49412598 170.27935791 -76.70629883 170.28039551 C-73.84585066 170.28563339 -70.98542385 170.29959463 -68.125 170.3125 C-58.534375 170.3434375 -58.534375 170.3434375 -48.75 170.375 C-48.75 157.505 -48.75 144.635 -48.75 131.375 C-60.98595476 131.53294198 -60.98595476 131.53294198 -73.22119141 131.73535156 C-74.76463714 131.74704314 -76.30809529 131.75723386 -77.8515625 131.765625 C-78.64135498 131.78608887 -79.43114746 131.80655273 -80.24487305 131.82763672 C-85.54670715 131.8309618 -88.55560654 130.91606871 -92.75 127.375 C-94.34381802 124.40470278 -94.75 122.75110023 -94.75 119.375 C-95.75811234 119.38166183 -95.75811234 119.38166183 -96.78659058 119.38845825 C-103.76151408 119.43259634 -110.73639813 119.46282667 -117.71142578 119.48486328 C-120.31691091 119.49494064 -122.92238469 119.5086027 -125.52783203 119.52587891 C-129.26597899 119.55005102 -133.00397685 119.5614656 -136.7421875 119.5703125 C-138.49847977 119.58579636 -138.49847977 119.58579636 -140.29025269 119.60159302 C-141.911707 119.60181961 -141.911707 119.60181961 -143.56591797 119.60205078 C-144.52078094 119.606492 -145.47564392 119.61093323 -146.45944214 119.61550903 C-148.75 119.375 -148.75 119.375 -150.75 117.375 C-151.30743243 112.13513514 -151.30743243 112.13513514 -149.375 109.5 C-147.75 108.375 -147.75 108.375 -145.75 108.375 C-145.75 100.125 -145.75 91.875 -145.75 83.375 C-147.07 82.715 -148.39 82.055 -149.75 81.375 C-150.75 80.375 -150.75 80.375 -150.9375 77.4375 C-150.75 74.375 -150.75 74.375 -148.75 72.375 C-146.45944214 72.13449097 -146.45944214 72.13449097 -143.56591797 72.14794922 C-141.94446365 72.14817581 -141.94446365 72.14817581 -140.29025269 72.14840698 C-138.53396042 72.16389084 -138.53396042 72.16389084 -136.7421875 72.1796875 C-134.9485527 72.18393234 -134.9485527 72.18393234 -133.11868286 72.18826294 C-129.28735481 72.19948695 -125.45625778 72.22459569 -121.625 72.25 C-119.03255545 72.26002692 -116.44010725 72.26915327 -113.84765625 72.27734375 C-107.48169158 72.29943354 -101.11586229 72.33293294 -94.75 72.375 C-94.63527344 71.44300781 -94.52054688 70.51101562 -94.40234375 69.55078125 C-93.56723854 65.48526908 -91.85870355 64.02877132 -88.75 61.375 C-85.47108075 59.73554037 -81.84386466 60.25469822 -78.2421875 60.27734375 C-77.40156769 60.2787587 -76.56094788 60.28017365 -75.69485474 60.28163147 C-73.00486725 60.28723763 -70.31496241 60.29979114 -67.625 60.3125 C-65.80338662 60.31751421 -63.98177193 60.32207725 -62.16015625 60.32617188 C-57.69007223 60.33720906 -53.22005014 60.3544778 -48.75 60.375 C-48.7814209 58.82558716 -48.7814209 58.82558716 -48.81347656 57.24487305 C-48.88661829 53.36285613 -48.9320652 49.48089832 -48.96972656 45.59838867 C-48.989675 43.92738558 -49.01684401 42.25645076 -49.05175781 40.58569336 C-49.28084546 29.33007825 -49.21034739 19.05087407 -42.25 9.5625 C-30.42298341 -2.34818151 -15.56480412 -0.33308262 0 0 Z " fill="#AEAEAE" transform="translate(154.75,50.625)"/>
<path d="M0 0 C2.45048807 0.03013692 4.90101184 0.05750612 7.3515625 0.08203125 C13.31849469 0.1477282 19.284079 0.24778112 25.25 0.375 C27.34375 5.09375 27.34375 5.09375 26.5 7.625 C25.25 9.375 25.25 9.375 23.25 10.375 C21.78097973 10.47286266 20.30771186 10.51049301 18.83544922 10.5168457 C17.4629451 10.52739738 17.4629451 10.52739738 16.06271362 10.53816223 C15.070065 10.54232651 14.07741638 10.54649078 13.0546875 10.55078125 C10.95571926 10.57399091 8.85676091 10.5981087 6.7578125 10.62304688 C3.44654849 10.65808022 0.13564503 10.6874567 -3.17578125 10.70092773 C-6.37023853 10.71646963 -9.56363726 10.75673306 -12.7578125 10.80078125 C-13.73831573 10.79887283 -14.71881897 10.79696442 -15.72903442 10.79499817 C-22.55219656 10.91548049 -28.25680982 11.76296425 -33.17571682 16.84922266 C-37.88293763 23.4223785 -37.44737565 30.26276988 -37.37818909 38.06408691 C-37.38323817 39.56260098 -37.3904698 41.061109 -37.39968723 42.55960321 C-37.4185853 46.66505888 -37.40638985 50.76991744 -37.3889643 54.87535787 C-37.37558016 59.30761792 -37.39103114 63.73979119 -37.40278625 68.17204285 C-37.4211594 76.84992534 -37.41265271 85.52758258 -37.39469803 94.20545805 C-37.38066888 101.25851428 -37.37677991 108.3115094 -37.3801403 115.36457825 C-37.38085647 116.87067189 -37.38085647 116.87067189 -37.3815871 118.40719166 C-37.38261344 120.44696456 -37.38366879 122.48673744 -37.38475286 124.5265103 C-37.39331927 142.5608501 -37.37664685 160.59508119 -37.34692383 178.62939453 C-37.3180866 196.12651129 -37.31100297 213.62347146 -37.32641602 231.12060547 C-37.34317932 250.17665845 -37.34721105 269.23263708 -37.32970566 288.288692 C-37.32786128 290.32093524 -37.32602655 292.35317849 -37.32420158 294.38542175 C-37.32283345 295.8852514 -37.32283345 295.8852514 -37.32143768 297.41538063 C-37.31583309 304.45945372 -37.31913874 311.50349052 -37.32574654 318.54756165 C-37.33348025 327.13267908 -37.32672573 335.71764239 -37.3015715 344.30272877 C-37.28907737 348.68247869 -37.28292887 353.06198867 -37.29411316 357.44174767 C-37.30416173 361.45250914 -37.29568303 365.46279234 -37.27253198 369.47349566 C-37.26737725 370.92291017 -37.26892636 372.37236761 -37.27792663 373.82176334 C-37.32292362 381.72679577 -37.20981188 387.69474989 -32.75 394.375 C-28.45677088 397.79205991 -24.96229463 399.49739905 -19.49327374 399.50642776 C-18.62015189 399.51026891 -17.74703004 399.51411005 -16.84744996 399.5180676 C-15.40759121 399.51676787 -15.40759121 399.51676787 -13.93864441 399.51544189 C-12.91942644 399.51841302 -11.90020847 399.52138414 -10.85010511 399.5244453 C-7.41853517 399.53315003 -3.98700004 399.53464204 -0.55541992 399.53613281 C1.89831111 399.54075971 4.35204141 399.54578419 6.80577087 399.55117798 C13.48347041 399.56431585 20.16115627 399.57078613 26.83886552 399.57518864 C31.00807908 399.57795088 35.17729031 399.58218819 39.3465023 399.58669281 C50.88879278 399.59888551 62.4310814 399.60918487 73.97337818 399.6125679 C75.0815603 399.61289725 75.0815603 399.61289725 76.21212993 399.61323325 C77.32296984 399.61356067 77.32296984 399.61356067 78.45625097 399.6138947 C79.95691796 399.61433817 81.45758496 399.61478473 82.95825195 399.61523438 C84.07482694 399.61556652 84.07482694 399.61556652 85.213959 399.61590537 C97.27628116 399.61985359 109.33854292 399.63730831 121.40084175 399.6605939 C133.783644 399.68430534 146.16641593 399.69676965 158.54924124 399.69793582 C165.50230587 399.69885269 172.45529178 399.70460799 179.40833473 399.72275543 C185.94754696 399.73976258 192.48663608 399.74141058 199.02587318 399.73261642 C201.42768249 399.73184397 203.82949971 399.73621605 206.23128891 399.74607468 C209.50693669 399.75873304 212.78204982 399.75295032 216.05769348 399.74249268 C217.01090715 399.75054908 217.96412081 399.75860548 218.94621974 399.76690602 C225.64046384 399.71683023 229.82060379 398.47311491 235 394 C238.79196188 389.57604447 239.4998328 385.86221787 239.51006222 380.11300182 C239.51712781 378.84350758 239.5241934 377.57401333 239.5314731 376.26604956 C239.52922181 374.85959161 239.52677531 373.45313395 239.52415466 372.04667664 C239.52860728 370.55075764 239.5339214 369.05484101 239.54002339 367.55892783 C239.55421087 363.44688003 239.55586654 359.33490778 239.55542648 355.222839 C239.55707401 350.78849702 239.57013926 346.35418624 239.58161926 341.91986084 C239.60447252 332.22364846 239.61239008 322.52745796 239.61744571 312.8312223 C239.62070206 306.77749604 239.62722412 300.72377614 239.6344471 294.67005348 C239.6540127 277.9103284 239.67041739 261.15060924 239.67332363 244.390872 C239.67360499 242.78203983 239.67360499 242.78203983 239.67389202 241.14070599 C239.67425828 238.96636506 239.67462197 236.79202413 239.67498314 234.61768319 C239.67516595 233.5383326 239.67534876 232.45898201 239.67553711 231.34692383 C239.67571766 230.26625666 239.67589821 229.18558949 239.67608423 228.07217482 C239.67962678 210.55678862 239.70665445 193.0415253 239.744035 175.52618172 C239.78210235 157.54522088 239.80148099 139.56432105 239.80178314 121.58331901 C239.80236803 111.48686261 239.81088053 101.39055283 239.83978081 91.29413414 C239.86427354 82.69796815 239.87159177 74.10200225 239.85653328 65.50581082 C239.84935598 61.11993644 239.85025699 56.73445735 239.87294388 52.34862709 C239.89352125 48.33213772 239.89094565 44.31634786 239.87006903 40.29986618 C239.86657173 38.84832989 239.87149449 37.39674327 239.88577347 35.945273 C239.95893636 27.99463702 239.95074686 21.40081692 234.25 15.375 C227.37636505 9.74362016 218.47123328 10.82124808 210.05932617 10.87670898 C208.41770943 10.87288202 206.77609605 10.86725976 205.13449097 10.85998535 C201.61227498 10.84806946 198.09035727 10.84849676 194.56813622 10.85857964 C189.00074453 10.87417398 183.43365788 10.86044111 177.86628723 10.84254456 C167.0612141 10.81177431 156.25623495 10.81022264 145.4511261 10.81219482 C131.67917793 10.81358944 117.90730124 10.80330849 104.13540632 10.7636171 C98.59824163 10.74866051 93.06134779 10.74896957 87.52417886 10.76109493 C84.08675109 10.76579377 80.64942786 10.75830561 77.21201706 10.74755096 C75.61522536 10.74513794 74.0184164 10.74790432 72.42164421 10.75615883 C70.24645032 10.76673388 68.07206357 10.75906516 65.89689636 10.74681091 C64.67853686 10.74739722 63.46017736 10.74798353 62.20489788 10.74858761 C59.25 10.375 59.25 10.375 57.35410023 9.01191807 C55.79379166 6.69863416 55.90043054 5.10164176 56.25 2.375 C59.08127576 -0.45627576 60.93214656 0.11310606 64.90158081 0.09411621 C65.93887508 0.08520284 65.93887508 0.08520284 66.99712479 0.07610941 C69.32609381 0.05869679 71.65485767 0.05571569 73.98388672 0.05273438 C75.64942364 0.04348008 77.31495631 0.03343104 78.98048401 0.02264404 C83.51614896 -0.00364303 88.05175462 -0.01650338 92.58748388 -0.02537727 C95.42353584 -0.03123729 98.25957158 -0.039447 101.09561539 -0.04838562 C109.97498783 -0.07575642 118.85432325 -0.09507496 127.73373497 -0.1027894 C137.97081987 -0.11173244 148.20736822 -0.14673382 158.44429004 -0.20479059 C166.3620855 -0.24812811 174.27973068 -0.26820375 182.1976434 -0.27087164 C186.92326092 -0.27296193 191.64837482 -0.28464919 196.37386703 -0.32051086 C200.82772632 -0.3536496 205.28070855 -0.35769955 209.73464775 -0.34023285 C211.36154097 -0.33870098 212.988483 -0.34725986 214.61525536 -0.36714935 C224.58548196 -0.48180705 232.81352944 0.42624761 241.25 6.375 C248.33598057 13.36684264 251.33643833 20.89263984 251.53111267 30.75572205 C251.55140431 34.81741946 251.50049088 38.87637118 251.4375 42.9375 C251.42242858 44.6308475 251.40874451 46.32420794 251.39648438 48.01757812 C251.36366704 52.13704222 251.31202063 56.2558763 251.25 60.375 C252.37494873 60.35928955 253.49989746 60.3435791 254.65893555 60.32739258 C258.84278165 60.27298784 263.02659662 60.23861164 267.21069336 60.21020508 C269.01966617 60.19514245 270.8286026 60.17468823 272.63745117 60.14868164 C275.24146515 60.1121868 277.8449952 60.09524843 280.44921875 60.08203125 C281.65731453 60.05880547 281.65731453 60.05880547 282.88981628 60.03511047 C287.50146402 60.03373626 290.52082516 60.35803534 294.25 63.375 C296.21457553 66.62671122 297.25 68.56192647 297.25 72.375 C297.92207489 72.37055878 298.59414978 72.36611755 299.28659058 72.36154175 C306.26151408 72.31740366 313.23639813 72.28717333 320.21142578 72.26513672 C322.81691091 72.25505936 325.42238469 72.2413973 328.02783203 72.22412109 C331.76597899 72.19994898 335.50397685 72.1885344 339.2421875 72.1796875 C340.41304901 72.16936493 341.58391052 72.15904236 342.79025269 72.14840698 C343.87122223 72.14825592 344.95219177 72.14810486 346.06591797 72.14794922 C347.02078094 72.143508 347.97564392 72.13906677 348.95944214 72.13449097 C351.25 72.375 351.25 72.375 353.25 74.375 C353.80743243 79.61486486 353.80743243 79.61486486 351.875 82.25 C350.25 83.375 350.25 83.375 348.25 83.375 C348.25 91.625 348.25 99.875 348.25 108.375 C349.57 109.035 350.89 109.695 352.25 110.375 C353.25 111.375 353.25 111.375 353.4375 114.3125 C353.25 117.375 353.25 117.375 351.25 119.375 C348.95944214 119.61550903 348.95944214 119.61550903 346.06591797 119.60205078 C344.98494843 119.60189972 343.90397888 119.60174866 342.79025269 119.60159302 C341.61939117 119.59127045 340.44852966 119.58094788 339.2421875 119.5703125 C338.04643097 119.5674826 336.85067444 119.56465271 335.61868286 119.56173706 C331.78735481 119.55051305 327.95625778 119.52540431 324.125 119.5 C321.53255545 119.48997308 318.94010725 119.48084673 316.34765625 119.47265625 C309.98169158 119.45056646 303.61586229 119.41706706 297.25 119.375 C297.13527344 120.30699219 297.02054687 121.23898438 296.90234375 122.19921875 C296.06723854 126.26473092 294.35870355 127.72122868 291.25 130.375 C287.97056355 132.01471823 284.34441377 131.49540074 280.7421875 131.47265625 C279.99718994 131.47164917 279.25219238 131.47064209 278.48461914 131.46960449 C275.6980638 131.46436714 272.91153038 131.45040589 270.125 131.4375 C263.89625 131.416875 257.6675 131.39625 251.25 131.375 C251.25 144.245 251.25 157.115 251.25 170.375 C263.86008772 170.21694875 263.86008772 170.21694875 276.46948242 170.01464844 C278.05646691 170.00296027 279.64346342 169.99276874 281.23046875 169.984375 C282.04696899 169.96391113 282.86346924 169.94344727 283.70471191 169.92236328 C287.52952875 169.92002644 289.77125522 170.11647702 293.1887207 171.96191406 C295.73423616 174.94188265 296.44599007 177.5742258 297.25 181.375 C297.9073262 181.36833817 298.5646524 181.36167633 299.24189758 181.35481262 C306.07096475 181.28854537 312.89994088 181.2432352 319.72924805 181.21020508 C322.27941598 181.19509995 324.82955786 181.17461467 327.37963867 181.14868164 C331.04091819 181.11237496 334.70185485 181.09529085 338.36328125 181.08203125 C339.5071077 181.06654739 340.65093414 181.05106354 341.829422 181.03511047 C342.89029526 181.03488388 343.95116852 181.03465729 345.04418945 181.03442383 C345.97906693 181.02776199 346.9139444 181.02110016 347.87715149 181.01423645 C350.25 181.375 350.25 181.375 352.05583191 182.70487976 C353.88292745 185.26018941 353.57397723 187.32961404 353.25 190.375 C352.59 191.035 351.93 191.695 351.25 192.375 C350.26 192.375 349.27 192.375 348.25 192.375 C348.25 200.955 348.25 209.535 348.25 218.375 C349.57 218.705 350.89 219.035 352.25 219.375 C353.25 220.375 353.25 220.375 353.5625 223.25 C353.25 226.375 353.25 226.375 351.55718994 228.04902649 C348.80701686 229.62958845 347.17960984 229.73856512 344.02246094 229.71557617 C342.98168396 229.71534958 341.94090698 229.71512299 340.86859131 229.71488953 C339.75179993 229.69940567 338.63500854 229.68392181 337.484375 229.66796875 C336.33584045 229.66372391 335.18730591 229.65947906 334.00396729 229.65510559 C330.3357397 229.63831333 326.66806153 229.60065898 323 229.5625 C320.51302877 229.54745392 318.02604892 229.53376539 315.5390625 229.52148438 C309.44252088 229.48840796 303.34629969 229.43820256 297.25 229.375 C297.12496094 230.14328125 296.99992187 230.9115625 296.87109375 231.703125 C296.08700849 235.07617101 294.56950353 236.84463251 292.25 239.375 C288.91783752 241.04108124 285.18526241 240.49517692 281.5234375 240.47265625 C280.37645386 240.47114563 280.37645386 240.47114563 279.20629883 240.46960449 C276.34585066 240.46436661 273.48542385 240.45040537 270.625 240.4375 C261.034375 240.4065625 261.034375 240.4065625 251.25 240.375 C251.25 253.245 251.25 266.115 251.25 279.375 C263.53083993 279.25647269 263.53083993 279.25647269 275.8112793 279.10473633 C277.35725279 279.09596989 278.90323322 279.08832632 280.44921875 279.08203125 C281.2441272 279.06668335 282.03903564 279.05133545 282.85803223 279.03552246 C287.48238814 279.03334766 290.5100449 279.34931393 294.25 282.375 C296.21457553 285.62671122 297.25 287.56192647 297.25 291.375 C297.92207489 291.37055878 298.59414978 291.36611755 299.28659058 291.36154175 C306.26151408 291.31740366 313.23639813 291.28717333 320.21142578 291.26513672 C322.81691091 291.25505936 325.42238469 291.2413973 328.02783203 291.22412109 C331.76597899 291.19994898 335.50397685 291.1885344 339.2421875 291.1796875 C340.41304901 291.16936493 341.58391052 291.15904236 342.79025269 291.14840698 C343.87122223 291.14825592 344.95219177 291.14810486 346.06591797 291.14794922 C347.02078094 291.143508 347.97564392 291.13906677 348.95944214 291.13449097 C351.25 291.375 351.25 291.375 353.25 293.375 C353.80743243 298.61486486 353.80743243 298.61486486 351.875 301.25 C350.25 302.375 350.25 302.375 348.25 302.375 C348.25 310.625 348.25 318.875 348.25 327.375 C349.57 328.035 350.89 328.695 352.25 329.375 C353.25 330.375 353.25 330.375 353.4375 333.3125 C353.25 336.375 353.25 336.375 351.25 338.375 C348.95944214 338.61550903 348.95944214 338.61550903 346.06591797 338.60205078 C344.98494843 338.60189972 343.90397888 338.60174866 342.79025269 338.60159302 C341.61939117 338.59127045 340.44852966 338.58094788 339.2421875 338.5703125 C338.04643097 338.5674826 336.85067444 338.56465271 335.61868286 338.56173706 C331.78735481 338.55051305 327.95625778 338.52540431 324.125 338.5 C321.53255545 338.48997308 318.94010725 338.48084673 316.34765625 338.47265625 C309.98169158 338.45056646 303.61586229 338.41706706 297.25 338.375 C297.13527344 339.30699219 297.02054687 340.23898437 296.90234375 341.19921875 C296.06723854 345.26473092 294.35870355 346.72122868 291.25 349.375 C287.97108075 351.01445963 284.34386466 350.49530178 280.7421875 350.47265625 C279.90156769 350.4712413 279.06094788 350.46982635 278.19485474 350.46836853 C275.50486725 350.46276237 272.81496241 350.45020886 270.125 350.4375 C268.30338662 350.43248579 266.48177193 350.42792275 264.66015625 350.42382812 C260.19007223 350.41279094 255.72005014 350.3955222 251.25 350.375 C251.27094727 351.40794189 251.29189453 352.44088379 251.31347656 353.50512695 C251.38661829 357.38714387 251.4320652 361.26910168 251.46972656 365.15161133 C251.489675 366.82261442 251.51684401 368.49354924 251.55175781 370.16430664 C251.78084546 381.41992175 251.71034739 391.69912593 244.75 401.1875 C233.22830824 412.4806687 219.66324766 411.23367971 204.578125 411.15136719 C202.07368049 411.15950597 199.56924316 411.17019386 197.06481934 411.18322754 C190.99020808 411.20767319 184.91621466 411.20419739 178.84162807 411.18675169 C173.90109554 411.17315503 168.96068751 411.17138358 164.0201416 411.17789459 C162.96203872 411.17927369 162.96203872 411.17927369 161.88256001 411.18068065 C160.44917516 411.18259916 159.01579035 411.18454444 157.58240557 411.1865162 C144.16784679 411.20359131 130.75353474 411.18400743 117.33901644 411.151714 C105.84958541 411.12491039 94.36051822 411.1295675 82.87109375 411.15722656 C69.50181982 411.1893964 56.13276168 411.20194368 42.76345444 411.18355298 C41.33558912 411.18164185 39.90772378 411.17975563 38.4798584 411.17789459 C37.77747457 411.17696894 37.07509074 411.17604329 36.35142255 411.17508958 C31.42160656 411.16992717 26.49192842 411.17861396 21.56213379 411.19277191 C14.91673395 411.21143895 8.27191169 411.19799064 1.62654114 411.16340637 C-0.80660366 411.1554993 -3.23980644 411.15770594 -5.67292786 411.17098236 C-30.01750013 411.29153289 -30.01750013 411.29153289 -38.75 404.375 C-46.58656911 396.53986541 -48.98890717 388.44238494 -49.04296875 377.62109375 C-49.03432968 374.35096801 -48.98821531 371.08220243 -48.9375 367.8125 C-48.92242858 366.1191525 -48.90874451 364.42579206 -48.89648438 362.73242188 C-48.86366704 358.61295778 -48.81202063 354.4941237 -48.75 350.375 C-49.86971191 350.39594727 -50.98942383 350.41689453 -52.14306641 350.43847656 C-56.31383377 350.51110426 -60.48454568 350.55688211 -64.65576172 350.59472656 C-66.45794081 350.61479033 -68.26005521 350.64204813 -70.06201172 350.67675781 C-72.65869136 350.72550829 -75.25450729 350.74802082 -77.8515625 350.765625 C-79.05191635 350.79659271 -79.05191635 350.79659271 -80.27651978 350.82818604 C-85.56374375 350.83028695 -88.56835691 349.90530436 -92.75 346.375 C-94.34381802 343.40470278 -94.75 341.75110023 -94.75 338.375 C-95.42207489 338.37944122 -96.09414978 338.38388245 -96.78659058 338.38845825 C-103.76151408 338.43259634 -110.73639813 338.46282667 -117.71142578 338.48486328 C-120.31691091 338.49494064 -122.92238469 338.5086027 -125.52783203 338.52587891 C-129.26597899 338.55005102 -133.00397685 338.5614656 -136.7421875 338.5703125 C-138.49847977 338.58579636 -138.49847977 338.58579636 -140.29025269 338.60159302 C-141.911707 338.60181961 -141.911707 338.60181961 -143.56591797 338.60205078 C-144.52078094 338.606492 -145.47564392 338.61093323 -146.45944214 338.61550903 C-148.75 338.375 -148.75 338.375 -150.75 336.375 C-151.30743243 331.13513514 -151.30743243 331.13513514 -149.375 328.5 C-147.75 327.375 -147.75 327.375 -145.75 327.375 C-145.75 319.125 -145.75 310.875 -145.75 302.375 C-147.07 301.715 -148.39 301.055 -149.75 300.375 C-150.75 299.375 -150.75 299.375 -150.9375 296.4375 C-150.75 293.375 -150.75 293.375 -148.75 291.375 C-146.45944214 291.13449097 -146.45944214 291.13449097 -143.56591797 291.14794922 C-141.94446365 291.14817581 -141.94446365 291.14817581 -140.29025269 291.14840698 C-138.53396042 291.16389084 -138.53396042 291.16389084 -136.7421875 291.1796875 C-134.9485527 291.18393234 -134.9485527 291.18393234 -133.11868286 291.18826294 C-129.28735481 291.19948695 -125.45625778 291.22459569 -121.625 291.25 C-119.03255545 291.26002692 -116.44010725 291.26915327 -113.84765625 291.27734375 C-107.48169158 291.29943354 -101.11586229 291.33293294 -94.75 291.375 C-94.63527344 290.44300781 -94.52054688 289.51101563 -94.40234375 288.55078125 C-93.56723854 284.48526908 -91.85870355 283.02877132 -88.75 280.375 C-85.47056355 278.73528177 -81.84441377 279.25459926 -78.2421875 279.27734375 C-77.49718994 279.27835083 -76.75219238 279.27935791 -75.98461914 279.28039551 C-73.1980638 279.28563286 -70.41153038 279.29959411 -67.625 279.3125 C-61.39625 279.333125 -55.1675 279.35375 -48.75 279.375 C-48.75 266.505 -48.75 253.635 -48.75 240.375 C-61.36008772 240.53305125 -61.36008772 240.53305125 -73.96948242 240.73535156 C-75.55646691 240.74703973 -77.14346342 240.75723126 -78.73046875 240.765625 C-79.54696899 240.78608887 -80.36346924 240.80655273 -81.20471191 240.82763672 C-85.25086996 240.83010879 -87.23506987 240.70234934 -90.73168945 238.47949219 C-93.64749924 235.43917764 -94.75 233.60752724 -94.75 229.375 C-95.4073262 229.38166183 -96.0646524 229.38832367 -96.74189758 229.39518738 C-103.57096475 229.46145463 -110.39994088 229.5067648 -117.22924805 229.53979492 C-119.77941598 229.55490005 -122.32955786 229.57538533 -124.87963867 229.60131836 C-128.54091819 229.63762504 -132.20185485 229.65470915 -135.86328125 229.66796875 C-137.0071077 229.68345261 -138.15093414 229.69893646 -139.329422 229.71488953 C-140.92073189 229.71522942 -140.92073189 229.71522942 -142.54418945 229.71557617 C-143.94650566 229.72556892 -143.94650566 229.72556892 -145.37715149 229.73576355 C-147.75 229.375 -147.75 229.375 -149.55583191 228.04512024 C-151.38292745 225.48981059 -151.07397723 223.42038596 -150.75 220.375 C-149.76 219.385 -149.76 219.385 -148.75 218.375 C-147.76 218.375 -146.77 218.375 -145.75 218.375 C-145.75 209.795 -145.75 201.215 -145.75 192.375 C-147.07 192.045 -148.39 191.715 -149.75 191.375 C-150.75 190.375 -150.75 190.375 -151 187.5 C-150.75 184.375 -150.75 184.375 -149.55973816 182.70097351 C-147.11791957 180.91188223 -145.55638694 181.01295924 -142.54418945 181.03442383 C-140.95287956 181.03476372 -140.95287956 181.03476372 -139.329422 181.03511047 C-137.61368233 181.05833626 -137.61368233 181.05833626 -135.86328125 181.08203125 C-134.10506294 181.08839851 -134.10506294 181.08839851 -132.31132507 181.09489441 C-128.56148466 181.11170928 -124.81217843 181.14936768 -121.0625 181.1875 C-118.52279421 181.20254316 -115.98308001 181.2162322 -113.44335938 181.22851562 C-107.21205681 181.26162204 -100.98106656 181.31184972 -94.75 181.375 C-94.56244141 180.22257812 -94.56244141 180.22257812 -94.37109375 179.046875 C-93.58700849 175.67382899 -92.06950353 173.90536749 -89.75 171.375 C-86.41783752 169.70891876 -82.68526241 170.25482308 -79.0234375 170.27734375 C-78.25878174 170.27835083 -77.49412598 170.27935791 -76.70629883 170.28039551 C-73.84585066 170.28563339 -70.98542385 170.29959463 -68.125 170.3125 C-58.534375 170.3434375 -58.534375 170.3434375 -48.75 170.375 C-48.75 157.505 -48.75 144.635 -48.75 131.375 C-60.98595476 131.53294198 -60.98595476 131.53294198 -73.22119141 131.73535156 C-74.76463714 131.74704314 -76.30809529 131.75723386 -77.8515625 131.765625 C-78.64135498 131.78608887 -79.43114746 131.80655273 -80.24487305 131.82763672 C-85.54670715 131.8309618 -88.55560654 130.91606871 -92.75 127.375 C-94.34381802 124.40470278 -94.75 122.75110023 -94.75 119.375 C-95.75811234 119.38166183 -95.75811234 119.38166183 -96.78659058 119.38845825 C-103.76151408 119.43259634 -110.73639813 119.46282667 -117.71142578 119.48486328 C-120.31691091 119.49494064 -122.92238469 119.5086027 -125.52783203 119.52587891 C-129.26597899 119.55005102 -133.00397685 119.5614656 -136.7421875 119.5703125 C-138.49847977 119.58579636 -138.49847977 119.58579636 -140.29025269 119.60159302 C-141.911707 119.60181961 -141.911707 119.60181961 -143.56591797 119.60205078 C-144.52078094 119.606492 -145.47564392 119.61093323 -146.45944214 119.61550903 C-148.75 119.375 -148.75 119.375 -150.75 117.375 C-151.30743243 112.13513514 -151.30743243 112.13513514 -149.375 109.5 C-147.75 108.375 -147.75 108.375 -145.75 108.375 C-145.75 100.125 -145.75 91.875 -145.75 83.375 C-147.07 82.715 -148.39 82.055 -149.75 81.375 C-150.75 80.375 -150.75 80.375 -150.9375 77.4375 C-150.75 74.375 -150.75 74.375 -148.75 72.375 C-146.45944214 72.13449097 -146.45944214 72.13449097 -143.56591797 72.14794922 C-141.94446365 72.14817581 -141.94446365 72.14817581 -140.29025269 72.14840698 C-138.53396042 72.16389084 -138.53396042 72.16389084 -136.7421875 72.1796875 C-134.9485527 72.18393234 -134.9485527 72.18393234 -133.11868286 72.18826294 C-129.28735481 72.19948695 -125.45625778 72.22459569 -121.625 72.25 C-119.03255545 72.26002692 -116.44010725 72.26915327 -113.84765625 72.27734375 C-107.48169158 72.29943354 -101.11586229 72.33293294 -94.75 72.375 C-94.63527344 71.44300781 -94.52054688 70.51101562 -94.40234375 69.55078125 C-93.56723854 65.48526908 -91.85870355 64.02877132 -88.75 61.375 C-85.47108075 59.73554037 -81.84386466 60.25469822 -78.2421875 60.27734375 C-77.40156769 60.2787587 -76.56094788 60.28017365 -75.69485474 60.28163147 C-73.00486725 60.28723763 -70.31496241 60.29979114 -67.625 60.3125 C-65.80338662 60.31751421 -63.98177193 60.32207725 -62.16015625 60.32617188 C-57.69007223 60.33720906 -53.22005014 60.3544778 -48.75 60.375 C-48.7814209 58.82558716 -48.7814209 58.82558716 -48.81347656 57.24487305 C-48.88661829 53.36285613 -48.9320652 49.48089832 -48.96972656 45.59838867 C-48.989675 43.92738558 -49.01684401 42.25645076 -49.05175781 40.58569336 C-49.28084546 29.33007825 -49.21034739 19.05087407 -42.25 9.5625 C-30.42298341 -2.34818151 -15.56480412 -0.33308262 0 0 Z " fill="#020202" transform="translate(154.75,50.625)"/>
<path d="M0 0 C2.75329021 1.79562405 4.52627461 3.05254922 6 6 C6.40914306 11.70646897 5.27309986 16.01960657 3.4375 21.3125 C0.88781271 28.9989004 -1.32048584 36.72981119 -3.375 44.5625 C-5.66919708 53.25129611 -8.12700137 61.86159771 -10.8125 70.4375 C-14.17672853 81.18627299 -17.34342191 91.98357491 -20.4375 102.8125 C-20.65886627 103.5845578 -20.88023254 104.3566156 -21.10830688 105.15206909 C-21.74000696 107.35720327 -22.36866319 109.5631789 -22.99609375 111.76953125 C-23.18426666 112.42674164 -23.37243958 113.08395203 -23.5663147 113.76107788 C-24.52653301 117.15631548 -25.32930123 120.53735001 -26 124 C-25.24911102 124.00142502 -24.49822205 124.00285004 -23.72457886 124.00431824 C-16.63294365 124.0221802 -9.5419375 124.06388744 -2.45063591 124.13209057 C1.19477621 124.16631833 4.83977117 124.19146382 8.48535156 124.19555664 C12.00652381 124.19984892 15.52675572 124.22838585 19.04763412 124.27343178 C21.03826682 124.29265922 23.02908942 124.28705838 25.01980591 124.28105164 C35.12108088 124.44358298 35.12108088 124.44358298 38.79907227 127.33544922 C41.62586936 130.75770806 42.17529336 132.560814 42 137 C40.91386719 139.77485121 39.36995255 142.11309161 37.6875 144.5625 C37.22746582 145.26375 36.76743164 145.965 36.29345703 146.6875 C33.03660912 151.60668579 29.61978687 156.41297053 26.15039062 161.18408203 C22.17898814 166.66946941 18.42986994 172.29412633 14.6875 177.9375 C8.44495892 187.34649331 2.15111292 196.71806124 -4.1875 206.0625 C-4.6284903 206.71274139 -5.06948059 207.36298279 -5.52383423 208.03292847 C-7.78018114 211.35970737 -10.03714006 214.68607039 -12.29443359 218.01220703 C-16.26502612 223.86355956 -20.22998019 229.71873091 -24.19528198 235.57366943 C-25.49729211 237.49600197 -26.7995119 239.4181923 -28.10180664 241.34033203 C-33.06981387 248.67302951 -38.03550474 256.00728828 -42.99923706 263.34288025 C-46.52161054 268.54767673 -50.04802115 273.74972434 -53.57693481 278.9500885 C-55.94362982 282.43866078 -58.3024775 285.9323872 -60.65625 289.4296875 C-61.64557976 290.89079673 -62.63513498 292.35175334 -63.625 293.8125 C-64.04410645 294.44019287 -64.46321289 295.06788574 -64.89501953 295.71459961 C-66.78396297 298.48835544 -68.1594755 300.106317 -71 302 C-75.21178243 302.46797583 -77.28599114 302.46565795 -80.875 300.125 C-83.41411018 297.58588982 -83.9251933 296.68822161 -84.3125 293.125 C-84.26838388 289.65230392 -83.35699123 286.82876539 -82.19921875 283.56640625 C-79.59537354 275.96449489 -77.62320574 268.23095545 -75.64453125 260.44726562 C-73.95579771 253.98652261 -71.96655775 247.98994242 -69 242 C-67.35 242 -65.7 242 -64 242 C-63.77837671 240.37675914 -63.57310197 238.751279 -63.375 237.125 C-63.25898438 236.22007812 -63.14296875 235.31515625 -63.0234375 234.3828125 C-63.01570313 233.59648437 -63.00796875 232.81015625 -63 232 C-63.99 231.01 -63.99 231.01 -65 230 C-65.36962413 227.11693182 -65.4200394 225.60905713 -63.75 223.1875 C-62 222 -62 222 -58 222 C-57.75045995 220.56589632 -57.52607358 219.12739928 -57.3125 217.6875 C-57.18488281 216.88699219 -57.05726563 216.08648437 -56.92578125 215.26171875 C-56.95027344 214.51535156 -56.97476563 213.76898438 -57 213 C-57.76376953 212.29810547 -57.76376953 212.29810547 -58.54296875 211.58203125 C-59.26419922 210.79892578 -59.26419922 210.79892578 -60 210 C-59.52383778 205.80348925 -58.47897792 201.79551889 -57.37109375 197.7265625 C-57.05849609 196.57285156 -56.74589844 195.41914063 -56.42382812 194.23046875 C-56.09833984 193.04066406 -55.77285156 191.85085938 -55.4375 190.625 C-55.10814453 189.41199219 -54.77878906 188.19898438 -54.43945312 186.94921875 C-53.6288962 183.96542948 -52.81566295 180.98239673 -52 178 C-53.12633347 177.99786247 -53.12633347 177.99786247 -54.27542114 177.99568176 C-61.36705635 177.9778198 -68.4580625 177.93611256 -75.54936409 177.86790943 C-79.19477621 177.83368167 -82.83977117 177.80853618 -86.48535156 177.80444336 C-90.00652381 177.80015108 -93.52675572 177.77161415 -97.04763412 177.72656822 C-99.03826682 177.70734078 -101.02908942 177.71294162 -103.01980591 177.71894836 C-113.11899754 177.55645054 -113.11899754 177.55645054 -116.80810547 174.58081055 C-119.03824832 171.95496514 -119.85840782 170.79907238 -120.44921875 167.46484375 C-119.7660112 162.19523417 -116.8758489 158.80920348 -113.8125 154.5625 C-112.42202559 152.58023431 -111.03277105 150.59711255 -109.64453125 148.61328125 C-108.89252441 147.54674316 -108.14051758 146.48020508 -107.36572266 145.38134766 C-103.60928285 140.03298114 -99.96579696 134.60747598 -96.30990601 129.19015503 C-94.53120085 126.55564253 -92.74855663 123.92380544 -90.96601868 121.29188538 C-83.836644 110.76481466 -76.71527758 100.23231733 -69.59228516 89.70092773 C-62.33227472 78.96731396 -55.068433 68.2363011 -47.79760742 57.51000977 C-43.79076099 51.59851128 -39.78609537 45.68558323 -35.79046631 39.76649475 C-33.91595211 36.98988823 -32.04007885 34.21420112 -30.16412354 31.43856812 C-29.28418012 30.13581875 -28.40487438 28.83263836 -27.52630615 27.52896118 C-22.91968341 20.69373758 -18.26736124 13.89278533 -13.51171875 7.16015625 C-13.08937454 6.55642685 -12.66703033 5.95269745 -12.23188782 5.33067322 C-8.50351174 0.09089763 -6.48391972 -0.54948472 0 0 Z " fill="#ECBD1F" transform="translate(295,105)"/>
<path d="M0 0 C2.75329021 1.79562405 4.52627461 3.05254922 6 6 C6.40914306 11.70646897 5.27309986 16.01960657 3.4375 21.3125 C0.88781271 28.9989004 -1.32048584 36.72981119 -3.375 44.5625 C-5.66919708 53.25129611 -8.12700137 61.86159771 -10.8125 70.4375 C-14.17672853 81.18627299 -17.34342191 91.98357491 -20.4375 102.8125 C-20.65886627 103.5845578 -20.88023254 104.3566156 -21.10830688 105.15206909 C-21.74000696 107.35720327 -22.36866319 109.5631789 -22.99609375 111.76953125 C-23.18426666 112.42674164 -23.37243958 113.08395203 -23.5663147 113.76107788 C-24.52653301 117.15631548 -25.32930123 120.53735001 -26 124 C-25.24911102 124.00142502 -24.49822205 124.00285004 -23.72457886 124.00431824 C-16.63294365 124.0221802 -9.5419375 124.06388744 -2.45063591 124.13209057 C1.19477621 124.16631833 4.83977117 124.19146382 8.48535156 124.19555664 C12.00652381 124.19984892 15.52675572 124.22838585 19.04763412 124.27343178 C21.03826682 124.29265922 23.02908942 124.28705838 25.01980591 124.28105164 C35.12108088 124.44358298 35.12108088 124.44358298 38.79907227 127.33544922 C41.62586936 130.75770806 42.17529336 132.560814 42 137 C40.91386719 139.77485121 39.36995255 142.11309161 37.6875 144.5625 C37.22746582 145.26375 36.76743164 145.965 36.29345703 146.6875 C33.03660912 151.60668579 29.61978687 156.41297053 26.15039062 161.18408203 C22.17898814 166.66946941 18.42986994 172.29412633 14.6875 177.9375 C8.44495892 187.34649331 2.15111292 196.71806124 -4.1875 206.0625 C-4.6284903 206.71274139 -5.06948059 207.36298279 -5.52383423 208.03292847 C-7.78018114 211.35970737 -10.03714006 214.68607039 -12.29443359 218.01220703 C-16.26502612 223.86355956 -20.22998019 229.71873091 -24.19528198 235.57366943 C-25.49729211 237.49600197 -26.7995119 239.4181923 -28.10180664 241.34033203 C-33.06981387 248.67302951 -38.03550474 256.00728828 -42.99923706 263.34288025 C-46.52161054 268.54767673 -50.04802115 273.74972434 -53.57693481 278.9500885 C-55.94362982 282.43866078 -58.3024775 285.9323872 -60.65625 289.4296875 C-61.64557976 290.89079673 -62.63513498 292.35175334 -63.625 293.8125 C-64.04410645 294.44019287 -64.46321289 295.06788574 -64.89501953 295.71459961 C-66.78396297 298.48835544 -68.1594755 300.106317 -71 302 C-75.21178243 302.46797583 -77.28599114 302.46565795 -80.875 300.125 C-83.41411018 297.58588982 -83.9251933 296.68822161 -84.3125 293.125 C-84.26838388 289.65230392 -83.35699123 286.82876539 -82.19921875 283.56640625 C-79.59537354 275.96449489 -77.62320574 268.23095545 -75.64453125 260.44726562 C-73.95579771 253.98652261 -71.96655775 247.98994242 -69 242 C-66.125 241.875 -66.125 241.875 -63 242 C-61 244 -61 244 -60.90258789 245.97631836 C-61.62758522 252.80503732 -63.31644475 259.043819 -65.4375 265.5625 C-67.60721584 272.34006598 -69.56764248 279.02535461 -71 286 C-70.59330078 285.35168213 -70.18660156 284.70336426 -69.76757812 284.03540039 C-65.52696176 277.31850735 -61.14578745 270.71181488 -56.66876221 264.15048218 C-55.02343059 261.73902182 -53.38192087 259.32496757 -51.74014282 256.91108704 C-50.85992287 255.61693352 -49.97952887 254.32289836 -49.09896851 253.02897644 C-44.41144205 246.13957887 -39.74312812 239.23722384 -35.07611084 232.33392334 C-32.63972815 228.73012649 -30.20268376 225.12677719 -27.765625 221.5234375 C-27.28354584 220.81063629 -26.80146667 220.09783508 -26.30477905 219.36343384 C-20.4730315 210.74132599 -14.63507014 202.12342879 -8.79589844 193.50634766 C-7.93684758 192.2386077 -7.0777981 190.97086682 -6.21875 189.703125 C-5.58154022 188.76277908 -5.58154022 188.76277908 -4.93145752 187.80343628 C-2.22508372 183.809197 0.47983375 179.81397525 3.18374634 175.81806946 C5.04919045 173.06132799 6.91505916 170.30487402 8.78094482 167.5484314 C9.65358891 166.25904141 10.52603689 164.96951868 11.39825439 163.67984009 C17.88563654 154.08768846 24.42921094 144.53520125 31 135 C30.15253204 135.00666183 29.30506409 135.01332367 28.43191528 135.02018738 C20.45641866 135.08022763 12.48099763 135.1259382 4.50532722 135.15543652 C0.40465807 135.17111161 -3.6958248 135.1923831 -7.79638672 135.22631836 C-11.75156619 135.25884669 -15.70656617 135.27683912 -19.66186905 135.28463173 C-21.17301384 135.29018704 -22.68414849 135.30103491 -24.19521713 135.31719017 C-26.30728352 135.33887859 -28.41860242 135.34197066 -30.53076172 135.34057617 C-31.73433319 135.34723801 -32.93790466 135.35389984 -34.177948 135.36076355 C-35.10922516 135.24171158 -36.04050232 135.12265961 -37 135 C-39.62611029 131.06083457 -38.90880136 129.56936597 -38 125 C-37.36031484 122.46840779 -36.69099146 119.97317262 -35.9609375 117.46875 C-35.7593956 116.76427231 -35.5578537 116.05979462 -35.35020447 115.33396912 C-34.69651763 113.05459288 -34.03593526 110.77728395 -33.375 108.5 C-32.91798281 106.91225696 -32.46119754 105.32444716 -32.00463867 103.73657227 C-29.2563978 94.20445132 -26.40900304 84.70687266 -23.47412109 75.23046875 C-20.98574172 67.12236503 -18.804851 58.94132707 -16.63964844 50.74194336 C-14.34256628 42.10577293 -11.80332068 33.55892319 -9.1328125 25.03125 C-8.71322266 23.68546875 -8.71322266 23.68546875 -8.28515625 22.3125 C-8.03644775 21.52488281 -7.78773926 20.73726562 -7.53149414 19.92578125 C-6.91131915 18.01164268 -6.91131915 18.01164268 -7 16 C-7.41685059 16.66354492 -7.83370117 17.32708984 -8.26318359 18.01074219 C-12.58514443 24.851549 -17.05514375 31.57287742 -21.625 38.25 C-22.74492205 39.89178544 -23.86483334 41.53357827 -24.98434448 43.17564392 C-25.77121712 44.32978595 -26.55826796 45.4838065 -27.3454895 46.63771057 C-31.9538494 53.39401307 -36.53965417 60.16556703 -41.125 66.9375 C-42.00927399 68.24316633 -42.89355136 69.54883038 -43.77783203 70.85449219 C-49.87207206 79.8536639 -55.96209324 88.85568863 -62.05133057 97.85824585 C-65.88952346 103.53273955 -69.72800705 109.20703659 -73.56665039 114.88122559 C-74.52484731 116.29763029 -75.48301774 117.71405291 -76.44116211 119.13049316 C-96.88492236 149.35238226 -96.88492236 149.35238226 -105.13671875 161.296875 C-106.43986956 163.18739987 -107.72632738 165.08949107 -109 167 C-107.72879807 166.99000725 -107.72879807 166.99000725 -106.43191528 166.97981262 C-98.45641866 166.91977237 -90.48099763 166.8740618 -82.50532722 166.84456348 C-78.40465807 166.82888839 -74.3041752 166.8076169 -70.20361328 166.77368164 C-66.24843381 166.74115331 -62.29343383 166.72316088 -58.33813095 166.71536827 C-56.82698616 166.70981296 -55.31585151 166.69896509 -53.80478287 166.68280983 C-51.69271648 166.66112141 -49.58139758 166.65802934 -47.46923828 166.65942383 C-46.26566681 166.65276199 -45.06209534 166.64610016 -43.822052 166.63923645 C-42.89077484 166.75828842 -41.95949768 166.87734039 -41 167 C-39 170 -39 170 -39.19921875 172.5625 C-40.25369467 177.08903079 -41.50743969 181.54000753 -42.8125 186 C-43.35715061 187.87098324 -43.90142025 189.74207742 -44.4453125 191.61328125 C-44.71118164 192.52674316 -44.97705078 193.44020508 -45.25097656 194.38134766 C-45.92017561 196.72092684 -46.55943227 199.06503218 -47.1796875 201.41796875 C-47.51226562 202.66191406 -47.84484375 203.90585937 -48.1875 205.1875 C-48.46980469 206.27417969 -48.75210938 207.36085938 -49.04296875 208.48046875 C-50 211 -50 211 -53 213 C-56.32240324 212.6758631 -57.60776303 212.39223697 -60 210 C-59.58011533 205.7996524 -58.47819088 201.79262833 -57.37109375 197.7265625 C-57.05849609 196.57285156 -56.74589844 195.41914063 -56.42382812 194.23046875 C-56.09833984 193.04066406 -55.77285156 191.85085938 -55.4375 190.625 C-55.10814453 189.41199219 -54.77878906 188.19898438 -54.43945312 186.94921875 C-53.6288962 183.96542948 -52.81566295 180.98239673 -52 178 C-53.12633347 177.99786247 -53.12633347 177.99786247 -54.27542114 177.99568176 C-61.36705635 177.9778198 -68.4580625 177.93611256 -75.54936409 177.86790943 C-79.19477621 177.83368167 -82.83977117 177.80853618 -86.48535156 177.80444336 C-90.00652381 177.80015108 -93.52675572 177.77161415 -97.04763412 177.72656822 C-99.03826682 177.70734078 -101.02908942 177.71294162 -103.01980591 177.71894836 C-113.11899754 177.55645054 -113.11899754 177.55645054 -116.80810547 174.58081055 C-119.03824832 171.95496514 -119.85840782 170.79907238 -120.44921875 167.46484375 C-119.7660112 162.19523417 -116.8758489 158.80920348 -113.8125 154.5625 C-112.42202559 152.58023431 -111.03277105 150.59711255 -109.64453125 148.61328125 C-108.89252441 147.54674316 -108.14051758 146.48020508 -107.36572266 145.38134766 C-103.60928285 140.03298114 -99.96579696 134.60747598 -96.30990601 129.19015503 C-94.53120085 126.55564253 -92.74855663 123.92380544 -90.96601868 121.29188538 C-83.836644 110.76481466 -76.71527758 100.23231733 -69.59228516 89.70092773 C-62.33227472 78.96731396 -55.068433 68.2363011 -47.79760742 57.51000977 C-43.79076099 51.59851128 -39.78609537 45.68558323 -35.79046631 39.76649475 C-33.91595211 36.98988823 -32.04007885 34.21420112 -30.16412354 31.43856812 C-29.28418012 30.13581875 -28.40487438 28.83263836 -27.52630615 27.52896118 C-22.91968341 20.69373758 -18.26736124 13.89278533 -13.51171875 7.16015625 C-13.08937454 6.55642685 -12.66703033 5.95269745 -12.23188782 5.33067322 C-8.50351174 0.09089763 -6.48391972 -0.54948472 0 0 Z " fill="#050503" transform="translate(295,105)"/>
<path d="M0 0 C2.4375 0.75 2.4375 0.75 4.4375 2.75 C4.689349 5.27762741 4.689349 5.27762741 4.69197559 8.54749966 C4.69780779 9.78972048 4.70363998 11.03194131 4.70964891 12.31180519 C4.70601515 13.70302341 4.70219074 15.09424114 4.69819641 16.48545837 C4.70121426 17.95347732 4.70510188 19.4214947 4.70978898 20.88950926 C4.72012511 24.93818585 4.71787297 28.98677445 4.71360838 33.03545845 C4.71115129 37.39613113 4.72014261 41.75678207 4.72764587 46.1174469 C4.7404233 54.66606585 4.74218279 63.21465343 4.73984561 71.76328032 C4.73806569 78.70876823 4.73980507 85.65424659 4.74407005 92.59973335 C4.74466524 93.58662481 4.74526043 94.57351626 4.74587366 95.59031351 C4.74708535 97.59490525 4.74829949 99.59949699 4.74951603 101.60408873 C4.76040329 120.42143825 4.75822347 139.23876987 4.75213119 158.0561204 C4.7469609 175.28728213 4.75821832 192.51838734 4.77722941 209.74953788 C4.79658092 227.424145 4.80486854 245.09872535 4.80110615 262.77334315 C4.79919003 272.70364494 4.80172157 282.63389863 4.81582069 292.56419182 C4.82770129 301.01780943 4.82917689 309.47134932 4.81703053 317.92496794 C4.81111839 322.24124698 4.81010639 326.55738363 4.82203293 330.87365341 C4.83281304 334.8207744 4.82988331 338.76763277 4.81577124 342.71474106 C4.81310242 344.14675732 4.8155586 345.57879365 4.82350711 347.01079034 C4.8335252 348.94939105 4.82345299 350.88806509 4.81223011 352.8266592 C4.81228513 353.9058794 4.81234014 354.98509959 4.81239682 356.09702343 C4.4375 358.75 4.4375 358.75 3.14080358 360.59678817 C0.15417837 362.61886549 -3.35948951 362.15621965 -6.84425354 362.1242218 C-7.69886813 362.12819621 -8.55348271 362.13217061 -9.43399471 362.13626546 C-12.30845871 362.14591893 -15.18243428 362.13405201 -18.05688477 362.12231445 C-20.11317123 362.12474139 -22.16945651 362.12845976 -24.22573853 362.13337708 C-29.81855471 362.14280248 -35.41119641 362.13334707 -41.00399899 362.12004495 C-46.84738784 362.10875239 -52.69076781 362.11283621 -58.53416443 362.11479187 C-68.34726828 362.11567547 -78.16030314 362.10458004 -87.97338867 362.08618164 C-99.33248044 362.06500714 -110.69147114 362.061505 -122.05057865 362.0677436 C-132.96157328 362.07343016 -143.87253218 362.06780035 -154.78352165 362.05657005 C-159.43461706 362.05191527 -164.08569068 362.051054 -168.7367878 362.0531559 C-174.20898858 362.05503391 -179.6810859 362.04697255 -185.15326309 362.0310955 C-187.16650527 362.02683834 -189.17975793 362.02601165 -191.1930027 362.02878571 C-193.93136027 362.03198755 -196.66940475 362.02297651 -199.4077301 362.01069641 C-200.21306625 362.01447573 -201.01840241 362.01825506 -201.84814268 362.02214891 C-207.33417095 361.97832905 -207.33417095 361.97832905 -209.5625 359.75 C-209.90619179 357.06920402 -209.99020476 355.43663734 -208.54243755 353.11239147 C-205.44725965 350.98260512 -202.19669592 351.34826721 -198.57099915 351.38923645 C-197.3359632 351.38539154 -197.3359632 351.38539154 -196.07597703 351.38146895 C-193.30737165 351.37651373 -190.53930738 351.39305248 -187.77075195 351.40942383 C-185.79003919 351.41026973 -183.80932549 351.40979569 -181.82861328 351.40809631 C-176.44251714 351.40723348 -171.05662032 351.4249059 -165.67057061 351.44581819 C-160.04513569 351.46453697 -154.41969649 351.46633163 -148.79423523 351.46989441 C-138.13762638 351.479229 -127.48110955 351.50386192 -116.82454127 351.53394288 C-104.69412293 351.56744291 -92.56370027 351.58396183 -80.43324721 351.59902918 C-55.4762804 351.63041023 -30.51939535 351.68319819 -5.5625 351.75 C-5.56363916 351.01017006 -5.56477832 350.27034012 -5.565952 349.50809109 C-5.63302369 305.7015179 -5.68452799 261.89495027 -5.71569599 218.08833606 C-5.7194483 212.83346744 -5.72333125 207.57859893 -5.72729492 202.32373047 C-5.72808185 201.27753992 -5.72886878 200.23134937 -5.72967956 199.15345608 C-5.74274878 182.19309218 -5.76641093 165.23275865 -5.79395839 148.27241279 C-5.82197048 130.88151419 -5.83866735 113.49063154 -5.84476548 96.0997113 C-5.84889066 85.36057966 -5.86193957 74.62153386 -5.8862494 63.88242863 C-5.90205485 56.52746807 -5.90691219 49.17255216 -5.90300413 41.81757583 C-5.90107445 37.56825997 -5.90412103 33.31909454 -5.92011642 29.06980515 C-5.93463391 25.18496555 -5.93550602 21.30037863 -5.92519668 17.41552781 C-5.92392111 16.00499852 -5.92779566 14.59445394 -5.93714955 13.18395509 C-5.94906909 11.27673155 -5.94095716 9.36941342 -5.93164349 7.46217537 C-5.93278265 6.39971789 -5.93392181 5.3372604 -5.93509549 4.24260724 C-5.81213898 3.42004685 -5.68918247 2.59748646 -5.5625 1.75 C-2.5625 -0.25 -2.5625 -0.25 0 0 Z " fill="#EDEDED" transform="translate(377.5625,75.25)"/>
<path d="M0 0 C11.88 0 23.76 0 36 0 C36 16.83 36 33.66 36 51 C24.12 51 12.24 51 0 51 C0 34.17 0 17.34 0 0 Z " fill="#787776" transform="translate(405,340)"/>
<path d="M0 0 C11.88 0 23.76 0 36 0 C36 16.83 36 33.66 36 51 C24.12 51 12.24 51 0 51 C0 34.17 0 17.34 0 0 Z " fill="#787776" transform="translate(405,121)"/>
<path d="M0 0 C11.88 0 23.76 0 36 0 C36 16.5 36 33 36 50 C24.12 50 12.24 50 0 50 C0 33.5 0 17 0 0 Z " fill="#7A7978" transform="translate(405,231)"/>
<path d="M0 0 C11.88 0 23.76 0 36 0 C36 16.5 36 33 36 50 C24.12 50 12.24 50 0 50 C0 33.5 0 17 0 0 Z " fill="#7A7978" transform="translate(71,231)"/>
<path d="M0 0 C11.55 0 23.1 0 35 0 C35 16.17 35 32.34 35 49 C23.45 49 11.9 49 0 49 C0 32.83 0 16.66 0 0 Z " fill="#7C7B7A" transform="translate(71,341)"/>
<path d="M0 0 C11.55 0 23.1 0 35 0 C35 16.17 35 32.34 35 49 C23.45 49 11.9 49 0 49 C0 32.83 0 16.66 0 0 Z " fill="#7C7B7A" transform="translate(71,122)"/>
<path d="M0 0 C17.16 0 34.32 0 52 0 C52 8.91 52 17.82 52 27 C34.84 27 17.68 27 0 27 C0 18.09 0 9.18 0 0 Z " fill="#6FBCE2" transform="translate(451,352)"/>
<path d="M0 0 C17.16 0 34.32 0 52 0 C52 8.91 52 17.82 52 27 C34.84 27 17.68 27 0 27 C0 18.09 0 9.18 0 0 Z " fill="#F55A3B" transform="translate(9,352)"/>
<path d="M0 0 C17.16 0 34.32 0 52 0 C52 8.91 52 17.82 52 27 C34.84 27 17.68 27 0 27 C0 18.09 0 9.18 0 0 Z " fill="#6FBCE2" transform="translate(451,133)"/>
<path d="M0 0 C17.16 0 34.32 0 52 0 C52 8.91 52 17.82 52 27 C34.84 27 17.68 27 0 27 C0 18.09 0 9.18 0 0 Z " fill="#F55A3B" transform="translate(9,133)"/>
<path d="M0 0 C17.16 0 34.32 0 52 0 C52 8.58 52 17.16 52 26 C34.84 26 17.68 26 0 26 C0 17.42 0 8.84 0 0 Z " fill="#71C0E6" transform="translate(451,243)"/>
<path d="M0 0 C17.16 0 34.32 0 52 0 C52 8.58 52 17.16 52 26 C34.84 26 17.68 26 0 26 C0 17.42 0 8.84 0 0 Z " fill="#FA5C3C" transform="translate(9,243)"/>
<path d="M0 0 C1.45116211 -0.0309375 1.45116211 -0.0309375 2.93164062 -0.0625 C4.32479492 -0.07023437 4.32479492 -0.07023437 5.74609375 -0.078125 C7.02311157 -0.09214355 7.02311157 -0.09214355 8.32592773 -0.10644531 C10.5625 0.25 10.5625 0.25 12.37524414 1.57519531 C13.5625 3.25 13.5625 3.25 13.375 6.375 C13.106875 7.32375 12.83875 8.2725 12.5625 9.25 C8.67558052 11.19345974 3.83735419 10.43480803 -0.4375 10.4375 C-1.46101562 10.44974609 -2.48453125 10.46199219 -3.5390625 10.47460938 C-5.00472656 10.47750977 -5.00472656 10.47750977 -6.5 10.48046875 C-7.39847656 10.48457764 -8.29695312 10.48868652 -9.22265625 10.49291992 C-11.4375 10.25 -11.4375 10.25 -13.4375 8.25 C-13.1875 4.6875 -13.1875 4.6875 -12.4375 1.25 C-8.67595432 -0.63077284 -4.13926726 0.02197355 0 0 Z " fill="#ECECEC" transform="translate(144.4375,426.75)"/>
<path d="M0 0 C1.670625 0.061875 1.670625 0.061875 3.375 0.125 C5.52884615 4.43269231 5.52884615 4.43269231 4.875 7.375 C3.375 9.125 3.375 9.125 0.4375 10.0625 C-2.625 10.125 -2.625 10.125 -4.5 9 C-5.9818671 6.53022151 -5.9883156 4.95886167 -5.625 2.125 C-3.625 0.125 -3.625 0.125 0 0 Z " fill="#040404" transform="translate(196.625,50.875)"/>
<path d="M0 0 C2.4375 0.8125 2.4375 0.8125 4.4375 2.8125 C4.0625 5.9375 4.0625 5.9375 3.4375 8.8125 C0.0625 9.4375 0.0625 9.4375 -3.5625 9.8125 C-5.5625 7.8125 -5.5625 7.8125 -5.875 5.375 C-5.5625 2.8125 -5.5625 2.8125 -4.375 0.9375 C-2.5625 -0.1875 -2.5625 -0.1875 0 0 Z " fill="#0C0A05" transform="translate(235.5625,327.1875)"/>
</svg>
