<?xml version="1.0" encoding="UTF-8"?>
<svg version="1.1" xmlns="http://www.w3.org/2000/svg" width="512" height="512">
<path d="M0 0 C107.91 0 215.82 0 327 0 C327 48.18 327 96.36 327 146 C369.9 146 412.8 146 457 146 C457 257.87 457 369.74 457 485 C464.26 485 471.52 485 479 485 C483.50369303 490.62961629 483.50369303 490.62961629 483.4609375 494.06640625 C483.45707031 494.79923828 483.45320313 495.53207031 483.44921875 496.28710938 C483.42472656 497.03798828 483.40023438 497.78886719 483.375 498.5625 C483.37306641 499.69461914 483.37306641 499.69461914 483.37109375 500.84960938 C483.26006912 507.85032921 483.26006912 507.85032921 481 511 C477.86478501 512.56760749 474.52038581 512.13920361 471.07853794 512.13142776 C469.83040481 512.13450672 469.83040481 512.13450672 468.55705687 512.13764787 C465.73850863 512.14335118 462.92000873 512.14185654 460.10145569 512.14044189 C458.0724653 512.14302362 456.04347542 512.14603623 454.01448625 512.1494453 C448.41521994 512.15754107 442.81596643 512.15930629 437.21669495 512.16004276 C431.18730137 512.16188882 425.1579145 512.16943381 419.12852478 512.17617798 C405.24631606 512.19048908 391.36411046 512.19628988 377.48189621 512.20086992 C370.62590528 512.2032041 363.76991518 512.20680652 356.9139249 512.2105653 C333.45750794 512.22340125 310.00109145 512.23412108 286.54467106 512.2375679 C285.07170156 512.23778954 283.59873205 512.23801132 282.12576255 512.23823325 C280.64918494 512.2384539 279.17260733 512.23867438 277.69602972 512.2388947 C274.73363244 512.23933726 271.77123517 512.23978437 268.80883789 512.24023438 C268.07433334 512.24034377 267.33982878 512.24045316 266.58306651 512.24056586 C242.75449769 512.24419834 218.92595927 512.26012535 195.09740209 512.28342474 C169.9199793 512.30799816 144.74257389 512.32173955 119.56513876 512.32293582 C116.80352652 512.32310728 114.04191428 512.32332271 111.28030205 512.32357025 C110.2602799 512.3236539 110.2602799 512.3236539 109.21965124 512.32373925 C98.25760716 512.32489178 87.29559416 512.33593078 76.33356059 512.35045731 C65.32434634 512.36479458 54.31516371 512.36782162 43.30594046 512.36001733 C37.33705525 512.35609507 31.36827508 512.35711679 25.39940262 512.37107468 C19.94236647 512.38371954 14.48551529 512.38269977 9.02847975 512.37048396 C7.04734005 512.36851052 5.06618766 512.37168037 3.08506585 512.38032833 C0.40558233 512.39129035 -2.27323316 512.38402714 -4.9526968 512.3719368 C-5.73358202 512.37953199 -6.51446724 512.38712718 -7.31901565 512.39495254 C-12.5229284 512.34376627 -12.5229284 512.34376627 -14.94045645 510.60175395 C-17.46953533 506.77844524 -17.25670684 503.13979442 -17.3125 498.6875 C-17.34150391 497.92759766 -17.37050781 497.16769531 -17.40039062 496.38476562 C-17.40876953 495.64291016 -17.41714844 494.90105469 -17.42578125 494.13671875 C-17.44036377 493.46342529 -17.45494629 492.79013184 -17.4699707 492.09643555 C-17 490 -17 490 -13 485 C-8.71 485 -4.42 485 0 485 C0 324.95 0 164.9 0 0 Z " fill="#63798A" transform="translate(23,0)"/>
<path d="M0 0 C92.4 0 184.8 0 280 0 C280 111.87 280 223.74 280 339 C249.31 339 218.62 339 187 339 C187 308.64 187 278.28 187 247 C190.63 247 194.26 247 198 247 C198 241.72 198 236.44 198 231 C159.72 231 121.44 231 82 231 C82 235.95 82 240.9 82 246 C85.96 246 89.92 246 94 246 C94 276.69 94 307.38 94 339 C62.98 339 31.96 339 0 339 C0 227.13 0 115.26 0 0 Z " fill="#D3D5DA" transform="translate(200,146)"/>
<path d="M0 0 C38.28 0 76.56 0 116 0 C116 5.28 116 10.56 116 16 C112.37 16 108.74 16 105 16 C105 46.36 105 76.72 105 108 C113.25515625 107.94199219 121.5103125 107.88398438 130.015625 107.82421875 C135.90224788 107.795431 141.78881802 107.76979839 147.67546654 107.74873066 C155.30544932 107.72100248 162.93515939 107.68577764 170.56494141 107.62280273 C177.24985417 107.56765291 183.93441075 107.53859688 190.61956024 107.52561378 C193.172937 107.51635888 195.7262972 107.4982867 198.27954865 107.47134972 C201.84980983 107.43517348 205.41884353 107.43005013 208.98925781 107.43237305 C210.58068855 107.40540848 210.58068855 107.40540848 212.20426941 107.37789917 C219.36880534 107.42850324 219.36880534 107.42850324 222.6578064 110.40643311 C223.95191266 112.90707917 224.49546978 114.29062038 224.4609375 117.06640625 C224.45707031 117.79923828 224.45320313 118.53207031 224.44921875 119.28710938 C224.42472656 120.03798828 224.40023438 120.78886719 224.375 121.5625 C224.37306641 122.69461914 224.37306641 122.69461914 224.37109375 123.84960938 C224.26006912 130.85032921 224.26006912 130.85032921 222 134 C218.86478501 135.56760749 215.52038581 135.13920361 212.07853794 135.13142776 C210.83040481 135.13450672 210.83040481 135.13450672 209.55705687 135.13764787 C206.73850863 135.14335118 203.92000873 135.14185654 201.10145569 135.14044189 C199.0724653 135.14302362 197.04347542 135.14603623 195.01448625 135.1494453 C189.41521994 135.15754107 183.81596643 135.15930629 178.21669495 135.16004276 C172.18730137 135.16188882 166.1579145 135.16943381 160.12852478 135.17617798 C146.24631606 135.19048908 132.36411046 135.19628988 118.48189621 135.20086992 C111.62590528 135.2032041 104.76991518 135.20680652 97.9139249 135.2105653 C74.45750794 135.22340125 51.00109145 135.23412108 27.54467106 135.2375679 C26.07170156 135.23778954 24.59873205 135.23801132 23.12576255 135.23823325 C21.64918494 135.2384539 20.17260733 135.23867438 18.69602972 135.2388947 C15.73363244 135.23933726 12.77123517 135.23978437 9.80883789 135.24023438 C9.07433334 135.24034377 8.33982878 135.24045316 7.58306651 135.24056586 C-16.24550231 135.24419834 -40.07404073 135.26012535 -63.90259791 135.28342474 C-89.0800207 135.30799816 -114.25742611 135.32173955 -139.43486124 135.32293582 C-142.19647348 135.32310728 -144.95808572 135.32332271 -147.71969795 135.32357025 C-148.7397201 135.3236539 -148.7397201 135.3236539 -149.78034876 135.32373925 C-160.74239284 135.32489178 -171.70440584 135.33593078 -182.66643941 135.35045731 C-193.67565366 135.36479458 -204.68483629 135.36782162 -215.69405954 135.36001733 C-221.66294475 135.35609507 -227.63172492 135.35711679 -233.60059738 135.37107468 C-239.05763353 135.38371954 -244.51448471 135.38269977 -249.97152025 135.37048396 C-251.95265995 135.36851052 -253.93381234 135.37168037 -255.91493415 135.38032833 C-258.59441767 135.39129035 -261.27323316 135.38402714 -263.9526968 135.3719368 C-264.73358202 135.37953199 -265.51446724 135.38712718 -266.31901565 135.39495254 C-271.5229284 135.34376627 -271.5229284 135.34376627 -273.94045645 133.60175395 C-276.46953533 129.77844524 -276.25670684 126.13979442 -276.3125 121.6875 C-276.34150391 120.92759766 -276.37050781 120.16769531 -276.40039062 119.38476562 C-276.40876953 118.64291016 -276.41714844 117.90105469 -276.42578125 117.13671875 C-276.44036377 116.46342529 -276.45494629 115.79013184 -276.4699707 115.09643555 C-275.70590494 111.68810685 -274.62449341 110.36151233 -272 108 C-268.25815598 107.23169438 -264.54492504 107.34800766 -260.73724365 107.39872742 C-259.57409708 107.39445529 -258.41095051 107.39018317 -257.21255708 107.38578159 C-253.9831746 107.37896304 -250.75479255 107.39461195 -247.52552843 107.41967189 C-244.04363047 107.44124524 -240.56177997 107.4339587 -237.07983398 107.43016052 C-231.0469225 107.42753754 -225.0142812 107.44323748 -218.98143768 107.47134972 C-210.25898467 107.51196873 -201.53666243 107.52500527 -192.81412509 107.53128967 C-178.66279317 107.54223539 -164.51160527 107.57551705 -150.36035156 107.62280273 C-136.61296307 107.66869118 -122.86561367 107.70408657 -109.11816406 107.7253418 C-108.27090821 107.72665541 -107.42365236 107.72796903 -106.55072209 107.72932246 C-102.30032864 107.7358476 -98.04993491 107.74216615 -93.799541 107.74838197 C-58.53289941 107.80022365 -23.2665242 107.8924034 12 108 C12 77.31 12 46.62 12 15 C8.04 15 4.08 15 0 15 C0 10.05 0 5.1 0 0 Z " fill="#3A556A" transform="translate(282,377)"/>
<path d="M0 0 C38.28 0 76.56 0 116 0 C116 5.28 116 10.56 116 16 C112.37 16 108.74 16 105 16 C105 46.36 105 76.72 105 108 C135.69 108 166.38 108 198 108 C198 108.33 198 108.66 198 109 C105.6 109 13.2 109 -82 109 C-82 108.67 -82 108.34 -82 108 C-50.98 108 -19.96 108 12 108 C12 77.31 12 46.62 12 15 C8.04 15 4.08 15 0 15 C0 10.05 0 5.1 0 0 Z " fill="#64798A" transform="translate(282,377)"/>
<path d="M0 0 C13.86 0 27.72 0 42 0 C42 23.1 42 46.2 42 70 C28.14 70 14.28 70 0 70 C0 46.9 0 23.8 0 0 Z " fill="#3FA69A" transform="translate(60,365)"/>
<path d="M0 0 C13.86 0 27.72 0 42 0 C42 23.1 42 46.2 42 70 C28.14 70 14.28 70 0 70 C0 46.9 0 23.8 0 0 Z " fill="#3EA69A" transform="translate(130,365)"/>
<path d="M0 0 C13.86 0 27.72 0 42 0 C42 23.1 42 46.2 42 70 C28.14 70 14.28 70 0 70 C0 46.9 0 23.8 0 0 Z " fill="#3EA59A" transform="translate(60,256)"/>
<path d="M0 0 C13.86 0 27.72 0 42 0 C42 23.1 42 46.2 42 70 C28.14 70 14.28 70 0 70 C0 46.9 0 23.8 0 0 Z " fill="#3FA59A" transform="translate(60,37)"/>
<path d="M0 0 C13.86 0 27.72 0 42 0 C42 23.1 42 46.2 42 70 C28.14 70 14.28 70 0 70 C0 46.9 0 23.8 0 0 Z " fill="#3FA59A" transform="translate(271,37)"/>
<path d="M0 0 C13.86 0 27.72 0 42 0 C42 23.1 42 46.2 42 70 C28.14 70 14.28 70 0 70 C0 46.9 0 23.8 0 0 Z " fill="#3FA69A" transform="translate(200,37)"/>
<path d="M0 0 C13.86 0 27.72 0 42 0 C42 23.1 42 46.2 42 70 C28.14 70 14.28 70 0 70 C0 46.9 0 23.8 0 0 Z " fill="#3EA69A" transform="translate(130,37)"/>
<path d="M0 0 C13.86 0 27.72 0 42 0 C42 22.77 42 45.54 42 69 C28.14 69 14.28 69 0 69 C0 46.23 0 23.46 0 0 Z " fill="#44C3A0" transform="translate(130,256)"/>
<path d="M0 0 C13.86 0 27.72 0 42 0 C42 22.77 42 45.54 42 69 C28.14 69 14.28 69 0 69 C0 46.23 0 23.46 0 0 Z " fill="#3EA69A" transform="translate(60,147)"/>
<path d="M0 0 C13.86 0 27.72 0 42 0 C42 22.77 42 45.54 42 69 C28.14 69 14.28 69 0 69 C0 46.23 0 23.46 0 0 Z " fill="#3EA69B" transform="translate(130,147)"/>
<path d="M0 0 C12.87 0 25.74 0 39 0 C39 22.11 39 44.22 39 67 C26.13 67 13.26 67 0 67 C0 44.89 0 22.78 0 0 Z " fill="#29A2D9" transform="translate(418,377)"/>
<path d="M0 0 C12.87 0 25.74 0 39 0 C39 22.11 39 44.22 39 67 C26.13 67 13.26 67 0 67 C0 44.89 0 22.78 0 0 Z " fill="#2D93BA" transform="translate(353,278)"/>
<path d="M0 0 C12.87 0 25.74 0 39 0 C39 22.11 39 44.22 39 67 C26.13 67 13.26 67 0 67 C0 44.89 0 22.78 0 0 Z " fill="#29A2D9" transform="translate(418,278)"/>
<path d="M0 0 C12.87 0 25.74 0 39 0 C39 22.11 39 44.22 39 67 C26.13 67 13.26 67 0 67 C0 44.89 0 22.78 0 0 Z " fill="#2AA3DA" transform="translate(288,278)"/>
<path d="M0 0 C12.87 0 25.74 0 39 0 C39 22.11 39 44.22 39 67 C26.13 67 13.26 67 0 67 C0 44.89 0 22.78 0 0 Z " fill="#2D93BA" transform="translate(353,178)"/>
<path d="M0 0 C12.87 0 25.74 0 39 0 C39 22.11 39 44.22 39 67 C26.13 67 13.26 67 0 67 C0 44.89 0 22.78 0 0 Z " fill="#29A2D9" transform="translate(418,178)"/>
<path d="M0 0 C12.87 0 25.74 0 39 0 C39 22.11 39 44.22 39 67 C26.13 67 13.26 67 0 67 C0 44.89 0 22.78 0 0 Z " fill="#2AA3DA" transform="translate(288,178)"/>
<path d="M0 0 C12.54 0 25.08 0 38 0 C38 22.11 38 44.22 38 67 C25.46 67 12.92 67 0 67 C0 44.89 0 22.78 0 0 Z " fill="#2D93BA" transform="translate(224,377)"/>
<path d="M0 0 C12.54 0 25.08 0 38 0 C38 22.11 38 44.22 38 67 C25.46 67 12.92 67 0 67 C0 44.89 0 22.78 0 0 Z " fill="#2C93BA" transform="translate(224,278)"/>
<path d="M0 0 C12.54 0 25.08 0 38 0 C38 22.11 38 44.22 38 67 C25.46 67 12.92 67 0 67 C0 44.89 0 22.78 0 0 Z " fill="#2C93BA" transform="translate(224,178)"/>
<path d="M0 0 C38.28 0 76.56 0 116 0 C116 4.95 116 9.9 116 15 C77.72 15 39.44 15 0 15 C0 10.05 0 5.1 0 0 Z " fill="#3A556A" transform="translate(282,377)"/>
<path d="M0 0 C13.53 0 27.06 0 41 0 C39.3966675 4.80999749 37.7666256 8.25598393 35.0625 12.375 C29.21054162 21.49959086 23.72291225 30.83567265 18.23001099 40.17889404 C13.91527616 47.51725521 9.55124249 54.81459597 4.97265625 61.9921875 C4.58822861 62.59870148 4.20380096 63.20521545 3.807724 63.83010864 C2.90013141 65.23872456 1.95411736 66.62247208 1 68 C0.67 68 0.34 68 0 68 C0 45.56 0 23.12 0 0 Z " fill="#44C3A0" transform="translate(130,147)"/>
<path d="M0 0 C13.53 0 27.06 0 41 0 C39.47322075 3.81694812 37.97915275 6.921105 35.90234375 10.41015625 C35.27368408 11.46936279 34.64502441 12.52856934 33.99731445 13.61987305 C33.31088041 14.76751753 32.6242711 15.91505719 31.9375 17.0625 C31.22794428 18.25356416 30.5185559 19.44472802 29.80932617 20.63598633 C21.9565034 33.80745662 14.00596431 46.92112688 6 60 C5.4848584 60.84900879 4.9697168 61.69801758 4.43896484 62.57275391 C3.3202876 64.39905954 2.16511232 66.20296235 1 68 C0.67 68 0.34 68 0 68 C0 45.56 0 23.12 0 0 Z " fill="#44C3A0" transform="translate(60,256)"/>
<path d="M0 0 C0.33 0 0.66 0 1 0 C1 22.77 1 45.54 1 69 C-12.53 69 -26.06 69 -40 69 C-38.27593796 64.6898449 -36.30083894 60.89586348 -33.9375 56.9375 C-33.51267334 56.21997559 -33.08784668 55.50245117 -32.65014648 54.76318359 C-27.98023449 46.90684822 -23.21234759 39.10906295 -18.45333862 31.30648804 C-13.21818724 22.7215563 -8.07935188 14.0892492 -3.13500977 5.33251953 C-2.11569345 3.54015923 -1.06213499 1.76732297 0 0 Z " fill="#3EA69B" transform="translate(171,256)"/>
<path d="M0 0 C13.53 0 27.06 0 41 0 C39.2759581 4.31010475 37.30104141 8.10428004 34.9375 12.0625 C34.51267334 12.77929932 34.08784668 13.49609863 33.65014648 14.23461914 C27.53573363 24.5136607 21.30643515 34.72458754 15.08183289 44.93714905 C12.87834221 48.55342142 10.6839962 52.1750598 8.49609375 55.80078125 C7.49740344 57.45052544 6.49870613 59.10026539 5.5 60.75 C5.04955322 61.50015381 4.59910645 62.25030762 4.13500977 63.02319336 C3.1174238 64.69908648 2.06331122 66.35273918 1 68 C0.67 68 0.34 68 0 68 C0 45.56 0 23.12 0 0 Z " fill="#44C3A0" transform="translate(130,38)"/>
<path d="M0 0 C13.53 0 27.06 0 41 0 C39.2942767 4.26430825 37.34385133 8.01428622 35 11.92578125 C34.60799408 12.58600281 34.21598816 13.24622437 33.81210327 13.92645264 C32.54517966 16.05741096 31.27283253 18.18506671 30 20.3125 C29.12700891 21.77719862 28.25412499 23.24196111 27.38134766 24.70678711 C22.4001175 33.05419133 17.35972234 41.35777079 12.15234375 49.56640625 C9.25784495 54.14322365 6.51047201 58.81033037 3.77685547 63.48461914 C2.87771714 65.00571315 1.94265981 66.50548696 1 68 C0.67 68 0.34 68 0 68 C0 45.56 0 23.12 0 0 Z " fill="#44C3A0" transform="translate(130,366)"/>
<path d="M0 0 C13.53 0 27.06 0 41 0 C39.2942767 4.26430825 37.34385133 8.01428622 35 11.92578125 C34.60799408 12.58600281 34.21598816 13.24622437 33.81210327 13.92645264 C32.54517966 16.05741096 31.27283253 18.18506671 30 20.3125 C29.12700891 21.77719862 28.25412499 23.24196111 27.38134766 24.70678711 C22.4001175 33.05419133 17.35972234 41.35777079 12.15234375 49.56640625 C9.25784495 54.14322365 6.51047201 58.81033037 3.77685547 63.48461914 C2.87771714 65.00571315 1.94265981 66.50548696 1 68 C0.67 68 0.34 68 0 68 C0 45.56 0 23.12 0 0 Z " fill="#43C3A0" transform="translate(60,147)"/>
<path d="M0 0 C13.53 0 27.06 0 41 0 C39.42473611 3.93815974 37.87272446 7.05622829 35.68359375 10.62890625 C35.00965576 11.73339111 34.33571777 12.83787598 33.64135742 13.97583008 C32.90676135 15.17140089 32.17214163 16.36695718 31.4375 17.5625 C30.68098636 18.80012375 29.92488935 20.03800226 29.16918945 21.27612305 C27.58906563 23.86413992 26.00712941 26.45103526 24.42382812 29.03710938 C20.86859697 34.84649313 17.3313149 40.66677542 13.79592896 46.48825073 C12.71000508 48.2754612 11.62257817 50.0617498 10.53491211 51.84790039 C7.28487243 57.19377838 4.06246541 62.54424542 1 68 C0.67 68 0.34 68 0 68 C0 45.56 0 23.12 0 0 Z " fill="#43C3A0" transform="translate(60,38)"/>
<path d="M0 0 C13.53 0 27.06 0 41 0 C37.66674059 6.66651882 34.34333709 12.88287872 30.375 19.125 C26.17253763 25.80633419 22.06773945 32.53658574 18.06640625 39.33984375 C17.64278809 40.05910034 17.21916992 40.77835693 16.78271484 41.51940918 C15.07733201 44.41690901 13.37300769 47.31492746 11.68060303 50.22003174 C10.48883296 52.26563896 9.2898724 54.30688621 8.08984375 56.34765625 C7.73612198 56.96035873 7.38240021 57.57306122 7.01795959 58.20433044 C4.92624037 61.74617063 2.98660535 64.01339465 0 67 C0 44.89 0 22.78 0 0 Z " fill="#43C3A0" transform="translate(60,366)"/>
<path d="M0 0 C13.53 0 27.06 0 41 0 C38.025586 5.948828 35.40963078 11.16001735 31.875 16.625 C25.58587796 26.47535627 19.70211369 36.5696197 13.77685547 46.64111328 C4.4067202 62.53615398 4.4067202 62.53615398 1 67 C0.67 67 0.34 67 0 67 C0 44.89 0 22.78 0 0 Z " fill="#43C3A0" transform="translate(271,38)"/>
<path d="M0 0 C13.53 0 27.06 0 41 0 C36.08916936 8.59395362 31.16998731 17.15143938 26.0625 25.625 C25.12446533 27.18335571 25.12446533 27.18335571 24.16748047 28.77319336 C22.47638891 31.58037204 20.78342353 34.38641136 19.09002686 37.19219971 C17.94929389 39.08409565 16.81059595 40.9772043 15.67236328 42.87060547 C13.70901159 46.13634871 11.7418311 49.39975618 9.77194214 52.66156006 C9.00814465 53.92747671 8.24554775 55.19411853 7.48416138 56.46148682 C6.42257746 58.22773654 5.35643088 59.99114796 4.2890625 61.75390625 C3.67756348 62.76783447 3.06606445 63.7817627 2.43603516 64.82641602 C1.72519775 65.90234009 1.72519775 65.90234009 1 67 C0.67 67 0.34 67 0 67 C0 44.89 0 22.78 0 0 Z " fill="#43C3A0" transform="translate(201,38)"/>
<path d="M0 0 C0.33 0 0.66 0 1 0 C1 21.78 1 43.56 1 66 C-11.54 66 -24.08 66 -37 66 C-35.49435603 62.23589007 -33.96798631 58.96459936 -32.015625 55.44921875 C-31.4167749 54.36954834 -30.8179248 53.28987793 -30.20092773 52.17749023 C-29.55712158 51.02579346 -28.91331543 49.87409668 -28.25 48.6875 C-27.9204129 48.09607208 -27.59082581 47.50464417 -27.25125122 46.89529419 C-20.34026538 34.49633792 -13.22797274 22.21683295 -6 10 C-5.43941895 9.0423877 -4.87883789 8.08477539 -4.30126953 7.09814453 C-3.75970215 6.1801709 -3.21813477 5.26219727 -2.66015625 4.31640625 C-2.17297119 3.4869751 -1.68578613 2.65754395 -1.18383789 1.80297852 C-0.79317139 1.20799561 -0.40250488 0.6130127 0 0 Z " fill="#2C93BA" transform="translate(326,279)"/>
<path d="M0 0 C12.54 0 25.08 0 38 0 C36.49435603 3.76410993 34.96798631 7.03540064 33.015625 10.55078125 C32.4167749 11.63045166 31.8179248 12.71012207 31.20092773 13.82250977 C30.55712158 14.97420654 29.91331543 16.12590332 29.25 17.3125 C28.9204129 17.90392792 28.59082581 18.49535583 28.25125122 19.10470581 C21.34026538 31.50366208 14.22797274 43.78316705 7 56 C6.43941895 56.9576123 5.87883789 57.91522461 5.30126953 58.90185547 C4.75970215 59.8198291 4.21813477 60.73780273 3.66015625 61.68359375 C3.17297119 62.5130249 2.68578613 63.34245605 2.18383789 64.19702148 C1.59783813 65.08949585 1.59783813 65.08949585 1 66 C0.67 66 0.34 66 0 66 C0 44.22 0 22.44 0 0 Z " fill="#28A2DA" transform="translate(353,178)"/>
<path d="M0 0 C12.54 0 25.08 0 38 0 C36.49435603 3.76410993 34.96798631 7.03540064 33.015625 10.55078125 C32.4167749 11.63037109 31.8179248 12.70996094 31.20092773 13.82226562 C30.55712158 14.97404297 29.91331543 16.12582031 29.25 17.3125 C28.9204129 17.90426025 28.59082581 18.49602051 28.25125122 19.10571289 C22.87097638 28.76475324 17.36363938 38.34561288 11.74511719 47.8684082 C8.02914327 54.17584379 4.46762335 60.55266794 1 67 C0.67 67 0.34 67 0 67 C0 44.89 0 22.78 0 0 Z " fill="#28A2DA" transform="translate(353,278)"/>
<path d="M0 0 C0.33 0 0.66 0 1 0 C1 21.78 1 43.56 1 66 C-11.54 66 -24.08 66 -37 66 C-35.46043831 62.15109578 -33.87546331 58.80046977 -31.875 55.203125 C-31.25584717 54.0879248 -30.63669434 52.97272461 -29.9987793 51.82373047 C-29.33276376 50.63235042 -28.66649884 49.44110974 -28 48.25 C-27.66263824 47.64496643 -27.32527649 47.03993286 -26.97769165 46.41656494 C-21.84696437 37.21518178 -16.61081256 28.08365579 -11.20898438 19.03857422 C-9.8600277 16.76398048 -8.53043552 14.47869547 -7.203125 12.19140625 C-6.74075439 11.39686035 -6.27838379 10.60231445 -5.80200195 9.78369141 C-4.90988284 8.24973817 -4.02028871 6.71431294 -3.13354492 5.17724609 C-2.11678637 3.4349998 -1.06236976 1.71481503 0 0 Z " fill="#2C93BA" transform="translate(326,179)"/>
<path d="M0 0 C0.33 0 0.66 0 1 0 C1 21.78 1 43.56 1 66 C-11.54 66 -24.08 66 -37 66 C-30.19879899 52.39759798 -30.19879899 52.39759798 -26.625 46.5 C-21.88346015 38.55436011 -17.27419809 30.535574 -12.6875 22.5 C-12.34334045 21.89776611 -11.99918091 21.29553223 -11.64459229 20.67504883 C-7.72007692 13.80708841 -3.81820437 6.9277826 0 0 Z " fill="#2D93BA" transform="translate(455,378)"/>
<path d="M0 0 C0.33 0 0.66 0 1 0 C1 21.78 1 43.56 1 66 C-11.54 66 -24.08 66 -37 66 C-32.68672451 58.09232828 -28.36523196 50.19136603 -24 42.3125 C-23.68173248 41.73805145 -23.36346497 41.16360291 -23.03555298 40.57174683 C-17.61953118 30.80764883 -12.05918682 21.1362577 -6.39257812 11.51489258 C-5.84408203 10.58314209 -5.29558594 9.6513916 -4.73046875 8.69140625 C-4.24989014 7.87873291 -3.76931152 7.06605957 -3.27416992 6.22875977 C-2.10492078 4.18352592 -1.0293784 2.11845287 0 0 Z " fill="#2C93BA" transform="translate(455,279)"/>
<path d="M0 0 C12.54 0 25.08 0 38 0 C28.59241802 17.24723363 19.13277367 34.45735914 9.25 51.4375 C8.66605469 52.44321045 8.08210937 53.4489209 7.48046875 54.48510742 C6.93519531 55.41685791 6.38992187 56.3486084 5.828125 57.30859375 C5.3527832 58.12126709 4.87744141 58.93394043 4.38769531 59.77124023 C3.04534726 61.92716834 1.52380207 63.96826391 0 66 C0 44.22 0 22.44 0 0 Z " fill="#27A1DA" transform="translate(224,178)"/>
<path d="M0 0 C12.54 0 25.08 0 38 0 C28.5842357 17.26223454 19.10963551 34.48665696 9.25 51.5 C8.66605469 52.51408936 8.08210937 53.52817871 7.48046875 54.57299805 C6.93519531 55.50797119 6.38992187 56.44294434 5.828125 57.40625 C5.3527832 58.22416016 4.87744141 59.04207031 4.38769531 59.88476562 C3 62 3 62 0 65 C0 43.55 0 22.1 0 0 Z " fill="#27A1DA" transform="translate(224,278)"/>
<path d="M0 0 C0.33 0 0.66 0 1 0 C1 21.45 1 42.9 1 65 C-11.54 65 -24.08 65 -37 65 C-8.5 12.75 -8.5 12.75 0 0 Z " fill="#2C93BA" transform="translate(455,180)"/>
<path d="M0 0 C12.54 0 25.08 0 38 0 C18.19488007 36.30938653 18.19488007 36.30938653 8.01953125 53.29296875 C7.03570121 54.94022441 6.06447751 56.59498917 5.09375 58.25 C4.5471875 59.178125 4.000625 60.10625 3.4375 61.0625 C2.98246094 61.83722656 2.52742187 62.61195313 2.05859375 63.41015625 C1.53458984 64.19712891 1.53458984 64.19712891 1 65 C0.67 65 0.34 65 0 65 C0 43.55 0 22.1 0 0 Z " fill="#27A1DA" transform="translate(224,377)"/>
</svg>
