<?xml version="1.0" encoding="UTF-8"?>
<svg version="1.1" xmlns="http://www.w3.org/2000/svg" width="512" height="512">
<path d="M0 0 C10.9322428 6.20025658 10.9322428 6.20025658 15.85546875 9.69140625 C16.82697876 10.37323975 16.82697876 10.37323975 17.81811523 11.06884766 C19.0802004 11.9629775 20.33169108 12.8723057 21.57055664 13.79833984 C22.1608667 14.21422363 22.75117676 14.63010742 23.359375 15.05859375 C23.86952148 15.43298584 24.37966797 15.80737793 24.90527344 16.19311523 C31.18488998 18.61201182 39.03116776 16.54908324 45.47265625 15.5390625 C47.52929161 15.22913172 49.58593242 14.91923713 51.64257812 14.609375 C54.82756245 14.12225119 58.01216913 13.63276312 61.1965332 13.14160156 C80.86357129 10.12184126 100.56649991 7.58538166 120.5 7.6875 C122.32144531 7.69595947 122.32144531 7.69595947 124.1796875 7.70458984 C170.16470243 8.31314416 211.46911034 27.1321248 243.76953125 59.7890625 C245.00718622 61.14579142 245.00718622 61.14579142 247.0625 61.9375 C249 63 249 63 249.9296875 64.875 C251.06671729 67.13246061 252.21640846 68.3560655 254.0625 70.0625 C258.81001986 74.69279715 262.91259837 79.78829228 267 85 C267.69101807 85.87640137 267.69101807 85.87640137 268.39599609 86.77050781 C276.43912988 97.0336434 283.50211745 107.69825475 290 119 C290.40347656 119.69706055 290.80695313 120.39412109 291.22265625 121.11230469 C316.50813592 165.27844368 323.81725999 219.73280771 311 269 C304.07882311 293.78338448 292.98309921 316.16105053 279.69921875 338.05859375 C279.07724609 339.0839624 278.45527344 340.10933105 277.81445312 341.16577148 C276 344 276 344 274.21679688 346.30493164 C269.24603909 352.75849426 269.10732209 358.57650199 269.125 366.5625 C269.104375 367.76197266 269.08375 368.96144531 269.0625 370.19726562 C269.01574389 373.13121184 269.0042681 376.06568435 269 379 C273.62 379 278.24 379 283 379 C283.33 380.32 283.66 381.64 284 383 C283 384 283 384 279.18359375 384.09765625 C277.60153318 384.09098089 276.01948841 384.07901875 274.4375 384.0625 C273.63119141 384.05798828 272.82488281 384.05347656 271.99414062 384.04882812 C269.99606244 384.03700518 267.99802217 384.01906914 266 384 C266 382.68 266 381.36 266 380 C263.36 380 260.72 380 258 380 C257.67 381.32 257.34 382.64 257 384 C135.23 384 13.46 384 -112 384 C-111.67 382.35 -111.34 380.7 -111 379 C-106.05 378.67 -101.1 378.34 -96 378 C-97.44375 376.88625 -98.8875 375.7725 -100.375 374.625 C-119.58167637 358.83394392 -135.85277528 340.28912348 -147 318 C-147.34369629 317.31921387 -147.68739258 316.63842773 -148.04150391 315.93701172 C-160.08365355 291.66623146 -166.30033399 264.0436122 -167 237 C-167.03996094 235.78183594 -167.07992187 234.56367188 -167.12109375 233.30859375 C-168.12849897 174.5827955 -145.38385478 118.28766508 -105 76 C-104.38640625 75.33355469 -103.7728125 74.66710937 -103.140625 73.98046875 C-85.75576657 55.60587828 -61.30411148 43.83949056 -38 35 C-38.15275391 33.98292969 -38.15275391 33.98292969 -38.30859375 32.9453125 C-38.46462762 29.53148055 -38.19274308 27.22040632 -37 24 C-33.22461867 20.46548127 -28.96769746 18.03415814 -24.49804688 15.46728516 C-20.62249486 13.19089074 -16.85929456 10.74376243 -13.07885742 8.3137207 C-8.73311124 5.52055434 -4.36630239 2.76087697 0 0 Z M-5.0078125 18.0625 C-5.99394531 18.69414063 -6.98007813 19.32578125 -7.99609375 19.9765625 C-9.02863281 20.64429688 -10.06117188 21.31203125 -11.125 22 C-12.16527344 22.66773438 -13.20554688 23.33546875 -14.27734375 24.0234375 C-16.85417751 25.67828487 -19.42823446 27.33729135 -22 29 C-18.91780075 30.54109962 -16.20280414 29.20539525 -13.0234375 28.34765625 C-12.33819 28.16867294 -11.6529425 27.98968964 -10.94692993 27.80528259 C-8.75447975 27.23098914 -6.5647826 26.64687365 -4.375 26.0625 C-2.89079558 25.67187732 -1.40642244 25.28189512 0.078125 24.89257812 C3.72075082 23.93581166 7.36093745 22.97022725 11 22 C8.18143601 19.09747879 5.5990615 16.89424289 2 15 C-0.95210502 15 -2.53841431 16.47300232 -5.0078125 18.0625 Z " fill="#1D8ACF" transform="translate(181,73)"/>
<path d="M0 0 C0.58394531 0.59039062 1.16789063 1.18078125 1.76953125 1.7890625 C3.00718622 3.14579142 3.00718622 3.14579142 5.0625 3.9375 C7 5 7 5 7.9296875 6.875 C9.06671729 9.13246061 10.21640846 10.3560655 12.0625 12.0625 C16.81001986 16.69279715 20.91259837 21.78829228 25 27 C25.46067871 27.58426758 25.92135742 28.16853516 26.39599609 28.77050781 C34.43912988 39.0336434 41.50211745 49.69825475 48 61 C48.40347656 61.69706055 48.80695313 62.39412109 49.22265625 63.11230469 C74.50813592 107.27844368 81.81725999 161.73280771 69 211 C60.61222021 241.03500342 46.23057144 271.27992418 27 296 C26.67 296 26.34 296 26 296 C26 280.82 26 265.64 26 250 C33.92 250 41.84 250 50 250 C50 247.03 50 244.06 50 241 C48.98292969 241.17402344 48.98292969 241.17402344 47.9453125 241.3515625 C43.2575107 241.80605852 40.20825169 241.89428264 36.32421875 239.01953125 C33.79266015 236.41710476 31.39528311 233.72773879 29 231 C27.6714768 229.76352804 26.31912497 228.55183866 24.9375 227.375 C24.34420898 226.85091553 23.75091797 226.32683105 23.13964844 225.78686523 C21.02831541 223.95791556 21.02831541 223.95791556 18.66650391 222.44775391 C14.71055585 219.58377426 12.32852796 217.52033786 11.27270508 212.63427734 C11.11486663 208.7205954 11.21346167 204.91013898 11.4375 201 C11.48272179 199.63945621 11.52377296 198.27876708 11.56054688 196.91796875 C11.66610696 193.61041953 11.82752347 190.30473549 12 187 C7.38 187 2.76 187 -2 187 C-2 191.62 -2 196.24 -2 201 C-5.72297861 199.1385107 -7.44451274 197.74413327 -10.25 194.8125 C-13.78660662 191.18849783 -17.42878606 187.80426047 -21.26953125 184.5078125 C-23.27468378 182.76065928 -25.15843313 180.91829882 -27 179 C-32.44901894 180.46904717 -35.53897613 184.24350698 -39.3125 188.1875 C-40.65177507 189.55912081 -41.99289943 190.92893856 -43.3359375 192.296875 C-44.29064941 193.27043945 -44.29064941 193.27043945 -45.26464844 194.26367188 C-47.80826089 196.80871573 -50.49905699 199.14499197 -53.24609375 201.46484375 C-55.88716792 203.77651891 -58.31311882 206.28858735 -60.75 208.8125 C-62.69182125 210.70038177 -64.67377187 212.47647915 -66.71875 214.25 C-71.09336873 218.04943738 -75.3014885 222.00797267 -79.5 226 C-82.31999845 228.68131 -85.1551969 231.34504854 -88 234 C-88.69931641 234.67426025 -89.39863281 235.34852051 -90.11914062 236.04321289 C-95.24691319 240.82659185 -95.24691319 240.82659185 -98.96875 241.68359375 C-101.3125 241.45572917 -103.65625 241.22786458 -106 241 C-106 244.3 -106 247.6 -106 251 C-98.41 251 -90.82 251 -83 251 C-83 274.1 -83 297.2 -83 321 C-72.44 321 -61.88 321 -51 321 C-51.03480469 318.08671875 -51.06960938 315.1734375 -51.10546875 312.171875 C-51.12886821 309.34880554 -51.14708259 306.52574691 -51.16479492 303.70263672 C-51.17987695 301.74132447 -51.20034547 299.78004592 -51.22631836 297.81884766 C-51.26272731 294.99893882 -51.27973216 292.17947608 -51.29296875 289.359375 C-51.30845261 288.48319519 -51.32393646 287.60701538 -51.33988953 286.70428467 C-51.34082688 283.30989756 -51.2439922 280.62936982 -50.01074219 277.44824219 C-46.78771341 275.12684749 -43.35728797 275.43021837 -39.53515625 275.46875 C-38.70543808 275.4649231 -37.87571991 275.46109619 -37.02085876 275.45715332 C-35.26657905 275.45443221 -33.5122589 275.46180741 -31.75805664 275.47851562 C-29.07541118 275.49989709 -26.39545193 275.47873653 -23.71289062 275.453125 C-22.00780659 275.45576877 -20.30272424 275.46089478 -18.59765625 275.46875 C-17.79650894 275.46065308 -16.99536163 275.45255615 -16.16993713 275.44421387 C-12.82543191 275.50037993 -10.40706441 275.76540308 -7.48706055 277.44824219 C-5.21481715 281.34735366 -5.50493968 284.92714008 -5.609375 289.359375 C-5.61503479 290.26375305 -5.62069458 291.1681311 -5.62652588 292.09991455 C-5.64888752 294.98381853 -5.69908314 297.86647261 -5.75 300.75 C-5.77006529 302.70701329 -5.78831601 304.66404608 -5.8046875 306.62109375 C-5.84875161 311.41454289 -5.91777748 316.20705965 -6 321 C-1.38 321 3.24 321 8 321 C8 321.33 8 321.66 8 322 C-48.43 322 -104.86 322 -163 322 C-165.24980641 313.00077435 -165.24980641 313.00077435 -165.97387695 308.76269531 C-166.21995697 307.33621674 -166.21995697 307.33621674 -166.4710083 305.88092041 C-166.64170837 304.87349792 -166.81240845 303.86607544 -166.98828125 302.828125 C-167.17195251 301.75963318 -167.35562378 300.69114136 -167.54486084 299.590271 C-168.13680534 296.14397599 -168.7247057 292.69700505 -169.3125 289.25 C-170.11842511 284.54664005 -170.92627224 279.84361123 -171.734375 275.140625 C-171.93116348 273.99380249 -172.12795197 272.84697998 -172.33070374 271.66540527 C-173.43055985 265.26722908 -174.54704625 258.87263607 -175.703125 252.484375 C-175.82394943 251.8160968 -175.94477386 251.1478186 -176.06925964 250.45928955 C-176.60049205 247.52816874 -177.13688028 244.59808137 -177.67895508 241.66894531 C-177.85837646 240.68506836 -178.03779785 239.70119141 -178.22265625 238.6875 C-178.37484619 237.86636719 -178.52703613 237.04523438 -178.68383789 236.19921875 C-179 234 -179 234 -179 230 C-166.79 230 -154.58 230 -142 230 C-142 234.29 -142 238.58 -142 243 C-144.31 243 -146.62 243 -149 243 C-149 246.96 -149 250.92 -149 255 C-146.69 255 -144.38 255 -142 255 C-142 258.96 -142 262.92 -142 267 C-144.31 267 -146.62 267 -149 267 C-149 270.96 -149 274.92 -149 279 C-141.08 279 -133.16 279 -125 279 C-125 275.04 -125 271.08 -125 267 C-127.64 267 -130.28 267 -133 267 C-133 262.71 -133 258.42 -133 254 C-130.36 254 -127.72 254 -125 254 C-125 250.37 -125 246.74 -125 243 C-127.64 243 -130.28 243 -133 243 C-132.95697754 242.29504395 -132.91395508 241.59008789 -132.86962891 240.86376953 C-131.81906937 228.07506591 -131.81906937 228.07506591 -135.11523438 216.06005859 C-138.13868912 212.91958729 -141.96061847 211.1032506 -145.82568359 209.18017578 C-149.90601211 206.96545447 -153.49968153 204.05403334 -157.1875 201.25 C-158.79387677 200.06020656 -160.40197461 198.87273355 -162.01171875 197.6875 C-162.82431152 197.08679688 -163.6369043 196.48609375 -164.47412109 195.8671875 C-168.81419726 192.65890386 -173.15676497 189.45400535 -177.5 186.25 C-178.30719482 185.65348633 -179.11438965 185.05697266 -179.94604492 184.44238281 C-180.6960376 183.88905273 -181.44603027 183.33572266 -182.21875 182.765625 C-183.2077832 182.03520996 -183.2077832 182.03520996 -184.21679688 181.29003906 C-185.78467986 180.15577103 -187.38985454 179.07343031 -189 178 C-190.30380113 174.67869361 -190.83028267 171.12226388 -191.5 167.625 C-191.71430664 166.51970947 -191.92861328 165.41441895 -192.14941406 164.27563477 C-195.01300126 148.04324173 -195.6780653 131.50031187 -196.5569458 115.063797 C-196.7718148 111.1754 -197.0604476 107.32888733 -197.53613281 103.46313477 C-198 99 -198 99 -198 90 C-184.14 90 -170.28 90 -156 90 C-156 93.63 -156 97.26 -156 101 C-158.31 101 -160.62 101 -163 101 C-163 104.3 -163 107.6 -163 111 C-160.69 111 -158.38 111 -156 111 C-156 114.63 -156 118.26 -156 122 C-158.31 122 -160.62 122 -163 122 C-163 125.3 -163 128.6 -163 132 C-156.07 132 -149.14 132 -142 132 C-142 128.7 -142 125.4 -142 122 C-143.98 122 -145.96 122 -148 122 C-148 118.37 -148 114.74 -148 111 C-146.02 111 -144.04 111 -142 111 C-142 107.7 -142 104.4 -142 101 C-143.98 101 -145.96 101 -148 101 C-148 94.07 -148 87.14 -148 80 C-149.65 79.34 -151.3 78.68 -153 78 C-154.90600586 76.73828125 -154.90600586 76.73828125 -156.71484375 75.3125 C-157.73300171 74.51960571 -157.73300171 74.51960571 -158.77172852 73.71069336 C-159.8437854 72.86390015 -159.8437854 72.86390015 -160.9375 72 C-166.24283159 67.87325178 -171.56698684 63.80799583 -177.0625 59.9375 C-182.37627956 56.18737433 -187.6105754 52.34140621 -192.8125 48.4375 C-193.86352905 47.6494397 -193.86352905 47.6494397 -194.93579102 46.84545898 C-199.86423419 43.13576581 -199.86423419 43.13576581 -201 42 C-201.21162603 40.2882061 -201.35909304 38.56843302 -201.48071289 36.84790039 C-201.56072037 35.74487076 -201.64072784 34.64184113 -201.72315979 33.50538635 C-201.80549362 32.29833542 -201.88782745 31.09128448 -201.97265625 29.84765625 C-202.06002548 28.60439072 -202.14739471 27.36112518 -202.2374115 26.08018494 C-202.42209558 23.43127371 -202.60479318 20.78230724 -202.78442383 18.13305664 C-203.05574153 14.13814566 -203.34158371 10.14432277 -203.62695312 6.15039062 C-204.56208796 -7.25173878 -205.31771795 -20.56360531 -205 -34 C-206.1446875 -34.433125 -206.1446875 -34.433125 -207.3125 -34.875 C-210 -36 -210 -36 -213 -38 C-213 -38.66 -213 -39.32 -213 -40 C-131.61118183 -52.97981479 -64.73016478 -57.31498418 0 0 Z " fill="#F3F7FA" transform="translate(423,131)"/>
<path d="M0 0 C-0.15185194 6.06296642 -0.30526663 12.1253857 -0.5324707 18.18603516 C-0.58806119 19.67610648 -0.64364373 21.1661781 -0.69921875 22.65625 C-0.72790543 23.41642426 -0.7565921 24.17659851 -0.78614807 24.95980835 C-0.95202822 29.65077739 -1.01942385 34.3317832 -1.01672363 39.02552795 C-1.0477376 64.6334554 -1.0477376 64.6334554 -5.61328125 69.90234375 C-8.42263869 72.2189505 -11.53860089 73.62231599 -14.88476562 75.0078125 C-18.87225471 76.87821366 -22.247818 79.67051643 -25.75 82.3125 C-27.26455696 83.41082785 -28.78151558 84.50585102 -30.30078125 85.59765625 C-33.55514116 87.95019733 -36.80109321 90.31388207 -40.04296875 92.68359375 C-41.27225098 93.57921021 -41.27225098 93.57921021 -42.52636719 94.49291992 C-44.10354464 95.64226643 -45.67851136 96.7946543 -47.25097656 97.95043945 C-47.96092773 98.46695068 -48.67087891 98.98346191 -49.40234375 99.515625 C-50.02616943 99.97227539 -50.64999512 100.42892578 -51.29272461 100.89941406 C-53 102 -53 102 -56 103 C-56 110.26 -56 117.52 -56 125 C-57.98 125 -59.96 125 -62 125 C-62 127.97 -62 130.94 -62 134 C-60.02 134 -58.04 134 -56 134 C-56 137.63 -56 141.26 -56 145 C-58.31 145 -60.62 145 -63 145 C-63 148.3 -63 151.6 -63 155 C-56.07 155 -49.14 155 -42 155 C-42 151.7 -42 148.4 -42 145 C-43.98 145 -45.96 145 -48 145 C-48 141.37 -48 137.74 -48 134 C-46.02 134 -44.04 134 -42 134 C-42 131.03 -42 128.06 -42 125 C-43.98 125 -45.96 125 -48 125 C-48 121.04 -48 117.08 -48 113 C-34.47 113 -20.94 113 -7 113 C-8.96029075 170.17514681 -8.96029075 170.17514681 -12.33203125 185.625 C-13.09210105 188.95823666 -13.09210105 188.95823666 -13.07421875 192.25 C-13.22536552 196.3361748 -13.51758826 199.43029801 -16.42626953 202.51025391 C-20.31793853 205.90671744 -24.56452821 208.76980935 -28.87792969 211.59912109 C-31.37343847 213.24652438 -33.79514853 214.98014758 -36.21557617 216.73510742 C-37.89498986 217.95198434 -39.58465052 219.15324013 -41.27734375 220.3515625 C-46.44129594 224.01648507 -51.56639601 227.73533972 -56.69677734 231.44702148 C-58.11958357 232.47602383 -59.54337404 233.50366698 -60.96826172 234.52978516 C-62.3245416 235.511222 -63.67515728 236.50053357 -65.02001953 237.49755859 C-69.7855558 241 -69.7855558 241 -72 241 C-72 249.25 -72 257.5 -72 266 C-74.31 266 -76.62 266 -79 266 C-79 269.96 -79 273.92 -79 278 C-76.69 278 -74.38 278 -72 278 C-72 281.96 -72 285.92 -72 290 C-74.64 290 -77.28 290 -80 290 C-80 293.96 -80 297.92 -80 302 C-71.75 302 -63.5 302 -55 302 C-55 298.04 -55 294.08 -55 290 C-57.31 290 -59.62 290 -62 290 C-62 286.04 -62 282.08 -62 278 C-59.69 278 -57.38 278 -55 278 C-55 274.04 -55 270.08 -55 266 C-57.64 266 -60.28 266 -63 266 C-63 261.71 -63 257.42 -63 253 C-50.46 253 -37.92 253 -25 253 C-28.28697482 274.10025772 -31.97459274 295.09499839 -35.87670898 316.08959961 C-36.25511501 318.12612642 -36.63345357 320.16266577 -37.01171875 322.19921875 C-37.1908934 323.16355331 -37.37006805 324.12788788 -37.55467224 325.1214447 C-38.77884411 331.73603303 -39.94784924 338.35554663 -41 345 C-55.69019902 346.03290462 -55.69019902 346.03290462 -60.125 342.75 C-61.44655712 341.53164474 -62.73377407 340.27576435 -64 339 C-64.98872003 338.10019979 -65.98267254 337.20613117 -66.98046875 336.31640625 C-69.82684389 333.76449832 -72.61738044 331.15993104 -75.38916016 328.52734375 C-76.85874998 327.13392848 -78.34084757 325.75373504 -79.82421875 324.375 C-92.31264328 312.41528249 -102.27861752 298.43907582 -110 283 C-110.34369629 282.31921387 -110.68739258 281.63842773 -111.04150391 280.93701172 C-123.08365355 256.66623146 -129.30033399 229.0436122 -130 202 C-130.03996094 200.78183594 -130.07992187 199.56367188 -130.12109375 198.30859375 C-131.12849897 139.5827955 -108.38385478 83.28766508 -68 41 C-67.38640625 40.33355469 -66.7728125 39.66710937 -66.140625 38.98046875 C-52.83926517 24.92185329 -20.44344785 0 0 0 Z " fill="#EFF4F9" transform="translate(144,108)"/>
<path d="M0 0 C3.25207092 1.41738489 5.31361067 3.12526412 7.75 5.6875 C11.65343913 9.69232716 15.74710781 13.37278181 20 17 C20.67933594 17.58394531 21.35867188 18.16789062 22.05859375 18.76953125 C23.703266 20.18255952 25.35126933 21.59170922 27 23 C27 18.38 27 13.76 27 9 C31.62 9 36.24 9 41 9 C40.979375 11.01222656 40.95875 13.02445312 40.9375 15.09765625 C40.95141761 17.06699809 40.96562664 19.03634897 40.98779297 21.00561523 C40.99585655 22.36432934 40.98993483 23.72320671 40.96923828 25.08178711 C40.66787948 33.04176533 40.66787948 33.04176533 43.53344727 40.20117188 C45.59380211 41.98812317 47.74130027 43.47357387 50 45 C51.5124945 46.35628606 53.00048008 47.74032155 54.46484375 49.1484375 C55.56989258 50.19064453 55.56989258 50.19064453 56.69726562 51.25390625 C57.43654297 51.95386719 58.17582031 52.65382813 58.9375 53.375 C60.08702148 54.45974609 60.08702148 54.45974609 61.25976562 55.56640625 C66.75496032 60.75496032 66.75496032 60.75496032 68 62 C69.84891946 62.23363881 71.70488031 62.41303635 73.5625 62.5625 C74.57441406 62.64628906 75.58632813 62.73007812 76.62890625 62.81640625 C77.80259766 62.90728516 77.80259766 62.90728516 79 63 C79 65.97 79 68.94 79 72 C71.08 72 63.16 72 55 72 C55.0721875 75.03058594 55.144375 78.06117188 55.21875 81.18359375 C56.18608534 122.61331711 56.18608534 122.61331711 56 143 C60.62 143 65.24 143 70 143 C70.33 144.32 70.66 145.64 71 147 C70 148 70 148 66.18359375 148.09765625 C64.60153318 148.09098089 63.01948841 148.07901875 61.4375 148.0625 C60.63119141 148.05798828 59.82488281 148.05347656 58.99414062 148.04882812 C56.99606244 148.03700518 54.99802217 148.01906914 53 148 C53 146.68 53 145.36 53 144 C50.36 144 47.72 144 45 144 C44.67 145.32 44.34 146.64 44 148 C-77.77 148 -199.54 148 -325 148 C-324.67 146.35 -324.34 144.7 -324 143 C-306.63002298 142.55461597 -289.32307994 143.87834027 -272 145 C-271.67 144.01 -271.34 143.02 -271 142 C-271 142.66 -271 143.32 -271 144 C-251.43750822 144.03212416 -231.87501374 144.05146101 -212.3125 144.0625 C-211.5657358 144.0629343 -210.81897161 144.06336861 -210.04957819 144.06381607 C-155.67725794 144.09455181 -101.3085065 143.86987678 -46.9375 143.5 C-46.05774647 143.49402628 -45.17799294 143.48805257 -44.27158022 143.48189783 C-21.8476594 143.32947309 0.57619965 143.16924099 23 143 C22.88181469 137.21576004 22.7575706 131.43169417 22.62768555 125.64770508 C22.58434759 123.67964221 22.54267168 121.71154202 22.50268555 119.7434082 C22.44495555 116.9160639 22.38126884 114.08890729 22.31640625 111.26171875 C22.29969376 110.38037766 22.28298126 109.49903656 22.26576233 108.59098816 C22.24581711 107.77036392 22.22587189 106.94973969 22.20532227 106.10424805 C22.18977798 105.38254929 22.1742337 104.66085052 22.15821838 103.9172821 C22.05804743 101.77891856 22.05804743 101.77891856 21 99 C15.34003584 98.92597632 9.68035189 98.87145827 4.02001953 98.83520508 C2.09353733 98.82009605 0.16708965 98.79960786 -1.75927734 98.77368164 C-4.52450057 98.73739075 -7.28927004 98.72029521 -10.0546875 98.70703125 C-10.9193161 98.69154739 -11.7839447 98.67606354 -12.67477417 98.66011047 C-15.35052023 98.62404982 -15.35052023 98.62404982 -19 99 C-21.0225534 102.0338301 -21.25577087 102.68758864 -21.31884766 106.10424805 C-21.33871735 106.92487228 -21.35858704 107.74549652 -21.37905884 108.59098816 C-21.39061005 109.47232925 -21.40216125 110.35367035 -21.4140625 111.26171875 C-21.43342865 112.16751175 -21.4527948 113.07330475 -21.4727478 114.00654602 C-21.53253542 116.90010151 -21.57892568 119.7936968 -21.625 122.6875 C-21.66318054 124.64910591 -21.70223231 126.61069506 -21.7421875 128.57226562 C-21.8398767 133.38142334 -21.91945143 138.19040226 -22 143 C-32.56 143 -43.12 143 -54 143 C-54 119.9 -54 96.8 -54 73 C-61.59 73 -69.18 73 -77 73 C-77 69.7 -77 66.4 -77 63 C-75.50210938 62.96648437 -74.00421875 62.93296875 -72.4609375 62.8984375 C-66.44333949 62.28629888 -63.68141566 59.90031915 -59.625 55.625 C-58.32614414 54.33530946 -57.02665782 53.04625357 -55.7265625 51.7578125 C-55.09524414 51.1174707 -54.46392578 50.47712891 -53.81347656 49.81738281 C-51.28674197 47.2852056 -48.65514128 44.89749954 -46 42.5 C-37.53364039 34.7580348 -29.16033405 26.91587138 -20.8046875 19.0546875 C-13.9502948 12.60859757 -7.10187543 6.17468613 0 0 Z " fill="#1B81C9" transform="translate(394,309)"/>
<path d="M0 0 C30.03 0 60.06 0 91 0 C99.13303847 53.48506654 99.13303847 53.48506654 102 74.125 C102.10541107 74.87930298 102.21082214 75.63360596 102.31942749 76.4107666 C102.61140271 78.50526459 102.90022883 80.60016472 103.1875 82.6953125 C103.34605469 83.85047363 103.50460938 85.00563477 103.66796875 86.19580078 C104 89 104 89 104 92 C65.39 92 26.78 92 -13 92 C-10.73200663 69.32006628 -10.73200663 69.32006628 -9.0625 59.25 C-7.69885709 50.72326958 -6.47320257 42.19781474 -5.4375 33.625 C-4.50635471 25.9438437 -3.50982157 18.27896493 -2.375 10.625 C-2.25181396 9.78018066 -2.12862793 8.93536133 -2.00170898 8.06494141 C-1.12244142 2.24488284 -1.12244142 2.24488284 0 0 Z " fill="#F1F6F9" transform="translate(136,361)"/>
<path d="M0 0 C12.70832863 -0.12807946 25.31595119 0.20458373 38 1 C37.56171875 1.81597656 37.1234375 2.63195312 36.671875 3.47265625 C31.81258767 12.54245392 27.03726342 21.65425001 22.30175781 30.78930664 C19.29245591 36.57946344 16.20465959 42.31553383 13 48 C13.75619629 47.87882812 14.51239258 47.75765625 15.29150391 47.6328125 C18.73525902 47.0837545 22.18009782 46.54181246 25.625 46 C26.81480469 45.80921875 28.00460937 45.6184375 29.23046875 45.421875 C30.38417969 45.24140625 31.53789062 45.0609375 32.7265625 44.875 C34.31331787 44.62363281 34.31331787 44.62363281 35.93212891 44.3671875 C38.9869785 44.00155852 41.92662562 43.93555178 45 44 C42.47790131 48.59239285 39.82969106 52.69683099 36.5625 56.8125 C32.49908581 61.99648702 28.59032093 67.27382817 24.75 72.625 C20.22517952 78.92418122 15.66827915 85.19722544 11.0625 91.4375 C10.48218018 92.22390869 9.90186035 93.01031738 9.30395508 93.82055664 C6.94687428 97.0130007 4.58815032 100.20422905 2.22949219 103.39550781 C-6.25441978 114.8775996 -14.66616175 126.4084648 -23 138 C-24.28407154 134.14778538 -23.47029496 132.64748039 -22.20166016 128.81616211 C-21.99858749 128.1947081 -21.79551483 127.57325409 -21.58628845 126.93296814 C-20.91242705 124.87816686 -20.22589173 122.82784325 -19.5390625 120.77734375 C-19.0684671 119.35176984 -18.59861818 117.92594932 -18.12948608 116.49989319 C-16.89171066 112.7447802 -15.64294658 108.99340733 -14.39215088 105.24261475 C-13.37212729 102.17767473 -12.35991794 99.11018235 -11.34812355 96.04251766 C-10.14353265 92.39076652 -8.93557717 88.74013238 -7.7265625 85.08984375 C-7.37949186 84.04166127 -7.37949186 84.04166127 -7.0254097 82.97230339 C-6.37111074 80.99908084 -5.71455513 79.02662588 -5.05712891 77.05444336 C-4.68327057 75.93098007 -4.30941223 74.80751678 -3.92422485 73.65000916 C-3 71 -3 71 -2 69 C-3.84464844 69.2165625 -3.84464844 69.2165625 -5.7265625 69.4375 C-7.35935464 69.62517726 -8.99216829 69.81266737 -10.625 70 C-11.43324219 70.09539062 -12.24148438 70.19078125 -13.07421875 70.2890625 C-17.40973739 70.78253617 -21.62737311 71.11320717 -26 71 C-24.93830896 67.95805039 -23.87548377 64.91649809 -22.8125 61.875 C-22.52052734 61.03839844 -22.22855469 60.20179688 -21.92773438 59.33984375 C-17.45430989 46.54488769 -12.84730923 33.8044093 -8.12353516 21.10009766 C-7.23580703 18.71181622 -6.35026689 16.32273056 -5.46484375 13.93359375 C-4.89856709 12.40880603 -4.33216569 10.88406463 -3.765625 9.359375 C-3.37035614 8.29236359 -3.37035614 8.29236359 -2.96710205 7.20379639 C-1.11476614 2.22953228 -1.11476614 2.22953228 0 0 Z " fill="#03B5E0" transform="translate(392,134)"/>
<path d="M0 0 C1.11234512 -0.00021904 1.11234512 -0.00021904 2.24716187 -0.0004425 C4.70370385 0.00025539 7.16017045 0.00804206 9.61669922 0.01586914 C11.31777912 0.01773376 13.01885956 0.01915745 14.71994019 0.02015686 C19.20145139 0.02397861 23.68293029 0.03380599 28.16442871 0.04486084 C32.73575402 0.05508231 37.30708453 0.05965606 41.87841797 0.06469727 C50.85108843 0.07542854 59.82373489 0.09250088 68.79638672 0.11352539 C69.51101041 5.3276175 70.2230249 10.54205671 70.93261719 15.75683594 C71.17441158 17.53102257 71.41692036 19.30511199 71.66015625 21.07910156 C72.00952734 23.62808454 72.35633308 26.17740534 72.70263672 28.72680664 C72.81200562 29.52065262 72.92137451 30.3144986 73.03405762 31.13240051 C73.44212392 34.15116749 73.79638672 37.06333733 73.79638672 40.11352539 C45.08638672 40.11352539 16.37638672 40.11352539 -13.20361328 40.11352539 C-13.20361328 33.22201609 -12.95051325 27.2727748 -11.76611328 20.61352539 C-10.88087525 15.40618283 -10.05127779 10.25989888 -9.64111328 4.98852539 C-9.42455078 3.07040039 -9.42455078 3.07040039 -9.20361328 1.11352539 C-6.24383744 -0.36636253 -3.24383319 -0.0165786 0 0 Z " fill="#F4F9FB" transform="translate(151.20361328125,309.886474609375)"/>
<path d="M0 0 C21.12 0 42.24 0 64 0 C64.69170868 4.1502521 65.16461856 7.79019323 65.31640625 11.9375 C65.3793689 13.63664551 65.3793689 13.63664551 65.44360352 15.37011719 C65.48283936 16.56797852 65.5220752 17.76583984 65.5625 19 C65.6049585 20.23137695 65.64741699 21.46275391 65.69116211 22.73144531 C66.04682398 33.82351574 66.10190526 44.90364904 66 56 C63.8321106 54.77295024 61.66560881 53.54356426 59.5 52.3125 C58.8594165 51.94962891 58.21883301 51.58675781 57.55883789 51.21289062 C54.10537263 49.24522364 50.7433497 47.21026945 47.4375 45 C44.08676829 43.05048337 42.74402529 42.37599579 39 43 C38.34 43.268125 37.68 43.53625 37 43.8125 C36.34 43.874375 35.68 43.93625 35 44 C34.195625 43.175 33.39125 42.35 32.5625 41.5 C31.716875 40.675 30.87125 39.85 30 39 C26.20873962 39.28856747 23.5168969 40.65151511 20.3125 42.6171875 C19.44882813 43.14183594 18.58515625 43.66648437 17.6953125 44.20703125 C16.36113281 45.03267578 16.36113281 45.03267578 15 45.875 C14.11054688 46.41769531 13.22109375 46.96039063 12.3046875 47.51953125 C10.64246977 48.53422834 8.98209007 49.55194738 7.32421875 50.57373047 C6.55722656 51.04439941 5.79023438 51.51506836 5 52 C3.67935547 52.83168701 3.67935547 52.83168701 2.33203125 53.68017578 C0 55 0 55 -2 55 C-2.38108433 36.58092394 -1.17172627 18.38145579 0 0 Z " fill="#F6FAFC" transform="translate(149,221)"/>
<path d="M0 0 C-1.48616601 17.48616601 -1.48616601 17.48616601 -3 19 C-3.42881138 21.01861078 -3.80404102 23.04865536 -4.15625 25.08203125 C-4.48302734 26.94504883 -4.48302734 26.94504883 -4.81640625 28.84570312 C-5.04449491 30.16793012 -5.27235715 31.49019618 -5.5 32.8125 C-5.94670998 35.38172052 -6.39457702 37.95074019 -6.84375 40.51953125 C-7.04162109 41.66526611 -7.23949219 42.81100098 -7.44335938 43.99145508 C-7.87874313 46.3446279 -8.41958527 48.67834109 -9 51 C-21.54 51 -34.08 51 -47 51 C-47 55.29 -47 59.58 -47 64 C-44.36 64 -41.72 64 -39 64 C-39 67.96 -39 71.92 -39 76 C-41.31 76 -43.62 76 -46 76 C-46 79.96 -46 83.92 -46 88 C-43.69 88 -41.38 88 -39 88 C-39 91.96 -39 95.92 -39 100 C-47.25 100 -55.5 100 -64 100 C-64 96.04 -64 92.08 -64 88 C-61.36 88 -58.72 88 -56 88 C-56 84.04 -56 80.08 -56 76 C-58.31 76 -60.62 76 -63 76 C-63 72.04 -63 68.08 -63 64 C-60.69 64 -58.38 64 -56 64 C-56.08378906 63.30028076 -56.16757813 62.60056152 -56.25390625 61.87963867 C-58.25847901 42.64113224 -58.25847901 42.64113224 -54.73583984 36.96191406 C-51.18554855 33.52326715 -46.80460065 31.46521374 -42.40869141 29.29589844 C-38.07787966 26.96588133 -34.27477713 23.91561927 -30.375 20.9375 C-28.77671667 19.74863949 -27.17648261 18.5623966 -25.57421875 17.37890625 C-24.80513184 16.80930176 -24.03604492 16.23969727 -23.24365234 15.65283203 C-1.99556869 0 -1.99556869 0 0 0 Z " fill="#30CDFD" transform="translate(128,310)"/>
<path d="M0 0 C5.75858751 3.66049749 11.19020505 7.64271169 16.5715332 11.83569336 C20.51797199 14.89490029 24.52084896 17.86294828 28.57495117 20.77807617 C30.11269947 21.88752052 31.6428376 23.00758729 33.1652832 24.13793945 C36.83508964 26.84281119 40.43102154 29.29910822 44.484375 31.39453125 C52.61862975 35.86186508 52.61862975 35.86186508 55 40 C56.77400094 48.19772283 55.9282388 56.73153442 55 65 C57.64 65 60.28 65 63 65 C63 68.63 63 72.26 63 76 C60.36 76 57.72 76 55 76 C55 80.29 55 84.58 55 89 C57.64 89 60.28 89 63 89 C63 92.96 63 96.92 63 101 C55.08 101 47.16 101 39 101 C39 97.04 39 93.08 39 89 C41.31 89 43.62 89 46 89 C46 85.04 46 81.08 46 77 C43.69 77 41.38 77 39 77 C39 73.04 39 69.08 39 65 C41.31 65 43.62 65 46 65 C46 60.71 46 56.42 46 52 C33.79 52 21.58 52 9 52 C8.67 52.66 8.34 53.32 8 54 C7.89453857 53.28046143 7.78907715 52.56092285 7.68041992 51.81958008 C5.52844139 36.21519898 5.52844139 36.21519898 2.3125 20.8125 C0.56997431 13.93709972 0.2834494 7.0666867 0 0 Z " fill="#3087CE" transform="translate(235,309)"/>
<path d="M0 0 C1.55267578 1.10021484 1.55267578 1.10021484 3.13671875 2.22265625 C4.18472656 2.95355469 5.23273438 3.68445313 6.3125 4.4375 C8.82421875 6.28515625 8.82421875 6.28515625 9.82421875 7.28515625 C10.07557089 9.79247143 10.25551234 12.27041155 10.38671875 14.78515625 C10.42917725 15.56165527 10.47163574 16.3381543 10.51538086 17.13818359 C11.0481957 28.17827869 10.9114854 39.23585558 10.82421875 50.28515625 C6.11020587 48.96523264 2.89976324 47.03841279 -0.98828125 44.09765625 C-4.98421217 41.32436091 -7.34526881 39.68913465 -12.23828125 40.47265625 C-12.93050781 40.67246094 -13.62273437 40.87226563 -14.3359375 41.078125 C-15.24666016 41.18060547 -15.24666016 41.18060547 -16.17578125 41.28515625 C-16.64886719 40.78628906 -17.12195313 40.28742188 -17.609375 39.7734375 C-18.12628906 39.28230469 -18.64320313 38.79117188 -19.17578125 38.28515625 C-23.03040405 38.68270905 -25.73609784 39.98913333 -29.00390625 42.0078125 C-30.32648438 42.81508789 -30.32648438 42.81508789 -31.67578125 43.63867188 C-32.58328125 44.20263672 -33.49078125 44.76660156 -34.42578125 45.34765625 C-36.24241422 46.46529148 -38.06006607 47.58127289 -39.87890625 48.6953125 C-40.67973633 49.19168213 -41.48056641 49.68805176 -42.30566406 50.19946289 C-44.17578125 51.28515625 -44.17578125 51.28515625 -45.17578125 51.28515625 C-45.32819595 36.92430415 -44.86819803 22.62886444 -44.17578125 8.28515625 C-37.44196323 5.02361995 -30.35353173 3.3862483 -23.11328125 1.59765625 C-21.23286133 1.1171582 -21.23286133 1.1171582 -19.31445312 0.62695312 C-18.10208984 0.32466797 -16.88972656 0.02238281 -15.640625 -0.2890625 C-14.54355225 -0.56322998 -13.44647949 -0.83739746 -12.31616211 -1.11987305 C-7.51139607 -2.03017506 -4.35784206 -2.35312751 0 0 Z " fill="#F1F6F9" transform="translate(198.17578125,96.71484375)"/>
<path d="M0 0 C19.8 0 39.6 0 60 0 C61.40815695 11.26525556 61.56367168 22.65546358 62 34 C41.21 34 20.42 34 -1 34 C-1 10 -1 10 0 0 Z " fill="#F2F8FB" transform="translate(151,178)"/>
<path d="M0 0 C7.12103534 4.50998905 13.80487578 9.56086382 20.52734375 14.6328125 C25.31087666 18.24048702 30.11927532 21.81382743 34.9375 25.375 C35.70562012 25.94541016 36.47374023 26.51582031 37.26513672 27.10351562 C38.01166504 27.65458984 38.75819336 28.20566406 39.52734375 28.7734375 C40.25622803 29.3195166 40.9851123 29.8655957 41.73608398 30.42822266 C43.99073094 32.05772853 43.99073094 32.05772853 46.54711914 33.36474609 C52.62790926 36.71739794 52.62790926 36.71739794 53.70727539 40.43798828 C53.88665966 43.30354353 53.78932716 46.01348814 53.5625 48.875 C53.5015918 50.33679688 53.5015918 50.33679688 53.43945312 51.828125 C53.33375601 54.22392638 53.18632216 56.60934332 53 59 C54.98 59 56.96 59 59 59 C59 62.3 59 65.6 59 69 C57.02 69 55.04 69 53 69 C53 72.63 53 76.26 53 80 C54.98 80 56.96 80 59 80 C59 83.3 59 86.6 59 90 C52.07 90 45.14 90 38 90 C38 86.7 38 83.4 38 80 C40.31 80 42.62 80 45 80 C45 76.37 45 72.74 45 69 C42.69 69 40.38 69 38 69 C38 65.7 38 62.4 38 59 C40.31 59 42.62 59 45 59 C45 55.37 45 51.74 45 48 C31.14 48 17.28 48 3 48 C0.77904328 13.79726651 0.77904328 13.79726651 0 0 Z " fill="#3187CE" transform="translate(222,173)"/>
<path d="M0 0 C0.39568466 17.05840515 -0.81557881 33.99442075 -2 51 C-2.495 49.02 -2.495 49.02 -3 47 C-16.53 47 -30.06 47 -44 47 C-44 50.96 -44 54.92 -44 59 C-42.02 59 -40.04 59 -38 59 C-38 61.97 -38 64.94 -38 68 C-39.98 68 -41.96 68 -44 68 C-44 71.63 -44 75.26 -44 79 C-42.02 79 -40.04 79 -38 79 C-38 82.3 -38 85.6 -38 89 C-44.93 89 -51.86 89 -59 89 C-59 85.7 -59 82.4 -59 79 C-56.69 79 -54.38 79 -52 79 C-52 75.37 -52 71.74 -52 68 C-53.98 68 -55.96 68 -58 68 C-58 65.03 -58 62.06 -58 59 C-56.02 59 -54.04 59 -52 59 C-52.0942627 58.4016333 -52.18852539 57.8032666 -52.28564453 57.18676758 C-54.54590994 40.63533039 -54.54590994 40.63533039 -50.5234375 34.89160156 C-46.38782585 30.99212823 -41.48830271 28.25527851 -36.55322266 25.48876953 C-32.42318943 23.08057077 -28.64614938 20.22278224 -24.8125 17.375 C-23.33206025 16.30414696 -21.85030038 15.23511647 -20.3671875 14.16796875 C-17.42436115 12.03879377 -14.49303229 9.89497084 -11.5703125 7.73828125 C-10.87317139 7.22410645 -10.17603027 6.70993164 -9.45776367 6.18017578 C-8.13858317 5.20549668 -6.82096363 4.22870035 -5.50512695 3.24951172 C-1.10919531 0 -1.10919531 0 0 0 Z " fill="#31D0FE" transform="translate(140,174)"/>
<path d="M0 0 C4.75817052 2.2562217 9.13821536 5.00502456 13.578125 7.828125 C15.37456516 8.95902438 17.17143895 10.08923522 18.96875 11.21875 C19.84853516 11.78529297 20.72832031 12.35183594 21.63476562 12.93554688 C24.31053156 14.6232574 24.31053156 14.6232574 27.19335938 15.98632812 C28.09892578 16.44458984 29.00449219 16.90285156 29.9375 17.375 C30.75702148 17.75495117 31.57654297 18.13490234 32.42089844 18.52636719 C34.328125 20.578125 34.328125 20.578125 35.328125 30.578125 C11.238125 30.578125 -12.851875 30.578125 -37.671875 30.578125 C-36.671875 19.578125 -36.671875 19.578125 -33.97558594 16.81640625 C-32.80839186 16.13427606 -31.61627838 15.49351382 -30.40625 14.890625 C-29.77583801 14.53597168 -29.14542603 14.18131836 -28.49591064 13.81591797 C-26.48967396 12.69820975 -24.45892451 11.63843415 -22.421875 10.578125 C-21.06959786 9.83830983 -19.719309 9.09484806 -18.37109375 8.34765625 C-15.88752624 6.97693701 -13.39430451 5.62906689 -10.88574219 4.3046875 C-7.70525609 2.64655307 -7.70525609 2.64655307 -4.9140625 0.82519531 C-2.671875 -0.421875 -2.671875 -0.421875 0 0 Z " fill="#F7FAFC" transform="translate(182.671875,268.421875)"/>
<path d="M0 0 C0.495 0.99 0.495 0.99 1 2 C19.39492358 2.03123262 37.78985155 2.04977179 56.18479681 2.06108999 C58.42656936 2.06249316 60.66834182 2.06401262 62.91011429 2.06554031 C104.08682249 2.09245309 145.26150121 1.99080182 186.4375 1.7421875 C187.44986827 1.73612354 188.46223654 1.73005958 189.50528264 1.72381186 C209.66780877 1.60302875 229.83028106 1.47557091 249.99264872 1.33059621 C257.61408627 1.27591602 265.23554093 1.22436721 272.85701501 1.17504478 C278.15845966 1.14045678 283.45984482 1.101339 288.76123041 1.05868465 C291.98857163 1.033729 295.21592937 1.01290554 298.44330704 0.99328983 C299.93252024 0.98337457 301.42172291 0.97170366 302.91090763 0.95817101 C304.92782778 0.94006042 306.94480513 0.92868425 308.96177673 0.91770935 C310.08725387 0.90941321 311.212731 0.90111708 312.3723135 0.89256954 C315 1 315 1 317 2 C316.67 3.32 316.34 4.64 316 6 C194.23 6 72.46 6 -53 6 C-52.67 4.35 -52.34 2.7 -52 1 C-34.63002298 0.55461597 -17.32307994 1.87834027 0 3 C0 2.01 0 1.02 0 0 Z " fill="#006ABD" transform="translate(122,451)"/>
<path d="M0 0 C0.33 0 0.66 0 1 0 C1.68915974 16.67546616 2.15327653 33.30988847 2 50 C-0.1678894 48.77295024 -2.33439119 47.54356426 -4.5 46.3125 C-5.1405835 45.94962891 -5.78116699 45.58675781 -6.44116211 45.21289062 C-9.89462737 43.24522364 -13.2566503 41.21026945 -16.5625 39 C-19.91323171 37.05048337 -21.25597471 36.37599579 -25 37 C-25.66 37.268125 -26.32 37.53625 -27 37.8125 C-27.66 37.874375 -28.32 37.93625 -29 38 C-29.804375 37.175 -30.60875 36.35 -31.4375 35.5 C-32.283125 34.675 -33.12875 33.85 -34 33 C-37.79126038 33.28856747 -40.4831031 34.65151511 -43.6875 36.6171875 C-44.55117187 37.14183594 -45.41484375 37.66648437 -46.3046875 38.20703125 C-47.63886719 39.03267578 -47.63886719 39.03267578 -49 39.875 C-49.88945312 40.41769531 -50.77890625 40.96039063 -51.6953125 41.51953125 C-53.35753023 42.53422834 -55.01790993 43.55194738 -56.67578125 44.57373047 C-57.44277344 45.04439941 -58.20976562 45.51506836 -59 46 C-60.32064453 46.83168701 -60.32064453 46.83168701 -61.66796875 47.68017578 C-64 49 -64 49 -66 49 C-66.13221626 34.63249973 -65.78100524 20.34681694 -65 6 C-64.73606445 6.61262695 -64.47212891 7.22525391 -64.20019531 7.85644531 C-62.2944481 11.26011913 -59.01599818 12.80524654 -55.75 14.75 C-55.04069336 15.18030518 -54.33138672 15.61061035 -53.60058594 16.05395508 C-52.13138035 16.94106887 -50.65900469 17.82295251 -49.18359375 18.69970703 C-47.10208746 19.93920865 -45.03495613 21.20005965 -42.96875 22.46484375 C-41.73009198 23.20727513 -40.49055082 23.9482357 -39.25 24.6875 C-38.14140625 25.35136719 -37.0328125 26.01523438 -35.890625 26.69921875 C-32.65401822 28.1556918 -32.19517046 28.12055667 -29 27 C-27.38432688 26.1862983 -25.79466658 25.31994419 -24.2265625 24.41796875 C-23.3190625 23.89783203 -22.4115625 23.37769531 -21.4765625 22.84179688 C-20.53554687 22.29587891 -19.59453125 21.74996094 -18.625 21.1875 C-17.69171875 20.65318359 -16.7584375 20.11886719 -15.796875 19.56835938 C-11.94342501 17.34962365 -8.12410818 15.13657641 -4.4609375 12.61328125 C-2 11 -2 11 0 11 C0 7.37 0 3.74 0 0 Z " fill="#7EE3F4" transform="translate(213,227)"/>
<path d="M0 0 C0.71682449 -0.00570007 1.43364899 -0.01140015 2.17219543 -0.01727295 C3.69461587 -0.02673983 5.21705695 -0.0332636 6.73950195 -0.03710938 C9.05522284 -0.04676324 11.37003652 -0.07774707 13.68554688 -0.109375 C15.16535932 -0.1159102 16.64517811 -0.12115864 18.125 -0.125 C18.81272995 -0.1373468 19.5004599 -0.1496936 20.20903015 -0.16241455 C25.51196994 -0.13819149 29.61860416 1.07856598 33.5390625 4.73828125 C36.51219641 8.6262256 38.01796357 10.67183375 38.02824402 15.53027344 C38.032509 16.43886108 38.03677399 17.34744873 38.04116821 18.28356934 C38.04071503 19.28311646 38.04026184 20.28266357 38.03979492 21.3125 C38.04315353 22.36296509 38.04651215 23.41343018 38.04997253 24.49572754 C38.05950182 27.98153859 38.06142653 31.46730172 38.0625 34.953125 C38.06571082 37.36686219 38.06907475 39.78059917 38.07258606 42.19433594 C38.07858201 47.25846813 38.08042544 52.32258325 38.07983398 57.38671875 C38.07973225 63.89056819 38.09339436 70.39430873 38.11060619 76.89813232 C38.12169808 81.88395699 38.12375407 86.86975508 38.12322426 91.85559082 C38.12440825 94.25427629 38.12885328 96.65296235 38.13655663 99.05163574 C38.14630142 102.39908591 38.14350052 105.74629636 38.13745117 109.09375 C38.14307068 110.09329712 38.14869019 111.09284424 38.15447998 112.12268066 C38.15028549 113.03126831 38.146091 113.93985596 38.14176941 114.87597656 C38.14231418 115.66796448 38.14285894 116.45995239 38.14342022 117.27593994 C37.89453125 119.203125 37.89453125 119.203125 35.89453125 121.203125 C31.33897569 120.64756944 31.33897569 120.64756944 29.89453125 119.203125 C29.79572706 117.83348387 29.76545548 116.45881557 29.76322937 115.08561707 C29.75922119 114.19812271 29.75521301 113.31062836 29.75108337 112.39624023 C29.75161209 111.41494141 29.75214081 110.43364258 29.75268555 109.42260742 C29.74921112 108.39500809 29.74573669 107.36740875 29.74215698 106.30867004 C29.7347845 104.0687483 29.72944711 101.82881918 29.72586632 99.58888817 C29.71872568 96.04652791 29.70307734 92.50430818 29.68452454 88.96199036 C29.63194089 78.88735888 29.5840608 68.81280286 29.56860352 58.73803711 C29.55853965 52.58352449 29.5292534 46.42936248 29.48728371 40.27498817 C29.47494388 37.92543499 29.46985785 35.57583233 29.47208214 33.22624779 C29.47442673 29.94105819 29.45233117 26.65687949 29.42456055 23.37182617 C29.43116196 22.39660004 29.43776337 21.4213739 29.44456482 20.41659546 C29.41590897 15.16676955 29.41590897 15.16676955 27.06466675 10.59872437 C23.94266788 8.59098815 21.51807076 8.70465105 17.828125 8.69921875 C16.81517113 8.6850869 16.81517113 8.6850869 15.78175354 8.67066956 C13.63153506 8.64206751 11.48242443 8.63893993 9.33203125 8.640625 C7.17822998 8.63701729 5.02523069 8.62750241 2.87159729 8.59986877 C0.92030782 8.57537585 -1.03122316 8.57314667 -2.98266602 8.57202148 C-6.10546875 8.203125 -6.10546875 8.203125 -8.05444336 6.81274414 C-9.10546875 5.203125 -9.10546875 5.203125 -8.85546875 3.078125 C-7.21412333 -1.02523856 -3.88821311 0.02367902 0 0 Z " fill="#0463B2" transform="translate(428.10546875,227.796875)"/>
<path d="M0 0 C4.82208638 1.75772826 9.19453877 4.51189363 13.60498047 7.10717773 C14.82923806 7.81775399 16.06315339 8.51195064 17.30615234 9.18920898 C19.11190217 10.17490328 20.87938774 11.21033617 22.64794922 12.26098633 C23.71174805 12.8673291 24.77554688 13.47367188 25.87158203 14.09838867 C28.19482422 16.80004883 28.19482422 16.80004883 28.19482422 27.80004883 C9.05482422 27.80004883 -10.08517578 27.80004883 -29.80517578 27.80004883 C-29.80517578 24.17004883 -29.80517578 20.54004883 -29.80517578 16.80004883 C-28.95697266 16.32696289 -28.10876953 15.85387695 -27.23486328 15.36645508 C-26.04944117 14.69942075 -24.86459021 14.03137081 -23.68017578 13.36254883 C-23.05578613 13.01071533 -22.43139648 12.65888184 -21.78808594 12.29638672 C-18.41833654 10.37376638 -15.12523519 8.38549761 -11.89892578 6.22973633 C-11.27518066 5.81393311 -10.65143555 5.39812988 -10.00878906 4.96972656 C-8.80697902 4.15990876 -7.61232109 3.33935515 -6.42578125 2.50732422 C-2.32008413 -0.25698524 -2.32008413 -0.25698524 0 0 Z " fill="#F4F8FB" transform="translate(181.80517578125,140.199951171875)"/>
<path d="M0 0 C0.33 0 0.66 0 1 0 C0.93425781 1.31742187 0.86851562 2.63484375 0.80078125 3.9921875 C1.1821689 7.38806849 1.71057114 8.70747035 4.14208984 11.16503906 C7.07842425 13.3126694 10.07803555 15.23704344 13.1875 17.125 C14.22970703 17.80820313 15.27191406 18.49140625 16.34570312 19.1953125 C21.75490917 22.89189329 21.75490917 22.89189329 28.01367188 23.87670898 C31.24026427 22.9294646 33.55694651 21.6854098 36.36328125 19.83984375 C37.33201172 19.21142578 38.30074219 18.58300781 39.29882812 17.93554688 C40.29333984 17.27619141 41.28785156 16.61683594 42.3125 15.9375 C44.30750078 14.63244227 46.30353619 13.32896427 48.30078125 12.02734375 C49.17903564 11.44718506 50.05729004 10.86702637 50.9621582 10.26928711 C53 9 53 9 54 9 C55.09266243 16.02057121 55.11532882 22.90468303 55.0625 30 C55.05798828 31.15628906 55.05347656 32.31257813 55.04882812 33.50390625 C55.03712529 36.33599225 55.02072996 39.16796811 55 42 C50.28598712 40.68007639 47.07554449 38.75325654 43.1875 35.8125 C39.19156908 33.03920466 36.83051244 31.4039784 31.9375 32.1875 C31.24527344 32.38730469 30.55304688 32.58710938 29.83984375 32.79296875 C28.92912109 32.89544922 28.92912109 32.89544922 28 33 C27.52691406 32.50113281 27.05382812 32.00226563 26.56640625 31.48828125 C26.04949219 30.99714844 25.53257812 30.50601563 25 30 C21.1453772 30.3975528 18.43968341 31.70397708 15.171875 33.72265625 C13.84929687 34.52993164 13.84929687 34.52993164 12.5 35.35351562 C11.5925 35.91748047 10.685 36.48144531 9.75 37.0625 C7.93336703 38.18013523 6.11571518 39.29611664 4.296875 40.41015625 C3.49604492 40.90652588 2.69521484 41.40289551 1.87011719 41.91430664 C0 43 0 43 -1 43 C-1.1524147 28.6391479 -0.69241678 14.34370819 0 0 Z " fill="#81E3F3" transform="translate(154,105)"/>
<path d="M0 0 C0.33 0.99 0.66 1.98 1 3 C29.71 3 58.42 3 88 3 C89 5 89 5 89 14 C59.3 14 29.6 14 -1 14 C-1.33 14.66 -1.66 15.32 -2 16 C-1.34 10.72 -0.68 5.44 0 0 Z " fill="#2EADE7" transform="translate(137,347)"/>
<path d="M0 0 C0 8.25 0 16.5 0 25 C2.64 25 5.28 25 8 25 C8 28.63 8 32.26 8 36 C5.36 36 2.72 36 0 36 C0 40.29 0 44.58 0 49 C2.64 49 5.28 49 8 49 C8 52.96 8 56.92 8 61 C0.08 61 -7.84 61 -16 61 C-16 57.04 -16 53.08 -16 49 C-13.69 49 -11.38 49 -9 49 C-9 45.04 -9 41.08 -9 37 C-11.31 37 -13.62 37 -16 37 C-16 33.04 -16 29.08 -16 25 C-13.69 25 -11.38 25 -9 25 C-9 17.08 -9 9.16 -9 1 C-2 -1 -2 -1 0 0 Z " fill="#34B6EC" transform="translate(290,349)"/>
<path d="M0 0 C0.33 0.99 0.66 1.98 1 3 C25.09 3 49.18 3 74 3 C75 7 75 7 75 14 C37.38 14.495 37.38 14.495 -1 15 C-0.67 10.05 -0.34 5.1 0 0 Z " fill="#31B9EF" transform="translate(144,296)"/>
<path d="M0 0 C1.98 0 3.96 0 6 0 C5.01 1.485 5.01 1.485 4 3 C3.61981567 5.10628305 3.61981567 5.10628305 3.55078125 7.4140625 C3.50759766 8.25710938 3.46441406 9.10015625 3.41992188 9.96875 C3.38447266 10.8453125 3.34902344 11.721875 3.3125 12.625 C3.24192383 13.95144531 3.24192383 13.95144531 3.16992188 15.3046875 C2.99947651 18.65151886 2.99947651 18.65151886 3 22 C4.87824891 23.87824891 8.03935276 23.39102397 10.5625 23.5625 C11.76003906 23.64628906 12.95757812 23.73007812 14.19140625 23.81640625 C15.58166016 23.90728516 15.58166016 23.90728516 17 24 C17 27.96 17 31.92 17 36 C14.69 36 12.38 36 10 36 C10 39.96 10 43.92 10 48 C12.31 48 14.62 48 17 48 C17 51.96 17 55.92 17 60 C8.75 60 0.5 60 -8 60 C-8 56.04 -8 52.08 -8 48 C-5.36 48 -2.72 48 0 48 C0 44.04 0 40.08 0 36 C-2.31 36 -4.62 36 -7 36 C-7 32.04 -7 28.08 -7 24 C-4.69 24 -2.38 24 0 24 C0 16.08 0 8.16 0 0 Z " fill="#50BFEE" transform="translate(72,350)"/>
<path d="M0 0 C1.88256836 0.76171875 1.88256836 0.76171875 3.57006836 2.88671875 C4.33319336 3.50546875 5.09631836 4.12421875 5.88256836 4.76171875 C7.75734272 4.51884777 7.75734272 4.51884777 9.83569336 3.9765625 C16.40291689 3.08922477 20.70463896 6.64360382 25.94506836 10.19921875 C26.90606445 10.82376953 27.86706055 11.44832031 28.85717773 12.09179688 C31.21381147 13.62771239 33.55378306 15.18403121 35.88256836 16.76171875 C36.21256836 14.45171875 36.54256836 12.14171875 36.88256836 9.76171875 C37.21256836 9.76171875 37.54256836 9.76171875 37.88256836 9.76171875 C37.88256836 16.36171875 37.88256836 22.96171875 37.88256836 29.76171875 C35.98506836 28.68921875 34.08756836 27.61671875 32.13256836 26.51171875 C31.1451062 25.95556885 31.1451062 25.95556885 30.13769531 25.38818359 C26.25507052 23.17975615 22.45004681 20.87721144 18.67553711 18.48828125 C17.78898437 17.93430664 16.90243164 17.38033203 15.98901367 16.80957031 C14.2250721 15.70396039 12.47022268 14.58369534 10.7253418 13.44824219 C9.9096875 12.94067383 9.0940332 12.43310547 8.25366211 11.91015625 C7.53106201 11.44786621 6.80846191 10.98557617 6.06396484 10.50927734 C3.83201327 9.50991763 3.83201327 9.50991763 1.33007812 10.50976562 C0.5223999 10.92291016 -0.28527832 11.33605469 -1.11743164 11.76171875 C-1.72135742 12.0673877 -2.3252832 12.37305664 -2.94750977 12.68798828 C-3.50889648 13.00364746 -4.0702832 13.31930664 -4.64868164 13.64453125 C-5.28854004 14.00361572 -5.92839844 14.3627002 -6.58764648 14.73266602 C-7.25747559 15.11350342 -7.92730469 15.49434082 -8.61743164 15.88671875 C-9.31433105 16.27980225 -10.01123047 16.67288574 -10.72924805 17.07788086 C-16.46815381 20.33776214 -22.07347627 23.78461068 -27.64086914 27.328125 C-30.11743164 28.76171875 -30.11743164 28.76171875 -32.11743164 28.76171875 C-32.28046668 20.44693195 -32.28046668 20.44693195 -31.11743164 16.76171875 C-29.203125 15.171875 -29.203125 15.171875 -26.70727539 13.82421875 C-25.79913086 13.32148438 -24.89098633 12.81875 -23.95532227 12.30078125 C-22.99819336 11.79289062 -22.04106445 11.285 -21.05493164 10.76171875 C-19.18824552 9.74235031 -17.32234838 8.72153564 -15.45727539 7.69921875 C-14.09965088 6.96832031 -14.09965088 6.96832031 -12.71459961 6.22265625 C-9.64635733 4.49673391 -6.74889661 2.57572074 -3.87353516 0.546875 C-2.11743164 -0.23828125 -2.11743164 -0.23828125 0 0 Z " fill="#41C3F1" transform="translate(178.117431640625,259.23828125)"/>
<path d="M0 0 C0 6.93 0 13.86 0 21 C1.98 21 3.96 21 6 21 C6 24.3 6 27.6 6 31 C4.02 31 2.04 31 0 31 C0 34.63 0 38.26 0 42 C1.98 42 3.96 42 6 42 C6 45.3 6 48.6 6 52 C-0.93 52 -7.86 52 -15 52 C-15 48.7 -15 45.4 -15 42 C-12.69 42 -10.38 42 -8 42 C-8 38.37 -8 34.74 -8 31 C-10.31 31 -12.62 31 -15 31 C-15 27.7 -15 24.4 -15 21 C-12.69 21 -10.38 21 -8 21 C-8 14.07 -8 7.14 -8 0 C-3 -1 -3 -1 0 0 Z " fill="#2EADE7" transform="translate(275,211)"/>
<path d="M0 0 C2.9375 2.4375 2.9375 2.4375 5 5 C5 5.66 5 6.32 5 7 C6.08007324 6.98952637 7.16014648 6.97905273 8.27294922 6.96826172 C12.27226459 6.93211806 16.27156546 6.90912016 20.27099609 6.89013672 C22.00344265 6.88006624 23.73587216 6.86640911 25.46826172 6.84912109 C27.95544639 6.82491838 30.44240675 6.81352761 32.9296875 6.8046875 C34.09538773 6.78920364 34.09538773 6.78920364 35.28463745 6.77340698 C37.19125493 6.77300729 39.09731036 6.8776786 41 7 C41.66 7.66 42.32 8.32 43 9 C42.75 11.5625 42.75 11.5625 42 14 C38.85844627 15.57077686 35.48621954 15.17811658 32.03515625 15.2109375 C30.41470335 15.23900096 28.79426077 15.26766539 27.17382812 15.296875 C24.61499259 15.33818223 22.05635075 15.37506321 19.49731445 15.40136719 C17.03035579 15.42893363 14.56427724 15.47479773 12.09765625 15.5234375 C10.94910912 15.5283168 10.94910912 15.5283168 9.77735901 15.53329468 C5.64729974 15.56977941 5.64729974 15.56977941 2.12207031 17.48681641 C1.75178711 17.98616699 1.38150391 18.48551758 1 19 C-2.01255826 20.00992429 -4.83680898 20.24788209 -8 20 C-11.78001524 17.97499183 -13.37321226 16.86688391 -14.7265625 12.8359375 C-15.41761271 8.78448624 -15.39225102 6.68280734 -13.3125 3.0625 C-8.72470938 -1.02931325 -6.13383712 -1.61416766 0 0 Z " fill="#3187CC" transform="translate(320,221)"/>
<path d="M0 0 C2.64 0 5.28 0 8 0 C8.125 3.375 8.125 3.375 8 7 C7.34 7.66 6.68 8.32 6 9 C5.53603307 11.89223503 5.53603307 11.89223503 5.375 15.125 C5.30023438 16.22070312 5.22546875 17.31640625 5.1484375 18.4453125 C5.09945312 19.28835937 5.05046875 20.13140625 5 21 C7.97 21.33 10.94 21.66 14 22 C14 24.97 14 27.94 14 31 C12.02 31 10.04 31 8 31 C8 34.63 8 38.26 8 42 C9.98 42 11.96 42 14 42 C14 45.3 14 48.6 14 52 C7.07 52 0.14 52 -7 52 C-7 48.7 -7 45.4 -7 42 C-4.69 42 -2.38 42 0 42 C0 38.37 0 34.74 0 31 C-1.98 31 -3.96 31 -6 31 C-6 28.03 -6 25.06 -6 22 C-4.02 22 -2.04 22 0 22 C0 14.74 0 7.48 0 0 Z " fill="#2EB1EA" transform="translate(88,211)"/>
<path d="M0 0 C0.33 0 0.66 0 1 0 C1 5.61 1 11.22 1 17 C-18.8 17 -38.6 17 -59 17 C-59 13.04 -59 9.08 -59 5 C-58.67 5.66 -58.34 6.32 -58 7 C-38.86 7 -19.72 7 0 7 C0 4.69 0 2.38 0 0 Z " fill="#39BCF0" transform="translate(210,161)"/>
<path d="M0 0 C20.46 0 40.92 0 62 0 C62.495 4.455 62.495 4.455 63 9 C41.88 9 20.76 9 -1 9 C-0.67 6.03 -0.34 3.06 0 0 Z " fill="#2DAEE8" transform="translate(150,212)"/>
<path d="M0 0 C3.25696479 0.41755959 4.63443291 0.63443291 7 3 C8.93998054 2.83218454 8.93998054 2.83218454 11.09765625 2.3203125 C16.79863971 1.54617535 19.89543695 3.65716616 24.4375 6.875 C25.14326172 7.34808594 25.84902344 7.82117188 26.57617188 8.30859375 C27.87401024 9.17877764 29.16520696 10.05901713 30.44702148 10.95263672 C32.02974286 12.06876379 32.02974286 12.06876379 34 13 C34 8.71 34 4.42 34 0 C34.33 0 34.66 0 35 0 C35 7.59 35 15.18 35 23 C31.06457251 21.425829 28.31237805 20.02501688 24.875 17.70703125 C23.92109375 17.07732422 22.9671875 16.44761719 21.984375 15.79882812 C19.98936989 14.47100077 17.99978334 13.13499722 16.015625 11.79101562 C15.06171875 11.16517578 14.1078125 10.53933594 13.125 9.89453125 C12.26132813 9.31550049 11.39765625 8.73646973 10.5078125 8.13989258 C7.40082409 6.72765262 6.19394699 6.88154203 3 8 C0.41457273 9.37148182 0.41457273 9.37148182 -2.16015625 11.125 C-3.11857422 11.74890625 -4.07699219 12.3728125 -5.06445312 13.015625 C-6.05380859 13.67046875 -7.04316406 14.3253125 -8.0625 15 C-10.02924397 16.29669817 -11.99917322 17.58858143 -13.97265625 18.875 C-14.84156494 19.44992188 -15.71047363 20.02484375 -16.60571289 20.6171875 C-19 22 -19 22 -23 23 C-23 18.38 -23 13.76 -23 9 C-22.34 10.32 -21.68 11.64 -21 13 C-17.6860791 11.02320506 -14.37410665 9.04316902 -11.0625 7.0625 C-10.11697266 6.49853516 -9.17144531 5.93457031 -8.19726562 5.35351562 C-6.84858398 4.54624023 -6.84858398 4.54624023 -5.47265625 3.72265625 C-4.64000244 3.22515869 -3.80734863 2.72766113 -2.94946289 2.21508789 C-1.07069197 1.14604392 -1.07069197 1.14604392 0 0 Z " fill="#43C4F1" transform="translate(175,134)"/>
<path d="M0 0 C2.94079548 1.37964261 5.48058368 2.97503924 8.08984375 4.90625 C8.8686792 5.48093018 9.64751465 6.05561035 10.44995117 6.64770508 C11.27084229 7.2589624 12.0917334 7.87021973 12.9375 8.5 C13.77837158 9.12350342 14.61924316 9.74700684 15.4855957 10.3894043 C31.49633453 22.28872091 31.49633453 22.28872091 36 26 C36 26.33 36 26.66 36 27 C31.17619198 27.0246519 26.35242033 27.04283693 21.52856445 27.05493164 C19.88630536 27.05997174 18.24405077 27.06680378 16.60180664 27.07543945 C14.24624521 27.08751926 11.89074291 27.09323139 9.53515625 27.09765625 C8.79660904 27.10281754 8.05806183 27.10797882 7.2971344 27.11329651 C5.53101912 27.1134925 3.76502854 27.06194719 2 27 C0.22509454 25.22509454 0.76500027 22.62215098 0.68359375 20.21484375 C0.62075195 18.46010742 0.62075195 18.46010742 0.55664062 16.66992188 C0.51732422 15.43822266 0.47800781 14.20652344 0.4375 12.9375 C0.39431641 11.70193359 0.35113281 10.46636719 0.30664062 9.19335938 C0.20015802 6.12902665 0.09814576 3.06460927 0 0 Z " fill="#F0F6FA" transform="translate(223,185)"/>
<path d="M0 0 C0.02899599 3.77081722 0.04679729 7.54160583 0.0625 11.3125 C0.07087891 12.38435547 0.07925781 13.45621094 0.08789062 14.56054688 C0.09111328 15.58857422 0.09433594 16.61660156 0.09765625 17.67578125 C0.10289307 18.62364502 0.10812988 19.57150879 0.11352539 20.5480957 C0 23 0 23 -1 26 C-12.22 26 -23.44 26 -35 26 C-29.37621667 20.37621667 -29.37621667 20.37621667 -25.9609375 17.94921875 C-25.22029053 17.41901123 -24.47964355 16.88880371 -23.71655273 16.3425293 C-22.94384033 15.79636963 -22.17112793 15.25020996 -21.375 14.6875 C-19.76937775 13.54188177 -18.16390878 12.39604868 -16.55859375 11.25 C-15.78112793 10.69699219 -15.00366211 10.14398438 -14.20263672 9.57421875 C-10.39614139 6.85372641 -6.63523933 4.07167591 -2.87109375 1.29296875 C-1 0 -1 0 0 0 Z " fill="#E8F5FA" transform="translate(139,186)"/>
<path d="M0 0 C6.2649433 4.04871613 12.21181354 8.37598896 18.0625 13 C19.57367802 14.18818804 21.08539296 15.37569354 22.59765625 16.5625 C23.32355957 17.13355469 24.04946289 17.70460938 24.79736328 18.29296875 C27.68065046 20.52750034 30.61582064 22.68826181 33.56420898 24.8359375 C34.03802002 25.22007812 34.51183105 25.60421875 35 26 C35 26.33 35 26.66 35 27 C25.1 27 15.2 27 5 27 C3.53650467 21.87776635 2.3322289 17.01376927 1.375 11.8125 C1.17390625 10.76545898 1.17390625 10.76545898 0.96875 9.69726562 C0.34997742 6.37925549 0 3.39045592 0 0 Z " fill="#F4F8FB" transform="translate(237,323)"/>
<path d="M0 0 C1.07138687 3.29760194 0.90279404 5.60429626 0.22265625 8.984375 C0.05773682 9.82709961 -0.10718262 10.66982422 -0.27709961 11.53808594 C-0.49503174 12.59801758 -0.71296387 13.65794922 -0.9375 14.75 C-1.618125 18.1325 -2.29875 21.515 -3 25 C-12.9 25 -22.8 25 -33 25 C-27.37410072 19.37410072 -27.37410072 19.37410072 -23.92578125 16.9140625 C-23.17989746 16.37869873 -22.43401367 15.84333496 -21.66552734 15.29174805 C-20.88902832 14.74172119 -20.1125293 14.19169434 -19.3125 13.625 C-18.51537598 13.05499268 -17.71825195 12.48498535 -16.89697266 11.89770508 C-11.29071584 7.89510907 -5.6672729 3.91582926 0 0 Z " fill="#EDF5FA" transform="translate(124,325)"/>
<path d="M0 0 C5.1255423 1.03925694 9.27549607 3.8367359 13.75 6.4375 C14.63816406 6.94087891 15.52632812 7.44425781 16.44140625 7.96289062 C17.28058594 8.44822266 18.11976563 8.93355469 18.984375 9.43359375 C19.75491211 9.87759521 20.52544922 10.32159668 21.31933594 10.77905273 C22.15126465 11.38342163 22.15126465 11.38342163 23 12 C23 12.66 23 13.32 23 14 C21.01220703 15.42041016 21.01220703 15.42041016 18.2578125 17.0390625 C17.27425781 17.61914062 16.29070312 18.19921875 15.27734375 18.796875 C14.23707031 19.40015625 13.19679687 20.0034375 12.125 20.625 C11.09246094 21.23601562 10.05992187 21.84703125 8.99609375 22.4765625 C1.27192034 27 1.27192034 27 -1 27 C-1.02922646 23.62501842 -1.04687468 20.25006979 -1.0625 16.875 C-1.07087891 15.92367188 -1.07925781 14.97234375 -1.08789062 13.9921875 C-1.10449608 9.20981513 -1.00537055 4.70228431 0 0 Z " fill="#ECF7FB" transform="translate(148,249)"/>
<path d="M0 0 C1.09857724 6.1676029 1.11539104 12.18415123 1.0625 18.4375 C1.05798828 19.45521484 1.05347656 20.47292969 1.04882812 21.52148438 C1.03712437 24.01438509 1.02072848 26.50716074 1 29 C-3.05663492 26.69695366 -7.10796074 24.3850458 -11.15234375 22.06054688 C-12.8181868 21.10436001 -14.48703821 20.15341884 -16.15625 19.203125 C-17.0534375 18.68234375 -17.950625 18.1615625 -18.875 17.625 C-19.67679688 17.16351563 -20.47859375 16.70203125 -21.3046875 16.2265625 C-21.86414063 15.82179688 -22.42359375 15.41703125 -23 15 C-23 14.34 -23 13.68 -23 13 C-21.91460937 12.39671875 -20.82921875 11.7934375 -19.7109375 11.171875 C-18.26555301 10.36471223 -16.82024454 9.55741332 -15.375 8.75 C-14.66214844 8.35425781 -13.94929687 7.95851562 -13.21484375 7.55078125 C-9.91170685 5.70223675 -6.67343798 3.82768076 -3.5390625 1.703125 C-1 0 -1 0 0 0 Z " fill="#F5FAFC" transform="translate(214,248)"/>
<path d="M0 0 C2.09765625 0.6953125 2.09765625 0.6953125 4.72265625 2.6953125 C6.66051745 6.92337331 6.63448848 10.30553106 5.09765625 14.6953125 C2.47265625 17.3203125 2.47265625 17.3203125 -0.90234375 18.6953125 C-4.78164124 18.6953125 -7.04066257 18.22557784 -10.33984375 16.1953125 C-12.70165414 12.41641588 -12.76339235 9.02361929 -11.90234375 4.6953125 C-8.7082112 -0.4565142 -5.64065976 -1.03584737 0 0 Z " fill="#80A1C8" transform="translate(466.90234375,200.3046875)"/>
<path d="M0 0 C4.55564061 1.58532809 8.31475769 3.99003081 12.3125 6.625 C12.95767578 7.04523438 13.60285156 7.46546875 14.26757812 7.8984375 C15.84760724 8.92838241 17.42416047 9.96365628 19 11 C17.8211596 14.53652121 17.09806892 14.84192374 14 16.69921875 C12.7934375 17.42915039 12.7934375 17.42915039 11.5625 18.17382812 C10.716875 18.67333984 9.87125 19.17285156 9 19.6875 C8.154375 20.19861328 7.30875 20.70972656 6.4375 21.23632812 C0.16638852 25 0.16638852 25 -1 25 C-1.0271045 21.95827281 -1.04688964 18.91679003 -1.0625 15.875 C-1.07087891 15.0190625 -1.07925781 14.163125 -1.08789062 13.28125 C-1.10538306 8.73321589 -0.93192358 4.47616836 0 0 Z " fill="#EDF5F9" transform="translate(154,123)"/>
<path d="M0 0 C5.50619612 3.26293103 5.50619612 3.26293103 6.55078125 6.9375 C6.81175648 10.87449778 6.24216227 12.65510221 3.9375 15.9375 C0.40585211 18.41716767 -1.6869821 19.07701818 -6 19 C-8.80189446 17.23358828 -10.51524911 15.96950178 -12 13 C-12.39447548 8.81855989 -12.45035186 6.69053952 -10.125 3.125 C-6.80605027 -0.19394973 -4.65258252 -0.53683644 0 0 Z " fill="#81A2C8" transform="translate(329,314)"/>
<path d="M0 0 C3.10355878 1.1952003 4.29655784 2.82069438 5.8359375 5.70703125 C6.35616122 9.27427962 6.07722699 11.17619437 4.5859375 14.45703125 C2.68207013 16.90486073 1.81286299 17.8801075 -1.1640625 18.70703125 C-4.91655162 18.57301378 -7.39150326 18.18245232 -10.6015625 16.20703125 C-12.60666922 12.99886049 -12.85758711 10.65144419 -12.671875 6.90625 C-12.10111868 4.43443609 -11.47011432 3.34367196 -9.6640625 1.58203125 C-5.87318301 -0.44879705 -4.11342036 -0.84317237 0 0 Z " fill="#80A1C8" transform="translate(96.1640625,156.29296875)"/>
<path d="M0 0 C3.125 1.9375 3.125 1.9375 5 5 C5.31475608 8.90708091 5.11971999 12.5138262 2.7109375 15.7109375 C-0.4861738 18.11971999 -4.09291909 18.31475608 -8 18 C-11.0625 16.125 -11.0625 16.125 -13 13 C-13.85694347 8.69232882 -13.72445749 5.29142421 -11.5625 1.4375 C-7.70857579 -0.72445749 -4.30767118 -0.85694347 0 0 Z " fill="#80A1C8" transform="translate(351,111)"/>
<path d="M0 0 C0 7.92 0 15.84 0 24 C-5.27467143 22.24177619 -8.84588254 20.45952769 -13.375 17.5 C-14.01566406 17.09652344 -14.65632812 16.69304687 -15.31640625 16.27734375 C-16.91690644 15.2433319 -18.46409595 14.12773229 -20 13 C-20 12.34 -20 11.68 -20 11 C-18.37939453 9.76318359 -18.37939453 9.76318359 -16.1328125 8.3984375 C-15.32972656 7.90859375 -14.52664062 7.41875 -13.69921875 6.9140625 C-12.84972656 6.40617188 -12.00023437 5.89828125 -11.125 5.375 C-10.28324219 4.859375 -9.44148437 4.34375 -8.57421875 3.8125 C-2.27048198 0 -2.27048198 0 0 0 Z " fill="#F0F6FA" transform="translate(209,123)"/>
<path d="M0 0 C5.09031755 -0.04936158 10.18049643 -0.08570105 15.27099609 -0.10986328 C17.00344265 -0.11993376 18.73587216 -0.13359089 20.46826172 -0.15087891 C22.95544639 -0.17508162 25.44240675 -0.18647239 27.9296875 -0.1953125 C28.70682098 -0.20563507 29.48395447 -0.21595764 30.28463745 -0.22659302 C32.19125493 -0.22699271 34.09731036 -0.1223214 36 0 C36.66 0.66 37.32 1.32 38 2 C37.67 3.65 37.34 5.3 37 7 C24.79 7 12.58 7 0 7 C0 4.69 0 2.38 0 0 Z " fill="#0262B1" transform="translate(325,228)"/>
<path d="M0 0 C0.99 0 1.98 0 3 0 C3.66 3.63 4.32 7.26 5 11 C7.97 11 10.94 11 14 11 C14 14.3 14 17.6 14 21 C7.07 21 0.14 21 -7 21 C-7 17.7 -7 14.4 -7 11 C-4.69 11 -2.38 11 0 11 C0 7.37 0 3.74 0 0 Z " fill="#2F9CDC" transform="translate(88,242)"/>
<path d="M0 0 C7.21930632 1.44386126 14.05110733 3.57788174 21 6 C19.40143688 10.18009363 16.31192211 12.77036124 13.0625 15.6875 C12.52431641 16.18572266 11.98613281 16.68394531 11.43164062 17.19726562 C8.97316535 19.4314164 7.18577982 20.93807339 4 22 C3.32810344 19.08444885 2.66230692 16.16773049 2 13.25 C1.80921875 12.425 1.6184375 11.6 1.421875 10.75 C1.24140625 9.95078125 1.0609375 9.1515625 0.875 8.328125 C0.70742188 7.5949707 0.53984375 6.86181641 0.3671875 6.10644531 C0 4 0 4 0 0 Z " fill="#7C9EC6" transform="translate(47,294)"/>
<path d="M0 0 C10.395 3.465 10.395 3.465 21 7 C17.18627664 11.44934392 13.92649835 15.15915685 9.625 18.9375 C8.75101562 19.70964844 7.87703125 20.48179687 6.9765625 21.27734375 C6.32429688 21.84582031 5.67203125 22.41429687 5 23 C2.87593946 19.37986204 2.14987654 15.57205531 1.375 11.5 C1.2409375 10.83613281 1.106875 10.17226562 0.96875 9.48828125 C0.33173636 6.2317115 0 3.33585901 0 0 Z " fill="#7C9EC6" transform="translate(269,111)"/>
<path d="M0 0 C2.64 0 5.28 0 8 0 C8 3.96 8 7.92 8 12 C0.08 12 -7.84 12 -16 12 C-16 4 -16 4 -15 3 C-7.32147144 2.1629277 -0.33462046 3.88278997 7 6 C7 4.35 7 2.7 7 1 C4.69 1 2.38 1 0 1 C0 0.67 0 0.34 0 0 Z " fill="#3AB7EC" transform="translate(290,398)"/>
<path d="M0 0 C1.98 0 3.96 0 6 0 C5.01 1.485 5.01 1.485 4 3 C3.63566627 5.12337771 3.63566627 5.12337771 3.5859375 7.44921875 C3.52792969 8.72055664 3.52792969 8.72055664 3.46875 10.01757812 C3.42234375 11.33918945 3.42234375 11.33918945 3.375 12.6875 C3.31699219 14.02651367 3.31699219 14.02651367 3.2578125 15.39257812 C3.16359782 17.5948462 3.07798412 19.79710722 3 22 C7.35238449 23.51655324 11.41665016 24.44999802 16 25 C16 25.66 16 26.32 16 27 C14.98679687 27.07476562 13.97359375 27.14953125 12.9296875 27.2265625 C4.27762524 27.71613033 4.27762524 27.71613033 -2.8125 32.125 C-3.534375 33.07375 -4.25625 34.0225 -5 35 C-5.66 35 -6.32 35 -7 35 C-7 31.37 -7 27.74 -7 24 C-4.69 24 -2.38 24 0 24 C0 16.08 0 8.16 0 0 Z " fill="#2E9FDE" transform="translate(72,350)"/>
<path d="M0 0 C-0.99 0.33 -1.98 0.66 -3 1 C-2.34 7.6 -1.68 14.2 -1 21 C-8 20 -8 20 -10.375 18.5 C-12.75870112 14.83276751 -13.33395413 11.34917012 -13 7 C-9.8108598 1.44853373 -6.26980927 -0.34832274 0 0 Z " fill="#36CFFD" transform="translate(318,220)"/>
<path d="M0 0 C2.31 0 4.62 0 7 0 C7.02887236 3.81248426 7.04675492 7.6249407 7.0625 11.4375 C7.07087891 12.52611328 7.07925781 13.61472656 7.08789062 14.73632812 C7.09111328 15.77080078 7.09433594 16.80527344 7.09765625 17.87109375 C7.10289307 18.82943115 7.10812988 19.78776855 7.11352539 20.77514648 C7 23 7 23 6 24 C4.02 24 2.04 24 0 24 C0 16.08 0 8.16 0 0 Z " fill="#32BBF0" transform="translate(281,350)"/>
<path d="M0 0 C1.32 0 2.64 0 4 0 C4.66 3.96 5.32 7.92 6 12 C9.3 12.33 12.6 12.66 16 13 C16 13.66 16 14.32 16 15 C15.2265625 15.00257813 14.453125 15.00515625 13.65625 15.0078125 C6.86682274 15.2598952 2.73668139 16.04847428 -2.37890625 20.625 C-4 22 -4 22 -7 23 C-7 19.7 -7 16.4 -7 13 C-4.69 13 -2.38 13 0 13 C0 8.71 0 4.42 0 0 Z " fill="#3594D6" transform="translate(72,386)"/>
<path d="M0 0 C9.57 0 19.14 0 29 0 C29.33 1.32 29.66 2.64 30 4 C29 5 29 5 26.13256836 5.11352539 C24.88096924 5.10828857 23.62937012 5.10305176 22.33984375 5.09765625 C21.34314415 5.09553383 21.34314415 5.09553383 20.3263092 5.09336853 C18.19666101 5.08775518 16.06711661 5.07520054 13.9375 5.0625 C12.49674631 5.05748671 11.05599097 5.05292351 9.61523438 5.04882812 C6.07678898 5.03778145 2.53840461 5.02050792 -1 5 C-0.67 3.35 -0.34 1.7 0 0 Z " fill="#006BBE" transform="translate(24,452)"/>
<path d="M0 0 C0.66 0.33 1.32 0.66 2 1 C2 9.25 2 17.5 2 26 C4.64 26 7.28 26 10 26 C10 29.63 10 33.26 10 37 C9.67 37 9.34 37 9 37 C9 35.02 9 33.04 9 31 C1.307359 30.15199233 -6.26291674 29.87847513 -14 30 C-14 28.68 -14 27.36 -14 26 C-7.565 25.505 -7.565 25.505 -1 25 C-1.01740234 22.41865234 -1.01740234 22.41865234 -1.03515625 19.78515625 C-1.04453234 17.54427191 -1.05363273 15.30338641 -1.0625 13.0625 C-1.07087891 11.92619141 -1.07925781 10.78988281 -1.08789062 9.61914062 C-1.09111328 8.53955078 -1.09433594 7.45996094 -1.09765625 6.34765625 C-1.10289307 5.34742432 -1.10812988 4.34719238 -1.11352539 3.31665039 C-1 1 -1 1 0 0 Z " fill="#3E99D8" transform="translate(288,348)"/>
<path d="M0 0 C1.60294922 0.04060547 1.60294922 0.04060547 3.23828125 0.08203125 C4.04652344 0.11683594 4.85476562 0.15164063 5.6875 0.1875 C5.6875 2.8275 5.6875 5.4675 5.6875 8.1875 C-1.2425 8.1875 -8.1725 8.1875 -15.3125 8.1875 C-10.38203926 2.02442408 -7.88763146 -0.26003181 0 0 Z " fill="#2EB7EE" transform="translate(82.3125,400.8125)"/>
<path d="M0 0 C1.32 0 2.64 0 4 0 C4 4.29 4 8.58 4 13 C6.31 13 8.62 13 11 13 C11 14.65 11 16.3 11 18 C7.77733341 18.15346031 5.35775445 18.13311793 2.3125 17 C-2.45075863 15.56203513 -7.06073974 15.84180305 -12 16 C-12 15.34 -12 14.68 -12 14 C-10.72125 13.87625 -9.4425 13.7525 -8.125 13.625 C-4.65209064 13.30957601 -4.65209064 13.30957601 -2 11 C-1.31822002 8.34280163 -1.31822002 8.34280163 -0.875 5.375 C-0.70742188 4.37210937 -0.53984375 3.36921875 -0.3671875 2.3359375 C-0.24601562 1.56507813 -0.12484375 0.79421875 0 0 Z " fill="#2E9CDC" transform="translate(286,386)"/>
<path d="M0 0 C0.33 0 0.66 0 1 0 C1 8.25 1 16.5 1 25 C5.62 25 10.24 25 15 25 C15.33 26.32 15.66 27.64 16 29 C15 30 15 30 11.18359375 30.09765625 C9.60153318 30.09098089 8.01948841 30.07901875 6.4375 30.0625 C5.63119141 30.05798828 4.82488281 30.05347656 3.99414062 30.04882812 C1.99606244 30.03700518 -0.00197783 30.01906914 -2 30 C-1.84152588 29.29786377 -1.68305176 28.59572754 -1.51977539 27.87231445 C-0.98109408 24.89552459 -0.79208274 22.06516197 -0.68359375 19.04296875 C-0.62075195 17.37524414 -0.62075195 17.37524414 -0.55664062 15.67382812 C-0.51732422 14.52333984 -0.47800781 13.37285156 -0.4375 12.1875 C-0.39431641 11.01767578 -0.35113281 9.84785156 -0.30664062 8.64257812 C-0.20081721 5.76182969 -0.09873175 2.88099877 0 0 Z " fill="#0B5DB6" transform="translate(449,427)"/>
<path d="M0 0 C1.65 0 3.3 0 5 0 C5 6.6 5 13.2 5 20 C3.35 20 1.7 20 0 20 C0 13.4 0 6.8 0 0 Z " fill="#2EBBF1" transform="translate(267,212)"/>
<path d="M0 0 C2.5625 0.3125 2.5625 0.3125 4.375 1.5 C5.98775784 3.96157776 5.9959014 5.42315736 5.5625 8.3125 C4.4375 10.1875 4.4375 10.1875 2.5625 11.3125 C-2.87228261 10.87771739 -2.87228261 10.87771739 -4.4375 9.3125 C-4.625 5.875 -4.625 5.875 -4.4375 2.3125 C-2.4375 0.3125 -2.4375 0.3125 0 0 Z " fill="#E6EDF5" transform="translate(463.4375,203.6875)"/>
<path d="M0 0 C2.5625 0.3125 2.5625 0.3125 4.375 1.5 C5.98775784 3.96157776 5.9959014 5.42315736 5.5625 8.3125 C4.4375 10.1875 4.4375 10.1875 2.5625 11.3125 C-2.87228261 10.87771739 -2.87228261 10.87771739 -4.4375 9.3125 C-4.625 5.875 -4.625 5.875 -4.4375 2.3125 C-2.4375 0.3125 -2.4375 0.3125 0 0 Z " fill="#E8EFF5" transform="translate(92.4375,159.6875)"/>
<path d="M0 0 C2.64 0 5.28 0 8 0 C8.125 3.375 8.125 3.375 8 7 C7.34 7.66 6.68 8.32 6 9 C5.53603307 11.89223503 5.53603307 11.89223503 5.375 15.125 C5.30023438 16.22070312 5.22546875 17.31640625 5.1484375 18.4453125 C5.09945312 19.28835937 5.05046875 20.13140625 5 21 C4.01 21 3.02 21 2 21 C2 14.4 2 7.8 2 1 C1.34 0.67 0.68 0.34 0 0 Z " fill="#2EB8EE" transform="translate(88,211)"/>
<path d="M0 0 C1.33078101 6.41194487 1.33078101 6.41194487 -0.125 9 C-2 10 -2 10 -4.5625 9.8125 C-7 9 -7 9 -9 7 C-8.75 3.4375 -8.75 3.4375 -8 0 C-5.13822943 -1.43088528 -3.06624227 -0.59991697 0 0 Z " fill="#F2F6F9" transform="translate(330,319)"/>
<path d="M0 0 C3 0.25 3 0.25 5 2.25 C5.36487512 5.09602594 5.40199375 6.6364306 3.8125 9.0625 C1.3864306 10.65199375 -0.15397406 10.61487512 -3 10.25 C-5 8.25 -5 8.25 -5.25 5.25 C-4.90584825 1.120179 -4.129821 0.34415175 0 0 Z " fill="#EFF4F8" transform="translate(347,114.75)"/>
<path d="M0 0 C4.95 0 9.9 0 15 0 C15.33 1.65 15.66 3.3 16 5 C10.72 5 5.44 5 0 5 C-0.33 4.01 -0.66 3.02 -1 2 C-0.67 1.34 -0.34 0.68 0 0 Z " fill="#0069BF" transform="translate(474,452)"/>
<path d="M0 0 C0.66 0 1.32 0 2 0 C2 6.6 2 13.2 2 20 C3.32 20.66 4.64 21.32 6 22 C4.7625 22.433125 3.525 22.86625 2.25 23.3125 C-0.91596559 24.49131697 -3.43121425 25.75231247 -6 28 C-6 25.69 -6 23.38 -6 21 C-4.02 21 -2.04 21 0 21 C0 14.07 0 7.14 0 0 Z " fill="#3098D9" transform="translate(88,212)"/>
<path d="M0 0 C0.33 0 0.66 0 1 0 C1 2.97 1 5.94 1 9 C7.88359857 8.69177917 10.22978564 8.16773222 15 3 C17.8125 2.6875 17.8125 2.6875 20 3 C20.33 5.31 20.66 7.62 21 10 C14.07 10 7.14 10 0 10 C0 6.7 0 3.4 0 0 Z " fill="#4DC4F2" transform="translate(81,253)"/>
<path d="M0 0 C0.99 1.485 0.99 1.485 2 3 C2.66 2.67 3.32 2.34 4 2 C6.5625 3.1875 6.5625 3.1875 9 5 C9.33 6.32 9.66 7.64 10 9 C13.63 9 17.26 9 21 9 C21 9.33 21 9.66 21 10 C14.07 10 7.14 10 0 10 C0 6.7 0 3.4 0 0 Z " fill="#46C3F2" transform="translate(260,253)"/>
<path d="M0 0 C1.98 0 3.96 0 6 0 C5.01 1.485 5.01 1.485 4 3 C3.61987419 5.08978305 3.61987419 5.08978305 3.55078125 7.37890625 C3.50759766 8.21744141 3.46441406 9.05597656 3.41992188 9.91992188 C3.38447266 10.79197266 3.34902344 11.66402344 3.3125 12.5625 C3.26544922 13.43841797 3.21839844 14.31433594 3.16992188 15.21679688 C2.77634109 19.75691599 2.77634109 19.75691599 4 24 C2.68 24 1.36 24 0 24 C0 16.08 0 8.16 0 0 Z " fill="#39A3DF" transform="translate(72,350)"/>
<path d="M0 0 C0 6.93 0 13.86 0 21 C1.98 21 3.96 21 6 21 C6 21.33 6 21.66 6 22 C-0.75 22.125 -0.75 22.125 -3 21 C-3 14.4 -3 7.8 -3 1 C-4.65 1 -6.3 1 -8 1 C-8 0.67 -8 0.34 -8 0 C-4.71303767 -0.79953138 -3.28976808 -1.09658936 0 0 Z " fill="#4FACE2" transform="translate(275,211)"/>
<path d="M0 0 C1.86785156 0.15275391 1.86785156 0.15275391 3.7734375 0.30859375 C5.18496094 0.43427734 5.18496094 0.43427734 6.625 0.5625 C6.625 3.5325 6.625 6.5025 6.625 9.5625 C5.965 8.5725 5.305 7.5825 4.625 6.5625 C1.69869289 5.35149671 1.69869289 5.35149671 -1.6875 4.4375 C-2.81800781 4.10492188 -3.94851563 3.77234375 -5.11328125 3.4296875 C-7.85998697 2.69942562 -10.5810897 2.07620208 -13.375 1.5625 C-13.375 1.2325 -13.375 0.9025 -13.375 0.5625 C-8.75534912 -0.39696595 -4.69370875 -0.39852244 0 0 Z " fill="#329EDD" transform="translate(274.375,232.4375)"/>
<path d="M0 0 C0.66 0 1.32 0 2 0 C2 3.63 2 7.26 2 11 C4.31 11 6.62 11 9 11 C9 13.97 9 16.94 9 20 C8.67 20 8.34 20 8 20 C7.67 18.35 7.34 16.7 7 15 C6.38511719 14.87882812 5.77023437 14.75765625 5.13671875 14.6328125 C3.92435547 14.38144531 3.92435547 14.38144531 2.6875 14.125 C1.88699219 13.96257812 1.08648437 13.80015625 0.26171875 13.6328125 C-2 13 -2 13 -5 11 C-3.68 11 -2.36 11 -1 11 C-0.67 7.37 -0.34 3.74 0 0 Z " fill="#3291D4" transform="translate(272,242)"/>
<path d="M0 0 C1.32 0.33 2.64 0.66 4 1 C4 3.31 4 5.62 4 8 C2.02 8 0.04 8 -2 8 C-2 11.63 -2 15.26 -2 19 C-2.33 19 -2.66 19 -3 19 C-3 15.37 -3 11.74 -3 8 C-3.99 7.67 -4.98 7.34 -6 7 C-4.625 5 -4.625 5 -3 3 C-2.34 3 -1.68 3 -1 3 C-0.67 2.01 -0.34 1.02 0 0 Z " fill="#34BDF1" transform="translate(98,234)"/>
<path d="M0 0 C3.21524305 1.40844718 5.32183868 3.10344786 7.75 5.625 C8.67039063 6.57246094 8.67039063 6.57246094 9.609375 7.5390625 C10.29773438 8.26222656 10.29773438 8.26222656 11 9 C10.34 10.32 9.68 11.64 9 13 C4.86378916 9.6189962 1.18683431 6.33409466 -2 2 C-1.34 1.34 -0.68 0.68 0 0 Z " fill="#84A4CA" transform="translate(185,418)"/>
<path d="M0 0 C3.21524305 1.40844718 5.32183868 3.10344786 7.75 5.625 C8.67039063 6.57246094 8.67039063 6.57246094 9.609375 7.5390625 C10.29773438 8.26222656 10.29773438 8.26222656 11 9 C10.34 10.32 9.68 11.64 9 13 C4.86378916 9.6189962 1.18683431 6.33409466 -2 2 C-1.34 1.34 -0.68 0.68 0 0 Z " fill="#84A4CA" transform="translate(163,396)"/>
<path d="M0 0 C3.21524305 1.40844718 5.32183868 3.10344786 7.75 5.625 C8.67039062 6.57246094 8.67039062 6.57246094 9.609375 7.5390625 C10.29773438 8.26222656 10.29773438 8.26222656 11 9 C10.34 10.32 9.68 11.64 9 13 C4.86378916 9.6189962 1.18683431 6.33409466 -2 2 C-1.34 1.34 -0.68 0.68 0 0 Z " fill="#84A4CA" transform="translate(330,186)"/>
<path d="M0 0 C3.21524305 1.40844718 5.32183868 3.10344786 7.75 5.625 C8.67039062 6.57246094 8.67039062 6.57246094 9.609375 7.5390625 C10.29773438 8.26222656 10.29773438 8.26222656 11 9 C10.34 10.32 9.68 11.64 9 13 C4.86378916 9.6189962 1.18683431 6.33409466 -2 2 C-1.34 1.34 -0.68 0.68 0 0 Z " fill="#84A4CA" transform="translate(308,164)"/>
<path d="M0 0 C0.99 0 1.98 0 3 0 C3.17760064 4.52881629 3.09143803 7.93331494 1 12 C-1 14 -1 14 -2.9453125 14.1953125 C-4.96354167 14.13020833 -6.98177083 14.06510417 -9 14 C-9 13.34 -9 12.68 -9 12 C-6.36 12 -3.72 12 -1 12 C-1.01160156 11.21753906 -1.02320313 10.43507813 -1.03515625 9.62890625 C-1.04417969 8.61699219 -1.05320312 7.60507812 -1.0625 6.5625 C-1.07410156 5.55316406 -1.08570313 4.54382813 -1.09765625 3.50390625 C-1 1 -1 1 0 0 Z " fill="#37AEE6" transform="translate(283,386)"/>
<path d="M0 0 C2.31 0 4.62 0 7 0 C7 0.33 7 0.66 7 1 C5.02 1 3.04 1 1 1 C1.33 2.65 1.66 4.3 2 6 C3.32 5.34 4.64 4.68 6 4 C6.99 4.66 7.98 5.32 9 6 C9.1875 8.625 9.1875 8.625 9 11 C8.01 11.495 8.01 11.495 7 12 C7 11.34 7 10.68 7 10 C4.69 10 2.38 10 0 10 C0 6.7 0 3.4 0 0 Z " fill="#41C1F2" transform="translate(260,232)"/>
<path d="M0 0 C4.95 1.98 4.95 1.98 10 4 C10 4.99 10 5.98 10 7 C8.35 7 6.7 7 5 7 C5 10.63 5 14.26 5 18 C4.67 18 4.34 18 4 18 C4 14.37 4 10.74 4 7 C3.01 7 2.02 7 1 7 C0.67 4.69 0.34 2.38 0 0 Z " fill="#44B4E9" transform="translate(270,235)"/>
<path d="M0 0 C5.14860706 1.28715177 5.86461447 2.90658001 9 7 C6.34209561 10.21746321 5.58834962 10.08233008 1 11 C0.67 7.37 0.34 3.74 0 0 Z " fill="#5AD1F2" transform="translate(176,259)"/>
<path d="M0 0 C0.99 0.99 1.98 1.98 3 3 C2.43410156 3.55429687 1.86820313 4.10859375 1.28515625 4.6796875 C0.55167969 5.40414063 -0.18179688 6.12859375 -0.9375 6.875 C-1.66839844 7.59429687 -2.39929688 8.31359375 -3.15234375 9.0546875 C-5.05667999 10.87027192 -5.05667999 10.87027192 -6 13 C-7.32 12.34 -8.64 11.68 -10 11 C-6.79239749 7.19364503 -3.59253891 3.45436433 0 0 Z " fill="#7EA0C7" transform="translate(171,418)"/>
<path d="M0 0 C0.66 0.33 1.32 0.66 2 1 C2 9.25 2 17.5 2 26 C1.01 25.67 0.02 25.34 -1 25 C-1.02886984 21.02084841 -1.04675406 17.04172347 -1.0625 13.0625 C-1.07087891 11.92619141 -1.07925781 10.78988281 -1.08789062 9.61914062 C-1.09111328 8.53955078 -1.09433594 7.45996094 -1.09765625 6.34765625 C-1.10289307 5.34742432 -1.10812988 4.34719238 -1.11352539 3.31665039 C-1 1 -1 1 0 0 Z " fill="#309FDE" transform="translate(288,348)"/>
<path d="M0 0 C0.99 0.33 1.98 0.66 3 1 C1.59155282 4.21524305 -0.10344786 6.32183868 -2.625 8.75 C-3.57246094 9.67039063 -3.57246094 9.67039063 -4.5390625 10.609375 C-5.02117187 11.06828125 -5.50328125 11.5271875 -6 12 C-6.99 11.67 -7.98 11.34 -9 11 C-7.59155282 7.78475695 -5.89655214 5.67816132 -3.375 3.25 C-2.74335938 2.63640625 -2.11171875 2.0228125 -1.4609375 1.390625 C-0.73777344 0.70226562 -0.73777344 0.70226562 0 0 Z " fill="#7C9EC6" transform="translate(316,186)"/>
<path d="M0 0 C0.99 0.33 1.98 0.66 3 1 C1.59155282 4.21524305 -0.10344786 6.32183868 -2.625 8.75 C-3.57246094 9.67039063 -3.57246094 9.67039063 -4.5390625 10.609375 C-5.02117187 11.06828125 -5.50328125 11.5271875 -6 12 C-6.99 11.67 -7.98 11.34 -9 11 C-7.59155282 7.78475695 -5.89655214 5.67816132 -3.375 3.25 C-2.74335938 2.63640625 -2.11171875 2.0228125 -1.4609375 1.390625 C-0.73777344 0.70226562 -0.73777344 0.70226562 0 0 Z " fill="#7C9EC6" transform="translate(338,164)"/>
<path d="M0 0 C0.99 0.99 1.98 1.98 3 3 C1.57189185 4.50894446 0.13218981 6.00692345 -1.3125 7.5 C-2.11300781 8.3353125 -2.91351563 9.170625 -3.73828125 10.03125 C-6 12 -6 12 -9 12 C-8.45015228 8.12488273 -6.72444669 6.40423494 -3.9375 3.75 C-3.20402344 3.04359375 -2.47054687 2.3371875 -1.71484375 1.609375 C-1.14894531 1.07828125 -0.58304688 0.5471875 0 0 Z " fill="#7B9DC6" transform="translate(193,396)"/>
<path d="M0 0 C0.66 0 1.32 0 2 0 C2 4.29 2 8.58 2 13 C4.31 13 6.62 13 9 13 C9 14.65 9 16.3 9 18 C8.67 17.34 8.34 16.68 8 16 C5.88672575 15.09274566 5.88672575 15.09274566 3.4375 14.375 C1.973125 13.92125 0.50875 13.4675 -1 13 C-0.67 8.71 -0.34 4.42 0 0 Z " fill="#2E8AD1" transform="translate(288,386)"/>
<path d="M0 0 C1.65 0 3.3 0 5 0 C5 3.96 5 7.92 5 12 C4.01 12 3.02 12 2 12 C0.70756464 7.8803623 -0.26252625 4.33168317 0 0 Z " fill="#2EB0E9" transform="translate(76,386)"/>
<path d="M0 0 C-0.33 0.99 -0.66 1.98 -1 3 C-1 2.34 -1 1.68 -1 1 C-5.46242021 2.20839273 -5.46242021 2.20839273 -8.9375 5.125 C-11 7 -11 7 -14.75 7.25 C-15.8225 7.1675 -16.895 7.085 -18 7 C-13.19403511 -0.02410253 -7.93178202 -0.27350972 0 0 Z " fill="#2EB0EA" transform="translate(102,255)"/>
<path d="M0 0 C4.24822374 0.47202486 6.19989709 2.96655518 9 6 C8.34 7.32 7.68 8.64 7 10 C5.82174642 9.09827532 4.65768423 8.17798498 3.5 7.25 C2.8503125 6.73953125 2.200625 6.2290625 1.53125 5.703125 C0 4 0 4 0 0 Z " fill="#85A5CA" transform="translate(427,276)"/>
<path d="M0 0 C4.2742558 1.5830577 6.26531794 4.50568404 9 8 C7.02 8.99 7.02 8.99 5 10 C3.96468274 9.09972412 2.94705835 8.17906965 1.9375 7.25 C1.36902344 6.73953125 0.80054688 6.2290625 0.21484375 5.703125 C-1 4 -1 4 -0.68359375 1.796875 C-0.45800781 1.20390625 -0.23242188 0.6109375 0 0 Z " fill="#85A5CA" transform="translate(411,259)"/>
<path d="M0 0 C0.33 0 0.66 0 1 0 C1.84244829 4.06744566 2.41698387 7.85127445 2 12 C-0.25321219 14.80240059 -2.80236442 16.40468072 -6 18 C-6 15.69 -6 13.38 -6 11 C-4.02 11 -2.04 11 0 11 C0 7.37 0 3.74 0 0 Z " fill="#338CD2" transform="translate(88,242)"/>
<path d="M0 0 C3.3 0 6.6 0 10 0 C6.87378374 3.39417765 4.43458973 5.6062718 0 7 C0 4.69 0 2.38 0 0 Z " fill="#358ED2" transform="translate(65,374)"/>
<path d="M0 0 C0.33 0 0.66 0 1 0 C1.33 2.31 1.66 4.62 2 7 C5.3 7.33 8.6 7.66 12 8 C12 8.66 12 9.32 12 10 C8.37 10.33 4.74 10.66 1 11 C0.0318352 7.1273408 -0.07622858 3.96388638 0 0 Z " fill="#2E9FDE" transform="translate(76,391)"/>
<path d="M0 0 C0.33 0 0.66 0 1 0 C1 4.62 1 9.24 1 14 C0.01 14 -0.98 14 -2 14 C-2.05389087 12.04196493 -2.09274217 10.08351091 -2.125 8.125 C-2.14820312 7.03445312 -2.17140625 5.94390625 -2.1953125 4.8203125 C-2 2 -2 2 0 0 Z " fill="#38C8F8" transform="translate(95,218)"/>
<path d="M0 0 C-1.26700723 0.9841125 -2.5387619 1.96211497 -3.8125 2.9375 C-4.87404297 3.75541016 -4.87404297 3.75541016 -5.95703125 4.58984375 C-8 6 -8 6 -11 7 C-11 5.02 -11 3.04 -11 1 C-3.375 -1.125 -3.375 -1.125 0 0 Z " fill="#2E9EDD" transform="translate(76,402)"/>
<path d="M0 0 C0.99 0.99 1.98 1.98 3 3 C0.69 5.31 -1.62 7.62 -4 10 C-4.99 9.01 -5.98 8.02 -7 7 C-4.69 4.69 -2.38 2.38 0 0 Z " fill="#7A9DC5" transform="translate(433,259)"/>
<path d="M0 0 C0.99 0.33 1.98 0.66 3 1 C1.55746343 4.36591866 -0.33264727 6.51047079 -3 9 C-3.99 8.67 -4.98 8.34 -6 8 C-4.55746343 4.63408134 -2.66735273 2.48952921 0 0 Z " fill="#7A9DC5" transform="translate(416,276)"/>
<path d="M0 0 C3.3 0.33 6.6 0.66 10 1 C9.67 1.66 9.34 2.32 9 3 C7.14453125 3.30859375 7.14453125 3.30859375 4.8125 3.4375 C-1.14726668 3.97671698 -5.37023044 6.26057074 -10 10 C-8.59136573 6.52289751 -7.11397363 5.15256208 -3.875 3.3125 C-2.57085804 2.56296645 -1.27521703 1.79775205 0 1 C0 0.67 0 0.34 0 0 Z " fill="#2EA2E0" transform="translate(92,232)"/>
<path d="M0 0 C2.97 0 5.94 0 9 0 C9 0.33 9 0.66 9 1 C10.98 1.66 12.96 2.32 15 3 C11.71480525 4.09506492 9.26336585 4.09960608 5.8125 4.0625 C4.18248047 4.04896484 4.18248047 4.04896484 2.51953125 4.03515625 C1.68808594 4.02355469 0.85664063 4.01195312 0 4 C0 2.68 0 1.36 0 0 Z " fill="#37A4E0" transform="translate(274,374)"/>
<path d="M0 0 C3.36720387 1.39332574 4.9859524 2.9789286 7 6 C4.8125 6.8125 4.8125 6.8125 2 7 C-0.8125 4.5625 -0.8125 4.5625 -3 2 C-2.01 1.34 -1.02 0.68 0 0 Z " fill="#61D5F3" transform="translate(180,131)"/>
<path d="M0 0 C1.32 0.33 2.64 0.66 4 1 C3.34 1.66 2.68 2.32 2 3 C1.69324768 5.89967757 1.48826629 8.71783178 1.375 11.625 C1.33632812 12.42679687 1.29765625 13.22859375 1.2578125 14.0546875 C1.16346069 16.03607556 1.08063785 18.01800645 1 20 C0.67 20 0.34 20 0 20 C0 13.4 0 6.8 0 0 Z " fill="#2EACE6" transform="translate(74,350)"/>
<path d="M0 0 C2.69082872 0.17635452 5.32851446 0.61835921 8 1 C8 2.32 8 3.64 8 5 C6.35 4.67 4.7 4.34 3 4 C3 3.34 3 2.68 3 2 C1.68 1.67 0.36 1.34 -1 1 C-0.67 0.67 -0.34 0.34 0 0 Z " fill="#2E8CD2" transform="translate(272,232)"/>
<path d="M0 0 C2.31 0 4.62 0 7 0 C7 0.66 7 1.32 7 2 C4.35261084 3.4606285 3.10551666 4 0 4 C0 2.68 0 1.36 0 0 Z " fill="#2E88CF" transform="translate(65,399)"/>
<path d="M0 0 C1.45922693 0.11409593 2.91740598 0.24165544 4.375 0.375 C5.59316406 0.47941406 5.59316406 0.47941406 6.8359375 0.5859375 C9 1 9 1 11 3 C10.06027344 2.98259766 10.06027344 2.98259766 9.1015625 2.96484375 C7.87566406 2.95130859 7.87566406 2.95130859 6.625 2.9375 C5.40683594 2.92009766 5.40683594 2.92009766 4.1640625 2.90234375 C1.95062858 2.85533666 1.95062858 2.85533666 0 4 C0 2.68 0 1.36 0 0 Z " fill="#31A2DF" transform="translate(261,253)"/>
<path d="M0 0 C2.64 0.33 5.28 0.66 8 1 C8 2.32 8 3.64 8 5 C7.34 5 6.68 5 6 5 C6 4.34 6 3.68 6 3 C3.03 2.505 3.03 2.505 0 2 C0 1.34 0 0.68 0 0 Z " fill="#2E87CF" transform="translate(289,374)"/>
</svg>
