<?xml version="1.0" encoding="UTF-8"?>
<svg version="1.1" xmlns="http://www.w3.org/2000/svg" width="512" height="512">
<path d="M0 0 C1.38769967 -0.00374044 2.77539723 -0.00834353 4.16309148 -0.01373065 C7.96227343 -0.02592759 11.76136711 -0.02570409 15.56056416 -0.02334189 C19.66365539 -0.02293289 23.76671864 -0.03398094 27.86979675 -0.04345703 C35.90358117 -0.06005021 43.93733623 -0.06556583 51.97113635 -0.06668179 C58.50401938 -0.06763313 65.03689275 -0.07174771 71.56977272 -0.07808304 C90.10540589 -0.0956914 108.64101593 -0.10492262 127.17665752 -0.10342209 C128.1753364 -0.10334218 129.17401528 -0.10326227 130.20295715 -0.10317993 C131.70281185 -0.10305729 131.70281185 -0.10305729 133.23296664 -0.10293217 C149.43206424 -0.10211954 165.63106879 -0.12125245 181.83013948 -0.14945666 C198.47667482 -0.17821045 215.12316482 -0.19199556 231.76972562 -0.19026911 C241.11006527 -0.18960604 250.45030739 -0.19506196 259.79062462 -0.21662521 C267.74426854 -0.23486992 275.69777074 -0.23915744 283.65142658 -0.22560637 C287.7057504 -0.21909308 291.75980258 -0.21889977 295.81410027 -0.23631287 C299.5333601 -0.25212198 303.25213469 -0.24910106 306.97138325 -0.2317446 C308.93777664 -0.2272574 310.90418555 -0.24227033 312.87051934 -0.25822389 C326.76842257 -0.15124245 338.1382886 3.55511233 348.32771301 13.14633179 C359.46776385 25.00509558 360.64783957 38.64826143 360.55867004 54.27597046 C360.55810453 55.64703361 360.55842522 57.01809736 360.55955505 58.38916016 C360.56012411 62.07646207 360.54844309 65.76363135 360.53440714 69.4509027 C360.52182441 73.3172523 360.52072338 77.18360562 360.51835632 81.04997253 C360.51216356 88.35594928 360.49578288 95.66186549 360.47565734 102.9678157 C360.45322936 111.29196675 360.44228764 119.61612083 360.43226647 127.94029462 C360.41141446 145.04937918 360.37476609 162.15838047 360.33161926 179.26742554 C371.22161926 179.26742554 382.11161926 179.26742554 393.33161926 179.26742554 C393.310672 174.76013794 393.28972473 170.25285034 393.2681427 165.60897827 C393.20189527 150.72515589 393.15748902 135.84132774 393.12437057 120.95739651 C393.10375455 111.93232643 393.07565234 102.90739613 393.02986145 93.88241577 C392.98996425 86.01527231 392.96417947 78.1482301 392.95526528 70.28098828 C392.9500554 66.11617279 392.93783045 61.95164693 392.90869904 57.78692436 C392.88148423 53.86430732 392.87318641 49.94209832 392.87918854 46.01939583 C392.878091 44.58229986 392.87017296 43.14518979 392.85479736 41.70817566 C392.71647457 28.10973979 392.71647457 28.10973979 397.33161926 22.26742554 C402.15513615 18.52673897 405.97831982 16.89539258 412.14021301 16.98617554 C417.25208697 17.64224492 421.16069673 20.06568925 424.70661926 23.70492554 C427.65190428 28.34941345 428.58145422 31.98972075 428.5721283 37.48735046 C428.57625229 39.36560265 428.57625229 39.36560265 428.58045959 41.28179932 C428.57338226 42.66153051 428.56611265 44.04126072 428.55867004 45.42098999 C428.55810565 46.87983696 428.55842304 48.33868449 428.55955505 49.79753113 C428.56012846 53.75170431 428.54837605 57.70575595 428.53440714 61.6599009 C428.52189785 65.794547 428.52072912 69.92919593 428.51835632 74.06385803 C428.51214214 81.89064714 428.49573215 89.71738032 428.47565734 97.54414481 C428.45329643 106.45581248 428.44230443 115.36748284 428.43226647 124.27917159 C428.41136588 142.60862127 428.37619109 160.9380189 428.33161926 179.26742554 C429.25716614 179.39633179 430.18271301 179.52523804 431.13630676 179.65805054 C436.13944191 180.61219367 439.22804882 183.07437641 442.64411926 186.76742554 C445.1199619 190.43534055 445.45579928 193.51267905 445.47206116 197.87736511 C445.4777713 198.7983046 445.48348145 199.71924408 445.48936462 200.66809082 C445.49048248 201.67129364 445.49160034 202.67449646 445.49275208 203.70809937 C445.49771698 204.77033218 445.50268188 205.832565 445.50779724 206.92698669 C445.52240824 210.44281664 445.52921901 213.95860146 445.53474426 217.47445679 C445.54049644 219.91819764 445.54625416 222.36193849 445.55201721 224.80567932 C445.56252407 229.93103241 445.56836886 235.05636983 445.57185364 240.18173218 C445.57733869 246.74561141 445.60136853 253.30928324 445.62982559 259.87309742 C445.64845885 264.92174381 445.65365794 269.9703403 445.65518951 275.01901817 C445.65821483 277.43869855 445.66623924 279.85837806 445.67937469 282.27802467 C445.69644962 285.66503259 445.69455116 289.05153449 445.68806458 292.43856812 C445.69727936 293.43569824 445.70649414 294.43282837 445.71598816 295.46017456 C445.67818493 301.76890504 445.10537808 306.95558782 440.90193176 311.97445679 C435.29056311 316.26639551 431.29670313 317.51952175 424.24641418 317.49447632 C423.55318054 317.49476837 422.8599469 317.49506042 422.14570618 317.49536133 C419.86770353 317.4939745 417.59003311 317.4784442 415.31208801 317.46273804 C413.72739846 317.4590056 412.1427066 317.45615972 410.55801392 317.4541626 C406.39707513 317.44654431 402.23627706 317.42691142 398.07539368 317.40475464 C393.82553511 317.38425725 389.57565369 317.37515257 385.32575989 317.36508179 C376.99431527 317.34366374 368.6629848 317.30954969 360.33161926 317.26742554 C360.33438464 318.32676914 360.33438464 318.32676914 360.33720589 319.40751362 C360.38146159 336.62751251 360.41451304 353.84749687 360.43524361 371.06754017 C360.44553637 379.39517579 360.45955829 387.72277334 360.48249817 396.05038452 C360.50249347 403.31254706 360.51535022 410.57468202 360.51979625 417.83687133 C360.52239327 421.67866952 360.5284553 425.52038883 360.54307938 429.36216164 C360.55676054 432.9859503 360.56082086 436.60962836 360.55783463 440.2334404 C360.55863814 442.18153553 360.56934422 444.12961891 360.58045959 446.0776825 C360.54421693 461.69468856 357.75109313 473.45520678 346.78083801 485.00570679 C335.961147 494.99709609 323.55700356 496.72254448 309.30247498 496.65510559 C307.91218429 496.65928642 306.52189703 496.66476802 305.131616 496.6714254 C301.33916743 496.6858007 297.54693764 496.68166029 293.7544775 496.67425859 C289.65347731 496.66950947 285.55252327 496.68205213 281.45153809 496.692276 C273.42817427 496.70943534 265.40488886 496.71030996 257.38151146 496.7050631 C250.8572776 496.70101478 244.33306684 496.7024728 237.80883408 496.70781136 C236.87878112 496.70855978 235.94872817 496.7093082 234.9904918 496.7100793 C233.10083418 496.71161084 231.21117656 496.71314919 229.32151894 496.71469427 C211.61736236 496.72840897 193.91325002 496.72298889 176.20909445 496.71150906 C160.02958313 496.70157798 143.8501862 496.71451702 127.67069252 496.73844325 C111.03761708 496.76285398 94.40459488 496.77243725 77.7715019 496.76579052 C68.44127347 496.76230266 59.11113297 496.76450172 49.78091812 496.78204155 C41.83831862 496.79678823 33.89586899 496.79736681 25.95327236 496.77997064 C21.90500886 496.77147849 17.85701281 496.76926708 13.8087635 496.78462219 C10.09516578 496.79853299 6.382063 496.79362517 2.66849343 496.77438296 C0.70523219 496.76888445 -1.25805467 496.78284096 -3.2212671 496.79773706 C-15.33833133 496.69805562 -26.1517269 493.98918985 -35.66838074 486.26742554 C-36.29357605 485.76598022 -36.91877136 485.26453491 -37.56291199 484.74789429 C-45.72512015 477.43925038 -50.17942167 466.38827464 -50.9213804 455.5829199 C-50.92349368 453.6751432 -50.92349368 453.6751432 -50.92564964 451.72882557 C-50.93090875 450.65208103 -50.93090875 450.65208103 -50.93627411 449.55358407 C-50.9455427 447.15968278 -50.94067664 444.7660272 -50.93580627 442.37211609 C-50.93954483 440.63380889 -50.94414717 438.89550338 -50.94953692 437.15720052 C-50.96175702 432.3888898 -50.96150761 427.62064931 -50.95914817 422.85232651 C-50.95873975 417.70628349 -50.96978157 412.5602629 -50.97926331 407.41423035 C-50.99586906 397.33505208 -51.00137267 387.25589721 -51.00248806 377.17670641 C-51.00343877 368.98240139 -51.00755024 360.78810408 -51.01388931 352.5938015 C-51.03150088 329.3544794 -51.04072836 306.11517578 -51.03922836 282.87584696 C-51.03914845 281.62327346 -51.03906854 280.37069995 -51.03898621 279.08016968 C-51.03886356 277.1990116 -51.03886356 277.1990116 -51.03873844 275.27985033 C-51.03792566 254.95835024 -51.05706169 234.63692429 -51.08526294 214.31544564 C-51.11400036 193.44266526 -51.12780275 172.56992103 -51.12607539 151.69712037 C-51.12541176 139.98140627 -51.13089194 128.26576989 -51.15243149 116.55007362 C-51.17065457 106.57440991 -51.17498133 96.59885914 -51.16141264 86.62318597 C-51.15488863 81.5359964 -51.15474541 76.44902344 -51.17211914 71.36185455 C-51.18787988 66.69891218 -51.18495558 62.03635764 -51.16755088 57.37342455 C-51.16448758 55.69241888 -51.16808792 54.01138405 -51.17927103 52.33041278 C-51.26454121 38.59641789 -49.58741542 26.25964988 -40.66838074 15.26742554 C-40.16693542 14.64223022 -39.66549011 14.01703491 -39.14884949 13.37289429 C-28.82469089 1.84299454 -14.57182178 -0.03528468 0 0 Z " fill="#E0DEE9" transform="translate(58.66838073730469,7.732574462890625)"/>
<path d="M0 0 C1.38769967 -0.00374044 2.77539723 -0.00834353 4.16309148 -0.01373065 C7.96227343 -0.02592759 11.76136711 -0.02570409 15.56056416 -0.02334189 C19.66365539 -0.02293289 23.76671864 -0.03398094 27.86979675 -0.04345703 C35.90358117 -0.06005021 43.93733623 -0.06556583 51.97113635 -0.06668179 C58.50401938 -0.06763313 65.03689275 -0.07174771 71.56977272 -0.07808304 C90.10540589 -0.0956914 108.64101593 -0.10492262 127.17665752 -0.10342209 C128.1753364 -0.10334218 129.17401528 -0.10326227 130.20295715 -0.10317993 C131.70281185 -0.10305729 131.70281185 -0.10305729 133.23296664 -0.10293217 C149.43206424 -0.10211954 165.63106879 -0.12125245 181.83013948 -0.14945666 C198.47667482 -0.17821045 215.12316482 -0.19199556 231.76972562 -0.19026911 C241.11006527 -0.18960604 250.45030739 -0.19506196 259.79062462 -0.21662521 C267.74426854 -0.23486992 275.69777074 -0.23915744 283.65142658 -0.22560637 C287.7057504 -0.21909308 291.75980258 -0.21889977 295.81410027 -0.23631287 C299.5333601 -0.25212198 303.25213469 -0.24910106 306.97138325 -0.2317446 C308.93777664 -0.2272574 310.90418555 -0.24227033 312.87051934 -0.25822389 C326.76842257 -0.15124245 338.1382886 3.55511233 348.32771301 13.14633179 C359.46776385 25.00509558 360.64783957 38.64826143 360.55867004 54.27597046 C360.55810453 55.64703361 360.55842522 57.01809736 360.55955505 58.38916016 C360.56012411 62.07646207 360.54844309 65.76363135 360.53440714 69.4509027 C360.52182441 73.3172523 360.52072338 77.18360562 360.51835632 81.04997253 C360.51216356 88.35594928 360.49578288 95.66186549 360.47565734 102.9678157 C360.45322936 111.29196675 360.44228764 119.61612083 360.43226647 127.94029462 C360.41141446 145.04937918 360.37476609 162.15838047 360.33161926 179.26742554 C371.22161926 179.26742554 382.11161926 179.26742554 393.33161926 179.26742554 C393.310672 174.76013794 393.28972473 170.25285034 393.2681427 165.60897827 C393.20189527 150.72515589 393.15748902 135.84132774 393.12437057 120.95739651 C393.10375455 111.93232643 393.07565234 102.90739613 393.02986145 93.88241577 C392.98996425 86.01527231 392.96417947 78.1482301 392.95526528 70.28098828 C392.9500554 66.11617279 392.93783045 61.95164693 392.90869904 57.78692436 C392.88148423 53.86430732 392.87318641 49.94209832 392.87918854 46.01939583 C392.878091 44.58229986 392.87017296 43.14518979 392.85479736 41.70817566 C392.71647457 28.10973979 392.71647457 28.10973979 397.33161926 22.26742554 C402.15513615 18.52673897 405.97831982 16.89539258 412.14021301 16.98617554 C417.25208697 17.64224492 421.16069673 20.06568925 424.70661926 23.70492554 C427.65190428 28.34941345 428.58145422 31.98972075 428.5721283 37.48735046 C428.57625229 39.36560265 428.57625229 39.36560265 428.58045959 41.28179932 C428.57338226 42.66153051 428.56611265 44.04126072 428.55867004 45.42098999 C428.55810565 46.87983696 428.55842304 48.33868449 428.55955505 49.79753113 C428.56012846 53.75170431 428.54837605 57.70575595 428.53440714 61.6599009 C428.52189785 65.794547 428.52072912 69.92919593 428.51835632 74.06385803 C428.51214214 81.89064714 428.49573215 89.71738032 428.47565734 97.54414481 C428.45329643 106.45581248 428.44230443 115.36748284 428.43226647 124.27917159 C428.41136588 142.60862127 428.37619109 160.9380189 428.33161926 179.26742554 C429.25716614 179.39633179 430.18271301 179.52523804 431.13630676 179.65805054 C436.13944191 180.61219367 439.22804882 183.07437641 442.64411926 186.76742554 C445.1199619 190.43534055 445.45579928 193.51267905 445.47206116 197.87736511 C445.4777713 198.7983046 445.48348145 199.71924408 445.48936462 200.66809082 C445.49048248 201.67129364 445.49160034 202.67449646 445.49275208 203.70809937 C445.49771698 204.77033218 445.50268188 205.832565 445.50779724 206.92698669 C445.52240824 210.44281664 445.52921901 213.95860146 445.53474426 217.47445679 C445.54049644 219.91819764 445.54625416 222.36193849 445.55201721 224.80567932 C445.56252407 229.93103241 445.56836886 235.05636983 445.57185364 240.18173218 C445.57733869 246.74561141 445.60136853 253.30928324 445.62982559 259.87309742 C445.64845885 264.92174381 445.65365794 269.9703403 445.65518951 275.01901817 C445.65821483 277.43869855 445.66623924 279.85837806 445.67937469 282.27802467 C445.69644962 285.66503259 445.69455116 289.05153449 445.68806458 292.43856812 C445.69727936 293.43569824 445.70649414 294.43282837 445.71598816 295.46017456 C445.67818493 301.76890504 445.10537808 306.95558782 440.90193176 311.97445679 C435.29056311 316.26639551 431.29670313 317.51952175 424.24641418 317.49447632 C423.55318054 317.49476837 422.8599469 317.49506042 422.14570618 317.49536133 C419.86770353 317.4939745 417.59003311 317.4784442 415.31208801 317.46273804 C413.72739846 317.4590056 412.1427066 317.45615972 410.55801392 317.4541626 C406.39707513 317.44654431 402.23627706 317.42691142 398.07539368 317.40475464 C393.82553511 317.38425725 389.57565369 317.37515257 385.32575989 317.36508179 C376.99431527 317.34366374 368.6629848 317.30954969 360.33161926 317.26742554 C360.33438464 318.32676914 360.33438464 318.32676914 360.33720589 319.40751362 C360.38146159 336.62751251 360.41451304 353.84749687 360.43524361 371.06754017 C360.44553637 379.39517579 360.45955829 387.72277334 360.48249817 396.05038452 C360.50249347 403.31254706 360.51535022 410.57468202 360.51979625 417.83687133 C360.52239327 421.67866952 360.5284553 425.52038883 360.54307938 429.36216164 C360.55676054 432.9859503 360.56082086 436.60962836 360.55783463 440.2334404 C360.55863814 442.18153553 360.56934422 444.12961891 360.58045959 446.0776825 C360.54421693 461.69468856 357.75109313 473.45520678 346.78083801 485.00570679 C335.961147 494.99709609 323.55700356 496.72254448 309.30247498 496.65510559 C307.91218429 496.65928642 306.52189703 496.66476802 305.131616 496.6714254 C301.33916743 496.6858007 297.54693764 496.68166029 293.7544775 496.67425859 C289.65347731 496.66950947 285.55252327 496.68205213 281.45153809 496.692276 C273.42817427 496.70943534 265.40488886 496.71030996 257.38151146 496.7050631 C250.8572776 496.70101478 244.33306684 496.7024728 237.80883408 496.70781136 C236.87878112 496.70855978 235.94872817 496.7093082 234.9904918 496.7100793 C233.10083418 496.71161084 231.21117656 496.71314919 229.32151894 496.71469427 C211.61736236 496.72840897 193.91325002 496.72298889 176.20909445 496.71150906 C160.02958313 496.70157798 143.8501862 496.71451702 127.67069252 496.73844325 C111.03761708 496.76285398 94.40459488 496.77243725 77.7715019 496.76579052 C68.44127347 496.76230266 59.11113297 496.76450172 49.78091812 496.78204155 C41.83831862 496.79678823 33.89586899 496.79736681 25.95327236 496.77997064 C21.90500886 496.77147849 17.85701281 496.76926708 13.8087635 496.78462219 C10.09516578 496.79853299 6.382063 496.79362517 2.66849343 496.77438296 C0.70523219 496.76888445 -1.25805467 496.78284096 -3.2212671 496.79773706 C-15.33833133 496.69805562 -26.1517269 493.98918985 -35.66838074 486.26742554 C-36.29357605 485.76598022 -36.91877136 485.26453491 -37.56291199 484.74789429 C-45.72512015 477.43925038 -50.17942167 466.38827464 -50.9213804 455.5829199 C-50.92349368 453.6751432 -50.92349368 453.6751432 -50.92564964 451.72882557 C-50.93090875 450.65208103 -50.93090875 450.65208103 -50.93627411 449.55358407 C-50.9455427 447.15968278 -50.94067664 444.7660272 -50.93580627 442.37211609 C-50.93954483 440.63380889 -50.94414717 438.89550338 -50.94953692 437.15720052 C-50.96175702 432.3888898 -50.96150761 427.62064931 -50.95914817 422.85232651 C-50.95873975 417.70628349 -50.96978157 412.5602629 -50.97926331 407.41423035 C-50.99586906 397.33505208 -51.00137267 387.25589721 -51.00248806 377.17670641 C-51.00343877 368.98240139 -51.00755024 360.78810408 -51.01388931 352.5938015 C-51.03150088 329.3544794 -51.04072836 306.11517578 -51.03922836 282.87584696 C-51.03914845 281.62327346 -51.03906854 280.37069995 -51.03898621 279.08016968 C-51.03886356 277.1990116 -51.03886356 277.1990116 -51.03873844 275.27985033 C-51.03792566 254.95835024 -51.05706169 234.63692429 -51.08526294 214.31544564 C-51.11400036 193.44266526 -51.12780275 172.56992103 -51.12607539 151.69712037 C-51.12541176 139.98140627 -51.13089194 128.26576989 -51.15243149 116.55007362 C-51.17065457 106.57440991 -51.17498133 96.59885914 -51.16141264 86.62318597 C-51.15488863 81.5359964 -51.15474541 76.44902344 -51.17211914 71.36185455 C-51.18787988 66.69891218 -51.18495558 62.03635764 -51.16755088 57.37342455 C-51.16448758 55.69241888 -51.16808792 54.01138405 -51.17927103 52.33041278 C-51.26454121 38.59641789 -49.58741542 26.25964988 -40.66838074 15.26742554 C-40.16693542 14.64223022 -39.66549011 14.01703491 -39.14884949 13.37289429 C-28.82469089 1.84299454 -14.57182178 -0.03528468 0 0 Z M-15.66838074 40.26742554 C-16.41402562 43.61770557 -16.41402562 43.61770557 -16.29758644 47.36552429 C-16.30485364 48.07215898 -16.31212085 48.77879368 -16.31960827 49.50684154 C-16.33789549 51.88110779 -16.32048751 54.25376607 -16.30329895 56.62802124 C-16.30905872 58.34469842 -16.31699886 60.06136945 -16.32693517 61.77802753 C-16.34785174 66.50029963 -16.33747154 71.22206798 -16.32200408 75.94434214 C-16.31071414 81.03509378 -16.32814156 86.12575741 -16.34190369 91.2164917 C-16.36416583 101.19118338 -16.35932164 111.16568722 -16.34484048 121.14038634 C-16.33355995 129.24521794 -16.3320122 137.3499968 -16.33745956 145.45483398 C-16.33822573 146.6072632 -16.33899189 147.75969241 -16.33978128 148.94704372 C-16.34137986 151.28799941 -16.34300093 153.62895508 -16.34464423 155.96991074 C-16.35891046 177.93390898 -16.34249529 199.89780296 -16.3156424 221.8617841 C-16.29330286 240.71807878 -16.29718274 259.57421957 -16.32023621 278.43051147 C-16.34697876 300.31457524 -16.35753708 322.19854757 -16.34217489 344.08262539 C-16.3405821 346.41508928 -16.33901025 348.74755318 -16.33745956 351.08001709 C-16.33668819 352.22770846 -16.33591681 353.37539983 -16.33512206 354.55786973 C-16.33080043 362.65530132 -16.33810158 370.75267503 -16.34985733 378.85009766 C-16.3638637 388.71484498 -16.36012159 398.57939333 -16.33345361 408.44411778 C-16.32029038 413.47969598 -16.31520571 418.51494211 -16.33169937 423.55051804 C-16.34656008 428.1571327 -16.33847515 432.76310642 -16.31181161 437.36966264 C-16.30621012 439.03916741 -16.30910432 440.70872594 -16.32119055 442.37819636 C-16.33633132 444.64268332 -16.32087378 446.90495666 -16.29758644 449.16932678 C-16.29677468 450.42842708 -16.29596292 451.68752737 -16.29512656 452.98478222 C-15.48340482 457.23625523 -14.11618202 458.70639395 -10.66838074 461.26742554 C-7.90608227 462.00660148 -7.90608227 462.00660148 -4.89775848 461.89663124 C-3.7378828 461.90966998 -2.57800712 461.92270871 -1.38298368 461.93614256 C0.52190994 461.91941215 0.52190994 461.91941215 2.46528625 461.90234375 C3.83135756 461.90810539 5.19742112 461.9160468 6.56346846 461.92597997 C10.31665037 461.94687147 14.06919741 461.93652819 17.82238173 461.92104888 C21.87018771 461.90974851 25.91788354 461.92719151 29.96566772 461.94094849 C37.8949802 461.96319956 45.82405624 461.95837144 53.75337803 461.94388528 C60.19679083 461.93260037 66.64013729 461.93105889 73.08355713 461.93650436 C74.45834239 461.93765361 74.45834239 461.93765361 75.86090109 461.93882608 C77.72271178 461.94042468 79.58452246 461.94204574 81.44633311 461.94368903 C98.91085629 461.95795201 116.37524832 461.94154522 133.83974999 461.9146872 C148.83010674 461.89234792 163.82026991 461.89622789 178.81062317 461.91928101 C196.21198798 461.94602933 213.6132378 461.95657866 231.0146203 461.94121969 C232.86964065 461.93962692 234.72466101 461.93805506 236.5796814 461.93650436 C237.4924234 461.93573299 238.4051654 461.93496161 239.34556624 461.93416686 C245.78238715 461.92984695 252.2191352 461.93714266 258.65594482 461.94890213 C266.49868263 461.96291494 274.34117018 461.95915298 282.18387926 461.93249841 C286.18660024 461.91934364 290.18890374 461.91423571 294.19162178 461.93074417 C297.85458044 461.94562305 301.51673396 461.93749097 305.17961937 461.91085641 C307.13515442 461.90260861 309.09074519 461.91896788 311.04622221 461.93614256 C312.20609789 461.92310383 313.36597358 461.91006509 314.56099701 461.89663124 C315.56188748 461.89581948 316.56277795 461.89500772 317.59399843 461.89417136 C321.48911311 461.00243105 322.9527094 459.43867627 325.33161926 456.26742554 C326.07726415 452.9171455 326.07726415 452.9171455 325.96082497 449.16932678 C325.97172577 448.10937474 325.97172577 448.10937474 325.9828468 447.02800953 C326.00113402 444.65374328 325.98372603 442.281085 325.96653748 439.90682983 C325.97229724 438.19015265 325.98023739 436.47348163 325.9901737 434.75682354 C326.01109027 430.03455145 326.00071007 425.3127831 325.98524261 420.59050894 C325.97395267 415.49975729 325.99138008 410.40909366 326.00514221 405.31835938 C326.02740436 395.34366769 326.02256016 385.36916385 326.00807901 375.39446473 C325.99679848 367.28963314 325.99525073 359.18485428 326.00069809 351.08001709 C326.00146425 349.92758788 326.00223042 348.77515867 326.0030198 347.58780736 C326.00461839 345.24685167 326.00623945 342.90589599 326.00788276 340.56494033 C326.02214899 318.6009421 326.00573381 296.63704811 325.97888093 274.67306697 C325.95654138 255.81677229 325.96042127 236.9606315 325.98347473 218.1043396 C326.01021729 196.22027584 326.02077561 174.3363035 326.00541341 152.45222569 C326.00382063 150.1197618 326.00224877 147.7872979 326.00069809 145.45483398 C325.99992671 144.30714261 325.99915533 143.15945124 325.99836058 141.97698134 C325.99403895 133.87954976 326.00134011 125.78217604 326.01309586 117.68475342 C326.02710223 107.82000609 326.02336012 97.95545775 325.99669214 88.09073329 C325.9835289 83.05515509 325.97844424 78.01990896 325.9949379 72.98433304 C326.0097986 68.37771837 326.00171367 63.77174465 325.97505014 59.16518843 C325.96944864 57.49568366 325.97234285 55.82612513 325.98442908 54.15665472 C325.99956985 51.89216775 325.9841123 49.62989442 325.96082497 47.36552429 C325.9600132 46.106424 325.95920144 44.8473237 325.95836508 43.55006886 C325.14664335 39.29859585 323.77942055 37.82845712 320.33161926 35.26742554 C317.5693208 34.5282496 317.5693208 34.5282496 314.56099701 34.63821983 C313.40112133 34.6251811 312.24124564 34.61214236 311.04622221 34.59870851 C309.14132859 34.61543892 309.14132859 34.61543892 307.19795227 34.63250732 C305.83188097 34.62674569 304.46581741 34.61880427 303.09977007 34.6088711 C299.34658816 34.58797961 295.59404112 34.59832289 291.84085679 34.61380219 C287.79305082 34.62510256 283.74535498 34.60765956 279.6975708 34.59390259 C271.76825833 34.57165151 263.83918229 34.57647964 255.90986049 34.59096579 C249.4664477 34.60225071 243.02310123 34.60379218 236.5796814 34.59834671 C235.20489614 34.59719746 235.20489614 34.59719746 233.80233744 34.596025 C231.94052674 34.5944264 230.07871607 34.59280533 228.21690542 34.59116204 C210.75238223 34.57689906 193.28799021 34.59330586 175.82348853 34.62016387 C160.83313178 34.64250316 145.84296861 34.63862318 130.85261536 34.61557007 C113.45125054 34.58882174 96.05000072 34.57827241 78.64861822 34.59363139 C76.79359788 34.59522416 74.93857751 34.59679601 73.08355713 34.59834671 C72.17081513 34.59911809 71.25807313 34.59988947 70.31767228 34.60068422 C63.88085138 34.60500412 57.44410332 34.59770841 51.0072937 34.58594894 C43.16455589 34.57193614 35.32206835 34.57569809 27.47935927 34.60235266 C23.47663829 34.61550743 19.47433478 34.62061537 15.47161674 34.6041069 C11.80865808 34.58922802 8.14650456 34.5973601 4.48361915 34.62399466 C2.5280841 34.63224246 0.57249334 34.61588319 -1.38298368 34.59870851 C-2.54285937 34.61174725 -3.70273505 34.62478598 -4.89775848 34.63821983 C-5.89864895 34.63903159 -6.89953942 34.63984336 -7.93075991 34.64067972 C-11.82587458 35.53242002 -13.28947087 37.09617481 -15.66838074 40.26742554 Z " fill="#C7C5D1" transform="translate(58.66838073730469,7.732574462890625)"/>
<path d="M0 0 C9.26778225 6.05970378 14.45157768 17.27496316 19.625 26.75 C24.12033084 34.88049222 28.68291477 42.9556712 33.4375 50.9375 C38.1665311 58.88157882 42.82684401 66.8615934 47.4375 74.875 C52.26567254 83.26539539 57.1146922 91.64273522 62 100 C67.49524216 109.40247021 72.94671462 118.82947509 78.38134766 128.26708984 C82.09247344 134.70724021 85.82410875 141.13482421 89.5769043 147.55078125 C92.3916145 152.36311402 95.19871426 157.17984134 98 162 C98.47260254 162.81307617 98.94520508 163.62615234 99.43212891 164.46386719 C100.69134633 166.63841937 101.94141034 168.8179051 103.1875 171 C103.53796387 171.60408691 103.88842773 172.20817383 104.24951172 172.83056641 C109.51837989 182.13304296 111.35915821 190.23634384 110 201 C107.73780903 207.681004 104.50708752 213.48136409 99 218 C97.948125 219.0209375 97.948125 219.0209375 96.875 220.0625 C86.48037849 227.06757102 75.46554324 226.56786669 63.44287109 226.50170898 C61.47557693 226.50549728 59.50828544 226.51100151 57.54100037 226.51808167 C52.22498673 226.53198503 46.9092986 226.5209033 41.5933032 226.50437045 C36.01749161 226.49046949 30.44169794 226.49698562 24.86587524 226.50050354 C15.50655908 226.50320123 6.1473715 226.48976648 -3.21191406 226.46655273 C-14.02007329 226.4399303 -24.82801784 226.43820253 -35.63619864 226.4499411 C-46.05277532 226.46073267 -56.46927464 226.45452196 -66.88584518 226.44038582 C-71.3106711 226.43463957 -75.73544015 226.43469795 -80.16026688 226.43945122 C-85.3724601 226.44423542 -90.5844192 226.43405951 -95.79656792 226.41249657 C-97.70528181 226.40694877 -99.61401829 226.40644489 -101.52273369 226.41144943 C-104.1357434 226.41743975 -106.74804621 226.40482607 -109.36099243 226.38768005 C-110.48353501 226.39669512 -110.48353501 226.39669512 -111.62875521 226.40589231 C-121.61756238 226.28736968 -130.7291543 222.34112365 -137.7578125 215.21875 C-143.76661902 207.85116814 -146.41059928 199.4219311 -146.53125 189.99609375 C-144.84013672 180.45871223 -139.43446507 172.12363957 -134.625 163.875 C-133.90905119 162.63588862 -133.19364704 161.3964624 -132.47875977 160.15673828 C-130.32823357 156.4325308 -128.16515312 152.71571684 -126 149 C-125.38205566 147.9378125 -124.76411133 146.875625 -124.12744141 145.78125 C-121.25634956 140.84802603 -118.37836398 135.91888717 -115.49609375 130.9921875 C-111.80502101 124.67623623 -108.15083684 118.33927005 -104.5 112 C-99.12093845 102.66132259 -93.70740523 93.34359631 -88.26953125 84.0390625 C-83.98777849 76.70716226 -79.73796632 69.3572844 -75.5 62 C-70.00563889 52.46338437 -64.50022274 42.93336747 -58.92895508 33.44140625 C-56.31397069 28.98566696 -53.72130092 24.52391217 -51.21875 20.00390625 C-46.80247955 12.09072521 -42.74672706 5.12305836 -35 0 C-33.99259766 -0.67095703 -33.99259766 -0.67095703 -32.96484375 -1.35546875 C-22.92427346 -6.85432313 -9.83621834 -5.07729839 0 0 Z " fill="#FBCB53" transform="translate(231,141)"/>
<path d="M0 0 C5.20732599 2.89976585 7.87492041 6.71152187 9.75 12.3125 C9.99609566 15.23910999 9.99609566 15.23910999 9.99050903 18.53242493 C9.99325836 19.78459305 9.99600769 21.03676117 9.99884033 22.32687378 C9.991763 23.70660497 9.98449339 25.08633518 9.97705078 26.46606445 C9.97648639 27.92491142 9.97680378 29.38375895 9.97793579 30.84260559 C9.9785092 34.79677877 9.96675679 38.75083041 9.95278788 42.70497537 C9.94027858 46.83962146 9.93910986 50.9742704 9.93673706 55.1089325 C9.93052288 62.9357216 9.91411289 70.76245478 9.89403808 78.58921927 C9.87167717 87.50088695 9.86068516 96.4125573 9.85064721 105.32424605 C9.82974662 123.65369573 9.79457183 141.98309337 9.75 160.3125 C10.67554688 160.44140625 11.60109375 160.5703125 12.5546875 160.703125 C17.55782265 161.65726813 20.64642956 164.11945087 24.0625 167.8125 C26.53834263 171.48041501 26.87418001 174.55775351 26.89044189 178.92243958 C26.89615204 179.84337906 26.90186218 180.76431854 26.90774536 181.71316528 C26.90942215 183.21796951 26.90942215 183.21796951 26.91113281 184.75317383 C26.91858017 186.34652306 26.91858017 186.34652306 26.92617798 187.97206116 C26.94078897 191.4878911 26.94759975 195.00367593 26.953125 198.51953125 C26.95887717 200.96327211 26.9646349 203.40701295 26.97039795 205.85075378 C26.98090481 210.97610688 26.98674959 216.10144429 26.99023438 221.22680664 C26.99571943 227.79068587 27.01974926 234.3543577 27.04820633 240.91817188 C27.06683959 245.96681827 27.07203868 251.01541476 27.07357025 256.06409264 C27.07659557 258.48377301 27.08461997 260.90345253 27.09775543 263.32309914 C27.11483035 266.71010706 27.11293189 270.09660895 27.10644531 273.48364258 C27.1156601 274.48077271 27.12487488 275.47790283 27.1343689 276.50524902 C27.09656566 282.81397951 26.52375882 288.00066229 22.3203125 293.01953125 C16.67363089 297.33847962 12.66784564 298.56440139 5.57299805 298.53955078 C4.858718 298.53979185 4.14443796 298.54003292 3.40851307 298.5402813 C1.10945239 298.53879529 -1.18927902 298.52359565 -3.48828125 298.5078125 C-4.9128809 298.50486985 -6.33748271 298.50283077 -7.76208496 298.50170898 C-13.02892307 298.49124741 -18.29571481 298.46332486 -23.5625 298.4375 C-35.339375 298.39625 -47.11625 298.355 -59.25 298.3125 C-59.25 252.7725 -59.25 207.2325 -59.25 160.3125 C-48.03 160.3125 -36.81 160.3125 -25.25 160.3125 C-25.27094727 155.8052124 -25.29189453 151.2979248 -25.31347656 146.65405273 C-25.37972399 131.77023035 -25.42413025 116.8864022 -25.45724869 102.00247097 C-25.47786471 92.97740089 -25.50596692 83.95247059 -25.55175781 74.92749023 C-25.59165502 67.06034677 -25.6174398 59.19330456 -25.62635398 51.32606274 C-25.63156387 47.16124726 -25.64378881 42.99672139 -25.67292023 38.83199883 C-25.70013504 34.90938178 -25.70843286 30.98717278 -25.70243073 27.06447029 C-25.70352826 25.62737432 -25.7114463 24.19026426 -25.7268219 22.75325012 C-25.86514469 9.15481426 -25.86514469 9.15481426 -21.25 3.3125 C-14.61639422 -1.83192897 -7.7777577 -3.60539049 0 0 Z " fill="#B0AEB7" transform="translate(477.25,26.6875)"/>
<path d="M0 0 C9.26778225 6.05970378 14.45157768 17.27496316 19.625 26.75 C24.12033084 34.88049222 28.68291477 42.9556712 33.4375 50.9375 C38.1665311 58.88157882 42.82684401 66.8615934 47.4375 74.875 C52.26567254 83.26539539 57.1146922 91.64273522 62 100 C67.49524216 109.40247021 72.94671462 118.82947509 78.38134766 128.26708984 C82.09247344 134.70724021 85.82410875 141.13482421 89.5769043 147.55078125 C92.3916145 152.36311402 95.19871426 157.17984134 98 162 C98.47260254 162.81307617 98.94520508 163.62615234 99.43212891 164.46386719 C100.69134633 166.63841937 101.94141034 168.8179051 103.1875 171 C103.53796387 171.60408691 103.88842773 172.20817383 104.24951172 172.83056641 C109.51837989 182.13304296 111.35915821 190.23634384 110 201 C107.73780903 207.681004 104.50708752 213.48136409 99 218 C97.948125 219.0209375 97.948125 219.0209375 96.875 220.0625 C86.48037849 227.06757102 75.46554324 226.56786669 63.44287109 226.50170898 C61.47557693 226.50549728 59.50828544 226.51100151 57.54100037 226.51808167 C52.22498673 226.53198503 46.9092986 226.5209033 41.5933032 226.50437045 C36.01749161 226.49046949 30.44169794 226.49698562 24.86587524 226.50050354 C15.50655908 226.50320123 6.1473715 226.48976648 -3.21191406 226.46655273 C-14.02007329 226.4399303 -24.82801784 226.43820253 -35.63619864 226.4499411 C-46.05277532 226.46073267 -56.46927464 226.45452196 -66.88584518 226.44038582 C-71.3106711 226.43463957 -75.73544015 226.43469795 -80.16026688 226.43945122 C-85.3724601 226.44423542 -90.5844192 226.43405951 -95.79656792 226.41249657 C-97.70528181 226.40694877 -99.61401829 226.40644489 -101.52273369 226.41144943 C-104.1357434 226.41743975 -106.74804621 226.40482607 -109.36099243 226.38768005 C-110.48353501 226.39669512 -110.48353501 226.39669512 -111.62875521 226.40589231 C-121.61756238 226.28736968 -130.7291543 222.34112365 -137.7578125 215.21875 C-143.76661902 207.85116814 -146.41059928 199.4219311 -146.53125 189.99609375 C-144.84013672 180.45871223 -139.43446507 172.12363957 -134.625 163.875 C-133.90905119 162.63588862 -133.19364704 161.3964624 -132.47875977 160.15673828 C-130.32823357 156.4325308 -128.16515312 152.71571684 -126 149 C-125.38205566 147.9378125 -124.76411133 146.875625 -124.12744141 145.78125 C-121.25634956 140.84802603 -118.37836398 135.91888717 -115.49609375 130.9921875 C-111.80502101 124.67623623 -108.15083684 118.33927005 -104.5 112 C-99.12093845 102.66132259 -93.70740523 93.34359631 -88.26953125 84.0390625 C-83.98777849 76.70716226 -79.73796632 69.3572844 -75.5 62 C-70.00563889 52.46338437 -64.50022274 42.93336747 -58.92895508 33.44140625 C-56.31397069 28.98566696 -53.72130092 24.52391217 -51.21875 20.00390625 C-46.80247955 12.09072521 -42.74672706 5.12305836 -35 0 C-33.99259766 -0.67095703 -33.99259766 -0.67095703 -32.96484375 -1.35546875 C-22.92427346 -6.85432313 -9.83621834 -5.07729839 0 0 Z M-30.80859375 19.3203125 C-31.61490234 20.70863281 -31.61490234 20.70863281 -32.4375 22.125 C-32.7576709 22.66793701 -33.0778418 23.21087402 -33.40771484 23.77026367 C-34.62025266 25.83837211 -35.80940728 27.9191795 -37 30 C-38.11775609 31.93141426 -39.23631064 33.86236655 -40.35546875 35.79296875 C-42.93474249 40.24953394 -45.5050526 44.71113608 -48.0703125 49.17578125 C-51.68729296 55.46598905 -55.3372986 61.73633279 -59 68 C-63.86124858 76.31738902 -68.69141192 84.65205807 -73.5 93 C-81.19117469 106.35015665 -88.9548296 119.65733128 -96.72949219 132.95898438 C-105.36757921 147.74068546 -113.98891508 162.53268315 -122.49121094 177.39306641 C-123.40668091 178.97484446 -124.33803954 180.54775632 -125.29785156 182.10302734 C-128.60329451 187.50700128 -128.8826605 191.82137649 -128 198 C-126.45394215 202.96751133 -123.53326764 205.71217055 -118.98635685 208.18334866 C-115.61169952 209.57077229 -112.22884169 209.55059712 -108.64378357 209.50793457 C-107.82940907 209.51417453 -107.01503457 209.5204145 -106.17598206 209.52684355 C-103.46134195 209.54273214 -100.74760492 209.53018583 -98.03295898 209.51757812 C-96.08109007 209.52300104 -94.12922525 209.53012466 -92.17736816 209.53881836 C-86.8861239 209.55703315 -81.59519207 209.54999202 -76.30394244 209.53730202 C-70.76406695 209.5271663 -65.22421799 209.53656916 -59.68434143 209.54284668 C-50.38269249 209.55012079 -41.08117065 209.54054088 -31.77954102 209.52148438 C-21.02703403 209.49970975 -10.27483036 209.50677233 0.4776693 209.52879 C9.7126737 209.54694303 18.94758682 209.54950296 28.1826033 209.53903532 C33.69698206 209.53280071 39.21121825 209.53196408 44.72558784 209.54518127 C49.90904312 209.5567379 55.09210729 209.54871726 60.27552032 209.52560425 C62.17742959 209.52031646 64.07937178 209.52183212 65.98126793 209.53065491 C68.57821162 209.54159112 71.17390323 209.52787065 73.77076721 209.50793457 C74.52281404 209.51685746 75.27486086 209.52578034 76.04969698 209.53497362 C81.17051407 209.45875605 84.04324362 208.20188112 88 205 C92.22989659 200.31281729 93.40476728 196.64808521 93.31738281 190.45751953 C92.75093017 186.07143314 90.61836337 182.6833487 88.375 178.9375 C87.63781738 177.65383545 87.63781738 177.65383545 86.88574219 176.34423828 C85.27573188 173.55157848 83.63871797 170.77589472 82 168 C80.891685 166.09334469 79.78493036 164.18578155 78.6796875 162.27734375 C76.35424449 158.2698147 74.01719368 154.26936544 71.671875 150.2734375 C67.91551065 143.8675306 64.20481696 137.43581826 60.5 131 C53.37951173 118.63956031 46.19816459 106.31532394 39 94 C36.68667962 90.04214526 34.37404251 86.08389337 32.0625 82.125 C31.48604736 81.13781982 30.90959473 80.15063965 30.31567383 79.13354492 C26.68660508 72.91163589 23.08140302 66.67647874 19.49194336 60.43164062 C16.99432747 56.09159618 14.48325489 51.75937916 11.97363281 47.42626953 C10.24325701 44.42229947 8.52876649 41.41017961 6.82040405 38.39369202 C5.40304153 35.89921661 3.97097202 33.41338667 2.53582764 30.92910767 C1.85346102 29.74062534 1.1772225 28.54860027 0.50762939 27.35287476 C-4.48492946 18.27605762 -4.48492946 18.27605762 -13 13 C-15.60075108 12.38445052 -15.60075108 12.38445052 -18.0625 12.5 C-18.85785156 12.4896875 -19.65320313 12.479375 -20.47265625 12.46875 C-24.93907822 13.40759604 -28.02920021 15.75452467 -30.80859375 19.3203125 Z " fill="#EE344A" transform="translate(231,141)"/>
<path d="M0 0 C5.20669579 2.89941491 7.87651553 6.71142021 9.75 12.3125 C9.99609566 15.25472736 9.99609566 15.25472736 9.99050903 18.57038879 C9.99325836 19.83097107 9.99600769 21.09155334 9.99884033 22.39033508 C9.99176298 23.77951146 9.98449337 25.16868686 9.97705078 26.55786133 C9.97648639 28.02656039 9.97680377 29.49526001 9.97793579 30.96395874 C9.97850922 34.94499023 9.96675646 38.925901 9.95278788 42.90690446 C9.94027895 47.06957781 9.93910989 51.23225399 9.93673706 55.39494324 C9.93052277 63.27485611 9.91411264 71.15471344 9.89403808 79.03460187 C9.8716775 88.00672794 9.86068525 96.97885667 9.85064721 105.95100367 C9.82974637 124.40487366 9.79307076 142.85866752 9.75 161.3125 C-1.8 161.3125 -13.35 161.3125 -25.25 161.3125 C-25.34032931 141.74543536 -25.41399885 122.1785398 -25.45724869 102.61131954 C-25.477865 93.52571582 -25.50596776 84.44025093 -25.55175781 75.35473633 C-25.59165413 67.43485516 -25.61743959 59.51507456 -25.62635398 51.59509569 C-25.63156401 47.40233539 -25.64378991 43.20986276 -25.67292023 39.01719475 C-25.70013363 35.06831359 -25.70843313 31.11983776 -25.70243073 27.17087173 C-25.70352833 25.72410057 -25.71144719 24.27731542 -25.7268219 22.83062553 C-25.86511822 9.1425394 -25.86511822 9.1425394 -21.25 3.3125 C-14.61639422 -1.83192897 -7.7777577 -3.60539049 0 0 Z " fill="#99979F" transform="translate(477.25,26.6875)"/>
<path d="M0 0 C3.94800307 0.96968496 5.37555013 1.4633582 7.5625 4.875 C8.09560627 10.93169056 7.2249151 14.58460976 3.87890625 19.7109375 C3.50394516 20.31636383 3.12898407 20.92179016 2.74266052 21.54556274 C1.55321489 23.45794292 0.34000113 25.35377778 -0.875 27.25 C-1.68720332 28.54453512 -2.49776676 29.84010065 -3.30664062 31.13671875 C-4.78219132 33.49947723 -6.26848075 35.85390284 -7.76342773 38.20458984 C-9.40053099 40.72092375 -9.40053099 40.72092375 -10.4375 42.875 C-9.83276855 42.84881592 -9.22803711 42.82263184 -8.60498047 42.7956543 C-5.84108903 42.69114184 -3.077614 42.62650727 -0.3125 42.5625 C0.63882813 42.52060547 1.59015625 42.47871094 2.5703125 42.43554688 C7.03033023 42.35811601 10.55034378 42.30762136 14.2421875 45.01953125 C16.5625 47.875 16.5625 47.875 17.15234375 50.7734375 C16.44764745 54.47892666 15.04485948 57.30960145 13.125 60.5 C12.74174561 61.15589111 12.35849121 61.81178223 11.96362305 62.48754883 C11.05743562 64.02811884 10.14377017 65.56430299 9.22460938 67.09716797 C7.633456 69.75641343 6.06177149 72.42658544 4.49317932 75.09918213 C3.00614997 77.62596104 1.5072414 80.14555067 0.00534058 82.66351318 C-0.74339622 83.9214007 -1.48894688 85.18119061 -2.23117065 86.44293213 C-3.29291032 88.24349453 -4.36916295 90.03459801 -5.44921875 91.82421875 C-6.07272217 92.86924561 -6.69622559 93.91427246 -7.33862305 94.9909668 C-9.79797294 98.37032009 -12.03898843 100.44406795 -15.4375 102.875 C-19.77913268 103.02471147 -21.63305019 102.59694213 -24.875 99.6875 C-26.75693442 96.30001805 -26.82604782 94.7136094 -26.4375 90.875 C-25.297099 88.49794794 -24.16420426 86.4345362 -22.75390625 84.234375 C-22.37894516 83.62611877 -22.00398407 83.01786255 -21.61766052 82.39117432 C-20.42413634 80.46110152 -19.21265838 78.5430956 -18 76.625 C-17.18821092 75.32108505 -16.3776506 74.01640424 -15.56835938 72.7109375 C-14.09044482 70.3280845 -12.60432546 67.95072697 -11.11157227 65.57714844 C-9.47815408 63.03204623 -9.47815408 63.03204623 -8.4375 60.875 C-9.04746826 60.87089111 -9.65743652 60.86678223 -10.28588867 60.86254883 C-13.06655792 60.82952425 -15.84506157 60.75887432 -18.625 60.6875 C-20.06456055 60.67879883 -20.06456055 60.67879883 -21.53320312 60.66992188 C-26.10830576 60.52744463 -28.73640029 60.34153744 -32.61328125 57.76171875 C-34.94506252 54.0718122 -34.84377678 52.20058684 -34.4375 47.875 C-33.25604691 45.28531391 -32.09071318 43.07296228 -30.59765625 40.68359375 C-30.19727646 40.01642838 -29.79689667 39.349263 -29.38438416 38.66188049 C-28.10380557 36.53642336 -26.80226663 34.4247218 -25.5 32.3125 C-24.65943981 30.92204971 -23.82023533 29.53077892 -22.98242188 28.13867188 C-20.50043314 24.03003836 -17.97595378 19.9489292 -15.4375 15.875 C-15.01764832 15.1978595 -14.59779663 14.52071899 -14.16522217 13.82305908 C-12.94972239 11.86806891 -11.72481958 9.91935459 -10.49609375 7.97265625 C-10.13089127 7.3851207 -9.76568878 6.79758514 -9.38941956 6.19224548 C-6.73898594 2.03539151 -5.21447003 -0.18961709 0 0 Z " fill="#39373F" transform="translate(222.4375,213.125)"/>
<path d="M0 0 C5.14473307 2.86491018 8.04670439 6.70258402 9.75 12.3125 C10.02295759 15.83094746 9.98244986 19.33615573 9.9453125 22.86328125 C9.9424826 23.87722458 9.93965271 24.89116791 9.93673706 25.93583679 C9.92556625 29.16567927 9.90046711 32.39524171 9.875 35.625 C9.8649662 37.81835536 9.85584105 40.01171508 9.84765625 42.20507812 C9.82734095 47.57441273 9.78818586 52.94314389 9.75 58.3125 C-1.8 58.3125 -13.35 58.3125 -25.25 58.3125 C-25.34200167 51.60404508 -25.4215915 44.89779292 -25.46972656 38.18920898 C-25.4897992 35.90885995 -25.51706343 33.62856211 -25.55175781 31.34838867 C-25.60046609 28.06416158 -25.62301286 24.78061708 -25.640625 21.49609375 C-25.66127014 20.48228134 -25.68191528 19.46846893 -25.70318604 18.42393494 C-25.70515878 12.15247455 -24.99286906 8.40686695 -21.25 3.3125 C-14.61639422 -1.83192897 -7.7777577 -3.60539049 0 0 Z " fill="#36343E" transform="translate(477.25,26.6875)"/>
</svg>
