<?xml version="1.0" encoding="UTF-8"?>
<svg version="1.1" xmlns="http://www.w3.org/2000/svg" width="512" height="512">
<path d="M0 0 C1.8004818 -0.00345895 3.60096148 -0.00822511 5.40143675 -0.01418173 C10.33680176 -0.02668861 15.27199242 -0.02052273 20.207358 -0.01122308 C25.5346129 -0.00443173 30.86183795 -0.01491422 36.18908691 -0.02316284 C46.62006667 -0.03650115 57.05098165 -0.03362206 67.48196394 -0.02492492 C75.95899412 -0.01814954 84.43600615 -0.01723102 92.91303825 -0.02049637 C94.72283072 -0.02118592 94.72283072 -0.02118592 96.56918464 -0.0218894 C99.02021699 -0.02284857 101.47124934 -0.02382121 103.92228168 -0.02480717 C126.90405164 -0.03336126 149.8857857 -0.02352643 172.86754977 -0.00740607 C192.588674 0.00599882 212.30974526 0.00366763 232.03086853 -0.01016235 C254.93200552 -0.02621488 277.83311104 -0.03253908 300.73425287 -0.02332556 C303.17595859 -0.02236991 305.61766431 -0.0214268 308.05937004 -0.02049637 C309.86142728 -0.01980213 309.86142728 -0.01980213 311.69988971 -0.01909386 C320.16764109 -0.01650312 328.63537252 -0.02087675 337.1031208 -0.02793503 C347.42108364 -0.0363465 357.73897801 -0.03407719 368.05693299 -0.0180928 C373.32169271 -0.01020565 378.58633823 -0.00712615 383.85109711 -0.01704025 C388.67035469 -0.02597823 393.48939219 -0.02106898 398.3086298 -0.0051076 C400.05209638 -0.00175603 401.79558154 -0.00346229 403.53903616 -0.01073496 C405.90991456 -0.01986636 408.28004056 -0.01049212 410.65087986 0.00342751 C412.625702 0.00415809 412.625702 0.00415809 414.64041954 0.00490344 C422.23875749 0.76103711 428.27414639 3.74448701 433.41929626 9.38095093 C436.23683089 14.07684198 437.54805861 18.21239458 437.53561497 23.65584755 C437.53615582 24.50759328 437.53669667 25.359339 437.53725392 26.2368952 C437.53277507 27.16781402 437.52829621 28.09873285 437.52368164 29.05786133 C437.52297509 30.05061015 437.52226854 31.04335896 437.52154058 32.06619108 C437.51815815 35.40241701 437.50779867 38.73858685 437.49766541 42.07479858 C437.49415006 44.463073 437.49118272 46.85134828 437.48872375 49.23962402 C437.4830451 54.3884292 437.47502984 59.53722392 437.46570015 64.68602371 C437.45186969 72.82989805 437.4541203 80.97373373 437.45993042 89.11761475 C437.46038896 89.80306034 437.4608475 90.48850593 437.46131993 91.19472261 C437.46366961 94.7002926 437.46618792 98.20586244 437.46882904 101.71143222 C437.47426498 108.93476755 437.47933773 116.15810249 437.48252869 123.38143921 C437.48285532 124.1062641 437.48318195 124.831089 437.48351847 125.57787828 C437.48802572 137.31414903 437.46725216 149.05025538 437.43801481 160.78648455 C437.40864938 172.84397958 437.40978692 184.90120826 437.43822569 196.95870626 C437.45325532 203.72539905 437.45399547 210.49147172 437.41882515 217.25810623 C437.38699074 223.62614842 437.39247013 229.99307412 437.42632675 236.36109543 C437.43213849 238.69511367 437.42433501 241.02921261 437.40173531 243.36312866 C436.77832444 257.32162111 436.77832444 257.32162111 442.33139038 269.61248779 C443.67306573 270.89100492 445.03334728 272.15056717 446.41929626 273.38095093 C457.92317998 289.76337573 461.69597802 310.77663867 458.92320251 330.40048218 C455.17914975 350.9398903 444.73043295 368.98701877 428.10679626 381.69345093 C408.8973778 394.78088759 387.94776493 399.46098456 364.95445251 395.75595093 C351.66288757 393.08676288 338.43213096 386.505855 328.41929626 377.38095093 C327.61234314 376.66552124 326.80539001 375.95009155 325.97398376 375.21298218 C316.75254899 366.56964958 309.03366141 355.61418679 305.41929626 343.38095093 C305.41929626 342.72095093 305.41929626 342.06095093 305.41929626 341.38095093 C288.25929626 341.38095093 271.09929626 341.38095093 253.41929626 341.38095093 C257.04929626 348.64095093 260.67929626 355.90095093 264.41929626 363.38095093 C266.30951829 367.292077 268.19256933 371.20212239 270.04429626 375.13095093 C274.6815698 384.95897903 279.54038411 394.67131341 284.41929626 404.38095093 C285.62988708 404.39553345 286.84047791 404.41011597 288.0877533 404.42514038 C292.59439608 404.48326778 297.10054676 404.56049983 301.60679626 404.6434021 C303.55430595 404.67658357 305.50191023 404.7046365 307.4495697 404.72738647 C310.25499141 404.76105727 313.05955155 404.8133792 315.86460876 404.86923218 C316.730466 404.8756221 317.59632324 404.88201202 318.48841858 404.88859558 C324.21918097 405.02686465 328.66146114 405.86549086 333.06382751 409.88095093 C336.53404029 414.33767904 337.79127595 417.4798433 337.69664001 423.18954468 C337.00351081 428.66624161 334.62203267 432.42367093 330.35679626 435.81845093 C326.79360528 437.71376528 324.17780602 438.50565766 320.19939137 438.515172 C319.33446971 438.51962985 318.46954805 438.52408769 317.57841665 438.52868062 C316.62765695 438.52849626 315.67689726 438.5283119 314.69732666 438.52812195 C313.68768693 438.53179864 312.67804719 438.53547532 311.63781232 438.53926343 C308.23855254 438.55031836 304.8393233 438.55414718 301.44004822 438.55795288 C299.00926618 438.56421615 296.5784851 438.57086283 294.14770508 438.5778656 C286.841478 438.59710575 279.53525343 438.60769577 272.2290087 438.61659339 C268.78768322 438.62097728 265.34635928 438.62634384 261.90503502 438.63158226 C250.46397502 438.64859435 239.02291598 438.66308815 227.58184528 438.670331 C224.6130301 438.67224087 221.64421493 438.67416121 218.67539978 438.67611694 C217.9375223 438.67660068 217.19964483 438.67708442 216.43940743 438.67758282 C204.48834731 438.68588175 192.53738733 438.71121639 180.58637092 438.74369762 C168.31430063 438.77677927 156.04228121 438.79478077 143.7701661 438.79797524 C136.88072417 438.80013937 129.99142825 438.80887355 123.1020298 438.83443642 C116.62024728 438.85843138 110.13865616 438.86196212 103.65683556 438.85167503 C101.27843732 438.85117885 98.90002627 438.85752358 96.52166748 438.87123108 C93.27285735 438.8889069 90.02499471 438.88186422 86.77618408 438.86869812 C85.36677495 438.88515199 85.36677495 438.88515199 83.92889291 438.90193826 C77.94964834 438.84349911 73.40796383 437.78499792 68.41929626 434.38095093 C63.9800298 429.71402977 63.10714046 425.90346411 63.20835876 419.65829468 C63.65969488 414.78553624 65.83834697 411.69510069 69.41929626 408.56845093 C72.91985325 406.01596146 75.30526633 405.26648388 79.52354431 405.17562866 C80.34416855 405.15568344 81.16479279 405.13573822 82.01028442 405.1151886 C83.33229607 405.09011986 83.33229607 405.09011986 84.68101501 405.06454468 C85.58680801 405.04376358 86.49260101 405.02298248 87.42584229 405.00157166 C90.31941643 404.93618535 93.21308133 404.87724189 96.10679626 404.81845093 C98.06839419 404.77525533 100.02998294 404.7316407 101.99156189 404.68759155 C106.80071366 404.5805151 111.60995672 404.47921678 116.41929626 404.38095093 C116.73392319 403.73916901 117.04855011 403.09738708 117.37271118 402.43615723 C120.35814185 396.34659597 123.34395163 390.25722072 126.33017254 384.16804695 C127.86488633 381.0385943 129.39946058 377.9090734 130.93370056 374.77938843 C132.7032069 371.16980158 134.4733478 367.56052622 136.24351501 363.95126343 C136.78642685 362.84356598 137.32933868 361.73586853 137.88870239 360.59460449 C138.40886429 359.53425995 138.92902618 358.47391541 139.46495056 357.38143921 C139.91573471 356.46210602 140.36651886 355.54277283 140.83096313 354.59558105 C143.01129563 350.18280241 145.21522387 345.78190998 147.41929626 341.38095093 C146.56084358 341.3846381 145.7023909 341.38832527 144.8179245 341.39212418 C123.91877269 341.48050586 103.01965314 341.54667549 82.1203537 341.58819962 C72.01355269 341.60881471 61.90687652 341.63691524 51.80015564 341.68270874 C42.9899498 341.72260867 34.17983438 341.74839139 25.36954069 341.75730491 C20.70559716 341.7625143 16.04191229 341.77473638 11.37805176 341.80387115 C6.98513856 341.83109012 2.59258974 341.83938286 -1.80039978 341.83338165 C-3.40961693 341.834479 -5.01884669 341.84239433 -6.62799072 341.85777283 C-21.80041971 341.99562058 -21.80041971 341.99562058 -28.58070374 337.38095093 C-35.28774432 330.67391035 -36.9151413 324.68309618 -36.98193395 315.50570542 C-36.9718957 313.75853042 -36.9718957 313.75853042 -36.96165466 311.97605896 C-36.96633464 310.72615549 -36.97101461 309.47625202 -36.9758364 308.18847269 C-36.98833238 304.73076869 -36.98218252 301.27331386 -36.97287774 297.8156091 C-36.96608172 294.0820576 -36.97657126 290.34854853 -36.9848175 286.61500549 C-36.99815154 279.30530927 -36.99527846 271.9957055 -36.98657958 264.68600566 C-36.97980163 258.74420417 -36.9788868 252.80242856 -36.98215103 246.86062431 C-36.98261073 246.01462199 -36.98307043 245.16861966 -36.98354406 244.2969809 C-36.98450325 242.57827548 -36.98547589 240.85957007 -36.98646183 239.14086466 C-36.9950149 223.02731064 -36.98518318 206.91380783 -36.96906073 190.80026221 C-36.95566006 176.9792324 -36.95798374 163.1582782 -36.97181702 149.33724976 C-36.9878785 133.28250412 -36.99418837 117.22780337 -36.98498023 101.17305082 C-36.98402459 99.46039832 -36.98308148 97.74774582 -36.98215103 96.03509331 C-36.9816882 95.19246618 -36.98122538 94.34983905 -36.98074853 93.48167776 C-36.97816016 87.54870318 -36.98252638 81.61575711 -36.98958969 75.68278694 C-36.9980113 68.44995951 -36.99571077 61.21722973 -36.97974746 53.98441345 C-36.97187324 50.29530865 -36.96875853 46.60636656 -36.97869492 42.91726303 C-36.98930986 38.91564309 -36.97661907 34.91443252 -36.96165466 30.91282654 C-36.96834683 29.75027393 -36.97503899 28.58772132 -36.98193395 27.38993984 C-36.92553574 19.62195918 -36.27460865 12.34518986 -30.45570374 6.56845093 C-29.93750061 6.02575562 -29.41929749 5.4830603 -28.88539124 4.92391968 C-20.1606844 -0.91719761 -10.02890094 -0.04189292 0 0 Z " fill="#C8EFFE" transform="translate(44.58070373535156,36.619049072265625)"/>
<path d="M0 0 C1.13272842 -0.00043808 2.26545685 -0.00087616 3.43251038 -0.00132751 C7.14976673 0.0007505 10.86656336 0.02403556 14.58374023 0.04760742 C17.17162327 0.05320687 19.75950949 0.05747532 22.34739685 0.06047058 C28.44581274 0.07072655 34.54404094 0.09433331 40.64238638 0.12451905 C47.59044462 0.15815748 54.53851103 0.17457269 61.48663056 0.18960536 C75.76778561 0.220886 90.04880399 0.27358721 104.32983398 0.34057617 C104.06428711 1.59612305 103.79874023 2.85166992 103.52514648 4.14526367 C103.16834795 5.83536199 102.81157869 7.52546649 102.45483398 9.21557617 C102.28081055 10.03799805 102.10678711 10.86041992 101.92749023 11.70776367 C101.7534668 12.53276367 101.57944336 13.35776367 101.40014648 14.20776367 C101.24304199 14.9513916 101.0859375 15.69501953 100.92407227 16.46118164 C100.03893067 20.75015452 99.18869647 25.04626375 98.32983398 29.34057617 C65.32983398 29.34057617 32.32983398 29.34057617 -1.67016602 29.34057617 C-1.67016602 122.73057617 -1.67016602 216.12057617 -1.67016602 312.34057617 C51.85290265 311.82612369 51.85290265 311.82612369 105.37426758 311.16943359 C115.73925781 311.11071777 115.73925781 311.11071777 120.59561157 311.09980774 C123.97963839 311.08772017 127.36099979 311.03912547 130.74429321 310.96809387 C135.06824397 310.87852402 139.38835314 310.85225406 143.71314549 310.87063658 C145.29497248 310.86679698 146.87694149 310.84122787 148.45796847 310.79077947 C159.95096699 310.44126297 159.95096699 310.44126297 163.9298234 313.61802506 C167.31363274 317.15847993 169.78218056 321.18023567 172.32983398 325.34057617 C173.48788295 326.79784499 174.66886685 328.23807117 175.89624023 329.63745117 C176.4009082 330.22268555 176.90557617 330.80791992 177.42553711 331.41088867 C177.90958008 331.96518555 178.39362305 332.51948242 178.89233398 333.09057617 C179.41118164 333.6912793 179.9300293 334.29198242 180.46459961 334.91088867 C182.8326504 337.68493712 182.8326504 337.68493712 185.32983398 340.34057617 C187.6296642 340.46478351 189.93330784 340.5186207 192.23632812 340.54589844 C192.95823837 340.55579803 193.68014862 340.56569763 194.42393494 340.57589722 C196.82091949 340.60759916 199.2179239 340.63230376 201.61499023 340.65698242 C203.27266468 340.67754446 204.93033379 340.69854072 206.58799744 340.71995544 C210.95931694 340.77525367 215.33068436 340.82462862 219.7020874 340.87280273 C224.15942672 340.92296133 228.61669612 340.97867677 233.07397461 341.03393555 C241.82586869 341.14161186 250.57782111 341.24303562 259.32983398 341.34057617 C271.01887955 364.61790969 271.01887955 364.61790969 275.95483398 375.09057617 C280.59210752 384.91860427 285.45092183 394.63093865 290.32983398 404.34057617 C291.5404248 404.35515869 292.75101562 404.36974121 293.99829102 404.38476562 C298.5049338 404.44289302 303.01108448 404.52012507 307.51733398 404.60302734 C309.46484367 404.63620882 311.41244795 404.66426175 313.36010742 404.68701172 C316.16552913 404.72068251 318.97008927 404.77300444 321.77514648 404.82885742 C322.64100372 404.83524734 323.50686096 404.84163727 324.3989563 404.84822083 C330.12971869 404.9864899 334.57199886 405.82511611 338.97436523 409.84057617 C342.44457801 414.29730429 343.70181367 417.43946854 343.60717773 423.14916992 C342.91404853 428.62586685 340.53257039 432.38329618 336.26733398 435.77807617 C332.704143 437.67339053 330.08834374 438.46528291 326.10992908 438.47479725 C325.24500743 438.47925509 324.38008577 438.48371294 323.48895437 438.48830587 C322.53819467 438.4881215 321.58743497 438.48793714 320.60786438 438.48774719 C319.59822465 438.49142388 318.58858491 438.49510057 317.54835004 438.49888867 C314.14909025 438.5099436 310.74986102 438.51377242 307.35058594 438.51757812 C304.9198039 438.5238414 302.48902282 438.53048808 300.0582428 438.53749084 C292.75201572 438.55673099 285.44579115 438.56732101 278.13954642 438.57621863 C274.69822094 438.58060252 271.256897 438.58596909 267.81557274 438.5912075 C256.37451274 438.6082196 244.9334537 438.6227134 233.492383 438.62995625 C230.52356782 438.63186612 227.55475265 438.63378645 224.5859375 438.63574219 C223.84806002 438.63622593 223.11018255 438.63670967 222.34994515 438.63720807 C210.39888503 438.64550699 198.44792504 438.67084164 186.49690864 438.70332287 C174.22483835 438.73640451 161.95281893 438.75440602 149.68070382 438.75760049 C142.79126189 438.75976461 135.90196597 438.76849879 129.01256752 438.79406166 C122.530785 438.81805663 116.04919388 438.82158736 109.56737328 438.81130028 C107.18897504 438.81080409 104.81056399 438.81714883 102.4322052 438.83085632 C99.18339507 438.84853214 95.93553243 438.84148946 92.6867218 438.82832336 C91.27731267 438.84477723 91.27731267 438.84477723 89.83943063 438.8615635 C83.86018606 438.80312436 79.31850155 437.74462317 74.32983398 434.34057617 C69.89056751 429.67365501 69.01767818 425.86308935 69.11889648 419.61791992 C69.5702326 414.74516148 71.74888469 411.65472593 75.32983398 408.52807617 C78.83039097 405.9755867 81.21580405 405.22610912 85.43408203 405.13525391 C86.25470627 405.11530869 87.07533051 405.09536346 87.92082214 405.07481384 C89.24283379 405.0497451 89.24283379 405.0497451 90.59155273 405.02416992 C91.49734573 405.00338882 92.40313873 404.98260773 93.33638 404.9611969 C96.22995415 404.89581059 99.12361905 404.83686713 102.01733398 404.77807617 C103.97893191 404.73488057 105.94052066 404.69126594 107.90209961 404.6472168 C112.71125138 404.54014035 117.52049444 404.43884203 122.32983398 404.34057617 C122.64446091 403.69879425 122.95908783 403.05701233 123.2832489 402.39578247 C126.26867957 396.30622121 129.25448935 390.21684597 132.24071026 384.1276722 C133.77542405 380.99821954 135.3099983 377.86869864 136.84423828 374.73901367 C138.61374462 371.12942682 140.38388552 367.52015147 142.15405273 363.91088867 C142.69696457 362.80319122 143.2398764 361.69549377 143.79924011 360.55422974 C144.31940201 359.49388519 144.8395639 358.43354065 145.37548828 357.34106445 C145.82627243 356.42173126 146.27705658 355.50239807 146.74150085 354.5552063 C148.92183335 350.14242765 151.12576159 345.74153523 153.32983398 341.34057617 C152.4713813 341.34426334 151.61292862 341.34795052 150.72846222 341.35174942 C129.82931041 341.4401311 108.93019086 341.50630074 88.03089142 341.54782486 C77.92409041 341.56843996 67.81741424 341.59654049 57.71069336 341.64233398 C48.90048752 341.68223391 40.0903721 341.70801664 31.28007841 341.71693015 C26.61613488 341.72213954 21.95245001 341.73436163 17.28858948 341.7634964 C12.89567628 341.79071536 8.50312746 341.7990081 4.11013794 341.7930069 C2.50092079 341.79410424 0.89169103 341.80201958 -0.717453 341.81739807 C-15.88988199 341.95524582 -15.88988199 341.95524582 -22.67016602 337.34057617 C-29.3772066 330.63353559 -31.00460358 324.64272143 -31.07139623 315.46533066 C-31.06135798 313.71815566 -31.06135798 313.71815566 -31.05111694 311.9356842 C-31.05579692 310.68578073 -31.06047689 309.43587726 -31.06529868 308.14809793 C-31.07779466 304.69039394 -31.0716448 301.2329391 -31.06234002 297.77523434 C-31.055544 294.04168284 -31.06603354 290.30817377 -31.07427979 286.57463074 C-31.08761382 279.26493451 -31.08474075 271.95533074 -31.07604186 264.6456309 C-31.06926391 258.70382941 -31.06834908 252.76205381 -31.07161331 246.82024956 C-31.07207301 245.97424723 -31.07253271 245.1282449 -31.07300634 244.25660614 C-31.07396553 242.53790072 -31.07493817 240.81919531 -31.07592411 239.10048991 C-31.08447718 222.98693588 -31.07464546 206.87343307 -31.05852301 190.75988745 C-31.04512234 176.93885764 -31.04744602 163.11790344 -31.0612793 149.296875 C-31.07734078 133.24212936 -31.08365065 117.18742862 -31.07444251 101.13267606 C-31.07348687 99.42002357 -31.07254376 97.70737106 -31.07161331 95.99471855 C-31.07115049 95.15209142 -31.07068766 94.30946429 -31.07021081 93.441303 C-31.06762244 87.50832842 -31.07198866 81.57538235 -31.07905197 75.64241219 C-31.08747358 68.40958475 -31.08517305 61.17685497 -31.06920974 53.9440387 C-31.06133552 50.2549339 -31.05822081 46.5659918 -31.0681572 42.87688828 C-31.07877214 38.87526833 -31.06608135 34.87405776 -31.05111694 30.87245178 C-31.05780911 29.70989917 -31.06450127 28.54734656 -31.07139623 27.34956509 C-31.01499802 19.58158442 -30.36407093 12.30481511 -24.54516602 6.52807617 C-24.02696289 5.98538086 -23.50875977 5.44268555 -22.97485352 4.88354492 C-15.91949783 0.16004408 -8.24106611 -0.08446673 0 0 Z " fill="#98999B" transform="translate(38.670166015625,36.659423828125)"/>
<path d="M0 0 C32.67 0 65.34 0 99 0 C98.43566054 4.5147157 97.86979602 9.02770763 97.28125 13.5390625 C95.99560173 23.51546498 94.73014897 33.43783059 94.2109375 43.48828125 C94 46 94 46 93 49 C90.48046875 50.5078125 90.48046875 50.5078125 87.1875 52.125 C64.54598853 63.78786219 46.39793316 84.40362153 38.3515625 108.69921875 C34.90281114 119.94509543 33.75195597 129.96870452 33 142 C48.84 142 64.68 142 81 142 C81.99 147.445 81.99 147.445 83 153 C86.43610313 166.80955192 93.66694137 178.55857099 105.8125 186.1875 C118.31376331 193.29308128 132.89490901 196.64404207 147.19970703 193.51953125 C155.11744238 191.25886392 162.10078187 187.95887755 168.203125 182.3203125 C170 181 170 181 174 181 C175.69586182 182.21484375 175.69586182 182.21484375 177.39160156 183.9375 C178.0319635 184.57816406 178.67232544 185.21882812 179.33209229 185.87890625 C180.01140808 186.57886719 180.69072388 187.27882812 181.390625 188 C182.09523865 188.71027344 182.79985229 189.42054688 183.52581787 190.15234375 C185.77675647 192.42569373 188.01340194 194.71254836 190.25 197 C191.77251704 198.5425757 193.29594368 200.0842542 194.8203125 201.625 C198.55749658 205.40631465 202.28303484 209.19881444 206 213 C200.28120277 225.67336509 181.84095173 233.05686918 169.58203125 237.71875 C159.57064984 241.33511499 149.51931898 243.48202232 139 245 C144.97543802 255.62912016 151.4334516 265.73955895 158.52783203 275.66113281 C159.10903809 276.47420898 159.69024414 277.28728516 160.2890625 278.125 C160.81193848 278.84945313 161.33481445 279.57390625 161.87353516 280.3203125 C163 282 163 282 163 283 C109.21 283 55.42 283 0 283 C0 189.61 0 96.22 0 0 Z " fill="#99E6FB" transform="translate(37,66)"/>
<path d="M0 0 C2.76974413 2.21012831 5.35112878 4.48449326 7.88671875 6.95703125 C9.97713036 9.05747647 9.97713036 9.05747647 12.43359375 10.85546875 C28.06525181 23.91753919 39.27747323 46.97011362 42 67 C42.32665003 72.1900243 42.3904762 77.36481314 42.375 82.5625 C42.37412384 83.27753693 42.37324768 83.99257385 42.37234497 84.72927856 C42.32940616 95.32922206 41.78766877 104.95153755 38 115 C37.74798828 115.69577148 37.49597656 116.39154297 37.23632812 117.10839844 C32.23918217 130.77565253 25.38865402 143.5921433 15 154 C13.07989502 154.80882263 13.07989502 154.80882263 11 155 C9.30413818 153.90541077 9.30413818 153.90541077 7.60839844 152.17602539 C6.9680365 151.5352858 6.32767456 150.8945462 5.66790771 150.23439026 C4.98859192 149.52926804 4.30927612 148.82414581 3.609375 148.09765625 C2.55245453 147.03012367 2.55245453 147.03012367 1.47418213 145.94102478 C-0.77917932 143.65961896 -3.01456906 141.36146474 -5.25 139.0625 C-6.77228706 137.5151434 -8.2957108 135.96890417 -9.8203125 134.42382812 C-13.56017332 130.62876458 -17.28541258 126.81979558 -21 123 C-24.10290552 124.49877873 -26.64206963 126.20916963 -29.375 128.3125 C-42.63545699 137.5657824 -56.19911858 138.42946152 -71.75 136.4375 C-85.88874638 133.34800155 -97.71320765 123.3994277 -105.53515625 111.546875 C-107.84975624 107.52255715 -109.52112641 103.39203162 -111 99 C-111.61875 97.205625 -111.61875 97.205625 -112.25 95.375 C-113 92 -113 92 -113 84 C-128.84 84 -144.68 84 -161 84 C-161 65.35289132 -161 65.35289132 -159 58.5625 C-158.77852295 57.77593018 -158.5570459 56.98936035 -158.32885742 56.17895508 C-150.21533447 28.84818472 -132.04795264 6.68864943 -107.12060547 -7.03466797 C-98.10193258 -11.8106414 -88.94608192 -14.77111899 -79 -17 C-78.23365234 -17.1757959 -77.46730469 -17.3515918 -76.67773438 -17.53271484 C-49.71593523 -22.23775529 -22.43461727 -15.06306722 0 0 Z " fill="#7D7482" transform="translate(231,124)"/>
<path d="M0 0 C1.11375 0.88365234 1.11375 0.88365234 2.25 1.78515625 C3.28125 2.52765625 4.3125 3.27015625 5.375 4.03515625 C19.40597054 17.4560846 27.44213132 36.37350763 28.453125 55.66015625 C28.87920338 78.14461102 22.16475541 98.94466319 6.57299805 115.55541992 C-7.86595876 130.31171643 -26.73327793 138.61422513 -47.25976562 139.25610352 C-67.81052247 139.45577204 -87.28290277 133.88064297 -102.75 119.78515625 C-103.96042969 118.71201172 -103.96042969 118.71201172 -105.1953125 117.6171875 C-119.71436692 104.00834903 -128.15445019 86.24596408 -129.00390625 66.27734375 C-129.49886969 43.92820507 -123.82300196 23.70669886 -108.125 7.16015625 C-77.55198827 -23.41285548 -34.2767121 -26.47263926 0 0 Z " fill="#2891F9" transform="translate(475.75,294.21484375)"/>
<path d="M0 0 C40.62992166 -0.06866327 81.25983577 -0.12152734 121.88980386 -0.15319599 C126.68630162 -0.15694812 131.48279928 -0.16083108 136.27929688 -0.16479492 C137.71164424 -0.16597532 137.71164424 -0.16597532 139.17292792 -0.16717956 C154.63547244 -0.18023427 170.09798351 -0.20388848 185.56050819 -0.23145839 C201.42591884 -0.25951077 217.29131196 -0.27617591 233.15674639 -0.28226548 C242.94694193 -0.28638227 252.73704291 -0.29938591 262.52720934 -0.3237494 C269.24025746 -0.33960451 275.95325668 -0.34440086 282.66632217 -0.34050413 C286.53968778 -0.33858224 290.41288812 -0.3415331 294.28622437 -0.35761642 C298.48743309 -0.37493363 302.68829006 -0.36896175 306.88952637 -0.36076355 C308.72222745 -0.37387134 308.72222745 -0.37387134 310.5919528 -0.38724393 C319.7707964 -0.33875123 326.605414 1.03241877 333.52734375 7.38671875 C337.66998818 11.92494727 339.12612282 17.31275332 339.12304783 23.30282974 C339.12503888 24.16074246 339.12702993 25.01865517 339.12908131 25.90256524 C339.12616847 26.84030526 339.12325563 27.77804528 339.12025452 28.74420166 C339.12153615 30.24390837 339.12153615 30.24390837 339.12284368 31.77391219 C339.12449448 35.13347255 339.11898361 38.49298328 339.11352539 41.85253906 C339.11324341 44.25703938 339.11340147 46.66153978 339.1139679 49.06604004 C339.11419582 54.24760673 339.11135422 59.42916215 339.10573006 64.6107254 C339.09760374 72.10240006 339.09499867 79.59406863 339.09374207 87.08574721 C339.09155333 99.24043649 339.08489806 111.39511905 339.07543945 123.54980469 C339.06626073 135.35709601 339.05918215 147.16438552 339.05493164 158.97167969 C339.05453756 160.06334373 339.05453756 160.06334373 339.05413551 161.17706159 C339.05283047 164.82809242 339.05156676 168.47912327 339.05032361 172.13015413 C339.03995654 202.42010756 339.02226873 232.71005285 339 263 C338.4524556 262.58899048 337.90491119 262.17798096 337.34077454 261.7545166 C336.62157333 261.21484253 335.90237213 260.67516846 335.16137695 260.11914062 C334.44883255 259.5843811 333.73628815 259.04962158 333.00215149 258.49865723 C325.60295659 252.96018676 318.18647767 248.46535146 310 244 C309.505 138.07 309.505 138.07 309 30 C205.05 29.67 101.1 29.34 -6 29 C-6 21.1213804 -6 21.1213804 -4.94140625 17.01171875 C-4.60979492 15.70557617 -4.60979492 15.70557617 -4.27148438 14.37304688 C-4.03751953 13.48681641 -3.80355469 12.60058594 -3.5625 11.6875 C-3.33240234 10.78193359 -3.10230469 9.87636719 -2.86523438 8.94335938 C-1.1625504 2.32510081 -1.1625504 2.32510081 0 0 Z " fill="#C7C8CC" transform="translate(143,37)"/>
<path d="M0 0 C24.09 0 48.18 0 73 0 C85.51689189 25.03378378 85.51689189 25.03378378 89.625 33.75 C94.26227353 43.5780281 99.12108785 53.29036248 104 63 C105.21059082 63.01458252 106.42118164 63.02916504 107.66845703 63.04418945 C112.17509981 63.10231685 116.68125049 63.1795489 121.1875 63.26245117 C123.13500968 63.29563265 125.08261397 63.32368557 127.03027344 63.34643555 C129.83569515 63.38010634 132.64025528 63.43242827 135.4453125 63.48828125 C136.31116974 63.49467117 137.17702698 63.5010611 138.06912231 63.50764465 C143.79988471 63.64591373 148.24216488 64.48453993 152.64453125 68.5 C156.11474403 72.95672811 157.37197968 76.09889237 157.27734375 81.80859375 C156.58421455 87.28529068 154.2027364 91.04272 149.9375 94.4375 C146.37430901 96.33281435 143.75850976 97.12470674 139.7800951 97.13422108 C138.91517344 97.13867892 138.05025179 97.14313676 137.15912038 97.14772969 C136.20836069 97.14754533 135.25760099 97.14736097 134.2780304 97.14717102 C133.26839066 97.15084771 132.25875093 97.1545244 131.21851605 97.1583125 C127.81925627 97.16936743 124.42002704 97.17319625 121.02075195 97.17700195 C118.58996991 97.18326523 116.15918884 97.1899119 113.72840881 97.19691467 C106.42218173 97.21615482 99.11595716 97.22674484 91.80971244 97.23564246 C88.36838696 97.24002635 84.92706302 97.24539292 81.48573875 97.25063133 C70.04467876 97.26764343 58.60361972 97.28213723 47.16254902 97.28938007 C44.19373384 97.29128994 41.22491867 97.29321028 38.25610352 97.29516602 C37.51822604 97.29564976 36.78034856 97.2961335 36.02011117 97.2966319 C24.06905104 97.30493082 12.11809106 97.33026547 0.16707466 97.36274669 C-12.10499563 97.39582834 -24.37701505 97.41382985 -36.64913017 97.41702431 C-43.5385721 97.41918844 -50.42786802 97.42792262 -57.31726646 97.45348549 C-63.79904898 97.47748045 -70.2806401 97.48101119 -76.76246071 97.47072411 C-79.14085895 97.47022792 -81.51926999 97.47657265 -83.89762878 97.49028015 C-87.14643891 97.50795597 -90.39430156 97.50091329 -93.64311218 97.48774719 C-94.58271827 97.49871644 -95.52232436 97.50968568 -96.49040335 97.52098733 C-102.46964793 97.46254819 -107.01133244 96.404047 -112 93 C-116.43926647 88.33307884 -117.31215581 84.52251318 -117.2109375 78.27734375 C-116.75960138 73.40458531 -114.5809493 70.31414976 -111 67.1875 C-106.55838394 63.94882162 -103.0576212 63.84922067 -97.76777649 63.84178162 C-97.02609024 63.83684364 -96.28440399 63.83190566 -95.52024239 63.82681805 C-93.02822703 63.81142669 -90.53623747 63.803078 -88.04418945 63.79467773 C-86.26051607 63.7851005 -84.47684497 63.77509051 -82.69317627 63.76467896 C-77.84434955 63.7376071 -72.99551308 63.71660988 -68.14665246 63.69667697 C-63.08173351 63.67483149 -58.01684471 63.64743577 -52.95195007 63.62062073 C-43.35788092 63.57067438 -33.76379506 63.52574275 -24.16969317 63.48259836 C-13.24840883 63.43324258 -2.32715474 63.3783183 8.59410036 63.32291877 C31.06270536 63.20906891 53.53133937 63.10223641 76 63 C74.90563629 62.32009003 73.81127258 61.64018005 72.68374634 60.93966675 C71.23134192 60.03520391 69.77898223 59.13066927 68.32666016 58.22607422 C67.60732803 57.77942917 66.88799591 57.33278412 66.14686584 56.87260437 C60.72979558 53.49561635 55.48596622 49.95234042 50.375 46.125 C49.58359619 45.5369458 48.79219238 44.9488916 47.97680664 44.34301758 C40.69980484 38.87920512 33.78792528 33.05516282 27 27 C26.06414062 26.175 25.12828125 25.35 24.1640625 24.5 C19.27485052 20.1540338 14.57725813 15.67139197 10 11 C9.13375 10.154375 8.2675 9.30875 7.375 8.4375 C4.76816379 5.76206284 2.39137444 2.86964933 0 0 Z " fill="#97989A" transform="translate(225,378)"/>
<path d="M0 0 C9.81829092 9.01406232 17.05590677 22.06075029 17.84765625 35.421875 C18.41273916 50.77175021 15.38004161 64.16542765 4.98828125 75.92578125 C-4.38585188 85.84009633 -15.70715329 93.54607158 -29.7578125 94.421875 C-46.11020924 94.87706921 -59.1561101 91.57849369 -71.8359375 80.7265625 C-81.57575639 71.39783986 -88.60378344 59.13566937 -89.76171875 45.49609375 C-89.81693999 28.32228793 -85.25198528 14.70589463 -73.4609375 2.0390625 C-52.4831977 -17.7254125 -22.35008696 -17.80911691 0 0 Z " fill="#FEB600" transform="translate(207.4609375,166.9609375)"/>
<path d="M0 0 C15.84 0 31.68 0 48 0 C48.66 3.63 49.32 7.26 50 11 C53.43610313 24.80955192 60.66694137 36.55857099 72.8125 44.1875 C85.31376331 51.29308128 99.89490901 54.64404207 114.19970703 51.51953125 C122.11744238 49.25886392 129.10078187 45.95887755 135.203125 40.3203125 C137 39 137 39 141 39 C142.69586182 40.21484375 142.69586182 40.21484375 144.39160156 41.9375 C145.35214447 42.89849609 145.35214447 42.89849609 146.33209229 43.87890625 C147.01140808 44.57886719 147.69072388 45.27882812 148.390625 46 C149.09523865 46.71027344 149.79985229 47.42054688 150.52581787 48.15234375 C152.77675647 50.42569373 155.01340194 52.71254836 157.25 55 C158.77251704 56.5425757 160.29594368 58.0842542 161.8203125 59.625 C165.55749658 63.40631465 169.28303484 67.19881444 173 71 C167.5875655 82.99443793 150.31432951 90.41979855 138.64990234 94.90332031 C112.96996407 104.30461356 83.98491883 104.26497943 58.88208008 92.97900391 C33.3604076 80.76323248 14.49645663 59.92369804 4.84399414 33.34277344 C0.94375242 22.02351484 0 11.98190272 0 0 Z " fill="#43A2FE" transform="translate(70,208)"/>
<path d="M0 0 C2.65122146 1.89270736 5.2181471 3.85463098 7.76953125 5.87890625 C8.80078125 6.62140625 9.83203125 7.36390625 10.89453125 8.12890625 C24.92550179 21.5498346 32.96166257 40.46725763 33.97265625 59.75390625 C34.2425955 73.99878953 32.16780332 86.9442699 25.76953125 99.87890625 C23.49279658 102.15564092 18.95227202 101.30762298 15.89355469 101.33642578 C1.95966965 101.0429853 -12.28277952 95.85457574 -24.23046875 88.87890625 C-23.88113281 88.40839844 -23.53179687 87.93789063 -23.171875 87.453125 C-22.48931641 86.51919922 -22.48931641 86.51919922 -21.79296875 85.56640625 C-21.34050781 84.95152344 -20.88804687 84.33664062 -20.421875 83.703125 C-17.80673244 79.6989559 -17.77080039 75.50112702 -18.23046875 70.87890625 C-19.58678267 66.43321061 -20.4628666 64.41622775 -24.30175781 61.72900391 C-26.20762963 60.18634452 -27.10178713 59.32651359 -27.7845459 56.95159912 C-27.98666599 54.60480428 -28.00909722 52.31993479 -27.96484375 49.96484375 C-27.97828827 48.68765976 -27.97828827 48.68765976 -27.99200439 47.38467407 C-28.01605935 44.6737055 -28.00020417 41.96487938 -27.98046875 39.25390625 C-27.98191068 36.53635672 -27.99176419 33.81919098 -28.01177979 31.10171509 C-28.02198683 29.41341042 -28.02024555 27.72498211 -28.00531006 26.03671265 C-28.00788697 22.12459858 -28.0094883 20.21037692 -30.23046875 16.87890625 C-33.78719054 15.66009415 -33.78719054 15.66009415 -37.23046875 14.87890625 C-37.235808 19.63045858 -37.20212172 24.37956424 -37.1328125 29.13061523 C-37.11468477 30.7454397 -37.10707818 32.3604189 -37.11035156 33.9753418 C-37.11321838 36.30247944 -37.07781397 38.62643009 -37.03515625 40.953125 C-37.04425018 41.67102707 -37.05334412 42.38892914 -37.06271362 43.12858582 C-36.9813804 45.95639075 -36.82369688 48.20556947 -34.9072876 50.38076782 C-33.39900296 51.6116349 -31.81617191 52.74952509 -30.23046875 53.87890625 C-27.33910994 58.31232309 -26.67724685 61.6232982 -27.23046875 66.87890625 C-29.24772958 72.72896265 -31.70024904 77.08923865 -36.79296875 80.69140625 C-40.38563626 81.93250957 -41.56975615 81.72402261 -45.19140625 81.23828125 C-49.85917303 81.18771667 -52.28782189 82.23651268 -55.75773621 85.38249207 C-58.35460335 87.95287049 -60.83418549 90.61447708 -63.29296875 93.31640625 C-64.83369475 94.95187957 -66.38220466 96.57970942 -67.93125916 98.20729065 C-69.32228749 99.67775978 -70.69498463 101.16550568 -72.06665039 102.65405273 C-74.62540028 105.28497768 -75.47449445 105.79673513 -79.10546875 106.19140625 C-82.23046875 105.87890625 -82.23046875 105.87890625 -84.60546875 104.31640625 C-86.86562587 100.92617057 -86.69826267 98.89847864 -86.23046875 94.87890625 C-84.5088816 92.68514177 -83.05424794 91.14954041 -80.98046875 89.3671875 C-79.8860721 88.35160785 -78.79234286 87.3353086 -77.69921875 86.31835938 C-75.97121123 84.75125052 -74.23498907 83.19538744 -72.484375 81.65356445 C-65.37299079 75.7083906 -65.37299079 75.7083906 -61.5859375 67.61083984 C-61.60075264 64.4651748 -61.60075264 64.4651748 -62.1015625 61.55932617 C-62.26566554 58.14703966 -61.04931743 56.69391798 -59.23046875 53.87890625 C-59.73408461 51.02214103 -59.73408461 51.02214103 -61.23046875 47.87890625 C-66.80681836 34.35977296 -69.4063891 22.88502114 -69.35546875 8.25390625 C-69.36126953 6.57554687 -69.36126953 6.57554687 -69.3671875 4.86328125 C-69.36589844 3.78304688 -69.36460937 2.7028125 -69.36328125 1.58984375 C-69.36215332 0.61321777 -69.36102539 -0.3634082 -69.35986328 -1.36962891 C-69.23371415 -4.05208312 -68.83013748 -6.50744325 -68.23046875 -9.12109375 C-68.89046875 -9.45109375 -69.55046875 -9.78109375 -70.23046875 -10.12109375 C-45.23580317 -17.65649764 -21.92683345 -14.39694143 0 0 Z " fill="#43A2FE" transform="translate(470.23046875,290.12109375)"/>
<path d="M0 0 C0 15.84 0 31.68 0 48 C-5.28 48.99 -10.56 49.98 -16 51 C-31.9235038 57.82435877 -41.76881413 66.86625471 -49.16015625 82.4453125 C-51.47532188 88.75093948 -51.97808735 95.35756779 -53 102 C-68.84 102 -84.68 102 -101 102 C-101 83.35289132 -101 83.35289132 -99 76.5625 C-98.77852295 75.77593018 -98.5570459 74.98936035 -98.32885742 74.17895508 C-90.21533447 46.84818472 -72.04795264 24.68864943 -47.12060547 10.96533203 C-32.0227361 2.97002898 -17.17513702 0 0 0 Z " fill="#6CE65B" transform="translate(171,106)"/>
<path d="M0 0 C4.5529673 -0.19915402 9.10335395 -0.34355091 13.65966797 -0.43945312 C15.206016 -0.47945879 16.75206572 -0.53388691 18.29736328 -0.60351562 C31.099206 -1.16550743 31.099206 -1.16550743 35.84765625 1.74609375 C37.88811308 3.73616893 39.53888504 5.55572802 41 8 C41 8.66 41 9.32 41 10 C41.54527344 10.21527344 42.09054688 10.43054688 42.65234375 10.65234375 C45.8037156 12.46136753 48.07847137 14.95715178 50.5625 17.5625 C56.04783987 23.17252571 61.84121815 28.13349907 68 33 C69.09702417 33.9077783 70.19197946 34.81806097 71.28515625 35.73046875 C82.24131676 44.79889191 94.00651553 52.56258665 105.95263672 60.2578125 C107.31843615 61.14676126 108.66260053 62.06887131 110 63 C110 63.33 110 63.66 110 64 C63.47 64 16.94 64 -31 64 C-20.8487559 42.56959579 -10.68965711 21.16646706 0 0 Z " fill="#8A8B8E" transform="translate(192,378)"/>
<path d="M0 0 C48.18 0 96.36 0 146 0 C146.33 5.28 146.66 10.56 147 16 C147.60959477 19.01211531 148.25464401 22.01857603 149 25 C149 26.32 149 27.64 149 29 C132.77930116 29.30451978 116.55953779 29.53332603 100.33666611 29.67355824 C92.80289566 29.74042056 85.27090721 29.83146248 77.73828125 29.98071289 C71.16791289 30.11083451 64.5988354 30.19428136 58.02721429 30.22315043 C54.55099796 30.2400134 51.07847209 30.27923168 47.60344696 30.37449074 C24.80892249 30.9755493 24.80892249 30.9755493 18.68255615 26.16920471 C15.53657688 23.09945843 13.28530911 19.74087817 11 16 C9.83118338 14.55970548 8.6450351 13.13272018 7.421875 11.73828125 C6.5255454 10.60082637 5.63452611 9.45915771 4.75 8.3125 C4.27949219 7.72017578 3.80898437 7.12785156 3.32421875 6.51757812 C0 2.25811999 0 2.25811999 0 0 Z " fill="#C7C8CC" transform="translate(201,349)"/>
<path d="M0 0 C0.01458252 0.57331055 0.02916504 1.14662109 0.04418945 1.73730469 C0.50013473 17.80333391 1.10181074 34.03615966 11.75 47.15625 C12.1625 47.7646875 12.575 48.373125 13 49 C12.67 49.99 12.34 50.98 12 52 C11.4620498 58.34781231 12.35421694 62.70773426 16 68 C18.43608793 70.38388916 18.43608793 70.38388916 21 72 C24 74 24 74 24.51171875 75.9453125 C24.67447917 77.96354167 24.83723958 79.98177083 25 82 C30.46420449 83.33761703 30.46420449 83.33761703 35.375 81.4375 C37.1959037 78.70614445 38.1387062 76.15807725 39 73 C43.4395462 71.89011345 46.32178783 72.34118144 50.68164062 73.50146484 C54.90971199 74.41066048 59.18935013 74.47462849 63.5 74.625 C64.4178125 74.66367188 65.335625 74.70234375 66.28125 74.7421875 C68.52064528 74.83549564 70.76005254 74.92128185 73 75 C72.06984859 76.10337031 71.13702503 77.20448823 70.203125 78.3046875 C69.68395508 78.91812012 69.16478516 79.53155273 68.62988281 80.16357422 C63.29372093 86.17594835 57.32685922 89.78666516 50 93 C49.32582031 93.32226562 48.65164062 93.64453125 47.95703125 93.9765625 C38.07113467 98.06859706 23.08677513 97.29844909 13 94 C-1.52149443 87.77397559 -13.2087595 77.56879571 -19.3125 62.8125 C-24.56095298 48.87203891 -24.44535584 35.26493581 -18.96875 21.38671875 C-15.98263251 14.89998379 -8.17154136 0 0 0 Z " fill="#FDA201" transform="translate(141,165)"/>
<path d="M0 0 C15.84 0 31.68 0 48 0 C48 25.98374926 39.81483438 51.15038774 21 70 C19.08563232 70.81455994 19.08563232 70.81455994 17 71 C15.26617432 69.8674469 15.26617432 69.8674469 13.51660156 68.08422852 C12.85621887 67.42346817 12.19583618 66.76270782 11.51544189 66.08192444 C10.81425232 65.35492844 10.11306274 64.62793243 9.390625 63.87890625 C8.30041046 62.77807961 8.30041046 62.77807961 7.18817139 61.65501404 C4.86348961 59.30228545 2.5567598 56.93279039 0.25 54.5625 C-1.32046458 52.96696621 -2.89206535 51.37254989 -4.46484375 49.77929688 C-8.32318607 45.86574854 -12.16691815 41.93828406 -16 38 C-15.59062195 37.5348851 -15.1812439 37.0697702 -14.75946045 36.59056091 C-14.2210553 35.97213821 -13.68265015 35.35371552 -13.12792969 34.71655273 C-12.59480164 34.10706284 -12.06167358 33.49757294 -11.51239014 32.86961365 C-3.79273971 23.32659731 -1.31944531 11.87500777 0 0 Z " fill="#FD6372" transform="translate(225,208)"/>
<path d="M0 0 C2.4375 1.625 2.4375 1.625 4 4 C4.25 7.25 4.25 7.25 4 10 C4.70125 10.185625 5.4025 10.37125 6.125 10.5625 C10.0647946 12.5323973 12.48214896 15.42242051 15 19 C15.96847302 21.90541905 16.19582812 23.96637454 16.25 27 C16.27578125 27.86625 16.3015625 28.7325 16.328125 29.625 C16 32 16 32 14.65234375 33.76953125 C12.51557715 35.36074042 10.61155874 35.64708666 8 36 C8.9075 36.66 9.815 37.32 10.75 38 C15.62008889 42.09687573 17.70498316 46.67674242 18.5 52.9375 C18.17865974 58.75605405 15.64547748 63.92988317 12.0625 68.4375 C10 70 10 70 7.375 70.8125 C6.59125 71.204375 5.8075 71.59625 5 72 C4.2833793 74.31847874 3.61757973 76.65319703 3 79 C0.84102718 81.3078675 -0.39988964 81.89498069 -3.5 82.4375 C-6.89456558 81.84345102 -7.9680513 80.75764467 -10 78 C-10.12375 77.01 -10.2475 76.02 -10.375 75 C-10.70669565 71.73296512 -10.70669565 71.73296512 -13.8125 69.9375 C-14.864375 69.298125 -15.91625 68.65875 -17 68 C-20.99089927 63.6765258 -23.04826078 59.81880602 -23.375 53.9375 C-23 50 -23 50 -21.1875 47.5625 C-19 46 -19 46 -16 45 C-16.49371094 44.44570312 -16.98742187 43.89140625 -17.49609375 43.3203125 C-18.13675781 42.59585938 -18.77742187 41.87140625 -19.4375 41.125 C-20.07558594 40.40570313 -20.71367187 39.68640625 -21.37109375 38.9453125 C-24.99756052 34.61442412 -24.44767574 30.02855733 -24.4140625 24.56640625 C-23.81131247 19.37479511 -21.8366821 16.43947266 -18 13 C-13.875 10 -13.875 10 -11 10 C-10.896875 8.906875 -10.79375 7.81375 -10.6875 6.6875 C-10 3 -10 3 -8.875 1.0625 C-5.81547541 -0.6712306 -3.43182475 -0.42145216 0 0 Z " fill="#FFD44D" transform="translate(175,167)"/>
<path d="M0 0 C3.07149786 0.80177295 4.11820325 1.99232923 6.03515625 4.53125 C6.38114254 7.56734529 6.49883268 10.24877509 6.43359375 13.27734375 C6.43832931 15.01888156 6.44355268 16.7604181 6.44921875 18.50195312 C6.43447525 21.23859317 6.41007964 23.97472593 6.375 26.71118164 C6.34831112 29.35886196 6.35793537 32.00460522 6.37109375 34.65234375 C6.3494516 35.4670665 6.32780945 36.28178925 6.30551147 37.12120056 C6.29110079 41.44568536 6.29110079 41.44568536 8.34942627 45.09133911 C9.85003919 46.31710419 11.44096083 47.42994164 13.03515625 48.53125 C15.92651506 52.96466684 16.58837815 56.27564195 16.03515625 61.53125 C14.01789542 67.3813064 11.56537596 71.7415824 6.47265625 75.34375 C2.87998874 76.58485332 1.69586885 76.37636636 -1.92578125 75.890625 C-6.59354803 75.84006042 -9.02219689 76.88885643 -12.49211121 80.03483582 C-15.08897835 82.60521424 -17.56856049 85.26682083 -20.02734375 87.96875 C-21.56806975 89.60422332 -23.11657966 91.23205317 -24.66563416 92.8596344 C-26.05666249 94.33010353 -27.42935963 95.81784943 -28.80102539 97.30639648 C-31.35977528 99.93732143 -32.20886945 100.44907888 -35.83984375 100.84375 C-38.96484375 100.53125 -38.96484375 100.53125 -41.33984375 98.96875 C-43.60000087 95.57851432 -43.43263767 93.55082239 -42.96484375 89.53125 C-41.2432566 87.33748552 -39.78862294 85.80188416 -37.71484375 84.01953125 C-36.6204471 83.0039516 -35.52671786 81.98765235 -34.43359375 80.97070312 C-32.70558623 79.40359427 -30.96936407 77.84773119 -29.21875 76.3059082 C-22.11118685 70.3503286 -22.11118685 70.3503286 -18.29174805 62.25 C-18.28623299 59.09493084 -18.28623299 59.09493084 -18.7565918 56.17504883 C-19.05618301 52.3716804 -17.60067475 50.14516713 -15.546875 47.0546875 C-13.55987766 45.14128265 -11.525499 44.49614968 -8.96484375 43.53125 C-8.9805542 42.37077148 -8.99626465 41.21029297 -9.01245117 40.01464844 C-9.06678299 35.70596263 -9.10120566 31.39730707 -9.12963867 27.08837891 C-9.14471789 25.22406928 -9.16518436 23.35979508 -9.19116211 21.49560547 C-9.22758371 18.81468967 -9.24457865 16.1342432 -9.2578125 13.453125 C-9.27329636 12.62069275 -9.28878021 11.7882605 -9.30473328 10.93060303 C-9.30573865 7.46756417 -9.26722947 5.13172734 -7.69262695 2.00488281 C-5.30947915 -0.02771294 -3.04954191 0.04700643 0 0 Z " fill="#EDEEF0" transform="translate(426.96484375,295.46875)"/>
<path d="M0 0 C4.62 0 9.24 0 14 0 C14.2475 1.5675 14.495 3.135 14.75 4.75 C17.53005011 19.70475233 23.49897286 33.65637629 36.3125 42.6171875 C49.37599525 50.82269545 64.82727187 54.87723962 80.19970703 51.51953125 C88.11744238 49.25886392 95.10078187 45.95887755 101.203125 40.3203125 C103 39 103 39 107 39 C109.140625 40.75 109.140625 40.75 111.25 43 C111.95640625 43.7425 112.6628125 44.485 113.390625 45.25 C114.18726563 46.11625 114.18726563 46.11625 115 47 C112.43755848 54.68732456 101.17016282 59.19711217 94.3125 62.67578125 C85.48422919 66.20500743 77.23949922 67.55728068 67.75 67.5 C66.65606934 67.49500488 65.56213867 67.49000977 64.43505859 67.48486328 C55.45236267 67.29227258 48.1998341 65.84081449 40 62 C39.01128906 61.55398438 38.02257812 61.10796875 37.00390625 60.6484375 C30.00345153 57.17248356 24.51521273 52.48759063 19 47 C18.30003906 46.33484375 17.60007812 45.6696875 16.87890625 44.984375 C6.60693591 34.49214799 -0.08481394 18.91356987 -0.1875 4.25 C-0.125625 2.8475 -0.06375 1.445 0 0 Z " fill="#2991F8" transform="translate(104,208)"/>
<path d="M0 0 C0.91099457 -0.00700928 1.82198914 -0.01401855 2.7605896 -0.02124023 C5.77169278 -0.0388444 8.78185602 -0.02718876 11.79296875 -0.01367188 C13.88517436 -0.01636609 15.97737876 -0.02024792 18.06958008 -0.02526855 C22.45438559 -0.03116689 26.83886518 -0.02258967 31.22363281 -0.00390625 C36.84633833 0.01888328 42.46828015 0.00576202 48.09095764 -0.01819611 C52.41123212 -0.03264489 56.73132531 -0.02805227 61.05160522 -0.01768494 C63.12486867 -0.01501512 65.19814854 -0.01829635 67.27139282 -0.02760315 C70.16835171 -0.03775342 73.06407103 -0.02228876 75.9609375 0 C76.81924164 -0.00809692 77.67754578 -0.01619385 78.56185913 -0.02453613 C82.394113 0.03013434 84.34997368 0.05827647 87.51293945 2.36242676 C89.52398422 5.31576193 89.56400315 7.01637173 88.98046875 10.51757812 C87.11336965 12.82033369 85.62399134 14.19581683 82.98046875 15.51757812 C80.13915496 15.63700175 77.32161585 15.69596333 74.47924805 15.71044922 C73.59941254 15.71862671 72.71957703 15.7268042 71.81307983 15.73522949 C68.8936227 15.76009675 65.9742142 15.77660246 63.0546875 15.79101562 C61.56085509 15.79900114 61.56085509 15.79900114 60.03684425 15.80714798 C54.7661885 15.83388471 49.49555648 15.85325838 44.22485352 15.86767578 C38.77705182 15.88432951 33.32985439 15.92911203 27.8822813 15.98004723 C23.69669386 16.01367952 19.51125059 16.02524879 15.32554054 16.03090286 C13.31725252 16.03762591 11.30897433 16.05287522 9.30081749 16.07679367 C6.48999957 16.10836338 3.68082123 16.10849443 0.86987305 16.10107422 C-0.37482506 16.12568222 -0.37482506 16.12568222 -1.64466858 16.15078735 C-5.92100783 16.10456936 -7.54548947 15.88562404 -11.03996277 13.17251587 C-13.01953125 10.51757812 -13.01953125 10.51757812 -13.58203125 7.45507812 C-12.10836969 -0.24071001 -6.57499434 -0.06202607 0 0 Z " fill="#FD6776" transform="translate(343.01953125,121.482421875)"/>
<path d="M0 0 C0.91099457 -0.00700928 1.82198914 -0.01401855 2.7605896 -0.02124023 C5.77169278 -0.0388444 8.78185602 -0.02718876 11.79296875 -0.01367188 C13.88517436 -0.01636609 15.97737876 -0.02024792 18.06958008 -0.02526855 C22.45438559 -0.03116689 26.83886518 -0.02258967 31.22363281 -0.00390625 C36.84633833 0.01888328 42.46828015 0.00576202 48.09095764 -0.01819611 C52.41123212 -0.03264489 56.73132531 -0.02805227 61.05160522 -0.01768494 C63.12486867 -0.01501512 65.19814854 -0.01829635 67.27139282 -0.02760315 C70.16835171 -0.03775342 73.06407103 -0.02228876 75.9609375 0 C76.81924164 -0.00809692 77.67754578 -0.01619385 78.56185913 -0.02453613 C84.35198728 0.05806514 84.35198728 0.05806514 87.5090332 2.36633301 C89.55489155 5.35738673 89.63296976 6.96507265 88.98046875 10.51757812 C86.99696752 13.17752627 85.3953135 15.17503335 82.06594849 15.98109818 C79.71320098 16.16902804 77.40704179 16.19317803 75.046875 16.16455078 C74.15684784 16.17331238 73.26682068 16.18207397 72.349823 16.19110107 C69.41370605 16.21307161 66.47910047 16.19855067 63.54296875 16.18164062 C61.4994274 16.18500943 59.45588801 16.18986259 57.41235352 16.19613647 C53.13180443 16.20350463 48.85177741 16.19280388 44.57128906 16.16943359 C39.0864354 16.14094613 33.60280501 16.15735037 28.11799622 16.18729591 C23.89887284 16.20537025 19.68003912 16.19961017 15.46090698 16.18665695 C13.43870906 16.18332333 11.41648476 16.18740846 9.39431763 16.19905472 C6.56685815 16.21176548 3.74137489 16.19238338 0.9140625 16.16455078 C-0.33759201 16.17973251 -0.33759201 16.17973251 -1.61453247 16.19522095 C-5.89475085 16.11722761 -7.54814368 15.88384756 -11.04272461 13.16854858 C-13.01953125 10.51757812 -13.01953125 10.51757812 -13.58203125 7.45507812 C-12.10836969 -0.24071001 -6.57499434 -0.06202607 0 0 Z " fill="#FD6675" transform="translate(343.01953125,239.482421875)"/>
<path d="M0 0 C0.8996347 -0.00700928 1.79926941 -0.01401855 2.72616577 -0.02124023 C5.70000071 -0.03884504 8.67288389 -0.02718759 11.64672852 -0.01367188 C13.71411827 -0.01636631 15.78150679 -0.02024832 17.84889221 -0.02526855 C22.18242454 -0.03116718 26.5156271 -0.02258966 30.84912109 -0.00390625 C36.40222942 0.01886906 41.95456386 0.00577125 47.5076437 -0.01819611 C51.77734701 -0.0326563 56.04686715 -0.02804678 60.316576 -0.01768494 C62.36389317 -0.01501753 64.41122699 -0.01828788 66.4585247 -0.02760315 C69.32175552 -0.03777061 72.18373714 -0.02226405 75.046875 0 C76.31491219 -0.01214539 76.31491219 -0.01214539 77.60856628 -0.02453613 C81.5974888 0.03288056 83.63387467 0.24004638 87.114151 2.36633301 C89.08813477 4.51757812 89.08813477 4.51757812 89.71313477 7.45507812 C88.86128321 11.62915075 87.44020957 12.90963709 84.08813477 15.51757812 C81.1072704 16.23936031 78.21031 16.20161522 75.15454102 16.16455078 C74.26451385 16.17331238 73.37448669 16.18207397 72.45748901 16.19110107 C69.52137207 16.21307161 66.58676648 16.19855067 63.65063477 16.18164062 C61.60709342 16.18500943 59.56355402 16.18986259 57.52001953 16.19613647 C53.23947045 16.20350463 48.95944343 16.19280388 44.67895508 16.16943359 C39.19410141 16.14094613 33.71047102 16.15735037 28.22566223 16.18729591 C24.00653885 16.20537025 19.78770514 16.19961017 15.568573 16.18665695 C13.54637507 16.18332333 11.52415078 16.18740846 9.50198364 16.19905472 C6.67452416 16.21176548 3.84904091 16.19238338 1.02172852 16.16455078 C-0.22992599 16.17973251 -0.22992599 16.17973251 -1.50686646 16.19522095 C-5.78708483 16.11722761 -7.44047767 15.88384756 -10.93505859 13.16854858 C-12.91186523 10.51757812 -12.91186523 10.51757812 -13.47436523 7.45507812 C-12.00953249 -0.194604 -6.54486489 -0.06253762 0 0 Z " fill="#FE6473" transform="translate(342.911865234375,160.482421875)"/>
<path d="M0 0 C0.88988113 -0.00846954 1.77976227 -0.01693909 2.6966095 -0.02566528 C5.63781023 -0.04906167 8.57848865 -0.05005682 11.51977539 -0.04882812 C13.56474518 -0.055928 15.60971297 -0.06362674 17.65467834 -0.07189941 C21.94106585 -0.08535022 26.22726916 -0.08691022 30.51367188 -0.08105469 C36.00633008 -0.07515746 41.49810473 -0.10574865 46.990592 -0.14617157 C51.2139614 -0.17202193 55.43711728 -0.1749284 59.66055489 -0.17127991 C61.68556502 -0.17297359 63.71058476 -0.18263987 65.7355175 -0.20042419 C68.56776939 -0.22256166 71.39822298 -0.21293876 74.23046875 -0.1953125 C75.48447983 -0.21520737 75.48447983 -0.21520737 76.76382446 -0.23550415 C81.03612145 -0.17372958 82.71821206 0.07100864 86.23927307 2.73181152 C88.17993164 5.41992188 88.17993164 5.41992188 88.17993164 9.04492188 C87.19558568 12.36708949 86.80442803 13.36935167 84.17993164 15.41992188 C81.14413524 15.72674087 78.31198432 15.85017366 75.27392578 15.83984375 C74.36307724 15.84831329 73.4522287 15.85678284 72.51377869 15.86550903 C69.4974071 15.88894289 66.48154369 15.88989967 63.46508789 15.88867188 C61.37145278 15.8957696 59.27781963 15.90346802 57.18418884 15.91174316 C52.79347325 15.92520267 48.4029375 15.92675012 44.01220703 15.92089844 C38.38154678 15.91500107 32.7517484 15.945589 27.12125492 15.98601532 C22.79670043 16.01184674 18.4723547 16.01477386 14.14773369 16.01112366 C12.07165803 16.01281918 9.99557317 16.02250309 7.91957283 16.04026794 C5.01757013 16.06236744 2.11732796 16.05280165 -0.78466797 16.03515625 C-1.64454315 16.04841949 -2.50441833 16.06168274 -3.39035034 16.0753479 C-7.54749755 16.01652072 -9.20201373 15.97705024 -12.38478088 13.10803223 C-14.35514191 9.41779737 -13.99400426 7.38195552 -12.82006836 3.41992188 C-9.30528263 -0.49825809 -4.89600418 -0.01712136 0 0 Z " fill="#FD6574" transform="translate(343.820068359375,199.580078125)"/>
<path d="M0 0 C8.50167538 -0.06961858 17.00323094 -0.1228712 25.50512123 -0.15543652 C29.45322387 -0.17106904 33.40113097 -0.1922628 37.34912109 -0.22631836 C41.16167489 -0.25899851 44.974041 -0.27687117 48.78672409 -0.28463173 C50.23874235 -0.29015977 51.69075074 -0.30095474 53.14268875 -0.31719017 C55.18210005 -0.33908046 57.22074336 -0.34196223 59.26025391 -0.34057617 C60.41941315 -0.34723801 61.57857239 -0.35389984 62.77285767 -0.36076355 C67.07439091 0.1201066 70.43470254 1.57227025 73.64453125 4.5 C77.11655464 8.95905345 78.35888696 12.09582391 78.28515625 17.8046875 C77.66703635 22.56336399 75.3077013 26.40169841 72.3125 30.0625 C65.93184118 32.64925357 58.24138526 29.30828012 52.25 26.8125 C51.41726563 26.47226807 50.58453125 26.13203613 49.7265625 25.78149414 C41.69839025 22.4260594 33.84094711 18.70455278 26 14.9375 C25.39224731 14.64662506 24.78449463 14.35575012 24.1583252 14.05606079 C15.90720263 10.09295063 7.68757785 5.99217366 0 1 C0 0.67 0 0.34 0 0 Z " fill="#C6C7CB" transform="translate(304,442)"/>
<path d="M0 0 C6.33437314 0.4780659 6.33437314 0.4780659 8.91918945 2.50488281 C10.55982246 6.29238434 10.36890786 9.83928946 10.29296875 13.921875 C10.28872391 14.78186096 10.28447906 15.64184692 10.28010559 16.52789307 C10.26334116 19.2689167 10.22569345 22.00919939 10.1875 24.75 C10.17245025 26.61066645 10.15876235 28.47134445 10.14648438 30.33203125 C10.11344499 34.8883054 10.06167833 39.44402716 10 44 C10.60457031 44.27070313 11.20914063 44.54140625 11.83203125 44.8203125 C15.4901618 46.81086282 18.15793911 50.05678255 19.8125 53.875 C20.37050199 60.1990226 20.65309133 64.57928383 17 70 C13.66898261 73.43561456 10.80337741 76.14849464 6 77 C4.49920604 76.78810122 2.99925222 76.5702015 1.5 76.34765625 C-2.92250731 76.30300906 -5.17387254 77.52797303 -8.43017578 80.5039978 C-11.03171752 83.07925656 -13.52517675 85.74096231 -16 88.4375 C-17.54783783 90.07261107 -19.10273232 91.70077098 -20.65844727 93.3283844 C-22.0572259 94.79980021 -23.43923163 96.28710691 -24.8203125 97.77514648 C-27.3906515 100.39874632 -28.24196392 100.91760477 -31.875 101.3125 C-35 101 -35 101 -37.375 99.3125 C-39.34846094 96.50411328 -39.41132848 95.37088709 -39 92 C-36.92057161 88.87508123 -34.22081971 86.33068795 -31.59277344 83.65869141 C-29.75522672 81.74509662 -27.99506641 79.77049374 -26.2265625 77.79296875 C-24.86107087 76.3187399 -23.49387608 74.8460868 -22.125 73.375 C-21.49013672 72.65143311 -20.85527344 71.92786621 -20.20117188 71.18237305 C-17.33966158 68.18749337 -15.40236341 66.18990847 -11.20019531 65.62084961 C-8.2734375 65.67578125 -8.2734375 65.67578125 -5.56005859 65.9543457 C-1.19031858 66.03227259 1.83620316 63.84508512 5 61 C8.78068665 55.99973701 9.6207286 51.20728603 9 45 C7.3204403 41.34527809 5.53362686 37.83723138 1.93164062 35.87084961 C0 34 0 34 -0.45410156 30.53833008 C-0.45346973 29.11523997 -0.43095335 27.69204996 -0.390625 26.26953125 C-0.38496521 25.51911057 -0.37930542 24.76868988 -0.37347412 23.99552917 C-0.35109668 21.60053496 -0.30090171 19.20704131 -0.25 16.8125 C-0.22993659 15.18817266 -0.21168553 13.56382185 -0.1953125 11.93945312 C-0.15122794 7.95905793 -0.08219427 3.97978329 0 0 Z " fill="#0F82F5" transform="translate(433,305)"/>
<path d="M0 0 C0 4.62 0 9.24 0 14 C-0.99257812 14.13535156 -1.98515625 14.27070313 -3.0078125 14.41015625 C-17.33970264 16.5889729 -31.0984772 21.61256873 -40.19970703 33.57714844 C-48.32138191 44.87659229 -50.83010874 53.89570683 -53 68 C-68.84 68 -84.68 68 -101 68 C-101 67.67 -101 67.34 -101 67 C-89.78 67 -78.56 67 -67 67 C-66.67 62.05 -66.34 57.1 -66 52 C-64.50190303 47.37730078 -63.04038427 43.34207116 -61 39 C-60.57847656 38.06542969 -60.15695313 37.13085938 -59.72265625 36.16796875 C-51.75258947 20.0199204 -37.5699189 9.32878847 -21 3 C-13.9764038 0.87695842 -7.33778705 -0.43163453 0 0 Z " fill="#59D561" transform="translate(171,140)"/>
<path d="M0 0 C20.47302052 0.81892082 36.41294821 7.77913458 50.625 22.625 C61.75845694 35.55163319 68.07716954 50.76528736 67 68 C62.38 68 57.76 68 53 68 C52.773125 65.9375 52.54625 63.875 52.3125 61.75 C50.23310224 47.42525984 43.66495646 35.11714497 32.484375 25.8125 C22.56834397 18.5781629 11.82204322 16.23305261 0 14 C0 9.38 0 4.76 0 0 Z " fill="#706570" transform="translate(172,140)"/>
<path d="M0 0 C0.67358047 -0.00058411 1.34716095 -0.00116821 2.04115295 -0.00177002 C4.26006213 0.00100924 6.4776156 0.03209042 8.69628906 0.06347656 C10.23756171 0.0709396 11.77884386 0.07663224 13.32012939 0.08062744 C17.37113779 0.0958791 21.42156992 0.13515618 25.47235107 0.17944336 C29.60811569 0.22040658 33.74397368 0.23864066 37.87988281 0.25878906 C45.99082396 0.3016515 54.10129727 0.36989642 62.21191406 0.45410156 C59.3768753 2.3441274 56.94070637 3.37649917 53.77441406 4.57910156 C49.19434934 6.39642408 45.91401911 8.44792024 42.14550781 11.58300781 C34.16191705 17.00002382 25.96380983 16.56045031 16.58203125 16.33227539 C13.68860429 16.26606819 10.80127377 16.2707406 7.90722656 16.28417969 C6.06083184 16.26813043 4.2144665 16.24809352 2.36816406 16.22363281 C1.50775513 16.2243428 0.64734619 16.2250528 -0.23913574 16.2257843 C-4.43298212 16.09270527 -6.16050678 16.0361559 -9.32910156 13.09741211 C-11.11651953 9.85906299 -11.40842359 8.09858528 -10.78808594 4.45410156 C-7.61371089 0.19680515 -5.17016507 -0.03773843 0 0 Z " fill="#FD6373" transform="translate(340.7880859375,278.5458984375)"/>
<path d="M0 0 C4.62 0 9.24 0 14 0 C14.77426555 17.55001914 7.59779264 33.95248328 -4 47 C-7.87511727 46.45015228 -9.59576506 44.72444669 -12.25 41.9375 C-13.30960938 40.83728516 -13.30960938 40.83728516 -14.390625 39.71484375 C-14.92171875 39.14894531 -15.4528125 38.58304688 -16 38 C-15.154375 37.13375 -14.30875 36.2675 -13.4375 35.375 C-4.75570966 25.24968157 -1.21939358 13.00686485 0 0 Z " fill="#EA4E5C" transform="translate(225,208)"/>
<path d="M0 0 C6.33437314 0.4780659 6.33437314 0.4780659 8.91918945 2.50488281 C10.55982246 6.29238434 10.36890786 9.83928946 10.29296875 13.921875 C10.28872391 14.78186096 10.28447906 15.64184692 10.28010559 16.52789307 C10.26334116 19.2689167 10.22569345 22.00919939 10.1875 24.75 C10.17245025 26.61066645 10.15876235 28.47134445 10.14648438 30.33203125 C10.11344499 34.8883054 10.06167833 39.44402716 10 44 C10.60457031 44.27070313 11.20914062 44.54140625 11.83203125 44.8203125 C15.4901618 46.81086282 18.15793911 50.05678255 19.8125 53.875 C20.4690422 61.31581161 20.13790025 65.77065619 15.5625 71.9375 C14 73 14 73 12.19921875 72.7890625 C9.41715561 71.79087999 7.5441618 70.29307205 5.25 68.4375 C4.45078125 67.79683594 3.6515625 67.15617187 2.828125 66.49609375 C2.22484375 66.00238281 1.6215625 65.50867188 1 65 C1.40992188 64.56429687 1.81984375 64.12859375 2.2421875 63.6796875 C6.60323794 58.85957912 8.58956554 55.16620868 9.4375 48.625 C8.86537517 43.88453716 7.02245097 40.65875643 4 37 C3.31744141 36.62738037 2.63488281 36.25476074 1.93164062 35.87084961 C0 34 0 34 -0.45410156 30.53833008 C-0.45346973 29.11523997 -0.43095335 27.69204996 -0.390625 26.26953125 C-0.38496521 25.51911057 -0.37930542 24.76868988 -0.37347412 23.99552917 C-0.35109668 21.60053496 -0.30090171 19.20704131 -0.25 16.8125 C-0.22993659 15.18817266 -0.21168553 13.56382185 -0.1953125 11.93945312 C-0.15122794 7.95905793 -0.08219427 3.97978329 0 0 Z " fill="#2891F9" transform="translate(433,305)"/>
<path d="M0 0 C0.639375 0.66 1.27875 1.32 1.9375 2 C2.95503139 3.00335964 3.97636949 4.00286346 5 5 C5.62003906 5.61617187 6.24007812 6.23234375 6.87890625 6.8671875 C12.93443652 12.59931008 19.55755284 16.31364732 27 20 C27.78761719 20.39445312 28.57523438 20.78890625 29.38671875 21.1953125 C29.91910156 21.46085937 30.45148438 21.72640625 31 22 C30.21625 22.185625 29.4325 22.37125 28.625 22.5625 C25.62134077 23.81146582 25.62134077 23.81146582 24.9375 27.4375 C24.628125 28.613125 24.31875 29.78875 24 31 C21.84102718 33.3078675 20.60011036 33.89498069 17.5 34.4375 C14.10543442 33.84345102 13.0319487 32.75764467 11 30 C10.87625 29.01 10.7525 28.02 10.625 27 C10.29330435 23.73296512 10.29330435 23.73296512 7.1875 21.9375 C5.6096875 20.9784375 5.6096875 20.9784375 4 20 C-0.05552462 15.60651499 -2.07725115 11.79392898 -2.25 5.8125 C-2 2 -2 2 0 0 Z " fill="#FFC227" transform="translate(154,215)"/>
<path d="M0 0 C0.75925781 -0.00708984 1.51851563 -0.01417969 2.30078125 -0.02148438 C5.56120944 0.01563083 8.07438904 0.21903303 10.99609375 1.71875 C13.06354072 4.08154654 13.02877846 6.34550129 13.12890625 9.40234375 C12.12112002 12.66356503 10.37369964 13.69261713 7.5 15.4375 C3.90625 16.00390625 3.90625 16.00390625 0 16 C-1.93359375 16.03287109 -1.93359375 16.03287109 -3.90625 16.06640625 C-8.32164611 15.29371193 -9.78072577 13.93297538 -12.5 10.4375 C-13.0625 7.375 -13.0625 7.375 -12.5 4.4375 C-9.18999369 -0.30827528 -5.35723455 -0.14097986 0 0 Z " fill="#FD6776" transform="translate(310.5,239.5625)"/>
<path d="M0 0 C1.13888672 -0.02320313 1.13888672 -0.02320313 2.30078125 -0.046875 C6.01714327 -0.02084094 7.92623901 0.0833723 10.99609375 2.3125 C13.2224243 5.55079899 13.11549098 7.67027837 12.5 11.5 C9.6849299 14.4747149 7.98007588 15.42433587 3.90625 16.06640625 C2.6171875 16.06511719 1.328125 16.06382812 0 16.0625 C-1.93359375 16.09537109 -1.93359375 16.09537109 -3.90625 16.12890625 C-8.32164611 15.35621193 -9.78072577 13.99547538 -12.5 10.5 C-13.0625 7.4375 -13.0625 7.4375 -12.5 4.5 C-9.10587147 -0.35757096 -5.45375947 -0.11111225 0 0 Z " fill="#FD6574" transform="translate(310.5,160.5)"/>
<path d="M0 0 C0.70318359 -0.01546875 1.40636719 -0.0309375 2.13085938 -0.046875 C5.75297809 -0.0197176 7.92500147 0.41634452 11.03515625 2.30859375 C13.0625 4.5 13.0625 4.5 13.5625 8.0625 C13.0625 11.5 13.0625 11.5 11.6875 13.375 C8.00808143 15.92228978 4.52747023 15.790505 0.1875 15.875 C-0.53308594 15.91238281 -1.25367188 15.94976562 -1.99609375 15.98828125 C-5.87191021 16.0525213 -7.54832311 15.86646467 -10.4140625 13.16796875 C-12.27143688 9.91518234 -12.56526128 8.1880975 -11.9375 4.5 C-8.69944726 -0.03986529 -5.21499892 -0.11409296 0 0 Z " fill="#FE6574" transform="translate(309.9375,278.5)"/>
<path d="M0 0 C1.29808594 -0.01933594 2.59617187 -0.03867188 3.93359375 -0.05859375 C8.06740211 0.50652322 9.72474424 1.42238451 12.5625 4.4375 C13.17771155 8.26548298 13.28691782 10.38568296 11.05859375 13.62109375 C7.45366957 16.24439538 4.41464669 16.06280687 0.0625 16 C-0.69675781 16.02384766 -1.45601563 16.04769531 -2.23828125 16.07226562 C-6.29386061 16.06161174 -7.87789538 15.94788014 -10.96875 13.12890625 C-12.4375 10.4375 -12.4375 10.4375 -12.4375 6.8125 C-10.46830911 0.16648075 -6.44206295 0.0063846 0 0 Z " fill="#FD6675" transform="translate(310.4375,199.5625)"/>
<path d="M0 0 C0.81533203 -0.00708984 1.63066406 -0.01417969 2.47070312 -0.02148438 C8.45115302 0.04239882 8.45115302 0.04239882 10.66821289 1.84350586 C12.25009773 3.83006599 12.34108979 4.92159853 12.3125 7.4375 C12.32023437 8.118125 12.32796875 8.79875 12.3359375 9.5 C11.81564321 12.03005851 10.92799976 12.82044708 8.9375 14.4375 C5.98787331 15.05519355 3.00717159 14.90114932 0 14.875 C-0.81146484 14.89498047 -1.62292969 14.91496094 -2.45898438 14.93554688 C-6.32929332 14.93237189 -8.40100819 14.91756571 -11.59765625 12.59765625 C-13.60295958 9.64050228 -13.64611635 7.93919811 -13.0625 4.4375 C-9.63871456 -0.61144226 -5.56789111 -0.1370966 0 0 Z " fill="#FE6574" transform="translate(311.0625,121.5625)"/>
<path d="M0 0 C1.75091019 0.08754551 3.50079551 0.19573373 5.25 0.3125 C6.22453125 0.37050781 7.1990625 0.42851562 8.203125 0.48828125 C11.29249415 1.05351499 12.7542652 1.83297086 15 4 C15.5 6.5 15.5 6.5 15 9 C13.375 10.875 13.375 10.875 11 12 C7.875 11.875 7.875 11.875 5 11 C3.00080524 8.00120785 2.08799975 5.40906589 1 2 C0.67 1.34 0.34 0.68 0 0 Z " fill="#FFB702" transform="translate(163,214)"/>
<path d="M0 0 C3.65756593 2.22066503 3.93268594 6.0865151 5 10 C5.66 10.66 6.32 11.32 7 12 C4.70646253 11.74549519 2.41514797 11.47088853 0.125 11.1875 C-1.78925781 10.96126953 -1.78925781 10.96126953 -3.7421875 10.73046875 C-7 10 -7 10 -9 7 C-8.75 3.875 -8.75 3.875 -8 1 C-5.20129973 -0.39935013 -3.09501208 -0.25265405 0 0 Z " fill="#FFB702" transform="translate(174,190)"/>
</svg>
