<?xml version="1.0" encoding="UTF-8"?>
<svg version="1.1" xmlns="http://www.w3.org/2000/svg" width="512" height="512">
<path d="M0 0 C1.3958431 -0.00461769 2.79168133 -0.0109764 4.18750954 -0.01890898 C7.99528633 -0.03550658 11.80265877 -0.02740003 15.61043644 -0.0149641 C19.72776501 -0.0058764 23.84502631 -0.0199017 27.96234131 -0.03088379 C36.01714488 -0.04863406 44.07179904 -0.04484464 52.12660837 -0.03323323 C58.67517729 -0.0241854 65.22370445 -0.02298073 71.77227783 -0.02732849 C73.17238647 -0.02824789 73.17238647 -0.02824789 74.60078013 -0.02918586 C76.49720622 -0.03046481 78.3936323 -0.03176167 80.29005837 -0.03307623 C98.05664433 -0.04447179 115.82314762 -0.03138439 133.58972001 -0.00987476 C148.82141072 0.00799529 164.05297946 0.00489089 179.28466797 -0.0135498 C196.98936405 -0.0349746 214.69398775 -0.04337325 232.39869499 -0.03110075 C234.2879931 -0.02982661 236.17729122 -0.02856912 238.06658936 -0.02732849 C238.99606593 -0.02671139 239.9255425 -0.02609429 240.88318503 -0.02545848 C247.42094073 -0.02201042 253.95865036 -0.02782221 260.49639893 -0.0372467 C268.46797544 -0.04848596 276.43939448 -0.04538621 284.41095304 -0.02412373 C288.47516511 -0.01363917 292.53911499 -0.00944692 296.60332489 -0.02272034 C300.32916259 -0.03470427 304.0544969 -0.02798403 307.78028941 -0.00681013 C309.75496347 -0.00027757 311.72967291 -0.01322632 313.70430946 -0.02703905 C325.71953106 0.07805954 335.14451836 3.13112514 343.91943359 11.50793457 C355.84871397 24.00415105 355.47625366 37.50863407 355.31005859 53.80090332 C355.30258742 55.95994032 355.29689864 58.11898416 355.29290771 60.2780304 C355.27772045 65.92846788 355.23849866 71.57848646 355.1940918 77.22875977 C355.15298941 83.00730729 355.13486486 88.78592326 355.11474609 94.5645752 C355.07199732 105.87921119 355.00383047 117.19353789 354.91943359 128.50793457 C355.90169922 128.47651367 355.90169922 128.47651367 356.90380859 128.44445801 C359.90885688 128.36063074 362.91365823 128.30906562 365.91943359 128.25793457 C366.94939453 128.22441895 367.97935547 128.19090332 369.04052734 128.15637207 C376.84871505 128.05690471 382.12848331 129.18589974 388.16162109 134.47277832 C388.70044922 135.12375488 389.23927734 135.77473145 389.79443359 136.44543457 C390.34873047 137.09383301 390.90302734 137.74223145 391.47412109 138.41027832 C394.73143073 143.13777906 395.21725682 147.48364079 395.20996094 153.10876465 C395.21667816 153.85742294 395.22339539 154.60608124 395.23031616 155.37742615 C395.24926127 157.8441742 395.25321872 160.31064961 395.25537109 162.77746582 C395.26180199 164.499935 395.26853057 166.22240309 395.27554321 167.94487 C395.28750764 171.55356375 395.29122495 175.16216184 395.29003906 178.77087402 C395.28983605 183.38088162 395.31712382 187.99027156 395.35158348 192.60013294 C395.37389124 196.15792116 395.3778754 199.71556172 395.37681961 203.2734127 C395.37917028 204.97217624 395.38796362 206.67094418 395.40348434 208.36963844 C395.55131565 226.22224809 395.55131565 226.22224809 388.95458984 233.75012207 C388.30361328 234.2889502 387.65263672 234.82777832 386.98193359 235.38293457 C386.33353516 235.93723145 385.68513672 236.49152832 385.01708984 237.06262207 C380.91412861 239.88961584 377.34850097 240.75853868 372.39990234 240.70324707 C370.8675293 240.6935791 370.8675293 240.6935791 369.30419922 240.68371582 C367.72155273 240.6585791 367.72155273 240.6585791 366.10693359 240.63293457 C365.0325 240.62391113 363.95806641 240.6148877 362.85107422 240.60559082 C360.20696506 240.58208763 357.56331487 240.54923032 354.91943359 240.50793457 C354.92312077 241.1433102 354.92680794 241.77868584 354.93060684 242.43331528 C355.01892585 257.88999718 355.08512745 273.34659138 355.12668228 288.80346298 C355.1473118 296.27828785 355.17543961 303.75294434 355.22119141 311.22766113 C355.26104754 317.74227327 355.28686358 324.25676348 355.29578757 330.77149415 C355.3010045 334.22138961 355.31327353 337.67093621 355.34235382 341.12071991 C355.37454623 344.97088686 355.37539378 348.82071183 355.37353516 352.67102051 C355.38791626 353.81613098 355.40229736 354.96124146 355.41711426 356.14105225 C355.4116156 357.18990601 355.40611694 358.23875977 355.40045166 359.31939697 C355.40413883 360.23012844 355.407826 361.14085991 355.41162491 362.0791893 C354.75905185 365.29934718 353.46915402 366.49958052 350.91943359 368.50793457 C347.90380859 368.89855957 347.90380859 368.89855957 344.66943359 368.75793457 C343.59177734 368.72184082 342.51412109 368.68574707 341.40380859 368.64855957 C340.58396484 368.60215332 339.76412109 368.55574707 338.91943359 368.50793457 C338.92831604 369.49828201 338.93719849 370.48862946 338.9463501 371.50898743 C339.02772713 380.87967981 339.08753803 390.25029972 339.12668228 399.62126637 C339.1474839 404.43805069 339.17566454 409.25454787 339.22119141 414.07116699 C339.26491574 418.72665382 339.28862643 423.38186589 339.29894257 428.03754234 C339.30628651 429.8064169 339.32062659 431.57527783 339.34235382 433.34403419 C339.5097168 447.5439727 338.17560562 458.76434051 327.91943359 469.50793457 C318.31857883 478.6732118 308.04528202 481.11657609 295.05371094 481.01586914 C293.80250647 481.0221091 292.55130199 481.02834907 291.26218224 481.03477812 C287.81924123 481.05135337 284.37674825 481.0432797 280.93380642 481.03083324 C277.20911687 481.02173617 273.48450124 481.03577542 269.75982666 481.04675293 C262.47504896 481.06449333 255.19043657 481.06071823 247.90565252 481.04910237 C241.98255913 481.04005062 236.05951191 481.03885156 230.13641357 481.04319763 C228.86952228 481.04411703 228.86952228 481.04411703 227.57703722 481.045055 C225.86099512 481.04633397 224.14495304 481.04763082 222.42891097 481.04894537 C206.35624557 481.06033804 190.28367159 481.0472581 174.21102118 481.0257439 C160.4347431 481.00787411 146.65859987 481.01097858 132.88232422 481.02941895 C116.86523279 481.05084888 100.84822139 481.05923953 84.83111763 481.04696989 C83.12156297 481.04569576 81.4120083 481.04443828 79.70245361 481.04319763 C78.86142857 481.04258053 78.02040353 481.04196343 77.15389287 481.04132763 C71.24130854 481.03788109 65.32877517 481.04368801 59.41619873 481.05311584 C52.20585034 481.06436084 44.99567603 481.06124343 37.78534746 481.03999287 C34.10997729 481.02951592 30.43489682 481.02530279 26.75952911 481.03858948 C22.76782179 481.05280098 18.77683922 481.03577632 14.78515625 481.01586914 C13.63407064 481.02479203 12.48298504 481.03371491 11.29701805 481.04290819 C-0.32687945 480.93074851 -9.62141761 477.58330346 -18.08056641 469.50793457 C-29.09601165 457.96898302 -29.65668817 445.81576293 -29.47119141 430.71496582 C-29.46371694 428.91465386 -29.45802972 427.11433368 -29.45404053 425.31401062 C-29.43887898 420.61047296 -29.39968075 415.90744137 -29.35522461 411.20410156 C-29.31406557 406.39073529 -29.29598575 401.57728604 -29.27587891 396.76379395 C-29.2331758 387.34495367 -29.16504159 377.92648645 -29.08056641 368.50793457 C-29.90041016 368.55434082 -30.72025391 368.60074707 -31.56494141 368.64855957 C-32.64259766 368.68465332 -33.72025391 368.72074707 -34.83056641 368.75793457 C-35.89791016 368.80434082 -36.96525391 368.85074707 -38.06494141 368.89855957 C-41.83732481 368.40990887 -42.73417332 367.43823207 -45.08056641 364.50793457 C-45.57275772 362.0791893 -45.57275772 362.0791893 -45.56158447 359.31939697 C-45.56708313 358.27054321 -45.57258179 357.22168945 -45.57824707 356.14105225 C-45.56386597 354.99594177 -45.54948486 353.8508313 -45.53466797 352.67102051 C-45.53525208 351.46099365 -45.53583618 350.2509668 -45.53643799 349.00427246 C-45.53412943 345.6901739 -45.51407719 342.37707328 -45.48614216 339.06315136 C-45.46112864 335.59850698 -45.45878656 332.13384916 -45.45404053 328.66912842 C-45.44161053 322.11009638 -45.40878886 315.55133118 -45.36864257 308.99241662 C-45.3239254 301.52454721 -45.301938 294.05666502 -45.28186083 286.58869505 C-45.24005603 271.22828704 -45.16970382 255.86814522 -45.08056641 240.50793457 C-45.73541016 240.52888184 -46.39025391 240.5498291 -47.06494141 240.57141113 C-50.06998969 240.6552384 -53.07479104 240.70680352 -56.08056641 240.75793457 C-57.11052734 240.7914502 -58.14048828 240.82496582 -59.20166016 240.85949707 C-67.00984787 240.95896443 -72.28961612 239.8299694 -78.32275391 234.54309082 C-79.13099609 233.56662598 -79.13099609 233.56662598 -79.95556641 232.57043457 C-80.50986328 231.92203613 -81.06416016 231.2736377 -81.63525391 230.60559082 C-84.89256354 225.87809008 -85.37838963 221.53222835 -85.37109375 215.90710449 C-85.37781097 215.1584462 -85.3845282 214.4097879 -85.39144897 213.63844299 C-85.41039408 211.17169494 -85.41435153 208.70521953 -85.41650391 206.23840332 C-85.4229348 204.51593414 -85.42966338 202.79346605 -85.43667603 201.07099915 C-85.44864045 197.46230539 -85.45235776 193.8537073 -85.45117188 190.24499512 C-85.45096886 185.63498752 -85.47825663 181.02559758 -85.51271629 176.4157362 C-85.53502405 172.85794798 -85.53900822 169.30030742 -85.53795242 165.74245644 C-85.5403031 164.0436929 -85.54909643 162.34492496 -85.56461716 160.6462307 C-85.71244846 142.79362105 -85.71244846 142.79362105 -79.11572266 135.26574707 C-78.46474609 134.72691895 -77.81376953 134.18809082 -77.14306641 133.63293457 C-76.49466797 133.0786377 -75.84626953 132.52434082 -75.17822266 131.95324707 C-71.07526143 129.1262533 -67.50963379 128.25733047 -62.56103516 128.31262207 C-61.53945313 128.31906738 -60.51787109 128.3255127 -59.46533203 128.33215332 C-57.88268555 128.35729004 -57.88268555 128.35729004 -56.26806641 128.38293457 C-55.19363281 128.39195801 -54.11919922 128.40098145 -53.01220703 128.41027832 C-50.36809787 128.43378151 -47.72444768 128.46663882 -45.08056641 128.50793457 C-45.08944885 127.31713791 -45.0983313 126.12634125 -45.10748291 124.89945984 C-45.18877667 113.64508907 -45.24863146 102.39077833 -45.28781509 91.13617992 C-45.30863743 85.35087477 -45.33685718 79.56580777 -45.38232422 73.78063965 C-45.42597293 68.19148244 -45.44974373 62.60255348 -45.46007538 57.01323891 C-45.46743267 54.88711266 -45.48179933 52.76099807 -45.50348663 50.63496971 C-45.65318008 35.34409704 -45.1812717 23.13619813 -34.08056641 11.50793457 C-24.06751614 1.94916258 -13.50028556 -0.09443548 0 0 Z " fill="#5F7884" transform="translate(101.08056640625,15.4920654296875)"/>
<path d="M0 0 C121.44 0 242.88 0 368 0 C368 89.47722772 368 89.47722772 357 101 C347.39914524 110.16527723 337.12584842 112.60864152 324.13427734 112.50793457 C322.88307287 112.51417453 321.6318684 112.5204145 320.34274864 112.52684355 C316.89980764 112.5434188 313.45731466 112.53534513 310.01437283 112.52289867 C306.28968327 112.5138016 302.56506765 112.52784085 298.84039307 112.53881836 C291.55561536 112.55655876 284.27100298 112.55278366 276.98621893 112.5411678 C271.06312554 112.53211605 265.14007831 112.53091699 259.21697998 112.53526306 C257.95008868 112.53618246 257.95008868 112.53618246 256.65760362 112.53712043 C254.94156153 112.5383994 253.22551944 112.53969625 251.50947738 112.5410108 C235.43681198 112.55240347 219.36423799 112.53932353 203.29158759 112.51780933 C189.51530951 112.49993954 175.73916627 112.50304401 161.96289062 112.52148438 C145.9457992 112.54291431 129.9287878 112.55130496 113.91168404 112.53903532 C112.20212938 112.53776119 110.4925747 112.53650371 108.78302002 112.53526306 C107.94199498 112.53464596 107.10096993 112.53402886 106.23445928 112.53339306 C100.32187495 112.52994652 94.40934158 112.53575344 88.49676514 112.54518127 C81.28641675 112.55642627 74.07624244 112.55330886 66.86591387 112.5320583 C63.19054369 112.52158135 59.51546323 112.51736822 55.84009552 112.53065491 C51.8483882 112.54486641 47.85740562 112.52784175 43.86572266 112.50793457 C42.71463705 112.51685746 41.56355145 112.52578034 40.37758446 112.53497362 C28.75368696 112.42281394 19.4591488 109.07536889 11 101 C-13.21876365 75.63024561 0 26.29113146 0 0 Z " fill="#C2CCD2" transform="translate(72,384)"/>
<path d="M0 0 C1.14395105 -0.01104769 2.28790211 -0.02209538 3.46651834 -0.03347784 C4.72379647 -0.02523708 5.9810746 -0.01699631 7.27645206 -0.00850582 C8.62515828 -0.01382973 9.97385856 -0.02089452 11.3225475 -0.02955288 C15.03229865 -0.04822828 18.74165195 -0.04185864 22.45141995 -0.03139985 C26.45083667 -0.0244216 30.45017051 -0.04039529 34.44956303 -0.05339718 C42.28606679 -0.07506576 50.12242549 -0.07490297 57.95894938 -0.06677163 C64.32705642 -0.06047765 70.69512108 -0.06160313 77.06322765 -0.06804371 C77.9687852 -0.06894536 78.87434276 -0.06984702 79.80734145 -0.070776 C81.64684567 -0.07262716 83.48634987 -0.07448972 85.32585407 -0.07636356 C102.58528682 -0.09295206 119.84463788 -0.08421399 137.10406572 -0.06737798 C152.90146256 -0.05268092 168.6986692 -0.06730763 184.49604153 -0.09614814 C200.708501 -0.12552651 216.92087265 -0.13651893 233.13335758 -0.12696594 C234.96648727 -0.12594337 236.79961698 -0.12494876 238.6327467 -0.12398243 C239.53472724 -0.12350604 240.43670779 -0.12302965 241.36602108 -0.12253882 C247.72719419 -0.12037258 254.08828434 -0.13018995 260.44943905 -0.14475346 C268.20069765 -0.1622516 275.95171373 -0.16219585 283.70296269 -0.1394018 C287.65910405 -0.12823636 291.61481776 -0.12514858 295.57094097 -0.14370251 C299.19137183 -0.16046379 302.81100062 -0.15421678 306.43137909 -0.12948572 C308.36410522 -0.12226381 310.29687468 -0.13967116 312.22952837 -0.15789706 C320.58517032 -0.06737043 320.58517032 -0.06737043 324.68699646 2.76792336 C326.40689042 5.49347277 327.04175433 6.77797676 327.04981327 9.94609928 C327.06391239 10.80399052 327.07801151 11.66188175 327.09253788 12.54576969 C327.07735615 13.93768528 327.07735615 13.93768528 327.06186771 15.35772038 C327.07501011 16.83906467 327.07501011 16.83906467 327.08841801 18.35033512 C327.11040417 21.6110578 327.09586126 24.87042168 327.07895756 28.13115788 C327.08232589 30.39890141 327.08717866 32.66664318 327.09345341 34.93438053 C327.10082372 39.68569481 327.09011356 44.4365389 327.06675053 49.1877985 C327.03826334 55.27795175 327.05466637 61.3670033 327.08461285 67.45711613 C327.10268113 72.13946171 327.09692979 76.82154612 327.08397388 81.50389957 C327.08063861 83.7493843 327.08473117 85.99489274 327.09637165 88.24034977 C327.10907199 91.37907045 327.08971307 94.51600754 327.06186771 97.65459538 C327.07198887 98.5825391 327.08211002 99.51048283 327.09253788 100.46654606 C327.07843876 101.32443729 327.06433964 102.18232853 327.04981327 103.06621647 C327.04792814 103.80729649 327.04604301 104.5483765 327.04410076 105.31191349 C325.97032378 109.05652213 324.64397575 110.27412948 321.41489506 112.50615788 C317.09111862 113.2604251 312.80570712 113.17564646 308.42635441 113.13434696 C307.07607059 113.13939249 305.72579347 113.14662137 304.37553173 113.15584511 C300.66601142 113.1747939 296.95714932 113.16251947 293.2476455 113.14512217 C289.24690224 113.13176509 285.24625636 113.1471792 281.2455225 113.15894413 C273.40877899 113.17733706 265.57228457 113.16879767 257.73554879 113.15085591 C251.36793018 113.13683941 245.00037926 113.13293505 238.6327467 113.13629818 C237.72703591 113.13677562 236.82132513 113.13725306 235.88816856 113.13774497 C234.04834014 113.13877129 232.20851173 113.13982664 230.36868335 113.14091074 C214.09505623 113.14948102 197.82154952 113.13279164 181.5479517 113.1030817 C165.74907214 113.07423874 149.950366 113.06716258 134.15146732 113.08257389 C116.9548427 113.09932562 99.75830045 113.10338114 82.5616737 113.08586353 C80.72885836 113.0840191 78.89604301 113.08218438 77.06322765 113.08035946 C76.16140138 113.07944737 75.25957511 113.07853528 74.33042077 113.07759555 C67.968285 113.07198411 61.60618936 113.07530294 55.24405575 113.08190441 C47.49390633 113.08962674 39.74392778 113.08292472 31.99381285 113.05772937 C28.03785166 113.04520916 24.08215684 113.03911813 20.12618542 113.05027103 C16.50716616 113.06028155 12.88867911 113.05192293 9.26972485 113.02868985 C7.33532935 113.02105398 5.40088736 113.03311487 3.46651834 113.04579359 C1.75059176 113.02922206 1.75059176 113.02922206 0 113.01231575 C-0.98911914 113.01112427 -1.97823828 113.00993279 -2.99733073 113.0087052 C-6.30960656 112.36545922 -7.50297789 111.10504527 -9.58510494 108.50615788 C-10.08846951 106.40093327 -10.08846951 106.40093327 -10.09303951 104.10381413 C-10.10431881 103.22902409 -10.11559811 102.35423405 -10.1272192 101.45293522 C-10.11912228 100.5011237 -10.11102535 99.54931217 -10.10268307 98.56865788 C-10.10969234 97.5601276 -10.11670162 96.55159733 -10.1239233 95.51250553 C-10.14153713 92.17677673 -10.12986804 88.8418954 -10.11635494 85.50615788 C-10.11904887 83.18974997 -10.12293046 80.87334316 -10.12795162 78.55693913 C-10.13385128 73.70136089 -10.12526832 68.84607692 -10.10658932 63.99053288 C-10.0837999 57.76251142 -10.09692042 51.53517942 -10.12087917 45.30718327 C-10.13532427 40.52368303 -10.13073699 35.7403466 -10.120368 30.95684147 C-10.11769717 28.66029116 -10.12098294 26.36372605 -10.13028622 24.06719303 C-10.14043021 20.85894647 -10.12497977 17.65182081 -10.10268307 14.44365788 C-10.11077999 13.49184635 -10.11887691 12.54003483 -10.1272192 11.55938053 C-10.1159399 10.68459049 -10.10466061 9.80980045 -10.09303951 8.90850163 C-10.09153141 8.15045231 -10.09002331 7.39240299 -10.08846951 6.61138248 C-8.81252157 1.27497783 -5.0145437 0.00604046 0 0 Z " fill="#A7D6FB" transform="translate(97.58510494232178,47.493842124938965)"/>
<path d="M0 0 C0.67453043 -0.00638882 1.34906087 -0.01277764 2.04403162 -0.01936007 C4.29766372 -0.03458527 6.54953056 -0.01416828 8.80310059 0.00622559 C10.42132652 0.0027236 12.039549 -0.00293586 13.65776062 -0.0105896 C18.04838486 -0.02483627 22.43838272 -0.00777747 26.82894707 0.01569557 C31.42437378 0.03580428 36.01977448 0.029925 40.61523438 0.02758789 C48.33242115 0.02764146 56.04936309 0.04739822 63.76647949 0.07946777 C72.68759387 0.11636058 81.6083875 0.12514332 90.5295682 0.11817026 C99.11262625 0.11186423 107.69557436 0.12262141 116.27861023 0.14213562 C119.93081733 0.15030875 123.58296823 0.15301933 127.23518372 0.15144348 C131.53625924 0.1505643 135.83703013 0.16478968 140.13802528 0.19067001 C141.71622046 0.19782995 143.29444804 0.19991626 144.87265587 0.19655228 C147.02765731 0.19283514 149.18177086 0.20759174 151.33666992 0.22705078 C153.14516544 0.23264385 153.14516544 0.23264385 154.99019623 0.23834991 C158.47968144 0.65899135 160.37295768 1.52661727 163.16833496 3.62145996 C164.75840028 6.80159059 164.35250573 10.24116653 164.37145996 13.73474121 C164.37716003 14.54130661 164.38286011 15.34787201 164.38873291 16.17887878 C164.39818691 17.88783454 164.40471848 19.59680856 164.40856934 21.30578613 C164.41825816 23.91329037 164.44926996 26.52000074 164.48083496 29.12731934 C164.48736681 30.78812195 164.49261657 32.4489302 164.49645996 34.10974121 C164.50880676 34.88699051 164.52115356 35.66423981 164.53387451 36.46504211 C164.51527924 41.01261479 164.09183578 44.0604236 161.16833496 47.62145996 C157.76347822 48.75641221 155.16186989 48.75306399 151.57044983 48.76190186 C150.89692268 48.76487298 150.22339553 48.7678441 149.52945846 48.77090526 C147.26787678 48.77959138 145.00634803 48.78110041 142.74475098 48.78259277 C141.1252023 48.78722092 139.50565471 48.79224558 137.8861084 48.79763794 C133.48326574 48.81076221 129.08043833 48.81720668 124.67757916 48.8216486 C121.92819275 48.82457862 119.17881051 48.82868324 116.42942619 48.83315277 C107.83092345 48.84682632 99.23243025 48.85649429 90.63391739 48.86035466 C80.70086854 48.8648385 70.76795709 48.88240207 60.83495003 48.91135526 C53.16100231 48.93294915 45.48709332 48.94305768 37.81311554 48.94439578 C33.22765221 48.94544524 28.64231807 48.95138317 24.05688667 48.96921539 C19.74523011 48.98565703 15.4338004 48.98787071 11.12212372 48.97907639 C9.53865134 48.97830397 7.95516696 48.98267557 6.37172508 48.99253464 C4.21194566 49.00519496 2.05297694 48.99941048 -0.10679626 48.98895264 C-1.31597938 48.9904192 -2.52516249 48.99188576 -3.77098751 48.99339676 C-7.11465522 48.58707069 -8.4853603 47.9996775 -10.83166504 45.62145996 C-12.78988458 39.74680133 -12.1387279 33.02613825 -12.1817627 26.86169434 C-12.19833146 25.12164952 -12.22563393 23.38167301 -12.26379395 21.64196777 C-12.31863385 19.1269621 -12.34044364 16.61354589 -12.35510254 14.09802246 C-12.37777191 13.32391022 -12.40044128 12.54979797 -12.42379761 11.75222778 C-12.40893572 7.94186001 -12.0886859 5.95115258 -9.7221756 2.91551971 C-6.1808449 0.1049352 -4.47737929 -0.00264599 0 0 Z " fill="#CED7DB" transform="translate(179.8316650390625,303.3785400390625)"/>
<path d="M0 0 C26.43538767 0 26.43538767 0 33.2421875 5.96484375 C33.78101563 6.61582031 34.31984375 7.26679688 34.875 7.9375 C35.70644531 8.91009766 35.70644531 8.91009766 36.5546875 9.90234375 C39.81199713 14.62984449 40.29782322 18.97570622 40.29052734 24.60083008 C40.29724457 25.34948837 40.30396179 26.09814667 40.31088257 26.86949158 C40.32982768 29.33623963 40.33378512 31.80271504 40.3359375 34.26953125 C40.3423684 35.99200043 40.34909698 37.71446852 40.35610962 39.43693542 C40.36807405 43.04562918 40.37179136 46.65422727 40.37060547 50.26293945 C40.37040245 54.87294705 40.39769022 59.48233699 40.43214989 64.09219837 C40.45445764 67.64998659 40.45844181 71.20762715 40.45738602 74.76547813 C40.45973669 76.46424167 40.46853003 78.16300961 40.48405075 79.86170387 C40.63188205 97.71431352 40.63188205 97.71431352 34.03515625 105.2421875 C33.38417969 105.78101563 32.73320312 106.31984375 32.0625 106.875 C31.41410156 107.42929688 30.76570313 107.98359375 30.09765625 108.5546875 C20.61481324 115.08848995 12.85589381 112 0 112 C0 75.04 0 38.08 0 0 Z " fill="#42535A" transform="translate(456,144)"/>
<path d="M0 0 C0 36.96 0 73.92 0 112 C-26.43538767 112 -26.43538767 112 -33.2421875 106.03515625 C-33.78101563 105.38417969 -34.31984375 104.73320312 -34.875 104.0625 C-35.42929687 103.41410156 -35.98359375 102.76570313 -36.5546875 102.09765625 C-39.81199713 97.37015551 -40.29782322 93.02429378 -40.29052734 87.39916992 C-40.29724457 86.65051163 -40.30396179 85.90185333 -40.31088257 85.13050842 C-40.32982768 82.66376037 -40.33378512 80.19728496 -40.3359375 77.73046875 C-40.3423684 76.00799957 -40.34909698 74.28553148 -40.35610962 72.56306458 C-40.36807405 68.95437082 -40.37179136 65.34577273 -40.37060547 61.73706055 C-40.37040245 57.12705295 -40.39769022 52.51766301 -40.43214989 47.90780163 C-40.45445764 44.35001341 -40.45844181 40.79237285 -40.45738602 37.23452187 C-40.45973669 35.53575833 -40.46853003 33.83699039 -40.48405075 32.13829613 C-40.63188205 14.28568648 -40.63188205 14.28568648 -34.03515625 6.7578125 C-33.38417969 6.21898437 -32.73320313 5.68015625 -32.0625 5.125 C-31.41410156 4.57070312 -30.76570313 4.01640625 -30.09765625 3.4453125 C-20.61481324 -3.08848995 -12.85589381 0 0 0 Z " fill="#4B5D64" transform="translate(56,144)"/>
<path d="M0 0 C1.31912043 -0.01064158 1.31912043 -0.01064158 2.66488975 -0.02149814 C5.61166807 -0.03910042 8.5571313 -0.02096201 11.50389099 -0.00291443 C13.61634421 -0.00805235 15.72879315 -0.01533266 17.8412323 -0.02459717 C23.57878614 -0.04313429 29.31587615 -0.03015819 35.05341077 -0.01050687 C41.05334354 0.00585955 47.05324646 -0.00293037 53.05319214 -0.00802612 C63.12846806 -0.01254896 73.20355844 0.00333557 83.27879333 0.03126526 C94.93447761 0.06332657 106.58982738 0.0632986 118.24553543 0.04605049 C129.45022126 0.03019922 140.65478421 0.03690941 151.85946465 0.0539875 C156.63174133 0.06086801 161.40391981 0.0598153 166.17619514 0.05244255 C171.79299184 0.04479404 177.40940677 0.05685917 183.02613831 0.08429146 C185.09013676 0.09119108 187.15417076 0.09125647 189.21816826 0.08407593 C192.03047761 0.07541781 194.84159885 0.09127535 197.65380859 0.11352539 C198.47530051 0.10528462 199.29679243 0.09704386 200.14317805 0.08855337 C203.76256734 0.14159836 205.84430922 0.31319236 208.7797842 2.51948643 C210.55590023 5.04390624 210.70060019 6.15725844 210.32591248 9.19068909 C210.21956482 10.33731018 210.21956482 10.33731018 210.11106873 11.50709534 C208.85648765 14.64643876 207.31415413 15.2074542 204.26341248 16.62818909 C201.30457752 16.91448233 198.55928371 17.03776605 195.60275269 17.01586914 C194.73150617 17.02125468 193.86025966 17.02664022 192.96261173 17.03218895 C190.04377331 17.04649441 187.12538673 17.03935845 184.20652771 17.03224182 C182.11378108 17.03794394 180.02103755 17.04490759 177.92829895 17.05303955 C172.24457867 17.07100116 166.56101252 17.06979719 160.87727237 17.06409717 C156.13538085 17.06101039 151.39351917 17.0670919 146.65163189 17.07313591 C135.4685707 17.08718871 124.28558589 17.08561288 113.1025238 17.07423401 C101.55591871 17.06274506 90.00954567 17.07683991 78.46297115 17.10363048 C68.55544217 17.12575952 58.64798618 17.13243138 48.74043423 17.12655407 C42.82031228 17.12317744 36.90033919 17.1256467 30.98023796 17.1428051 C25.41600026 17.15822812 19.8521076 17.15437033 14.28788376 17.13549995 C12.24322515 17.13180153 10.19854123 17.13495878 8.15390587 17.14538574 C5.36789771 17.15851139 2.58304617 17.14712344 -0.20291138 17.12939453 C-1.0166214 17.13899954 -1.83033142 17.14860454 -2.66869932 17.15850061 C-6.2102137 17.11196151 -8.31200742 16.94081902 -11.20353603 14.8117075 C-13.41276173 11.66511718 -13.80381323 9.46005421 -13.73658752 5.62818909 C-9.72440063 0.12921185 -6.32187375 -0.09133104 0 0 Z " fill="#37474F" transform="translate(157.73658752441406,239.37181091308594)"/>
<path d="M0 0 C8.93529023 -0.46508608 16.60523657 2.22458165 23.4765625 7.93359375 C30.65497734 14.81612411 33.70720425 22.05077056 33.9140625 31.87109375 C33.79755985 42.09155322 30.83866276 48.85784769 23.82421875 56.265625 C15.9749344 63.25962705 8.46509647 64.61923425 -1.78515625 64.5234375 C-10.0535044 63.88878591 -16.85092534 60.37684068 -22.3984375 54.24609375 C-29.297812 45.51432187 -31.11495613 37.70912517 -30.19140625 26.80078125 C-28.86983316 17.53524682 -23.92047561 10.81115513 -16.5234375 5.24609375 C-11.06575239 1.74229289 -6.35094381 0.65164407 0 0 Z " fill="#627B87" transform="translate(374.3984375,407.75390625)"/>
<path d="M0 0 C6.12959527 4.86219775 9.20132021 11.14302313 11.640625 18.4609375 C12.54485674 29.86018686 11.29677109 38.31202693 4.015625 47.2734375 C-1.26165911 52.86755668 -8.5932337 57.08286907 -16.36328125 57.69921875 C-25.95722304 57.89931194 -32.63519489 56.64067412 -40.609375 51.2734375 C-47.70906202 44.01239396 -52.35430091 35.93204219 -52.859375 25.7109375 C-52.650084 17.83760938 -49.81491078 10.45352943 -45.171875 4.0859375 C-31.73275973 -8.45723675 -15.37992743 -10.03260167 0 0 Z " fill="#627B87" transform="translate(236.359375,414.5390625)"/>
<path d="M0 0 C8.64265888 -0.61843713 16.75465902 3.08830574 23.43359375 8.40625 C28.72758113 13.42450887 32.65446586 20.91199843 33.234375 28.22265625 C33.47764274 39.88670431 31.38123579 47.66027392 23.2890625 56.23828125 C15.66357563 62.82451948 7.46128708 64.58717705 -2.35546875 64.49609375 C-10.64033387 63.86630208 -17.44451758 60.36262208 -23.00390625 54.21875 C-29.78680239 45.63439183 -31.54605833 38.62989665 -30.5390625 27.7265625 C-29.31738896 19.71880457 -26.28805186 12.52018971 -20.00390625 7.21875 C-13.33983833 2.76932701 -7.89073946 0.86136727 0 0 Z " fill="#627B87" transform="translate(295.00390625,407.78125)"/>
<path d="M0 0 C6.1017049 4.82061101 9.78989412 11.18261064 11.8671875 18.61328125 C13.01792746 29.90658971 11.43374227 38.57463691 4.2421875 47.42578125 C-1.04698976 53.03250761 -8.38588808 57.24109309 -16.171875 57.8515625 C-23.82908372 58.01004503 -29.54094696 57.6211355 -36.1328125 53.61328125 C-36.75671875 53.26265625 -37.380625 52.91203125 -38.0234375 52.55078125 C-44.67114827 48.38873624 -49.22795019 41.21542261 -51.65625 33.828125 C-53.90138781 23.39375502 -51.32057406 14.79230107 -46.0390625 5.73828125 C-34.97868488 -9.43023663 -14.4752086 -9.41153672 0 0 Z " fill="#637C88" transform="translate(156.1328125,414.38671875)"/>
<path d="M0 0 C1.31103699 -0.0071553 2.62207397 -0.01431061 3.97283936 -0.02168274 C7.56179871 -0.04017934 11.15001411 -0.02727081 14.73894238 -0.00759244 C18.49670082 0.0088068 22.25441261 -0.00002043 26.01219177 -0.00511169 C32.32123689 -0.0096307 38.62998533 0.00622631 44.93896484 0.03417969 C52.23218513 0.06624487 59.5248708 0.06621003 66.81812912 0.04896492 C73.83678232 0.0331008 80.85523958 0.03983166 87.8738842 0.05690193 C90.85988521 0.063773 93.84572918 0.06273955 96.83172798 0.05535698 C101.00009998 0.04627258 105.167646 0.07022737 109.3359375 0.09765625 C110.57605087 0.09113037 111.81616425 0.08460449 113.09385681 0.07788086 C114.22804047 0.09060532 115.36222412 0.10332977 116.53077698 0.11643982 C118.00880971 0.1206502 118.00880971 0.1206502 119.5167017 0.12494564 C122.82894253 0.77310785 124.03148702 2.02045865 126.10327148 4.63110352 C126.45092773 6.88500977 126.45092773 6.88500977 126.16577148 9.19360352 C126.05942383 10.34022461 126.05942383 10.34022461 125.95092773 11.51000977 C124.72879024 14.56816948 123.01311775 15.18450455 120.10327148 16.63110352 C117.4220953 17.00862694 117.4220953 17.00862694 114.47972107 17.01205444 C112.79945831 17.02474365 112.79945831 17.02474365 111.08525085 17.03768921 C109.86586319 17.03161652 108.64647552 17.02554382 107.39013672 17.01928711 C105.45284195 17.02717255 105.45284195 17.02717255 103.47640991 17.03521729 C99.94133997 17.04887288 96.40653321 17.04360001 92.87145877 17.03408003 C89.16975628 17.02647588 85.46807607 17.03353099 81.76637268 17.03823853 C75.55156413 17.0436932 69.33686261 17.03651135 63.12207031 17.0222168 C55.93799153 17.00588358 48.75416809 17.01118469 41.57009548 17.02769601 C35.39926037 17.04131056 29.2285021 17.04323094 23.05765682 17.03538001 C19.37320301 17.03070421 15.68886923 17.03007613 12.00442314 17.03998947 C7.89846547 17.05026578 3.79294807 17.03602235 -0.31298828 17.01928711 C-1.53440018 17.0253598 -2.75581207 17.0314325 -4.01423645 17.03768921 C-5.69026947 17.025 -5.69026947 17.025 -7.40016174 17.01205444 C-8.85607145 17.01035783 -8.85607145 17.01035783 -10.34139347 17.00862694 C-13.3362117 16.56617458 -14.70226738 15.68062519 -16.89672852 13.63110352 C-17.68188477 11.76391602 -17.68188477 11.76391602 -17.95922852 9.75610352 C-18.07395508 9.09868164 -18.18868164 8.44125977 -18.30688477 7.76391602 C-17.79857343 5.12069705 -16.72529337 3.55958327 -14.78567696 1.71132088 C-10.41225812 -0.78967007 -4.88714799 -0.04615299 0 0 Z " fill="#37474F" transform="translate(201.896728515625,271.368896484375)"/>
<path d="M0 0 C6.42055037 3.71716074 9.56580594 8.0930823 11.9296875 15.1171875 C13.12674446 22.3952938 12.19431656 28.50182128 8.55078125 34.921875 C4.69436551 40.14429824 -0.67468275 43.86314245 -7.0703125 45.1171875 C-14.34125884 45.83419916 -19.99549347 45.36123915 -26.0703125 41.1171875 C-31.29182035 36.72637408 -35.39191602 31.07075144 -36.0703125 24.1171875 C-36.58201475 16.18580261 -34.86943819 11.08896717 -29.8828125 4.9296875 C-21.57789545 -3.99939868 -10.91564188 -5.63262659 0 0 Z " fill="#FCDF4D" transform="translate(188.0703125,178.8828125)"/>
<path d="M0 0 C5.62794181 3.49046088 9.84511309 8.93377677 11.93359375 15.19921875 C12.82337968 23.55049531 12.01056464 30.34042634 6.93359375 37.19921875 C1.48851024 42.49061039 -4.21103131 45.47372235 -11.87890625 45.57421875 C-19.07167043 45.44167396 -23.38493859 43.45408929 -28.81640625 38.88671875 C-32.47969717 34.51112126 -35.51243043 30.01596483 -36.06640625 24.19921875 C-36.14117187 23.54179687 -36.2159375 22.884375 -36.29296875 22.20703125 C-36.71697296 15.75770406 -34.94816697 11.32202317 -31.06640625 6.19921875 C-22.28732965 -3.09315064 -11.80124434 -5.99528456 0 0 Z " fill="#E84441" transform="translate(252.06640625,178.80078125)"/>
<path d="M0 0 C5.62794181 3.49046088 9.84511309 8.93377677 11.93359375 15.19921875 C12.82337968 23.55049531 12.01056464 30.34042634 6.93359375 37.19921875 C1.48851024 42.49061039 -4.21103131 45.47372235 -11.87890625 45.57421875 C-19.08153235 45.44149222 -23.42980918 43.47627985 -28.81640625 38.82421875 C-34.30378941 32.42227173 -36.51866961 27.695309 -36.06640625 19.19921875 C-34.71605104 12.2329745 -33.16206907 5.39845314 -27.06640625 1.19921875 C-18.33173411 -4.09452194 -9.16185641 -4.65441903 0 0 Z " fill="#55AC58" transform="translate(124.06640625,178.80078125)"/>
<path d="M0 0 C10.56 0 21.12 0 32 0 C32 15.84 32 31.68 32 48 C21.44 48 10.88 48 0 48 C0 32.16 0 16.32 0 0 Z " fill="#CFD8DC" transform="translate(264,304)"/>
<path d="M0 0 C1.35090173 0.00425397 2.70181078 0.00657911 4.05271912 0.00706482 C6.87817729 0.01321848 9.70283901 0.03586028 12.52807617 0.0715332 C16.14516867 0.11684869 19.76154178 0.1315622 23.37889194 0.13527012 C26.16622476 0.1397036 28.95340744 0.15501525 31.74067497 0.17414665 C33.72151175 0.18731068 35.70237918 0.19556646 37.6832428 0.20375061 C39.49048073 0.2277317 39.49048073 0.2277317 41.33422852 0.25219727 C42.39392349 0.26283707 43.45361847 0.27347687 44.54542542 0.28443909 C47.35677175 0.56337385 48.97130248 0.99957834 51.30859375 2.55859375 C53.78898282 6.27917735 53.77196578 8.15655946 53.30859375 12.55859375 C51.17156014 15.42699546 49.97970527 16.4403879 46.42480469 17.06652832 C44.7507959 17.07130188 44.7507959 17.07130188 43.04296875 17.07617188 C41.77485352 17.08878052 40.50673828 17.10138916 39.20019531 17.11437988 C37.8196558 17.10722005 36.43912136 17.09901606 35.05859375 17.08984375 C33.63899469 17.09253937 32.21939744 17.09642238 30.79980469 17.10144043 C27.82729481 17.10733233 24.85526634 17.09878329 21.8828125 17.08007812 C18.07600588 17.05728775 14.27032726 17.07041263 10.46356201 17.09436798 C7.53295419 17.10883489 4.60261301 17.1042161 1.67199707 17.09385681 C0.26859401 17.09119194 -1.1348334 17.09445092 -2.53820801 17.10377502 C-4.5007276 17.11395316 -6.46333227 17.09568415 -8.42578125 17.07617188 C-9.54178711 17.0729895 -10.65779297 17.06980713 -11.80761719 17.06652832 C-15.36121155 16.44061797 -16.5418323 15.41303765 -18.69140625 12.55859375 C-19.36239448 8.4581101 -19.22374049 6.41052974 -17.01196289 2.87084961 C-12.53909743 -1.28812709 -5.68115674 -0.08562561 0 0 Z " fill="#FEFEFE" transform="translate(154.69140625,63.44140625)"/>
<path d="M0 0 C5.28 0 10.56 0 16 0 C16 15.84 16 31.68 16 48 C10.72 48 5.44 48 0 48 C0 32.16 0 16.32 0 0 Z " fill="#B0BEC5" transform="translate(296,304)"/>
<path d="M0 0 C5.28 0 10.56 0 16 0 C16 15.84 16 31.68 16 48 C10.72 48 5.44 48 0 48 C0 32.16 0 16.32 0 0 Z " fill="#B0BEC5" transform="translate(248,304)"/>
<path d="M0 0 C5.28 0 10.56 0 16 0 C16 15.84 16 31.68 16 48 C10.72 48 5.44 48 0 48 C0 32.16 0 16.32 0 0 Z " fill="#B0BEC5" transform="translate(200,304)"/>
<path d="M0 0 C3.72975427 1.15283314 5.35163561 1.75988138 7.4375 5.0625 C7.37702191 8.50975099 7.09986979 10.95855036 5.3125 13.9375 C2.33355036 15.72486979 -0.11524901 16.00202191 -3.5625 16.0625 C-6.86511862 13.97663561 -7.47216686 12.35475427 -8.625 8.625 C-8.5625 5.0625 -8.5625 5.0625 -6.5625 2.0625 C-3.5625 0.0625 -3.5625 0.0625 0 0 Z " fill="#FCFDFE" transform="translate(112.5625,63.9375)"/>
</svg>
