<?xml version="1.0" encoding="UTF-8"?>
<svg version="1.1" xmlns="http://www.w3.org/2000/svg" width="512" height="512">
<path d="M0 0 C13.79315219 11.98268431 24.82795135 28.89828398 26.18457031 47.53564453 C26.85134342 61.3484012 26.42152503 74.4677773 20 87 C20.67107473 87.00146656 21.34214947 87.00293312 22.0335598 87.00444412 C38.39379958 87.0415632 54.7537996 87.10064518 71.11386681 87.18390274 C79.0256215 87.22364156 86.93727748 87.25606013 94.84912109 87.27099609 C101.74844916 87.28403947 108.64755953 87.31107222 115.54676497 87.35461307 C119.1968532 87.37716793 122.84667353 87.3929143 126.49683762 87.39188385 C130.58071673 87.39099392 134.66381057 87.42134849 138.74755859 87.45410156 C140.54507568 87.44655602 140.54507568 87.44655602 142.37890625 87.43885803 C152.47677571 87.56380279 160.32046016 89.61265367 167.52734375 96.92578125 C171.11940538 101.98515718 172.54352651 107.60401701 173.5871582 113.63500977 C173.78858523 114.7384106 173.78858523 114.7384106 173.9940815 115.86410236 C174.43762341 118.30517138 174.86919878 120.74819683 175.30078125 123.19140625 C175.61646636 124.94252406 175.93289614 126.69350777 176.25001526 128.44436646 C177.10325653 133.16711569 177.94617246 137.89165443 178.78713226 142.61660385 C179.66681544 147.54925405 180.55580119 152.48022688 181.44384766 157.41137695 C182.90887547 165.55297143 184.36824383 173.6955619 185.82373047 181.83886719 C187.73932139 192.55499841 189.66830489 203.26867763 191.60221672 213.98151588 C192.87630016 221.04073951 194.14807599 228.10037941 195.41970444 235.16004562 C195.72275345 236.84234308 196.02587669 238.52462716 196.32907486 240.20689774 C197.19139403 244.99185429 198.05204339 249.77710509 198.91007805 254.56283188 C199.16709747 255.99502423 199.42465513 257.42712013 199.68283272 258.85910416 C207.00574294 299.48807826 207.00574294 299.48807826 201.33203125 308.4296875 C196.11267193 314.5827152 190.04355681 318.65678481 182 320 C180.47135644 320.09281024 178.9396215 320.14282595 177.40820312 320.15390015 C176.51665527 320.16250061 175.62510742 320.17110107 174.70654297 320.17996216 C173.25852295 320.18635208 173.25852295 320.18635208 171.78125 320.19287109 C170.75467285 320.20104858 169.7280957 320.20922607 168.67041016 320.21765137 C165.28027931 320.24242433 161.89018995 320.25899605 158.5 320.2734375 C157.34137451 320.27876118 156.18274902 320.28408485 154.98901367 320.28956985 C148.86247418 320.31625954 142.73595483 320.33565232 136.609375 320.35009766 C131.53627608 320.36346508 126.46357668 320.39137576 121.390625 320.43212891 C115.26402059 320.48134349 109.13777998 320.50620413 103.01098633 320.51332474 C100.67614773 320.52004982 98.34131764 320.53530425 96.0065918 320.55921555 C92.74354356 320.59074193 89.48190978 320.59092284 86.21875 320.58349609 C85.25340332 320.59990143 84.28805664 320.61630676 83.29345703 320.63320923 C78.689978 320.59025701 76.64551187 320.48309831 72.86132812 317.65103149 C71 315 71 315 71 312 C64.73 312 58.46 312 52 312 C51.67 313.65 51.34 315.3 51 317 C48.80665579 319.3091882 47.47916773 319.93556793 44.31707764 320.36076355 C42.78485565 320.3507708 42.78485565 320.3507708 41.22167969 320.34057617 C40.0607782 320.34034958 38.89987671 320.34012299 37.70379639 320.33988953 C36.45576233 320.32440567 35.20772827 320.30892181 33.921875 320.29296875 C32.64016418 320.28872391 31.35845337 320.28447906 30.03790283 320.28010559 C26.63800365 320.26867648 23.23849177 320.23922666 19.83874512 320.20599365 C16.36650933 320.17525064 12.89420882 320.16142667 9.421875 320.14648438 C2.6142418 320.11594774 -4.19232926 320.05722513 -11 320 C-11 328.58 -11 337.16 -11 346 C-7.90625 345.896875 -4.8125 345.79375 -1.625 345.6875 C7.39260112 345.58443341 13.92485931 346.40508767 20.81640625 352.64453125 C27.00567373 359.25138786 28.46357889 365.65252824 28.1875 374.4375 C28.17396484 375.26443359 28.16042969 376.09136719 28.14648438 376.94335938 C28.11146992 378.9625264 28.05767562 380.98135318 28 383 C28.56396484 382.98428955 29.12792969 382.9685791 29.70898438 382.95239258 C32.30588435 382.88938426 34.90262275 382.85080402 37.5 382.8125 C38.8303125 382.77479492 38.8303125 382.77479492 40.1875 382.73632812 C48.49405744 382.64471168 55.13976064 384.39980951 61.39453125 390.125 C68.3229051 398.21653151 69.1934044 407.18779194 69.25 417.375 C69.2809375 418.75558594 69.2809375 418.75558594 69.3125 420.1640625 C69.34516636 425.88067549 68.94868846 430.03851116 66 435 C61.73793477 438.42220939 57.63006495 438.42445947 52.3840332 438.38095093 C51.08434711 438.38797089 51.08434711 438.38797089 49.75840473 438.39513266 C46.85570777 438.40709652 43.9534817 438.39761995 41.05078125 438.38818359 C38.96951014 438.39224867 36.88824118 438.39759019 34.80697632 438.40411377 C29.15417066 438.41780069 23.50152911 438.41248298 17.84872055 438.40297651 C11.93600773 438.39538709 6.02330907 438.40242353 0.1105957 438.40713501 C-9.81919887 438.41259464 -19.74892652 438.40539546 -29.67871094 438.39111328 C-41.16277904 438.37478641 -52.64668738 438.38007477 -64.13075161 438.3965925 C-73.98648923 438.41020141 -83.84217872 438.41212992 -93.69792271 438.40427649 C-99.58618858 438.39959672 -105.47437932 438.39898353 -111.36264038 438.40888596 C-116.89811059 438.41754464 -122.43337457 438.41155366 -127.96882248 438.39420319 C-130.00177035 438.39023249 -132.03473554 438.39138232 -134.06767654 438.39799118 C-136.84003066 438.40617363 -139.61172149 438.39592494 -142.3840332 438.38095093 C-143.19093944 438.38764309 -143.99784567 438.39433526 -144.82920361 438.40123022 C-149.38926565 438.35336761 -152.40668517 437.88803387 -156 435 C-159.33840384 429.32179783 -159.45874375 424.16833553 -159.375 417.6875 C-159.38660156 416.80126953 -159.39820313 415.91503906 -159.41015625 415.00195312 C-159.36685802 405.10830696 -157.12336342 396.17117123 -150 389 C-144.63709503 384.84607361 -140.04620242 382.85867819 -133.234375 382.90234375 C-132.34492188 382.90556641 -131.45546875 382.90878906 -130.5390625 382.91210938 C-129.61867187 382.92048828 -128.69828125 382.92886719 -127.75 382.9375 C-126.34621094 382.94426758 -126.34621094 382.94426758 -124.9140625 382.95117188 C-122.60930959 382.96293082 -120.30468773 382.97936574 -118 383 C-118.08701172 381.22496094 -118.08701172 381.22496094 -118.17578125 379.4140625 C-118.52839518 369.22168669 -118.53166821 361.13607851 -111.35546875 353.17578125 C-104.38946114 346.68151231 -97.77000358 345.55600039 -88.5625 345.8125 C-83.8290625 345.9053125 -83.8290625 345.9053125 -79 346 C-79 337.42 -79 328.84 -79 320 C-82.5968998 320.00999275 -82.5968998 320.00999275 -86.26646423 320.02018738 C-108.85293033 320.08149993 -131.43938544 320.12614137 -154.0259161 320.15543652 C-165.63816045 320.17089847 -177.2503437 320.19197523 -188.86254883 320.22631836 C-198.98498071 320.25624119 -209.10736832 320.27557989 -219.2298432 320.28226548 C-224.58849001 320.28617283 -229.94701019 320.29534182 -235.30561638 320.31719017 C-240.35264203 320.33760079 -245.39948927 320.34382452 -250.44655228 320.33932304 C-252.29561013 320.34014619 -254.14467414 320.34608449 -255.99369621 320.35761642 C-277.58945417 320.48566146 -277.58945417 320.48566146 -287 313 C-291.96785678 308.00454402 -294.22981289 303.49606373 -294.31567764 296.39697933 C-294.30588694 295.34304658 -294.30588694 295.34304658 -294.29589844 294.26782227 C-294.29083157 293.51925492 -294.28576469 292.77068758 -294.28054428 291.99943638 C-294.12038177 283.74702536 -292.76511128 275.81200919 -291.265625 267.71484375 C-290.95552276 265.97825117 -290.64676393 264.24141831 -290.33917236 262.50437927 C-289.63968308 258.57059906 -288.93065804 254.63867775 -288.21557617 250.70770264 C-286.98835784 243.95347165 -285.78618707 237.1948572 -284.58645725 230.43570256 C-282.14157914 216.66423036 -279.67404926 202.89691255 -277.19355011 189.13181496 C-276.92329923 187.63206699 -276.65305338 186.13231813 -276.3828125 184.63256836 C-276.24865291 183.88806219 -276.11449332 183.14355601 -275.97626829 182.37648904 C-274.87423369 176.25820836 -273.77806079 170.1388868 -272.68292689 164.01936775 C-271.6108435 158.03043209 -270.53428747 152.04231111 -269.45436406 146.05478424 C-268.81609388 142.51541035 -268.17963148 138.97573625 -267.54793549 135.43518257 C-266.84928508 131.52014897 -266.14134842 127.60682539 -265.43261719 123.69360352 C-265.2299826 122.55032089 -265.02734802 121.40703827 -264.818573 120.22911072 C-260.88536279 98.67943666 -260.88536279 98.67943666 -251.12890625 91.65234375 C-243.82320815 87.26892489 -236.55852987 87.78159403 -228.30102539 87.75976562 C-226.0733524 87.75004734 -223.84659788 87.71899393 -221.61914062 87.6875 C-220.19531795 87.68097022 -218.77148871 87.67571965 -217.34765625 87.671875 C-216.05867432 87.6625293 -214.76969238 87.65318359 -213.44165039 87.64355469 C-209.77086191 88.0237314 -207.88201715 88.72991108 -205 91 C-204.1875 93.6875 -204.1875 93.6875 -204 96 C-201.05943386 95.96702729 -198.12652037 95.89993081 -195.1875 95.8125 C-194.35412109 95.80669922 -193.52074219 95.80089844 -192.66210938 95.79492188 C-190.33871901 95.71094391 -188.25169689 95.58364624 -186 95 C-184.02961044 92.67535264 -184.02961044 92.67535264 -183 90 C-179.35663549 87.57109032 -177.57691694 87.72793806 -173.23364258 87.68115234 C-172.55045456 87.67110672 -171.86726654 87.6610611 -171.16337585 87.65071106 C-168.90710281 87.61984114 -166.65094863 87.60283368 -164.39453125 87.5859375 C-162.82939122 87.56722888 -161.26426131 87.54765569 -159.69914246 87.5272522 C-155.58104412 87.47589252 -151.46291306 87.43628744 -147.34466553 87.39910889 C-143.14180381 87.35909321 -138.93907863 87.30798978 -134.73632812 87.2578125 C-126.49097864 87.16100783 -118.24556166 87.07661769 -110 87 C-110.27451996 86.3295163 -110.54903992 85.65903259 -110.83187866 84.9682312 C-111.19206085 84.08007721 -111.55224304 83.19192322 -111.92333984 82.27685547 C-112.2803598 81.40012177 -112.63737976 80.52338806 -113.00521851 79.62008667 C-119.35708567 62.8903399 -117.5051063 42.25403026 -110.33984375 26.17578125 C-101.5623018 7.76220131 -86.11796111 -4.99956339 -67.125 -12.0703125 C-44.24974711 -19.25369984 -19.02269324 -14.42350132 0 0 Z " fill="#020203" transform="translate(301,74)"/>
<path d="M0 0 C153.12 0 306.24 0 464 0 C467.2244898 16.12244898 467.2244898 16.12244898 464.75 21.9375 C462.45881232 24.63782834 460.41900679 25.83050063 456.87915802 26.25333309 C456.11373436 26.25496739 455.3483107 26.2566017 454.55969238 26.25828552 C453.67648819 26.26511353 452.793284 26.27194153 451.88331604 26.27897644 C450.44157265 26.27514702 450.44157265 26.27514702 448.97070312 26.27124023 C447.44327736 26.27908035 447.44327736 26.27908035 445.88499451 26.28707886 C443.67460166 26.29731837 441.4641847 26.30309917 439.25376892 26.30496025 C435.75732113 26.30861879 432.26115826 26.32533071 428.76477051 26.34571838 C418.82419116 26.40118662 408.88357001 26.43185356 398.94287109 26.45629883 C392.86276668 26.47215269 386.78286511 26.50234713 380.7028656 26.54106331 C378.38400929 26.55273071 376.06511674 26.55864381 373.74623108 26.55874443 C370.50703682 26.55893598 367.26840415 26.5771652 364.02929688 26.59936523 C363.06813461 26.59478806 362.10697235 26.59021088 361.11668396 26.585495 C359.79187767 26.59996674 359.79187767 26.59996674 358.44030762 26.61473083 C357.29217213 26.61774783 357.29217213 26.61774783 356.12084198 26.62082577 C353.41052134 27.1053898 352.01904956 28.1597828 350 30 C349.20376178 32.09415804 349.20376178 32.09415804 349 34 C345.72963272 34.14510162 342.46008993 34.23399373 339.1875 34.3125 C338.25873047 34.35439453 337.32996094 34.39628906 336.37304688 34.43945312 C333.82458735 34.4854542 331.50433699 34.48024413 329 34 C327.05078125 31.60546875 327.05078125 31.60546875 326 29 C322.64601432 26.76400955 321.57893115 26.75050063 317.66288185 26.75225353 C316.54878901 26.74787153 315.43469617 26.74348954 314.28684294 26.73897475 C312.44324787 26.74699275 312.44324787 26.74699275 310.56240845 26.75517273 C309.2607198 26.75290816 307.95903115 26.75064358 306.61789739 26.74831039 C302.99718742 26.74219519 299.3765867 26.74846441 295.75588465 26.756621 C291.8539605 26.76319745 287.95205051 26.75820423 284.05012512 26.75439453 C277.28611922 26.74916664 270.52214195 26.75067056 263.75813675 26.75617027 C253.07012839 26.76437394 242.382182 26.7531651 231.69418335 26.7389679 C228.03909507 26.7343666 224.38400662 26.72991629 220.72891808 26.72552967 C219.81544405 26.72443153 218.90197002 26.72333339 217.96081496 26.72220197 C207.55949104 26.71002428 197.15816512 26.70247468 186.75683594 26.6965332 C185.80583788 26.69598514 184.85483983 26.69543708 183.87502365 26.69487242 C168.45915408 26.68641072 153.04330197 26.68975226 137.6274323 26.69568755 C121.80823125 26.70130091 105.98911829 26.68779105 90.16994417 26.65813476 C80.40790305 26.64057233 70.64611624 26.6389852 60.88407622 26.65777991 C54.19625401 26.66936728 47.50860372 26.66296829 40.8208039 26.6423107 C36.95985192 26.63096693 33.09934259 26.62786706 29.23840904 26.64648628 C25.05576963 26.6664707 20.87418626 26.64803927 16.69155884 26.6257782 C15.4669569 26.6378157 14.24235496 26.64985319 12.98064387 26.66225547 C3.85142946 26.56270805 3.85142946 26.56270805 0.76927757 23.58588886 C-4.33935402 16.11936482 -1.5723866 8.64812627 0 0 Z " fill="#F8F6F7" transform="translate(24,352)"/>
<path d="M0 0 C12.95066773 8.89637858 20.82262866 20.91140358 24.68359375 36.13671875 C27.15079518 52.74581703 22.58528314 64.64193373 15.0625 79.6875 C-15.2975 79.6875 -45.6575 79.6875 -76.9375 79.6875 C-85.02030414 63.52189172 -90.41472735 49.72060262 -85.25 31.875 C-84.51586001 29.79915589 -83.74691748 27.73516541 -82.9375 25.6875 C-82.61007813 24.82640625 -82.28265625 23.9653125 -81.9453125 23.078125 C-76.87904968 11.46639855 -67.03598008 2.42756673 -55.9375 -3.3125 C-54.54724609 -4.07046875 -54.54724609 -4.07046875 -53.12890625 -4.84375 C-36.10253461 -12.81448315 -15.66780266 -9.33218847 0 0 Z " fill="#FED671" transform="translate(286.9375,83.3125)"/>
<path d="M0 0 C0.7309946 -0.00467997 1.4619892 -0.00935994 2.21513516 -0.01418173 C4.65948336 -0.02612784 7.10327052 -0.01667623 9.54762268 -0.00723267 C11.30215278 -0.01129858 13.05668032 -0.01664057 14.811203 -0.02316284 C19.57361844 -0.03684088 24.33583893 -0.0315355 29.09825778 -0.02202559 C34.08293607 -0.01443034 39.06759767 -0.02147434 44.05227661 -0.02618408 C52.42429094 -0.03164253 60.79622588 -0.0244482 69.16822815 -0.01016235 C78.8447921 0.00615899 88.52116637 0.00087975 98.19772571 -0.01564157 C106.50699754 -0.02926024 114.8162123 -0.03117406 123.12549168 -0.02332556 C128.08767465 -0.01865047 133.0497685 -0.01801963 138.01194572 -0.02793503 C142.67823147 -0.03660774 147.34427299 -0.03057716 152.01053238 -0.01325226 C153.72216067 -0.00928882 155.43380954 -0.01041902 157.14542961 -0.01704025 C159.48394835 -0.02525178 161.82168705 -0.01493946 164.16015625 0 C165.46813895 0.00113108 166.77612165 0.00226215 168.1237402 0.00342751 C172.0296491 0.4223603 174.36641191 1.22570038 177.64356995 3.38095093 C180.64356995 8.38095093 180.64356995 8.38095093 180.64356995 25.38095093 C115.96356995 25.38095093 51.28356995 25.38095093 -15.35643005 25.38095093 C-15.35643005 8.38095093 -15.35643005 8.38095093 -12.35643005 3.38095093 C-8.33429626 0.15148641 -5.07147838 0.00438682 0 0 Z " fill="#365D7C" transform="translate(173.35643005371094,471.6190490722656)"/>
<path d="M0 0 C33.66 0 67.32 0 102 0 C109 40 109 40 109 43 C75.01 43 41.02 43 6 43 C3.74683214 32.86074461 3.74683214 32.86074461 3.18359375 28.73046875 C3.05919922 27.82103516 2.93480469 26.91160156 2.80664062 25.97460938 C2.62391602 24.59499023 2.62391602 24.59499023 2.4375 23.1875 C2.31181641 22.27935547 2.18613281 21.37121094 2.05664062 20.43554688 C1.1376034 13.61734926 0.57304425 6.876531 0 0 Z " fill="#74CCF5" transform="translate(376,294)"/>
<path d="M0 0 C33.66 0 67.32 0 102 0 C99.42938931 21.85019084 99.42938931 21.85019084 98.4375 29.9375 C98.31181641 30.98873047 98.18613281 32.03996094 98.05664062 33.12304688 C97.93353516 34.12271484 97.81042969 35.12238281 97.68359375 36.15234375 C97.57587646 37.03913818 97.46815918 37.92593262 97.35717773 38.83959961 C97 41 97 41 96 43 C62.01 43 28.02 43 -7 43 C-5.39631184 28.56680655 -2.52371304 14.30104057 0 0 Z " fill="#9FD2FC" transform="translate(34,294)"/>
<path d="M0 0 C6.6 0 13.2 0 20 0 C20.99 2.475 20.99 2.475 22 5 C25.68068393 7.45378929 27.68053719 7.30646214 32.07421875 7.4140625 C33.09996758 7.44311172 33.09996758 7.44311172 34.1464386 7.4727478 C36.32666625 7.53243997 38.50694702 7.57888631 40.6875 7.625 C42.1673405 7.66318943 43.647159 7.70224174 45.12695312 7.7421875 C48.7511005 7.83813202 52.37541257 7.92220151 56 8 C55.25737711 16.32763633 54.14953677 24.59500326 53 32.875 C52.73316406 34.83179688 52.73316406 34.83179688 52.4609375 36.828125 C52.28820312 38.07851562 52.11546875 39.32890625 51.9375 40.6171875 C51.70353516 42.31270752 51.70353516 42.31270752 51.46484375 44.04248047 C51 47 51 47 50 51 C17.66 51 -14.68 51 -48 51 C-47.24543779 42.69981571 -46.25924376 34.83835371 -44.75 26.6875 C-44.55792969 25.54732422 -44.36585937 24.40714844 -44.16796875 23.23242188 C-43.96300781 22.12833984 -43.75804687 21.02425781 -43.546875 19.88671875 C-43.36995117 18.89889404 -43.19302734 17.91106934 -43.01074219 16.89331055 C-41.65693907 13.01796736 -40.00075914 10.80267065 -37 8 C-33.55834961 7.29052734 -33.55834961 7.29052734 -29.65234375 7.3359375 C-28.95863174 7.33171783 -28.26491974 7.32749817 -27.55018616 7.32315063 C-25.34485391 7.31232323 -23.14255081 7.34028618 -20.9375 7.375 C-18.72929181 7.39908341 -16.52243466 7.41422187 -14.31410217 7.40542603 C-12.31344094 7.39876573 -10.31274891 7.42390189 -8.31225586 7.45068359 C-4.94393143 7.27199237 -4.94393143 7.27199237 -2.61157227 5.16259766 C-0.82721761 3.00383027 -0.82721761 3.00383027 0 0 Z " fill="#A0D2FD" transform="translate(96,170)"/>
<path d="M0 0 C32.34 0 64.68 0 98 0 C102 25 102 25 103 43 C69.01 43 35.02 43 0 43 C0 28.81 0 14.62 0 0 Z " fill="#74CAF3" transform="translate(263,294)"/>
<path d="M0 0 C32.34 0 64.68 0 98 0 C98 14.19 98 28.38 98 43 C64.01 43 30.02 43 -5 43 C-4 25 -4 25 0 0 Z " fill="#9FD1FC" transform="translate(151,294)"/>
<path d="M0 0 C32.67 0 65.34 0 99 0 C98.16660251 8.33397495 97.15104138 16.58416569 96 24.875 C95.73316406 26.83179688 95.73316406 26.83179688 95.4609375 28.828125 C95.28820312 30.07851563 95.11546875 31.32890625 94.9375 32.6171875 C94.70353516 34.31270752 94.70353516 34.31270752 94.46484375 36.04248047 C94 39 94 39 93 43 C60 43 27 43 -7 43 C-7 37.21811343 -6.78132353 32.85358815 -5.72265625 27.32421875 C-5.59185165 26.63237991 -5.46104706 25.94054108 -5.32627869 25.22773743 C-5.05140655 23.78097581 -4.7730969 22.33486331 -4.49145508 20.8894043 C-4.06044939 18.67697384 -3.63968093 16.46278359 -3.22070312 14.24804688 C-1.17182411 3.51547232 -1.17182411 3.51547232 0 0 Z " fill="#A0D3FE" transform="translate(45,236)"/>
<path d="M0 0 C32.67 0 65.34 0 99 0 C106 33.6 106 33.6 106 43 C73 43 40 43 6 43 C2.51497555 24.41320293 2.51497555 24.41320293 1.3125 15.3125 C1.18294922 14.37728516 1.05339844 13.44207031 0.91992188 12.47851562 C0.34723517 8.22730159 0 4.31577184 0 0 Z " fill="#74CDF7" transform="translate(368,236)"/>
<path d="M0 0 C11.90888973 -0.09266923 23.81769372 -0.16374957 35.72687054 -0.20724869 C41.25676392 -0.22812584 46.78641067 -0.2564462 52.31616211 -0.30175781 C57.65242246 -0.34521042 62.98844554 -0.36913614 68.32486916 -0.37950897 C70.36105904 -0.38690135 72.3972359 -0.40133688 74.43332481 -0.42292023 C77.28485581 -0.45194616 80.13540566 -0.45595631 82.98706055 -0.45410156 C84.25049789 -0.47567322 84.25049789 -0.47567322 85.53945923 -0.49768066 C89.54636785 -0.469469 91.52207703 -0.29998437 94.99658203 1.88090515 C97.25422765 4.26890669 97.93562139 5.79243507 98.67578125 8.97265625 C99.01923584 10.42696045 99.01923584 10.42696045 99.36962891 11.91064453 C100.42252072 17.07071152 101.35484333 22.23744567 102.1875 27.4375 C102.36474609 28.49904297 102.54199219 29.56058594 102.72460938 30.65429688 C103.41110947 34.85016423 104 38.73718627 104 43 C71.66 43 39.32 43 6 43 C2.51497555 24.41320293 2.51497555 24.41320293 1.3125 15.3125 C1.18294922 14.37728516 1.05339844 13.44207031 0.91992188 12.47851562 C0.35295494 8.26976107 -0.02570364 4.2504115 0 0 Z " fill="#74CCF6" transform="translate(360,178)"/>
<path d="M0 0 C29.7 0 59.4 0 90 0 C92.37921429 14.27528577 94.27570707 28.63089222 96 43 C64.32 43 32.64 43 0 43 C0 28.81 0 14.62 0 0 Z " fill="#9FD2FC" transform="translate(263,236)"/>
<path d="M0 0 C29.7 0 59.4 0 90 0 C90 14.19 90 28.38 90 43 C58.32 43 26.64 43 -6 43 C-4.27570707 28.63089222 -2.37921429 14.27528577 0 0 Z " fill="#9FD2FD" transform="translate(159,236)"/>
<path d="M0 0 C27.06 0 54.12 0 82 0 C84.37921429 14.27528577 86.27570707 28.63089222 88 43 C58.96 43 29.92 43 0 43 C0 28.81 0 14.62 0 0 Z " fill="#A0D3FE" transform="translate(263,178)"/>
<path d="M0 0 C27.06 0 54.12 0 82 0 C82 14.19 82 28.38 82 43 C52.96 43 23.92 43 -6 43 C-4.27570707 28.63089222 -2.37921429 14.27528577 0 0 Z " fill="#9FD2FC" transform="translate(167,178)"/>
<path d="M0 0 C12.95066773 8.89637858 20.82262866 20.91140358 24.68359375 36.13671875 C27.15079518 52.74581703 22.58528314 64.64193373 15.0625 79.6875 C-15.2975 79.6875 -45.6575 79.6875 -76.9375 79.6875 C-76.9375 79.3575 -76.9375 79.0275 -76.9375 78.6875 C-55.4875 78.6875 -34.0375 78.6875 -11.9375 78.6875 C-8.94242083 57.72194578 -11.48142103 38.94908431 -24.19140625 21.61328125 C-33.83974024 10.21648475 -45.85413929 3.94675347 -59.9375 -0.3125 C-42.8459954 -13.99372786 -17.68592147 -10.53423738 0 0 Z " fill="#F6B756" transform="translate(286.9375,83.3125)"/>
<path d="M0 0 C0.8382431 -0.00852997 1.67648621 -0.01705994 2.54013062 -0.02584839 C3.90703033 -0.02448883 3.90703033 -0.02448883 5.30154419 -0.02310181 C6.7509993 -0.03317764 6.7509993 -0.03317764 8.22973633 -0.04345703 C11.42576228 -0.06246289 14.62157852 -0.06636253 17.81765747 -0.06851196 C20.03959235 -0.07493801 22.26152638 -0.08166623 24.48345947 -0.08868408 C29.14224204 -0.10066328 33.80095043 -0.10436423 38.45974731 -0.10317993 C44.42745697 -0.10297669 50.39469068 -0.13028151 56.36228752 -0.16472435 C60.95196719 -0.18696898 65.54153186 -0.19101822 70.13125992 -0.18996048 C72.3312761 -0.19232 74.53129528 -0.20116323 76.73125839 -0.21662521 C79.80971292 -0.23623563 82.8871353 -0.23046618 85.96560669 -0.21841431 C87.32643372 -0.23527283 87.32643372 -0.23527283 88.7147522 -0.25247192 C94.21477005 -0.19779665 97.4309815 0.54839226 101.76296997 4.26742554 C103.76296997 7.26742554 103.76296997 7.26742554 103.76296997 22.26742554 C65.48296997 22.26742554 27.20296997 22.26742554 -12.23703003 22.26742554 C-12.23703003 7.26742554 -12.23703003 7.26742554 -8.23703003 2.26742554 C-5.44238664 0.44328402 -3.30815287 0.01527355 0 0 Z " fill="#F8F6F7" transform="translate(210.23703002929688,434.7325744628906)"/>
<path d="M0 0 C153.12 0 306.24 0 464 0 C467.2244898 16.12244898 467.2244898 16.12244898 464.75 21.9375 C462.82666477 24.20428795 461.75676614 24.94310484 459 26 C455.93743896 26.24050903 455.93743896 26.24050903 452.30371094 26.22705078 C451.30797058 26.22748886 451.30797058 26.22748886 450.29211426 26.22793579 C448.10606649 26.22654658 445.92036296 26.21100503 443.734375 26.1953125 C442.21551703 26.19158091 440.69665665 26.18873463 439.17779541 26.18673706 C435.18617063 26.1791121 431.19469211 26.15947344 427.203125 26.1373291 C423.12762429 26.11684614 419.05209988 26.10773011 414.9765625 26.09765625 C406.98430799 26.07622641 398.99217221 26.04210426 391 26 C391.48786987 24.84226074 391.48786987 24.84226074 391.9855957 23.66113281 C393.074363 20.80492016 393.23639455 18.7903522 393.1875 15.75 C393.18105469 14.87859375 393.17460937 14.0071875 393.16796875 13.109375 C392.9492259 9.06008867 392.44782085 5.03038766 392 1 C262.64 1 133.28 1 0 1 C0 0.67 0 0.34 0 0 Z " fill="#D0CFD5" transform="translate(24,352)"/>
<path d="M0 0 C18.81 0 37.62 0 57 0 C55.16224141 7.35103436 53.46259618 14.06543472 50.6875 21 C50.28241211 22.05574219 50.28241211 22.05574219 49.86914062 23.1328125 C47.29235955 29.68335392 44.18412608 35.63174784 41 42 C27.47 42 13.94 42 0 42 C0 28.14 0 14.28 0 0 Z " fill="#A0D3FE" transform="translate(264,295)"/>
<path d="M0 0 C0.33 0 0.66 0 1 0 C1 13.86 1 27.72 1 42 C19.48 42 37.96 42 57 42 C51.13855487 25.03703953 51.13855487 25.03703953 43.5 9.1875 C39 1.03618421 39 1.03618421 39 0 C53.19 0 67.38 0 82 0 C84.37921429 14.27528577 86.27570707 28.63089222 88 43 C58.96 43 29.92 43 0 43 C0 28.81 0 14.62 0 0 Z " fill="#74CAF3" transform="translate(263,178)"/>
<path d="M0 0 C9.57 0 19.14 0 29 0 C31.5229889 14.29693707 33.33559204 28.57513105 35 43 C23.45 43 11.9 43 0 43 C0 28.81 0 14.62 0 0 Z " fill="#74CDF7" transform="translate(324,236)"/>
<path d="M0 0 C11.88 0 23.76 0 36 0 C36 8.91 36 17.82 36 27 C24.12 27 12.24 27 0 27 C0 18.09 0 9.18 0 0 Z " fill="#375E7D" transform="translate(238,393)"/>
<path d="M0 0 C2.5625 2.0625 2.5625 2.0625 4 5 C3.71276848 12.93861498 -0.70663677 16.68958216 -6.03540039 21.92749023 C-7.55930101 23.43433681 -9.04209351 24.97477539 -10.52539062 26.52148438 C-18.53716929 34.64989242 -18.53716929 34.64989242 -23.55859375 34.7578125 C-27 34 -27 34 -29.5 32.4375 C-31.74912822 28.78266663 -31.89255033 27.2567785 -31 23 C-28.37499733 19.29675663 -25.21479798 16.19231687 -22 13 C-20.93232155 11.91009898 -19.86596031 10.81890635 -18.80078125 9.7265625 C-7.91379042 -1.3579877 -7.91379042 -1.3579877 0 0 Z " fill="#000000" transform="translate(347,36)"/>
<path d="M0 0 C4.35783479 1.21184724 7.03463474 4.43172565 10.12109375 7.58984375 C11.22733417 8.6763481 12.33556219 9.76083088 13.4453125 10.84375 C24.96516851 22.16052909 24.96516851 22.16052909 25.49609375 27.02734375 C25.12109375 30.58984375 25.12109375 30.58984375 23.62109375 33.02734375 C20.87893279 34.74119435 18.77685732 35.37123654 15.53271484 35.30151367 C10.39233863 33.78458751 6.79858715 29.35543463 3.1730957 25.57495117 C1.68697132 24.03085308 0.16697073 22.52763195 -1.36132812 21.02539062 C-9.62321639 12.65669826 -9.62321639 12.65669826 -9.87890625 5.58984375 C-7.65400375 1.04330386 -5.14046339 -0.38671376 0 0 Z " fill="#000000" transform="translate(170.87890625,35.41015625)"/>
<path d="M0 0 C2.01909606 -0.00218202 4.03764149 -0.02033849 6.05664062 -0.03930664 C7.33539063 -0.04124023 8.61414063 -0.04317383 9.93164062 -0.04516602 C11.10130371 -0.0492749 12.2709668 -0.05338379 13.47607422 -0.05761719 C16.64961048 0.18464678 18.82868696 0.7596987 21.65820312 2.18530273 C23.82539518 4.84503844 23.65355176 6.2736787 23.47070312 9.74780273 C22.38669646 14.33398476 22.38669646 14.33398476 19.65820312 16.18530273 C16.97739615 16.50786223 14.53293192 16.65331995 11.84960938 16.65405273 C11.08647934 16.66166626 10.3233493 16.66927979 9.53709412 16.67712402 C7.92409535 16.68792248 6.31102668 16.69077913 4.69799805 16.6862793 C2.23237228 16.68530733 -0.23013659 16.72691582 -2.6953125 16.77124023 C-4.26366539 16.77644775 -5.83202909 16.77913542 -7.40039062 16.77905273 C-8.1359166 16.795448 -8.87144257 16.81184326 -9.6292572 16.82873535 C-13.42131307 16.77765012 -15.01766537 16.49373647 -17.80688477 13.83959961 C-19.68338876 10.59459381 -19.96989402 8.87537343 -19.34179688 5.18530273 C-14.28190024 -1.27042745 -7.53265945 -0.00091327 0 0 Z " fill="#000000" transform="translate(363.341796875,121.814697265625)"/>
<path d="M0 0 C2.01909606 -0.00218202 4.03764149 -0.02033849 6.05664062 -0.03930664 C7.33539063 -0.04124023 8.61414063 -0.04317383 9.93164062 -0.04516602 C11.10130371 -0.0492749 12.2709668 -0.05338379 13.47607422 -0.05761719 C16.64961048 0.18464678 18.82868696 0.7596987 21.65820312 2.18530273 C23.82539518 4.84503844 23.65355176 6.2736787 23.47070312 9.74780273 C22.38669646 14.33398476 22.38669646 14.33398476 19.65820312 16.18530273 C16.97739615 16.50786223 14.53293192 16.65331995 11.84960938 16.65405273 C11.08647934 16.66166626 10.3233493 16.66927979 9.53709412 16.67712402 C7.92409535 16.68792248 6.31102668 16.69077913 4.69799805 16.6862793 C2.23237228 16.68530733 -0.23013659 16.72691582 -2.6953125 16.77124023 C-4.26366539 16.77644775 -5.83202909 16.77913542 -7.40039062 16.77905273 C-8.1359166 16.795448 -8.87144257 16.81184326 -9.6292572 16.82873535 C-13.40372663 16.77788704 -15.0301843 16.4732728 -17.84204102 13.87475586 C-19.8874036 10.20688768 -19.449021 8.17130958 -18.34179688 4.18530273 C-14.12517541 -1.56463563 -6.36601091 -0.00077182 0 0 Z " fill="#000000" transform="translate(144.341796875,121.814697265625)"/>
<path d="M0 0 C0.66 -0.0103125 1.32 -0.020625 2 -0.03125 C4.98875045 0.76263684 6.09594428 2.07388806 8 4.5 C8.39859861 7.12153796 8.5621671 9.31608029 8.53125 11.93359375 C8.5350769 12.64854507 8.53890381 13.3634964 8.54284668 14.10011292 C8.54556259 15.60882987 8.53822364 17.11759417 8.52148438 18.6262207 C8.50009741 20.92702095 8.52127608 23.22468813 8.546875 25.52539062 C8.54423105 26.99479852 8.53910466 28.46420447 8.53125 29.93359375 C8.53934692 30.61707382 8.54744385 31.30055389 8.55578613 32.00474548 C8.46346597 36.74496572 7.35966896 39.17758228 4 42.5 C2 43.1640625 2 43.1640625 0 43.125 C-0.99 43.14433594 -0.99 43.14433594 -2 43.1640625 C-5.16406838 42.11349292 -6.20377972 40.25936757 -8 37.5 C-8.39052165 34.83395289 -8.56273826 32.59159085 -8.53125 29.93359375 C-8.5350769 29.2176857 -8.53890381 28.50177765 -8.54284668 27.76417542 C-8.54555816 26.25723863 -8.53825039 24.75025416 -8.52148438 23.2434082 C-8.50002796 20.94050134 -8.52132369 18.64070219 -8.546875 16.33789062 C-8.5442322 14.86978481 -8.5391082 13.40168092 -8.53125 11.93359375 C-8.53934692 11.24808945 -8.54744385 10.56258514 -8.55578613 9.85630798 C-8.48954224 6.47154674 -8.20774954 4.76471055 -6.09179688 2.06860352 C-3.82065092 0.36550912 -2.80151258 -0.04377363 0 0 Z " fill="#000000" transform="translate(256,-0.5)"/>
<path d="M0 0 C11.88 0 23.76 0 36 0 C36 8.91 36 17.82 36 27 C30.39 27 24.78 27 19 27 C19 18.42 19 9.84 19 1 C12.73 1 6.46 1 0 1 C0 0.67 0 0.34 0 0 Z " fill="#2A4B63" transform="translate(238,393)"/>
<path d="M0 0 C12.93469477 -0.0926932 25.86931048 -0.16376184 38.80426979 -0.20724869 C44.81055053 -0.22812055 50.81660398 -0.25643146 56.82275391 -0.30175781 C62.61937061 -0.34522898 68.41576872 -0.36914013 74.21253586 -0.37950897 C76.4237347 -0.38689798 78.63492162 -0.40132696 80.84602737 -0.42292023 C83.944001 -0.4519704 87.04107217 -0.45595523 90.13916016 -0.45410156 C91.50941345 -0.47567322 91.50941345 -0.47567322 92.90734863 -0.49768066 C98.42899344 -0.46194695 101.65332148 0.25901703 106 4 C108.45598077 7.68397116 108.2271532 10.44723808 108.125 14.6875 C108.08375 17.100625 108.0425 19.51375 108 22 C102.39 22 96.78 22 91 22 C90.625 14.8125 90.625 14.8125 90.52197266 12.57739258 C90.27478621 8.43618068 89.58916258 5.97290646 88 2 C58.96 1.67 29.92 1.34 0 1 C0 0.67 0 0.34 0 0 Z " fill="#D7D6DD" transform="translate(206,435)"/>
<path d="M0 0 C13.19051383 -0.57628458 13.19051383 -0.57628458 18 3 C21.54939015 7.46209048 21.36353843 11.38542747 21.1875 16.8125 C21.125625 19.514375 21.06375 22.21625 21 25 C15.39 25 9.78 25 4 25 C3.96261719 23.78183594 3.92523438 22.56367188 3.88671875 21.30859375 C3.82101883 19.6848671 3.75457291 18.06117051 3.6875 16.4375 C3.66494141 15.63763672 3.64238281 14.83777344 3.61914062 14.01367188 C3.37907972 8.66686073 2.3992119 4.79199159 0 0 Z " fill="#2A4C65" transform="translate(333,472)"/>
</svg>
