<?xml version="1.0" encoding="UTF-8"?>
<svg version="1.1" xmlns="http://www.w3.org/2000/svg" width="512" height="512">
<path d="M0 0 C1.23416159 -0.00445784 2.46832318 -0.00891569 3.7398836 -0.01350862 C5.11685353 -0.01341932 6.49382344 -0.01322946 7.87079334 -0.01294994 C9.32786129 -0.01624858 10.78492833 -0.01997414 12.2419942 -0.02409142 C16.25592976 -0.03411963 20.26985036 -0.03782953 24.28379667 -0.04048073 C28.6090972 -0.04438135 32.93438587 -0.05395985 37.25967884 -0.0626936 C47.7101678 -0.08246479 58.16065774 -0.09252501 68.61116073 -0.10142139 C73.53084372 -0.10580318 78.45052564 -0.11117027 83.37020779 -0.11641026 C99.72152165 -0.13342313 116.07283483 -0.14791774 132.42415619 -0.155159 C136.66831621 -0.15706893 140.91247623 -0.15898926 145.15663624 -0.16094494 C146.7389602 -0.16167055 146.7389602 -0.16167055 148.3532503 -0.16241082 C165.4451845 -0.17071275 182.53704876 -0.19605217 199.62895241 -0.22852562 C217.17139993 -0.26158371 234.71381189 -0.27960662 252.25629073 -0.28280324 C262.10795542 -0.28496948 271.9595181 -0.29373491 281.81115246 -0.31926441 C290.20056511 -0.34095432 298.58985097 -0.34903025 306.97928848 -0.33929763 C311.25978778 -0.33474797 315.5400254 -0.3366777 319.82048893 -0.35605907 C323.74074993 -0.37365621 327.66055769 -0.37272134 331.58082328 -0.35716178 C332.99742658 -0.35478044 334.41406097 -0.35913661 335.83061668 -0.37099043 C343.68600593 -0.432642 349.45693515 -0.22247366 356.12465382 4.13422108 C358.18324757 6.38812733 358.18324757 6.38812733 359.56215382 8.69672108 C360.03523975 9.46113514 360.50832569 10.2255492 360.99574757 11.01312733 C363.29310223 15.32961031 363.2691791 19.2101379 363.26166821 23.97176933 C363.26432003 24.78265427 363.26697186 25.59353921 363.26970404 26.42899641 C363.2774157 29.16945899 363.27795693 31.9098769 363.27855396 34.65034962 C363.28256736 36.62571691 363.28700538 38.60108339 363.29183352 40.57644886 C363.30381864 46.0231195 363.30945196 51.46978128 363.31401467 56.91646254 C363.31996345 62.78373748 363.33157512 68.65100177 363.34230518 74.51826954 C363.36568585 88.02701821 363.38023903 101.53577017 363.3925346 115.04453286 C363.39739564 120.38475903 363.4027216 125.72498466 363.40815019 131.06521029 C363.43268464 155.24852966 363.45376049 179.43185005 363.46584606 203.61517906 C363.4687674 209.37323541 363.47173492 215.13129173 363.47475147 220.88934803 C363.47512238 221.60471627 363.47549329 222.32008452 363.47587544 223.05713059 C363.4880294 246.24808936 363.51897054 269.43897221 363.560673 292.62989533 C363.60346551 316.4704889 363.63008772 340.31104238 363.63532078 364.15167539 C363.63606122 367.51941728 363.6369719 370.88715911 363.63797855 374.25490093 C363.63816917 374.91769943 363.63835978 375.58049793 363.63855617 376.26338123 C363.64185142 386.2671526 363.65923826 396.27083665 363.68386936 406.27457333 C363.71184669 417.65616864 363.72287933 429.03761965 363.7116739 440.41924668 C363.70648136 446.22706091 363.70941316 452.03457286 363.73413944 457.84234333 C363.75659198 463.16041596 363.75592275 468.47796845 363.73693557 473.79604995 C363.73412999 475.71874363 363.739765 477.64147228 363.75474851 479.56410963 C363.89572498 498.83383426 363.89572498 498.83383426 358.12465382 506.13422108 C353.25088638 510.70288369 348.83585931 512.25743122 342.24930763 512.26844215 C341.01514604 512.2729 339.78098446 512.27735784 338.50942403 512.28195077 C337.13245411 512.28186147 335.75548419 512.28167161 334.37851429 512.2813921 C332.92144634 512.28469073 331.4643793 512.2884163 330.00731343 512.29253358 C325.99337787 512.30256178 321.97945727 512.30627169 317.96551096 512.30892289 C313.64021043 512.3128235 309.31492176 512.322402 304.98962879 512.33113575 C294.53913983 512.35090694 284.0886499 512.36096716 273.63814691 512.36986354 C268.71846391 512.37424533 263.79878199 512.37961242 258.87909985 512.38485241 C242.52778598 512.40186528 226.1764728 512.41635989 209.82515144 512.42360115 C205.58099142 512.42551109 201.3368314 512.42743141 197.09267139 512.42938709 C195.51034743 512.4301127 195.51034743 512.4301127 193.89605733 512.43085297 C176.80412313 512.43915491 159.71225888 512.46449433 142.62035523 512.49696777 C125.0779077 512.53002586 107.53549574 512.54804878 89.9930169 512.55124539 C80.14135221 512.55341164 70.28978953 512.56217706 60.43815517 512.58770657 C52.04874253 512.60939648 43.65945666 512.61747241 35.27001915 512.60773978 C30.98951985 512.60319013 26.70928224 512.60511985 22.4288187 512.62450123 C18.5085577 512.64209836 14.58874994 512.64116349 10.66848435 512.62560394 C9.25188106 512.6232226 7.83524666 512.62757876 6.41869096 512.63943259 C-1.4366983 512.70108416 -7.20762752 512.49091581 -13.87534618 508.13422108 C-15.93393993 505.88031483 -15.93393993 505.88031483 -17.31284618 503.57172108 C-18.02247509 502.42509998 -18.02247509 502.42509998 -18.74643993 501.25531483 C-21.0437946 496.93883184 -21.01987147 493.05830425 -21.01236057 488.29667282 C-21.0150124 487.48578788 -21.01766423 486.67490295 -21.02039641 485.83944574 C-21.02810807 483.09898316 -21.0286493 480.35856526 -21.02924633 477.61809254 C-21.03325973 475.64272524 -21.03769774 473.66735877 -21.04252589 471.6919933 C-21.054511 466.24532265 -21.06014433 460.79866087 -21.06470704 455.35197961 C-21.07065582 449.48470468 -21.08226749 443.61744038 -21.09299755 437.75017262 C-21.11637822 424.24142394 -21.1309314 410.73267199 -21.14322697 397.22390929 C-21.14808801 391.88368312 -21.15341397 386.54345749 -21.15884256 381.20323186 C-21.18337701 357.0199125 -21.20445286 332.83659211 -21.21653843 308.65326309 C-21.21945977 302.89520674 -21.22242729 297.13715042 -21.22544384 291.37909412 C-21.22581475 290.66372588 -21.22618566 289.94835764 -21.22656781 289.21131157 C-21.23872177 266.02035279 -21.26966291 242.82946994 -21.31136536 219.63854682 C-21.35415788 195.79795325 -21.38078009 171.95739978 -21.38601314 148.11676676 C-21.38675358 144.74902487 -21.38766427 141.38128304 -21.38867092 138.01354122 C-21.38886154 137.35074272 -21.38905215 136.68794422 -21.38924854 136.00506092 C-21.39254379 126.00128956 -21.40993063 115.99760551 -21.43456173 105.99386883 C-21.46253906 94.61227352 -21.47357169 83.2308225 -21.46236627 71.84919547 C-21.45717373 66.04138124 -21.46010552 60.2338693 -21.48483181 54.42609882 C-21.50728435 49.10802619 -21.50661512 43.79047371 -21.48762794 38.47239221 C-21.48482236 36.54969853 -21.49045736 34.62696987 -21.50544088 32.70433252 C-21.64641735 13.43460789 -21.64641735 13.43460789 -15.87534618 6.13422108 C-11.00157875 1.56555846 -6.58655168 0.01101093 0 0 Z " fill="#C4D2DC" transform="translate(84.87534618377686,-0.13422107696533203)"/>
<path d="M0 0 C126.72 0 253.44 0 384 0 C384 84 384 84 379 94 C373.6542708 98.5162195 370.00724022 100.12271526 363.12465382 100.13422108 C361.27341143 100.14090784 361.27341143 100.14090784 359.38477021 100.14772969 C358.00780029 100.14764039 356.63083037 100.14745054 355.25386047 100.14717102 C353.79679252 100.15046965 352.33972548 100.15419522 350.88265961 100.1583125 C346.86872406 100.16834071 342.85480346 100.17205061 338.84085715 100.17470181 C334.51555661 100.17860243 330.19026794 100.18818093 325.86497498 100.19691467 C315.41448602 100.21668587 304.96399608 100.22674609 294.51349309 100.23564246 C289.59381009 100.24002426 284.67412817 100.24539135 279.75444603 100.25063133 C263.40313217 100.2676442 247.05181898 100.28213882 230.70049763 100.28938007 C226.4563376 100.29129001 222.21217758 100.29321034 217.96801758 100.29516602 C216.38569362 100.29589163 216.38569362 100.29589163 214.77140351 100.2966319 C197.67946931 100.30493383 180.58760506 100.33027325 163.49570141 100.36274669 C145.95325389 100.39580479 128.41084192 100.4138277 110.86836308 100.41702431 C101.01669839 100.41919056 91.16513572 100.42795598 81.31350136 100.45348549 C72.92408871 100.4751754 64.53480284 100.48325133 56.14536534 100.47351871 C51.86486604 100.46896905 47.58462842 100.47089877 43.30416489 100.49028015 C39.38390388 100.50787729 35.46409612 100.50694242 31.54383054 100.49138286 C30.12722724 100.48900152 28.71059284 100.49335768 27.29403714 100.50521151 C19.43864788 100.56686308 13.66771866 100.35669473 7 96 C4.94140625 93.74609375 4.94140625 93.74609375 3.5625 91.4375 C3.08941406 90.67308594 2.61632812 89.90867187 2.12890625 89.12109375 C-11.83228971 62.8895041 0 29.71550585 0 0 Z " fill="#7A8C98" transform="translate(64,412)"/>
<path d="M0 0 C3.03940135 -0.06184866 6.07894148 -0.10523168 9.11867785 -0.14693522 C10.54243511 -0.17163529 11.96607059 -0.20532625 13.38937545 -0.2488935 C26.45023953 -0.64539943 26.45023953 -0.64539943 32.45185876 3.56194091 C36.2839894 7.50544481 37.3535359 10.79592781 37.35931802 16.23643661 C37.36777749 17.46310546 37.37623696 18.68977431 37.38495278 19.95361495 C37.37912041 21.30493465 37.37297593 22.65625302 37.36655068 24.00757003 C37.37061778 25.43698186 37.37596043 26.86639055 37.38248086 28.29579329 C37.39614525 32.17188808 37.39085919 36.04774303 37.3813436 39.92384195 C37.37374096 43.98362326 37.38079443 48.04338422 37.3855021 52.10316634 C37.39095852 58.92159876 37.3837717 65.73993367 37.36948037 72.55835128 C37.35316058 80.43538808 37.35843787 88.31219185 37.37495959 96.18922299 C37.38858554 102.95711006 37.39048851 109.72492707 37.38264358 116.49282342 C37.37797231 120.53280625 37.37732703 124.57267965 37.38725305 128.6126554 C37.39593638 132.41222228 37.38987609 136.21148962 37.37257028 140.01102424 C37.36861241 141.40336525 37.3697275 142.79573158 37.37635827 144.18806243 C37.38459094 146.09276833 37.37242312 147.99752948 37.35931802 149.90220809 C37.35818694 150.96683744 37.35705586 152.0314668 37.35589051 153.12835765 C36.75195074 157.93471055 35.01527746 161.17367207 31.47836709 164.44531417 C27.22810213 167.31424302 23.50349281 167.28126059 18.55873513 167.27998519 C17.79678096 167.28366188 17.03482679 167.28733857 16.2497831 167.29112667 C13.68884533 167.30216647 11.12794814 167.30600783 8.56699014 167.30981612 C6.73394032 167.31608048 4.90089178 167.32272725 3.06784463 167.32972884 C-1.91775436 167.34713938 -6.90334376 167.35769046 -11.88896561 167.36593437 C-15.00286836 167.37108377 -18.11676813 167.37715949 -21.23066878 167.3834455 C-30.97072847 167.4024966 -40.71078057 167.41672866 -50.45085531 167.42505747 C-61.69926481 167.43483461 -72.94747778 167.46116696 -84.19581801 167.50155836 C-92.88719717 167.53169874 -101.57851991 167.54652432 -110.26995033 167.54983848 C-115.46249247 167.55219106 -120.65482463 167.56117877 -125.84731078 167.58629966 C-130.73190879 167.60954943 -135.61615807 167.61382607 -140.50079703 167.60353827 C-142.2930674 167.60304207 -144.08535476 167.60938731 -145.87757277 167.62309432 C-148.32581743 167.64077037 -150.77280473 167.633729 -153.22105002 167.62056136 C-154.28317591 167.63701523 -154.28317591 167.63701523 -155.36675888 167.6538015 C-160.35889684 167.58904327 -163.15549021 166.22252762 -167.02163291 163.13281417 C-170.61718554 159.04132325 -171.14722487 155.65370807 -171.16880393 150.30766463 C-171.17595923 149.09215926 -171.18311454 147.87665389 -171.19048667 146.62431502 C-171.19332687 145.27517893 -171.19603861 143.92604255 -171.19863486 142.57690597 C-171.20490058 141.15764361 -171.21154748 139.7383829 -171.21854758 138.31912398 C-171.23957569 133.65677189 -171.24994808 128.99441951 -171.25991416 124.33203292 C-171.26396204 122.72649597 -171.26807897 121.12095918 -171.27226424 119.51542258 C-171.29131235 111.9730441 -171.30554476 104.43067538 -171.31387621 96.88827747 C-171.32365075 88.18338487 -171.34997736 79.47874641 -171.3903771 70.77394336 C-171.42053765 64.04433093 -171.43534498 57.31479135 -171.43865722 50.58511263 C-171.4410076 46.56626288 -171.44996627 42.54768476 -171.4751184 38.52890754 C-171.49840359 34.74740241 -171.50263084 30.96634767 -171.49235702 27.18478942 C-171.49186166 25.79888004 -171.49818212 24.41294845 -171.51191306 23.027107 C-171.63431653 9.93817206 -171.63431653 9.93817206 -167.02163291 5.13281417 C-163.22238889 1.56140167 -160.95852294 0.63133494 -155.75802207 0.61383224 C-153.86295669 0.59296302 -153.86295669 0.59296302 -151.92960715 0.5716722 C-150.53612747 0.57638575 -149.14264903 0.58147977 -147.74917197 0.58691573 C-146.27489231 0.57817547 -144.80062212 0.5676881 -143.32636619 0.55558944 C-139.31830084 0.52768096 -135.310544 0.52432684 -131.30239558 0.52530932 C-127.07501118 0.52216601 -122.84776237 0.49649372 -118.62044883 0.47332931 C-110.57800687 0.43269341 -102.53564565 0.41242704 -94.49311686 0.39935541 C-85.47368375 0.38370122 -76.45439795 0.34520135 -67.43504739 0.30476213 C-56.3781844 0.2557383 -45.32130288 0.21222317 -34.26436973 0.18267989 C-33.48233404 0.18049744 -32.70029836 0.17831499 -31.89456463 0.1760664 C-28.06035702 0.16613109 -24.2262187 0.16039694 -20.39199805 0.16299987 C-13.59269045 0.16517384 -6.79803619 0.14277882 0 0 Z " fill="#528FD7" transform="translate(323.0216329097748,63.867185831069946)"/>
<path d="M0 0 C4.98041064 -0.09948577 9.96023252 -0.17175686 14.94140625 -0.21972656 C16.63291511 -0.2397406 18.32435567 -0.26696073 20.015625 -0.30175781 C22.45850554 -0.35073065 24.90046511 -0.37307033 27.34375 -0.390625 C28.08991577 -0.41127014 28.83608154 -0.43191528 29.6048584 -0.45318604 C35.16033665 -0.45551674 39.34402148 0.94247962 44 4 C46.05859375 6.25390625 46.05859375 6.25390625 47.4375 8.5625 C47.91058594 9.32691406 48.38367188 10.09132813 48.87109375 10.87890625 C51.00862129 14.89509121 51.124466 18.06512145 51.12304783 22.55362225 C51.12420167 23.22567976 51.12535552 23.89773727 51.12654433 24.59016016 C51.12920628 26.85828294 51.12469227 29.12633575 51.12025452 31.39445496 C51.1206903 33.03046524 51.12156535 34.66647545 51.12284368 36.30248529 C51.12508716 40.81073933 51.12106935 45.31896976 51.11606562 49.8272208 C51.11175921 54.68406416 51.11320768 59.54090612 51.1139679 64.39775085 C51.11449301 72.81676234 51.11134752 81.23576608 51.10573006 89.65477562 C51.09761336 101.82734766 51.09499966 113.99991594 51.09374207 126.1724904 C51.09155181 145.92025288 51.08489245 165.66801124 51.07543945 185.41577148 C51.06626465 204.60229471 51.05918415 223.78881682 51.05493164 242.9753418 C51.05466892 244.15740388 51.05440619 245.33946595 51.05413551 246.55734809 C51.0528305 252.4872284 51.05156678 258.41710872 51.05032361 264.34698904 C51.03995183 313.56466236 51.0220596 362.78233064 51 412 C39.78 412 28.56 412 17 412 C16.99857498 407.04633926 16.99714996 402.09267853 16.99568176 396.98890686 C16.98030642 351.5703065 16.94021549 306.15178116 16.87314438 260.73322666 C16.86437755 254.78137989 16.85582776 248.82953282 16.84741211 242.87768555 C16.84573305 241.69277228 16.84405398 240.50785901 16.84232404 239.28703927 C16.81564908 220.09723117 16.8065586 200.90745293 16.80395857 181.71762819 C16.80089989 162.02933687 16.77896302 142.34113196 16.73947543 122.65287966 C16.71570221 110.50265503 16.70668095 98.35260287 16.71648689 86.20235818 C16.7217997 77.87220766 16.70878709 69.54221178 16.6813371 61.21210528 C16.66603811 56.40492083 16.6588449 51.59808244 16.67340279 46.79088783 C16.68655785 42.38801209 16.67665305 37.98580689 16.64856227 33.58300667 C16.64245404 31.99201876 16.64474074 30.40097127 16.65637074 28.81001414 C16.74970545 16.54514831 16.74970545 16.54514831 11 6 C8.71268292 4.22092457 6.6811527 3.21870577 4 2 C2.66431929 1.33804889 1.33040944 0.67248267 0 0 Z " fill="#B6C4CF" transform="translate(397,0)"/>
<path d="M0 0 C1.31918427 -0.0087616 2.63836853 -0.01752319 3.99752808 -0.02655029 C7.60925713 -0.04931487 11.22027086 -0.04051978 14.83201218 -0.02465487 C18.61467136 -0.0119808 22.39727 -0.02374014 26.17993164 -0.03158569 C32.53184995 -0.04067793 38.88347743 -0.02870576 45.23535156 -0.00488281 C52.57520257 0.02232798 59.91435912 0.01351349 67.25419331 -0.01401484 C73.56011295 -0.03671728 79.86582374 -0.03990055 86.17177105 -0.02682149 C89.93625456 -0.01903309 93.70041182 -0.01796818 97.46487427 -0.03450394 C101.66189588 -0.05165255 105.85772358 -0.02787488 110.0546875 0 C111.30055634 -0.01012115 112.54642517 -0.02024231 113.83004761 -0.03067017 C122.17848336 0.07222183 122.17848336 0.07222183 126.30067444 2.86329651 C128.15692274 5.85587539 128.64672687 7.34748517 128.62670898 10.83276367 C128.63278671 11.8405336 128.63886444 12.84830353 128.64512634 13.88661194 C128.61582787 15.50242409 128.61582787 15.50242409 128.5859375 17.15087891 C128.58360611 18.26631577 128.58127472 19.38175262 128.57887268 20.5309906 C128.5691423 22.88540308 128.54737181 25.23979238 128.5144043 27.59399414 C128.46497502 31.19989635 128.45292146 34.80443403 128.44726562 38.41064453 C128.43318014 40.69907052 128.41697592 42.98748466 128.3984375 45.27587891 C128.3930748 46.35511124 128.3877121 47.43434357 128.38218689 48.54627991 C128.36619949 49.55089767 128.3502121 50.55551544 128.33374023 51.59057617 C128.32310043 52.47262222 128.31246063 53.35466827 128.30149841 54.26344299 C128.00217074 56.86582943 127.44525281 58.45160151 126.02734375 60.64697266 C122.64475408 62.90203244 121.49351192 62.90104769 117.53041077 62.91439819 C116.38774246 62.92292816 115.24507416 62.93145813 114.06777954 62.94024658 C112.81314911 62.93934021 111.55851868 62.93843384 110.26586914 62.9375 C108.93202843 62.94348393 107.59819119 62.95028916 106.26435852 62.95785522 C102.64039774 62.97553523 99.01653137 62.98021141 95.39253163 62.9814868 C92.36810349 62.98338527 89.34369737 62.99074211 86.3192777 62.99783099 C79.18460153 63.01411975 72.04997583 63.01899946 64.9152832 63.01757812 C57.55284728 63.01637619 50.19070427 63.03748709 42.8283425 63.06906545 C36.50893716 63.09520556 30.18962763 63.1059464 23.87016863 63.10466731 C20.09507894 63.10415705 16.32024958 63.10987521 12.5452137 63.13102341 C8.99514207 63.15036827 5.44558011 63.15055663 1.89549065 63.13599014 C-0.02888577 63.13289752 -1.95326203 63.14960432 -3.87756348 63.16687012 C-5.02305161 63.15848114 -6.16853973 63.15009216 -7.34873962 63.14144897 C-8.34406676 63.14253851 -9.3393939 63.14362804 -10.36488247 63.1447506 C-13.69365696 62.50934636 -14.85825463 61.2347838 -16.97265625 58.64697266 C-18.19659026 56.19910463 -18.1258179 54.55485764 -18.16552734 51.81762695 C-18.18159027 50.81285812 -18.1976532 49.80808929 -18.21420288 48.77287292 C-18.2586073 44.17565542 -18.29971563 39.5785829 -18.32275391 34.98120117 C-18.33931946 32.55532238 -18.366617 30.1294925 -18.40478516 27.70385742 C-18.45950164 24.20937737 -18.48142066 20.71604193 -18.49609375 17.22119141 C-18.51876312 16.1377092 -18.5414325 15.05422699 -18.56478882 13.93791199 C-18.56193878 12.92368668 -18.55908875 11.90946136 -18.55615234 10.86450195 C-18.5642392 9.9756279 -18.57232605 9.08675385 -18.58065796 8.17094421 C-16.31910612 -1.21733946 -7.84517031 -0.06373238 0 0 Z " fill="#A1E52E" transform="translate(200.97265625,95.35302734375)"/>
<path d="M0 0 C4.44736742 -0.09932276 8.89413713 -0.17168003 13.34228516 -0.21972656 C14.85346736 -0.23976791 16.36457272 -0.26700905 17.87548828 -0.30175781 C20.05520643 -0.35061109 22.23389431 -0.37304224 24.4140625 -0.390625 C25.7232666 -0.41157227 27.0324707 -0.43251953 28.38134766 -0.45410156 C32.67276414 0.08442459 34.70991666 1.22560185 38 4 C40.76312593 7.79692406 41.3759946 10.44011971 41.38095093 15.10362244 C41.39364014 16.94362572 41.39364014 16.94362572 41.40658569 18.82080078 C41.40075332 20.17212048 41.39460884 21.52343885 41.38818359 22.87475586 C41.39225069 24.30416769 41.39759334 25.73357638 41.40411377 27.16297913 C41.41777816 31.03907391 41.4124921 34.91492886 41.40297651 38.79102778 C41.39537387 42.85080909 41.40242734 46.91057005 41.40713501 50.97035217 C41.41259143 57.78878459 41.40540461 64.6071195 41.39111328 71.42553711 C41.37479349 79.30257392 41.38007078 87.17937768 41.3965925 95.05640882 C41.41021845 101.82429589 41.41212142 108.5921129 41.40427649 115.36000925 C41.39960521 119.39999208 41.39895994 123.43986548 41.40888596 127.47984123 C41.41756929 131.27940812 41.411509 135.07867545 41.39420319 138.87821007 C41.39024532 140.27055108 41.39136041 141.66291741 41.39799118 143.05524826 C41.40622385 144.95995416 41.39405603 146.86471532 41.38095093 148.76939392 C41.37981985 149.83402328 41.37868877 150.89865263 41.37752342 151.99554348 C40.77358365 156.80189638 39.03691037 160.0408579 35.5 163.3125 C31.27536416 166.16412919 27.62005155 166.13470278 22.70703125 166.09765625 C21.64798836 166.09553383 21.64798836 166.09553383 20.56755066 166.09336853 C18.31582374 166.08777764 16.06419679 166.07522688 13.8125 166.0625 C12.28450665 166.05748382 10.75651173 166.05292112 9.22851562 166.04882812 C5.48563865 166.0378112 1.74283627 166.02055287 -2 166 C-1.39414062 165.71898437 -0.78828125 165.43796875 -0.1640625 165.1484375 C4.08793351 162.89196308 7.24333484 159.46618361 9 155 C9.30575911 152.18680909 9.30575911 152.18680909 9.26742554 149.05459595 C9.28022049 147.22927589 9.28022049 147.22927589 9.29327393 145.36708069 C9.29257493 144.0215758 9.29165188 142.67607101 9.29052734 141.33056641 C9.29651283 139.91115465 9.30331842 138.49174614 9.31088257 137.07234192 C9.32854779 133.21897561 9.33323816 129.36569813 9.33451414 125.51229525 C9.335936 123.10409783 9.34020626 120.69592298 9.34550858 118.28773117 C9.36401056 109.88418901 9.37217898 101.48071029 9.37060547 93.07714844 C9.36940401 85.24724403 9.39050667 77.41761525 9.4220928 69.58778059 C9.44825547 62.86238326 9.45897277 56.13707595 9.45769465 49.41162813 C9.45718501 45.39616288 9.46286902 41.3809426 9.48405075 37.36552811 C9.5034332 33.58809215 9.50355797 29.81113483 9.48901749 26.03368187 C9.48692826 24.64939232 9.49163719 23.26507281 9.5037384 21.88083458 C9.78094597 12.07597818 9.78094597 12.07597818 5 4 C2.3908613 1.67722584 2.3908613 1.67722584 0 0 Z " fill="#0573CE" transform="translate(319,65)"/>
<path d="M0 0 C11.22 0 22.44 0 34 0 C34.11325213 10.7795119 34.20486052 21.55862449 34.25906086 32.33859825 C34.28508281 37.34493606 34.3203448 42.35084345 34.37719727 47.35693359 C34.43178212 52.19397804 34.46147613 57.03061017 34.47438622 61.867939 C34.48357878 63.70743926 34.50152939 65.54691861 34.52865028 67.38624191 C34.80158536 86.6749841 34.80158536 86.6749841 29 94 C23.4415583 99.20975434 18.42115056 100.14837037 11.05078125 100.09765625 C10.27816452 100.0962413 9.50554779 100.09482635 8.70951843 100.09336853 C6.24380611 100.08777466 3.77818485 100.07522333 1.3125 100.0625 C-0.36002473 100.05748421 -2.03255088 100.05292144 -3.70507812 100.04882812 C-7.80342046 100.03780724 -11.90169479 100.02054684 -16 100 C-14.04297985 98.6953199 -12.06417543 97.42257633 -10.0625 96.1875 C-5.91837589 93.22741135 -2.84134779 89.77206353 -1 85 C-0.79089832 82.21575096 -0.68886135 79.52827337 -0.68115234 76.74316406 C-0.67110672 75.91352646 -0.6610611 75.08388885 -0.65071106 74.22911072 C-0.61986018 71.49128909 -0.60283864 68.75356533 -0.5859375 66.015625 C-0.56722738 64.11561235 -0.54765409 62.21560803 -0.5272522 60.31561279 C-0.47590849 55.31798202 -0.4362947 50.3203243 -0.39910889 45.3225708 C-0.35908332 40.22148968 -0.30798436 35.12052088 -0.2578125 30.01953125 C-0.1610266 20.01309185 -0.07765379 10.00660618 0 0 Z " fill="#596C76" transform="translate(414,412)"/>
<path d="M0 0 C1.05823501 -0.00913666 1.05823501 -0.00913666 2.1378485 -0.01845789 C4.50780242 -0.03514049 6.87722215 -0.03030476 9.2472229 -0.0255127 C10.94397034 -0.03285006 12.64071278 -0.04143531 14.33744812 -0.05117798 C18.95113943 -0.0734393 23.56465238 -0.07632231 28.17839003 -0.07443047 C32.02785893 -0.07431096 35.87728977 -0.08286694 39.72674811 -0.09120798 C48.80798025 -0.11045916 57.88912047 -0.11331984 66.97036743 -0.10656738 C76.34253464 -0.09992686 85.71430825 -0.12278743 95.08639562 -0.15988111 C103.12895365 -0.19055911 111.17138496 -0.20194016 119.21400034 -0.1980443 C124.01921535 -0.19597461 128.82412422 -0.20148962 133.62928391 -0.22593689 C138.14874353 -0.24816982 142.66756274 -0.24635524 147.18702507 -0.22600937 C148.84586647 -0.22259302 150.50475069 -0.22771531 152.16353416 -0.24199295 C154.42853867 -0.26014328 156.69136082 -0.24747144 158.95629883 -0.22705078 C160.85718293 -0.22811954 160.85718293 -0.22811954 162.79646873 -0.2292099 C166.99278193 0.56171378 168.47886982 2.09790732 171.10513306 5.39440918 C171.66763306 7.95690918 171.66763306 7.95690918 171.10513306 10.39440918 C169.23485821 12.638739 167.71626902 14.0888412 165.10513306 15.39440918 C162.87413296 15.49971774 160.63991039 15.53837417 158.40644836 15.54830933 C157.70997989 15.55269158 157.01351142 15.55707383 156.29593784 15.56158888 C153.95067666 15.57499603 151.60545308 15.58116 149.26016235 15.58728027 C147.58327056 15.59517968 145.90638047 15.60344853 144.22949219 15.61206055 C138.71279528 15.63829754 133.19609072 15.65358904 127.67935181 15.66784668 C125.78188382 15.67320552 123.88441589 15.67858302 121.98694801 15.68397903 C114.09565101 15.70560949 106.20435607 15.72434729 98.31303692 15.73560143 C86.99483411 15.75184773 75.67697423 15.78504008 64.35890073 15.84200227 C56.40555711 15.88066899 48.45230535 15.90023019 40.49887019 15.90552199 C35.74614295 15.90917972 30.99378132 15.92124556 26.24115562 15.95362473 C21.77017803 15.98364826 17.29978836 15.99003779 12.82873154 15.97824097 C11.18761189 15.97801976 9.54646541 15.98636412 7.90543938 16.00389481 C5.66450522 16.02653144 3.425713 16.01832011 1.18476868 16.00241089 C-0.06903752 16.00572104 -1.32284372 16.00903118 -2.61464405 16.01244164 C-6.81434999 15.22116779 -8.32560061 13.75166623 -10.89486694 10.39440918 C-10.89486694 6.94526433 -10.70829682 4.60659682 -8.76329613 1.70812225 C-5.90302909 -0.3029629 -3.46576324 0.01020357 0 0 Z " fill="#7B8D99" transform="translate(175.89486694335938,256.6055908203125)"/>
<path d="M0 0 C2.875 2.0625 2.875 2.0625 5 5 C5 8.54361243 4.65850044 10.86591591 2.875 13.9375 C-0.18452459 15.6712306 -2.56817525 15.42145216 -6 15 C-8.4375 13.4375 -8.4375 13.4375 -10 11 C-10.5625 7.5 -10.5625 7.5 -10 4 C-6.99746894 0.65432253 -4.50513222 -1.01365475 0 0 Z " fill="#F6CD60" transform="translate(316,192)"/>
<path d="M0 0 C4.93731454 1.46290801 4.93731454 1.46290801 6.375 4 C6.87073337 7.89504791 6.95516848 10.09493717 4.8125 13.4375 C1.40780512 15.61999672 -0.65930012 15.63734462 -4.625 15 C-7.28606976 12.61186047 -8.40349624 10.98446115 -9.1875 7.5 C-8.02254303 2.32241345 -5.23369904 0 0 0 Z " fill="#F56673" transform="translate(199.625,192)"/>
<path d="M0 0 C1.875 1.125 1.875 1.125 3 3 C3.49573337 6.89504791 3.58016848 9.09493717 1.4375 12.4375 C-1.90506283 14.58016848 -4.10495209 14.49573337 -8 14 C-9.9375 13 -9.9375 13 -11 11 C-11.39302445 7.90493248 -11.62908496 5.95551234 -11 3 C-7.56705737 -1.13972494 -5.05326616 -1.64780418 0 0 Z " fill="#F9CE5E" transform="translate(241,193)"/>
<path d="M0 0 C4.42690311 1.44355536 4.42690311 1.44355536 5.875 3.9375 C6.34125573 6.69474065 6.38545632 9.18447717 5.875 11.9375 C3.68746717 14.6298481 2.29076045 14.87686827 -1.125 15.375 C-4.125 14.9375 -4.125 14.9375 -6.5 13.375 C-8.76413895 9.97879157 -8.76769755 7.93650698 -8.125 3.9375 C-5.45043116 0.79094842 -4.15592269 -0.08311845 0 0 Z " fill="#F96571" transform="translate(276.125,192.0625)"/>
</svg>
