<?xml version="1.0" encoding="UTF-8"?>
<svg version="1.1" xmlns="http://www.w3.org/2000/svg" width="512" height="512">
<path d="M0 0 C0.99422974 0.00215515 1.98845947 0.0043103 3.01281738 0.00653076 C17.48109955 0.05686686 31.66189071 0.35398296 45.875 3.3125 C46.85130371 3.51117676 47.82760742 3.70985352 48.83349609 3.91455078 C84.02018527 11.27612891 116.51671439 24.52150983 145.875 45.3125 C146.52178711 45.76850586 147.16857422 46.22451172 147.83496094 46.69433594 C158.29245599 54.13043662 167.70079592 62.35595497 176.875 71.3125 C177.45942871 71.87646484 178.04385742 72.44042969 178.64599609 73.02148438 C185.92761669 80.0559588 192.70836552 87.25922036 198.875 95.3125 C199.29458984 95.85567871 199.71417969 96.39885742 200.14648438 96.95849609 C207.82586503 106.95009902 214.58307223 117.39849626 220.875 128.3125 C221.30167969 129.04919922 221.72835938 129.78589844 222.16796875 130.54492188 C254.57313533 187.22903634 260.77121487 256.7898791 244.125 319.375 C237.53611639 343.05936541 227.62080745 366.04035915 214.31518555 386.73120117 C213.87859619 387.41158447 213.44200684 388.09196777 212.9921875 388.79296875 C212.60659668 389.37973389 212.22100586 389.96649902 211.82373047 390.57104492 C210.76261264 392.51879415 210.18196108 394.11324948 209.875 396.3125 C211.06326839 398.68281548 212.28663744 400.74372034 213.75 402.9375 C214.18836182 403.61627197 214.62672363 404.29504395 215.07836914 404.99438477 C216.66456738 407.44223476 218.27013984 409.87684667 219.875 412.3125 C221.23139678 414.39132185 222.58680801 416.47078698 223.94140625 418.55078125 C226.87227929 423.04604417 229.81003363 427.53668004 232.75390625 432.0234375 C236.53635667 437.79070398 240.29786831 443.57098043 244.03466797 449.36791992 C246.31459216 452.90474794 248.60719615 456.4324457 250.91796875 459.94921875 C251.42279785 460.72064209 251.92762695 461.49206543 252.44775391 462.28686523 C253.41132919 463.75875727 254.37823304 465.22847795 255.34912109 466.69555664 C261.08679213 475.48156575 261.71162637 483.00443678 260.875 493.3125 C258.81818342 500.85045482 253.03902126 505.84358458 246.875 510.3125 C243.23101368 512.04294924 240.35679589 512.56435595 236.3369875 512.57256222 C235.22896284 512.57962781 234.12093819 512.5866934 232.97933704 512.5939731 C231.76729183 512.59155802 230.55524663 512.58914293 229.30647278 512.58665466 C228.01477021 512.59189134 226.72306765 512.59712802 225.39222258 512.60252339 C221.80850569 512.61669975 218.22487554 512.61836675 214.64113462 512.61792648 C210.77526454 512.61957503 206.90943017 512.63264231 203.0435791 512.64411926 C194.59099449 512.66696617 186.13843498 512.67488964 177.68582368 512.67994571 C172.40664626 512.68320329 167.12747614 512.68972616 161.84830284 512.6969471 C147.22802496 512.71651313 132.60775386 512.73291715 117.98746204 512.73582363 C117.0519205 512.7360112 116.11637896 512.73619877 115.15248768 512.73639202 C113.25596027 512.73675827 111.35943286 512.73712197 109.46290544 512.73748314 C108.5214821 512.73766595 107.58005875 512.73784876 106.61010742 512.73803711 C105.66753315 512.73821766 104.72495888 512.73839821 103.75382175 512.73858423 C88.4836632 512.74212522 73.21364572 512.7691429 57.94353608 512.806535 C42.26100985 512.84462923 26.57855359 512.86398119 10.89598006 512.86428314 C2.09277677 512.86486749 -6.71025825 512.87334442 -15.5134182 512.90228081 C-23.01013759 512.92680971 -30.50662735 512.9340675 -38.00337603 512.91903328 C-41.82649575 512.9118703 -45.64916218 512.91269475 -49.47223091 512.93544388 C-53.6223376 512.9599018 -57.77141565 512.94538109 -61.92155457 512.92723083 C-63.12244616 512.9404308 -64.32333776 512.95363077 -65.56062001 512.96723074 C-74.05690099 512.88243461 -80.8941073 511.21705629 -87.26653928 505.33614153 C-92.06715962 500.26105441 -94.97420638 495.47916595 -95.3125 488.375 C-95.250625 487.364375 -95.18875 486.35375 -95.125 485.3125 C-95.93453125 485.06371094 -96.7440625 484.81492187 -97.578125 484.55859375 C-126.83001197 474.28177443 -152.89995217 454.4491386 -175.125 433.3125 C-175.69154297 432.77463867 -176.25808594 432.23677734 -176.84179688 431.68261719 C-184.88517925 423.99029957 -192.15463652 416.01836697 -198.79833984 407.08789062 C-200.1350347 405.29907115 -201.49692442 403.53185568 -202.86328125 401.765625 C-225.35584122 372.33759392 -240.04959482 337.02857856 -247.4375 300.875 C-247.58477539 300.15634766 -247.73205078 299.43769531 -247.88378906 298.69726562 C-250.82642499 283.2191385 -251.49883751 267.90630243 -251.4375 252.1875 C-251.43534485 251.19327026 -251.4331897 250.19904053 -251.43096924 249.17468262 C-251.38064113 234.70869635 -251.09176694 220.52230887 -248.125 206.3125 C-247.92100586 205.32024414 -247.71701172 204.32798828 -247.50683594 203.30566406 C-235.30909174 145.61938911 -204.84002487 92.03973877 -158.125 55.3125 C-157.16207031 54.53261719 -156.19914062 53.75273438 -155.20703125 52.94921875 C-125.62695039 29.44261457 -90.867063 13.64418155 -54.125 5.3125 C-53.40779785 5.14669434 -52.6905957 4.98088867 -51.95166016 4.81005859 C-34.68087549 0.87392627 -17.63630688 -0.06881994 0 0 Z " fill="#BCC2C6" transform="translate(251.125,-0.3125)"/>
<path d="M0 0 C1.47220505 0.00356506 1.47220505 0.00356506 2.97415161 0.00720215 C17.9015979 0.06367707 32.20486996 0.80202251 46.75 4.4375 C48.64685547 4.88802734 48.64685547 4.88802734 50.58203125 5.34765625 C54.02422349 6.256395 57.37347701 7.30949398 60.75 8.4375 C61.47010254 8.66775879 62.19020508 8.89801758 62.93212891 9.13525391 C90.51776086 17.97789619 114.87853403 31.44132576 136.75 50.4375 C137.56307617 51.13891113 137.56307617 51.13891113 138.39257812 51.85449219 C178.79050013 86.96883115 204.26059707 137.73877782 208.54345703 191.07617188 C209.57367338 207.84215133 209.48876555 224.83666822 206.75 241.4375 C206.64236328 242.13794434 206.53472656 242.83838867 206.42382812 243.56005859 C203.37175949 262.72170419 196.54658602 281.94170761 188.375 299.5 C188.06594727 300.16531738 187.75689453 300.83063477 187.43847656 301.51611328 C185.67449863 305.10823122 183.75061982 307.7871728 180.75 310.4375 C172.86979791 298.68109039 165.09425256 286.86170641 157.39990234 274.98291016 C155.19388276 271.57954228 152.98233682 268.17978234 150.77075195 264.7800293 C145.76908908 257.09092792 140.77092625 249.39954338 135.79711914 241.69238281 C133.4195454 238.00922526 131.02900713 234.33528495 128.62109375 230.671875 C128.10949707 229.89030029 127.59790039 229.10872559 127.07080078 228.3034668 C126.08457307 226.79730647 125.09480491 225.29345695 124.10107422 223.79223633 C120.75 218.66240159 120.75 218.66240159 120.75 216.4375 C121.45743851 216.42719254 122.16487701 216.41688507 122.89375305 216.40626526 C129.55931238 216.30830479 136.22478432 216.20579237 142.89019489 216.09816074 C146.31698228 216.04298647 149.74377828 215.98957534 153.1706543 215.94018555 C157.10995251 215.88333335 161.0491074 215.81882688 164.98828125 215.75390625 C166.8352636 215.72883751 166.8352636 215.72883751 168.71955872 215.70326233 C169.86051498 215.68331711 171.00147125 215.66337189 172.17700195 215.64282227 C173.182939 215.62727798 174.18887604 215.6117337 175.22529602 215.59571838 C177.87604053 215.5378603 177.87604053 215.5378603 180.75 214.4375 C181.05556226 213.04885566 181.31800808 211.65068736 181.5625 210.25 C181.71332031 209.47269531 181.86414063 208.69539062 182.01953125 207.89453125 C181.60239508 204.09194212 179.64315961 202.80911988 176.75 200.4375 C173.56158667 199.74178349 173.56158667 199.74178349 170.05126953 199.92089844 C169.39854065 199.92487137 168.74581177 199.9288443 168.07330322 199.93293762 C166.66273714 199.94411418 165.25222403 199.96642946 163.8419838 199.99874115 C161.60436525 200.04749481 159.36894868 200.06143773 157.13082886 200.06573486 C150.77184125 200.08361229 144.41418879 200.15949398 138.05615234 200.26904297 C134.15964277 200.33376238 130.26483541 200.35441817 126.36782455 200.34888458 C124.88857056 200.35582772 123.40929 200.37976615 121.93060684 200.42144012 C110.34522523 200.74473702 110.34522523 200.74473702 106.33099365 197.4552002 C104.57303648 195.19328734 103.16480572 192.92228423 101.75 190.4375 C94.91533599 183.94456919 88.46951791 182.80228596 79.26171875 183.02734375 C72.2318908 183.84840263 66.97643315 186.70888757 62.3125 192 C60.90682808 193.8168834 59.74782466 195.44199932 58.74534512 197.5154562 C55.50089743 200.64071534 51.90676869 199.98380095 47.5705719 199.93629456 C46.61936319 199.94167911 45.66815448 199.94706366 44.68812126 199.95261139 C41.48656507 199.96593312 38.28576861 199.95070765 35.08422852 199.93579102 C32.79473517 199.93961212 30.50524422 199.94522936 28.21575928 199.95251465 C23.27857691 199.96448918 18.3416071 199.96395738 13.40442085 199.95392036 C5.60245691 199.93840196 -2.19928727 199.95200804 -10.00123596 199.96995544 C-20.93581337 199.99222629 -31.8703317 200.00269937 -42.80493164 200.00170898 C-43.49899914 200.00165066 -44.19306663 200.00159234 -44.90816648 200.00153225 C-47.72046198 200.0012664 -50.53275747 200.00094911 -53.34505295 200.00056899 C-61.08493499 199.99960289 -68.82481568 200.00093027 -76.56469727 200.00366211 C-77.25761745 200.003902 -77.95053764 200.00414189 -78.66445541 200.00438906 C-90.21331986 200.00879388 -101.76213762 200.02510999 -113.31097847 200.0488829 C-121.07152888 200.06385257 -128.83188606 200.06351956 -136.59243953 200.05140507 C-141.41529291 200.04670606 -146.2380718 200.05419547 -151.06091309 200.06494904 C-153.30230322 200.0673625 -155.54370563 200.06459417 -157.78508186 200.05634117 C-160.83811548 200.04576944 -163.89057369 200.05343381 -166.94358826 200.06568909 C-167.83648148 200.05811303 -168.72937471 200.05053698 -169.64932531 200.04273134 C-174.42490483 200.07864415 -174.42490483 200.07864415 -178.80064487 201.82597256 C-180.6984005 203.93607327 -180.75774021 205.1278916 -180.6875 207.9375 C-180.68556641 209.09765625 -180.68556641 209.09765625 -180.68359375 210.28125 C-180.14525208 212.95840858 -179.35147208 213.73379388 -177.25 215.4375 C-174.23993553 215.73817756 -171.43527927 215.85322602 -168.42329407 215.83622742 C-167.51009862 215.84287424 -166.59690317 215.84952107 -165.65603513 215.85636932 C-162.58348501 215.87508291 -159.51132146 215.87238841 -156.4387207 215.86987305 C-154.24125617 215.8788851 -152.04379668 215.88921093 -149.84634399 215.90075684 C-143.86942639 215.92841832 -137.89260392 215.93762377 -131.91563058 215.94361091 C-125.67354806 215.95297081 -119.43153729 215.97917219 -113.1894989 216.00361633 C-102.70894731 216.04237745 -92.22840413 216.07070302 -81.74780273 216.09106445 C-70.95220179 216.11206637 -60.15664672 216.13933455 -49.36108398 216.17504883 C-48.36311622 216.17834707 -48.36311622 216.17834707 -47.34498749 216.18171193 C-44.00735115 216.19278139 -40.66971527 216.20398097 -37.33207953 216.21522844 C-9.63809197 216.30817417 18.05591815 216.3798094 45.75 216.4375 C44.63619629 218.35781916 43.52102301 220.27734399 42.40527344 222.1965332 C41.78440857 223.26555374 41.1635437 224.33457428 40.52386475 225.43598938 C38.46498407 228.91976807 36.28409455 232.28670797 34 235.625 C33.13571064 236.90557018 32.27246879 238.18684783 31.41015625 239.46875 C30.97203613 240.11972656 30.53391602 240.77070313 30.08251953 241.44140625 C27.83185311 244.81286991 25.63426778 248.21826269 23.4375 251.625 C22.51432323 253.05598979 21.59114614 254.48697937 20.66796875 255.91796875 C19.95906494 257.0169751 19.95906494 257.0169751 19.23583984 258.13818359 C16.03925781 263.08484964 12.82416076 268.01951967 9.61083984 272.95532227 C6.91314063 277.10124725 4.22322461 281.25180404 1.55078125 285.4140625 C1.04675781 286.1978125 0.54273438 286.9815625 0.0234375 287.7890625 C-0.92789447 289.26947748 -1.87721826 290.7511855 -2.82421875 292.234375 C-4.4987464 294.83806128 -6.05389227 297.24139227 -8.25 299.4375 C-8.25410889 298.14650391 -8.25821777 296.85550781 -8.26245117 295.52539062 C-8.28431752 290.70923617 -8.33868523 285.89388997 -8.40258789 281.078125 C-8.42570253 278.99877706 -8.44014818 276.91931313 -8.44555664 274.83984375 C-8.45489394 271.84041606 -8.49598936 268.84279638 -8.54296875 265.84375 C-8.53706978 264.46201599 -8.53706978 264.46201599 -8.53105164 263.05236816 C-8.6713182 256.76629735 -10.01829238 252.21084254 -14.25 247.4375 C-21.06516492 242.48887313 -29.08341766 242.81999233 -37.16137695 242.91601562 C-39.31250246 242.93750002 -41.46030275 242.91611863 -43.61132812 242.890625 C-51.1037824 242.87495234 -56.94992141 243.12568879 -63.25 247.4375 C-67.1370056 252.3211737 -68.36646082 256.0088656 -68.44287109 262.15893555 C-68.45893402 263.33413254 -68.47499695 264.50932953 -68.49154663 265.72013855 C-68.53606109 271.09980728 -68.57750582 276.47933063 -68.60009766 281.85913086 C-68.61341079 284.69442191 -68.64121591 287.52898875 -68.68212891 290.36401367 C-68.74115653 294.45503755 -68.75878598 298.54529089 -68.7734375 302.63671875 C-68.80744156 304.52930672 -68.80744156 304.52930672 -68.84213257 306.46012878 C-68.82481024 313.69868891 -68.34546269 319.01862614 -63.25 324.4375 C-58.96490464 328.10130377 -55.90363303 328.94805517 -50.3203125 329.046875 C-49.03125 329.07910156 -47.7421875 329.11132812 -46.4140625 329.14453125 C-45.06771285 329.1592723 -43.7213585 329.17359 -42.375 329.1875 C-41.00517097 329.21568712 -39.63537665 329.24561837 -38.265625 329.27734375 C-34.92702398 329.34787757 -31.58911485 329.40065985 -28.25 329.4375 C-29.50482799 332.79692829 -30.92882191 335.71184003 -32.90234375 338.703125 C-33.42570313 339.50169922 -33.9490625 340.30027344 -34.48828125 341.12304688 C-35.32939453 342.39245117 -35.32939453 342.39245117 -36.1875 343.6875 C-37.37389947 345.49465937 -38.56009426 347.30195312 -39.74609375 349.109375 C-40.33890137 350.00978516 -40.93170898 350.91019531 -41.54248047 351.83789062 C-43.96446802 355.52524028 -46.3583756 359.23041559 -48.75 362.9375 C-52.82102632 369.23720131 -56.90862682 375.52599836 -61 381.8125 C-65.45707264 388.66230316 -69.8901951 395.52522751 -74.25 402.4375 C-119.68056928 389.45733735 -159.17261721 349.84064873 -181.87890625 309.75390625 C-198.66959338 279.44133566 -207.87076226 245.50365234 -207.64111328 210.87670898 C-207.6250292 208.00521232 -207.64107031 205.13512646 -207.66015625 202.26367188 C-207.68060981 185.54444824 -205.85885438 169.28452772 -201.1875 153.1875 C-200.89077393 152.15230225 -200.59404785 151.11710449 -200.28833008 150.05053711 C-183.95229546 95.16096236 -146.30530198 50.04212123 -96.125 22.8125 C-82.46260023 15.64664879 -67.90019993 10.22847473 -53.0625 6.0625 C-52.27012939 5.83602783 -51.47775879 5.60955566 -50.66137695 5.3762207 C-33.9855298 0.96217223 -17.17370022 -0.1100026 0 0 Z " fill="#EBEFF0" transform="translate(251.25,43.5625)"/>
<path d="M0 0 C4.66877725 0.57335861 7.38175313 1.9517758 10.32910156 5.66040039 C10.8650293 6.52656982 11.40095703 7.39273926 11.953125 8.28515625 C12.5716333 9.27 13.1901416 10.25484375 13.82739258 11.26953125 C14.81002075 12.86861328 14.81002075 12.86861328 15.8125 14.5 C16.87208524 16.19080393 17.93170999 17.8815844 18.9934845 19.5710144 C19.72976925 20.74317161 20.46476755 21.91613779 21.1985321 23.08987427 C25.16713324 29.43181042 29.26686077 35.68540256 33.375 41.9375 C34.80368856 44.11698881 36.23208228 46.29667094 37.66015625 48.4765625 C38.66393311 50.00845215 38.66393311 50.00845215 39.68798828 51.57128906 C42.67761747 56.14256371 45.64383977 60.72879848 48.60717773 65.31713867 C52.04127853 70.63418375 55.48705427 75.94354755 58.9375 81.25 C59.48035645 82.08490967 60.02321289 82.91981934 60.58251953 83.7800293 C62.24237232 86.33261107 63.90240324 88.8850769 65.5625 91.4375 C74.02429425 104.44763265 82.47068275 117.46750742 90.89648438 130.50097656 C98.43342292 142.15847493 105.99384053 153.80057515 113.5625 165.4375 C120.18508314 175.61981863 126.80425147 185.80421716 133.39892578 196.00463867 C136.39331811 200.63474621 139.39430099 205.26050989 142.40185547 209.88208008 C143.5023798 211.57558024 144.60039463 213.27071405 145.69580078 214.9675293 C148.36569549 219.09756029 151.06886639 223.19394982 153.8671875 227.23828125 C154.38474609 227.99947266 154.90230469 228.76066406 155.43554688 229.54492188 C156.40794432 230.97253789 157.39538946 232.3900671 158.40039062 233.79492188 C160.76281699 237.29807274 161.57106587 238.88186041 161.50390625 243.23828125 C160.34892306 247.1633071 158.68247346 248.85020494 155.5625 251.4375 C153.05660568 252.69044716 151.35966521 252.56629974 148.55424881 252.57172108 C147.48804786 252.57617892 146.42184691 252.58063676 145.32333684 252.58522969 C143.55226917 252.58495315 143.55226917 252.58495315 141.74542236 252.58467102 C140.49837989 252.58834771 139.25133741 252.5920244 137.96650577 252.5958125 C134.49372496 252.60584838 131.02096144 252.60955184 127.54816818 252.61220181 C123.80707817 252.61610017 120.06600191 252.62567884 116.32492065 252.63441467 C107.28449387 252.6541925 98.24406595 252.66424703 89.20362294 252.67314246 C84.94864206 252.67752327 80.69366244 252.68289062 76.43868256 252.68813133 C62.29804874 252.70514504 48.15741571 252.71963981 34.01677322 252.72688007 C30.34581756 252.72879004 26.67486189 252.73071036 23.00390625 252.73266602 C22.091483 252.73314976 21.17905974 252.7336335 20.2389873 252.7341319 C5.45418311 252.74243441 -9.33054022 252.76777441 -24.11530909 252.80024669 C-39.28694951 252.8332976 -54.45854881 252.85132706 -69.63022542 252.85452431 C-78.15163385 252.85669126 -86.67292439 252.86546674 -95.19429779 252.89098549 C-102.45072921 252.91266565 -109.70701411 252.9207562 -116.96347424 252.91101871 C-120.66653327 252.90646613 -124.36928982 252.90841531 -128.07230759 252.92778015 C-132.08591507 252.94858811 -136.09884833 252.93845196 -140.11248779 252.92524719 C-141.28427668 252.93621644 -142.45606557 252.94718568 -143.66336322 252.95848733 C-149.86054774 252.90909499 -153.77312555 252.69963355 -158.4375 248.4375 C-160.06565253 245.18119494 -159.96221491 241.95804296 -159.4375 238.4375 C-158.17026257 235.4184064 -156.40729642 232.82121818 -154.5625 230.125 C-153.77576904 228.92750122 -153.77576904 228.92750122 -152.97314453 227.70581055 C-151.14664072 224.9368057 -149.29264844 222.18738817 -147.4375 219.4375 C-145.95188658 217.21174944 -144.46737735 214.98530003 -142.984375 212.7578125 C-140.64019191 209.2389549 -138.29423666 205.72133308 -135.94067383 202.20874023 C-131.55723321 195.66160217 -127.26019545 189.07783715 -123.13012695 182.36816406 C-117.66770401 173.5174792 -111.90740601 164.85618022 -106.21240234 156.15429688 C-103.73389602 152.36051168 -101.27120153 148.55663991 -98.8125 144.75 C-92.1535012 134.4447888 -85.46108609 124.16133723 -78.77148438 113.87597656 C-72.70448349 104.54733889 -66.6427502 95.21542354 -60.60107422 85.87036133 C-57.05501127 80.38722786 -53.49765754 74.91149039 -49.9375 69.4375 C-45.88920557 63.21260714 -41.84565978 56.98471047 -37.8125 50.75 C-37.36430908 50.05745117 -36.91611816 49.36490234 -36.4543457 48.65136719 C-34.23235778 45.21683744 -32.01377115 41.78017866 -29.80078125 38.33984375 C-24.58317782 30.23588618 -19.3142721 22.16590514 -14 14.125 C-13.11284302 12.77196777 -13.11284302 12.77196777 -12.20776367 11.39160156 C-11.64549072 10.54436523 -11.08321777 9.69712891 -10.50390625 8.82421875 C-10.00834229 8.07358154 -9.51277832 7.32294434 -9.00219727 6.54956055 C-4.58206238 0.58317158 -4.58206238 0.58317158 0 0 Z " fill="#4FBA6F" transform="translate(333.4375,242.5625)"/>
<path d="M0 0 C0.99422974 0.00215515 1.98845947 0.0043103 3.01281738 0.00653076 C17.48109955 0.05686686 31.66189071 0.35398296 45.875 3.3125 C46.85130371 3.51117676 47.82760742 3.70985352 48.83349609 3.91455078 C84.02018527 11.27612891 116.51671439 24.52150983 145.875 45.3125 C146.52178711 45.76850586 147.16857422 46.22451172 147.83496094 46.69433594 C158.29245599 54.13043662 167.70079592 62.35595497 176.875 71.3125 C177.45942871 71.87646484 178.04385742 72.44042969 178.64599609 73.02148438 C185.92761669 80.0559588 192.70836552 87.25922036 198.875 95.3125 C199.29458984 95.85567871 199.71417969 96.39885742 200.14648438 96.95849609 C207.82586503 106.95009902 214.58307223 117.39849626 220.875 128.3125 C221.30167969 129.04919922 221.72835938 129.78589844 222.16796875 130.54492188 C254.57313533 187.22903634 260.77121487 256.7898791 244.125 319.375 C237.32154408 343.83066586 226.73808471 377.41431372 207.875 395.3125 C205.17731443 391.6677546 202.52239739 387.99389772 199.875 384.3125 C199.48022461 383.77850586 199.08544922 383.24451172 198.67871094 382.69433594 C197.51837489 381.12143596 196.38383482 379.52960951 195.25 377.9375 C194.55648438 376.98101562 193.86296875 376.02453125 193.1484375 375.0390625 C191.875 372.3125 191.875 372.3125 192.62524414 369.95947266 C193.86755084 367.32827725 195.18922065 364.78045726 196.59765625 362.234375 C221.36667045 316.64773638 232.9193647 260.7828409 221.875 209.3125 C221.68164062 208.38679199 221.48828125 207.46108398 221.2890625 206.50732422 C212.77582759 166.83801435 194.58432787 132.32815503 168.15332031 101.79052734 C166.9895038 100.44489228 165.83412454 99.09197166 164.6796875 97.73828125 C161.00256181 93.49156158 157.1984546 89.65510378 152.90234375 86.03515625 C151.57550701 84.9077285 150.27421967 83.74934683 149.00390625 82.55859375 C116.07534067 51.81242823 71.85025551 34.77944934 27.875 28.3125 C27.16150391 28.20196289 26.44800781 28.09142578 25.71289062 27.97753906 C17.78612297 26.90974342 9.73414342 27.06855287 1.75 27.0625 C0.95020721 27.06182526 0.15041443 27.06115051 -0.6736145 27.06045532 C-54.26078155 27.13205745 -105.54963412 46.25846555 -146.125 81.3125 C-146.9396875 82.01632813 -147.754375 82.72015625 -148.59375 83.4453125 C-160.02012384 93.53378814 -170.02015893 104.11262516 -179.125 116.3125 C-179.74689209 117.12726807 -179.74689209 117.12726807 -180.38134766 117.95849609 C-200.98960307 144.98692145 -215.4970189 177.75699003 -221.125 211.3125 C-221.25890137 212.06208984 -221.39280273 212.81167969 -221.53076172 213.58398438 C-223.74406257 226.30112808 -224.41714081 238.87095189 -224.4375 251.75 C-224.44274185 252.80809875 -224.44274185 252.80809875 -224.4480896 253.88757324 C-224.60107188 309.47599155 -202.5224041 364.35443173 -164.53515625 404.69140625 C-162.125 407.3125 -162.125 407.3125 -160.01953125 409.9609375 C-157.77839579 412.74271801 -155.32896385 414.88388624 -152.61328125 417.1875 C-150.79357546 418.74153446 -149.00307748 420.329952 -147.23046875 421.9375 C-129.28977067 438.07672496 -107.65242808 451.59906084 -85.125 460.3125 C-85.78035443 464.09200978 -87.53629456 466.77744873 -89.5625 470 C-92.65162093 475.15908515 -94.23666469 479.3902646 -95.125 485.3125 C-125.30670573 476.03691209 -152.59885428 454.73549107 -175.125 433.3125 C-175.69154297 432.77463867 -176.25808594 432.23677734 -176.84179688 431.68261719 C-184.88517925 423.99029957 -192.15463652 416.01836697 -198.79833984 407.08789062 C-200.1350347 405.29907115 -201.49692442 403.53185568 -202.86328125 401.765625 C-225.35584122 372.33759392 -240.04959482 337.02857856 -247.4375 300.875 C-247.58477539 300.15634766 -247.73205078 299.43769531 -247.88378906 298.69726562 C-250.82642499 283.2191385 -251.49883751 267.90630243 -251.4375 252.1875 C-251.43534485 251.19327026 -251.4331897 250.19904053 -251.43096924 249.17468262 C-251.38064113 234.70869635 -251.09176694 220.52230887 -248.125 206.3125 C-247.92100586 205.32024414 -247.71701172 204.32798828 -247.50683594 203.30566406 C-235.30909174 145.61938911 -204.84002487 92.03973877 -158.125 55.3125 C-157.16207031 54.53261719 -156.19914062 53.75273438 -155.20703125 52.94921875 C-125.62695039 29.44261457 -90.867063 13.64418155 -54.125 5.3125 C-53.40779785 5.14669434 -52.6905957 4.98088867 -51.95166016 4.81005859 C-34.68087549 0.87392627 -17.63630688 -0.06881994 0 0 Z " fill="#2980BA" transform="translate(251.125,-0.3125)"/>
<path d="M0 0 C0.829471 -0.00445784 1.65894201 -0.00891569 2.51354849 -0.01350862 C3.42471659 -0.01332426 4.33588468 -0.01313989 5.27466393 -0.01294994 C6.72681189 -0.01846498 6.72681189 -0.01846498 8.20829618 -0.02409142 C11.46702685 -0.03514447 14.72572565 -0.03897487 17.98447227 -0.04278088 C20.31511092 -0.04904434 22.64574857 -0.05569103 24.97638512 -0.0626936 C31.3195812 -0.08011501 37.66276974 -0.09065865 44.00598383 -0.09889913 C47.96817881 -0.10404725 51.93037145 -0.11012309 55.89256477 -0.11641026 C66.86610243 -0.13328186 77.839638 -0.14791621 88.81318665 -0.155159 C91.66064645 -0.15706884 94.50810625 -0.15898918 97.35556602 -0.16094494 C98.41712955 -0.16167055 98.41712955 -0.16167055 99.5001388 -0.16241082 C110.95906944 -0.1707073 122.41789556 -0.19603749 133.87678058 -0.22852562 C145.64600027 -0.26162101 157.41516689 -0.27961005 169.18443334 -0.28280324 C175.79054455 -0.2851547 182.39649061 -0.29412785 189.00255775 -0.31926441 C195.21926227 -0.34253668 201.4356928 -0.34678153 207.65242958 -0.33650303 C209.93204217 -0.33600735 212.2116682 -0.34233724 214.49123955 -0.35605907 C217.6083402 -0.37376983 220.72445675 -0.36667515 223.84155846 -0.35352612 C225.1882341 -0.36997998 225.1882341 -0.36997998 226.56211531 -0.38676625 C234.22423548 -0.30896899 239.8759563 2.07251524 246.18906212 6.32172108 C253.23327666 13.5260314 254.6464187 20.39149512 254.62265587 30.21625233 C254.61218224 30.94280018 254.6017086 31.66934803 254.59091759 32.41791248 C254.56410019 34.63107902 254.59075394 36.8391773 254.62265587 39.05218983 C254.64522331 48.11856563 253.68133129 55.17957211 247.18369102 61.96820545 C240.55056994 68.2793692 233.9271993 69.58072891 225.07774925 69.52190113 C223.61329106 69.52997944 223.61329106 69.52997944 222.11924785 69.53822094 C218.85666414 69.55249747 215.59448631 69.54539741 212.33188438 69.53827381 C209.98917884 69.54397751 207.64647608 69.55094177 205.30377769 69.55907154 C198.94637973 69.57701764 192.58911969 69.57583182 186.231704 69.57012916 C180.2516918 69.56664855 174.27169665 69.5745998 168.29168975 69.58148981 C155.72478762 69.59520776 143.1579478 69.58978207 130.5910471 69.5783046 C119.10258391 69.56837235 107.61428177 69.58131392 96.12584341 69.60523879 C84.31919686 69.62964042 72.51262528 69.63923509 60.70595402 69.63258606 C54.08151841 69.62909627 47.45719082 69.63164577 40.8327713 69.64883709 C34.6036792 69.66429692 28.3748948 69.66036094 22.1458149 69.64153194 C19.86095107 69.63784351 17.5760645 69.64096189 15.29122162 69.65141773 C12.16957902 69.6646113 9.04895746 69.65309374 5.92735863 69.63542652 C5.02549955 69.64503153 4.12364048 69.65463653 3.19445235 69.6645326 C-4.90197025 69.57040087 -11.15364676 66.71332936 -17.06093788 61.13422108 C-23.10656154 53.18854427 -23.43387454 45.994406 -23.43154335 36.30365467 C-23.43591243 34.27106076 -23.47227714 32.24065006 -23.51015663 30.20843983 C-23.53714198 21.13236673 -22.78806866 15.46575144 -16.74843788 8.44672108 C-6.95213359 0.01734296 -6.95213359 0.01734296 0 0 Z " fill="#7F8C8D" transform="translate(136.06093788146973,138.86577892303467)"/>
<path d="M0 0 C1.28058069 3.63159132 0.71031185 6.09326823 -0.24755859 9.77490234 C-0.69329727 11.51723648 -0.69329727 11.51723648 -1.14804077 13.29476929 C-1.47817169 14.5458548 -1.80830261 15.79694031 -2.1484375 17.0859375 C-2.48467523 18.38840925 -2.81999896 19.69111726 -3.15444946 20.99404907 C-4.03694356 24.42322189 -4.93033192 27.84945818 -5.82647705 31.27508545 C-7.25653044 36.74976964 -8.66927125 42.22895203 -10.08345413 47.70775223 C-10.57729723 49.61506717 -11.07564211 51.52121468 -11.57406616 53.42733765 C-11.8775296 54.59519806 -12.18099304 55.76305847 -12.49365234 56.96630859 C-12.76092133 57.98904877 -13.02819031 59.01178894 -13.30355835 60.06552124 C-14.0072925 63.03072719 -14.53410267 65.989061 -15 69 C-14.14841309 69.26280762 -13.29682617 69.52561523 -12.41943359 69.79638672 C-8.87335202 71.04457907 -5.64453121 72.56468609 -2.2890625 74.2578125 C-1.67606293 74.56572723 -1.06306335 74.87364197 -0.43148804 75.19088745 C1.50593658 76.16515063 3.4404876 77.14496917 5.375 78.125 C6.69642788 78.7907353 8.01804076 79.45610353 9.33984375 80.12109375 C12.56204525 81.74315823 15.78169593 83.37021374 19 85 C15.02397762 90.53027742 10.76692747 95.579779 6.0625 100.5 C4.81680753 101.81815972 3.57200403 103.13716014 2.328125 104.45703125 C1.74482422 105.07529785 1.16152344 105.69356445 0.56054688 106.33056641 C-1.77027568 108.82402145 -4.00448256 111.39381645 -6.23046875 113.98046875 C-8.6088442 116.69486193 -11.05508905 119.34572387 -13.5 122 C-16.53894492 125.30022784 -19.56156211 128.60949474 -22.5 132 C-25.9067735 135.9308925 -29.43002785 139.75196573 -32.953125 143.578125 C-36.05869281 146.95670976 -39.09968335 150.38109734 -42.1015625 153.8515625 C-45.12780606 157.27632373 -48.24074517 160.62232091 -51.35742188 163.96484375 C-53.98217364 166.76290569 -53.98217364 166.76290569 -56 170 C-56.66 170 -57.32 170 -58 170 C-56.61438321 161.71922779 -54.7676533 153.6026326 -52.7421875 145.45703125 C-52.43427277 144.20742111 -52.12635803 142.95781097 -51.80911255 141.67033386 C-50.99995893 138.38670665 -50.186832 135.10407667 -49.37280273 131.82165527 C-48.53904742 128.45657959 -47.70915145 125.09055246 -46.87890625 121.72460938 C-45.25632732 115.1488165 -43.62953843 108.57407162 -42 102 C-42.85158691 101.73719238 -43.70317383 101.47438477 -44.58056641 101.20361328 C-48.12664798 99.95542093 -51.35546879 98.43531391 -54.7109375 96.7421875 C-55.32393707 96.43427277 -55.93693665 96.12635803 -56.56851196 95.80911255 C-58.50593658 94.83484937 -60.4404876 93.85503083 -62.375 92.875 C-63.69642788 92.2092647 -65.01804076 91.54389647 -66.33984375 90.87890625 C-69.56204525 89.25684177 -72.78169593 87.62978626 -76 86 C-74.14924886 82.75069372 -72.25707606 79.99217967 -69.671875 77.29296875 C-69.03636719 76.62330078 -68.40085937 75.95363281 -67.74609375 75.26367188 C-67.08738281 74.57853516 -66.42867188 73.89339844 -65.75 73.1875 C-61.27155127 68.49814236 -56.8778739 63.76822966 -52.62988281 58.8684082 C-50.30154694 56.19933175 -47.90361794 53.60156295 -45.5 51 C-42.46031004 47.70047223 -39.43841941 44.39048393 -36.5 41 C-33.0932265 37.0691075 -29.56997215 33.24803427 -26.046875 29.421875 C-22.93758544 26.03924131 -19.89386993 22.60986915 -16.88671875 19.13671875 C-13.94745222 15.80798419 -10.928655 12.55211128 -7.90625 9.29882812 C-5.13276496 6.29754964 -2.51448944 3.22113753 0 0 Z " fill="#FDFEFD" transform="translate(354,305)"/>
<path d="M0 0 C1.47015036 -0.01147293 2.94026061 -0.0318501 4.41015625 -0.06152344 C20.69988875 -0.39010831 20.69988875 -0.39010831 27.59619141 4.29516602 C32.12465556 8.93974463 33.84273207 12.80506643 33.87084961 19.25366211 C33.88514763 21.0560585 33.88514763 21.0560585 33.8997345 22.89486694 C33.89882309 24.18970001 33.89791168 25.48453308 33.89697266 26.81860352 C33.90086222 28.16614921 33.90519742 29.51369368 33.90995789 30.86123657 C33.91741239 33.68398005 33.91713487 36.50659845 33.91186523 39.3293457 C33.90607733 42.93622678 33.92298824 46.54259322 33.94620991 50.14938927 C33.96098615 52.93247441 33.9618136 55.7154368 33.95870018 58.49855423 C33.95945937 60.47158318 33.97330378 62.44459315 33.98738098 64.41757202 C33.98115219 65.62547394 33.9749234 66.83337585 33.96850586 68.07788086 C33.96913528 69.13615082 33.96976471 70.19442078 33.97041321 71.28475952 C33.32123198 76.50706181 31.11129708 80.34029732 27.03369141 83.60766602 C26.43427734 84.09879883 25.83486328 84.58993164 25.21728516 85.09594727 C21.52381636 87.82822419 17.94409718 87.4915408 13.51806641 87.53344727 C12.71387268 87.54151901 11.90967896 87.54959076 11.08111572 87.5579071 C9.37636471 87.57174899 7.67158596 87.58247069 5.96679688 87.59033203 C3.37006397 87.60750811 0.77461665 87.65138685 -1.82177734 87.69555664 C-3.47932008 87.70568707 -5.13687363 87.71420208 -6.79443359 87.72094727 C-7.56652161 87.73845535 -8.33860962 87.75596344 -9.13409424 87.77400208 C-15.47790763 87.74871214 -18.85640194 85.48876619 -23.65380859 81.35766602 C-27.07419387 77.32649766 -27.65763832 73.43471074 -27.71020508 68.25488281 C-27.72619247 67.05981613 -27.74217987 65.86474945 -27.75865173 64.63346863 C-27.76401443 63.35007095 -27.76937714 62.06667328 -27.77490234 60.74438477 C-27.78387948 59.40305995 -27.79300151 58.0617361 -27.80226135 56.72041321 C-27.8187193 53.91205419 -27.82644542 51.10381392 -27.8293457 48.29541016 C-27.83472251 44.71425432 -27.87238459 41.13423023 -27.91808987 37.55339336 C-27.9479818 34.78308642 -27.95507187 32.01304788 -27.95607185 29.24259377 C-27.96226992 27.28618476 -27.99167795 25.32989313 -28.02159119 23.373703 C-27.98504269 16.13028756 -27.44752371 10.77164754 -22.40380859 5.29516602 C-15.24431457 -0.28923932 -8.67986502 0.04710004 0 0 Z " fill="#808D8E" transform="translate(131.40380859375,285.704833984375)"/>
<path d="M0 0 C1.47015036 -0.01147293 2.94026061 -0.0318501 4.41015625 -0.06152344 C20.69988875 -0.39010831 20.69988875 -0.39010831 27.59619141 4.29516602 C31.42437531 8.22150848 33.78332725 12.09295386 33.99780273 17.61035156 C34.03315628 18.45611252 34.06850983 19.30187347 34.10493469 20.17326355 C34.20868313 24.07844271 34.29768961 27.98294113 34.35131836 31.88916016 C34.3891461 33.92879985 34.45014819 35.96815984 34.53588867 38.00634766 C35.14945989 52.73085628 33.20207725 61.84736387 23.97512817 73.43838501 C22.64685655 75.22694383 21.62535491 76.98591291 20.61938477 78.96972656 C18.85407823 82.29502602 17.37328056 84.75094917 14.59619141 87.29516602 C10.16418445 88.60931516 6.10456677 88.70521058 1.50488281 88.42016602 C-0.53405036 88.29484383 -2.56061691 88.2562493 -4.60302734 88.23266602 C-11.54868835 88.01194988 -15.7848298 87.65839969 -21.40380859 83.29516602 C-25.75417774 78.46142252 -27.64617731 74.98496799 -27.69433594 68.46020508 C-27.70709564 67.28508362 -27.71985535 66.10996216 -27.73300171 64.89923096 C-27.73522736 63.63254578 -27.737453 62.3658606 -27.73974609 61.06079102 C-27.74640289 59.7536615 -27.75305969 58.44653198 -27.75991821 57.09979248 C-27.77188324 54.33252666 -27.77560006 51.56538556 -27.77441406 48.7980957 C-27.77421138 45.269748 -27.8014631 41.74221035 -27.83595848 38.21405411 C-27.86369241 34.82962245 -27.86238008 31.44533464 -27.86474609 28.06079102 C-27.87911713 26.80220276 -27.89348816 25.5436145 -27.90829468 24.24688721 C-27.86780668 16.43170925 -27.33620182 10.2782998 -21.58740234 4.45532227 C-21.01119141 4.0930957 -20.43498047 3.73086914 -19.84130859 3.35766602 C-18.973125 2.78725586 -18.973125 2.78725586 -18.08740234 2.20532227 C-12.56294051 -0.78121975 -6.10748892 0.03314141 0 0 Z " fill="#808D8E" transform="translate(209.40380859375,285.704833984375)"/>
<path d="M0 0 C8.91 0 17.82 0 27 0 C27 17.16 27 34.32 27 52 C18.09 52 9.18 52 0 52 C0 34.84 0 17.68 0 0 Z " fill="#BAC0C4" transform="translate(199,304)"/>
<path d="M0 0 C8.91 0 17.82 0 27 0 C27 17.16 27 34.32 27 52 C18.09 52 9.18 52 0 52 C0 34.84 0 17.68 0 0 Z " fill="#BAC0C4" transform="translate(121,304)"/>
<path d="M0 0 C11.55 0 23.1 0 35 0 C35 11.55 35 23.1 35 35 C23.45 35 11.9 35 0 35 C0 23.45 0 11.9 0 0 Z " fill="#BBC1C5" transform="translate(286,156)"/>
<path d="M0 0 C11.55 0 23.1 0 35 0 C35 11.55 35 23.1 35 35 C23.45 35 11.9 35 0 35 C0 23.45 0 11.9 0 0 Z " fill="#BBC2C6" transform="translate(234,156)"/>
<path d="M0 0 C11.55 0 23.1 0 35 0 C35 11.55 35 23.1 35 35 C23.45 35 11.9 35 0 35 C0 23.45 0 11.9 0 0 Z " fill="#BBC2C6" transform="translate(182,156)"/>
<path d="M0 0 C4.66125 -0.103125 9.3225 -0.20625 14.125 -0.3125 C15.58437988 -0.35802002 17.04375977 -0.40354004 18.54736328 -0.45043945 C29.25588942 -0.5654652 29.25588942 -0.5654652 32.890625 1.76953125 C36.12069398 6.71632207 35.79741831 11.22053841 35.625 17 C35.63466797 18.62035156 35.63466797 18.62035156 35.64453125 20.2734375 C35.53819377 28.10374261 35.53819377 28.10374261 33.0859375 32.1875 C29.48188797 35.31910858 27.17877378 35.11816858 22.4609375 35.09765625 C21.28837402 35.09515869 20.11581055 35.09266113 18.90771484 35.09008789 C16.664021 35.07643188 16.664021 35.07643188 14.375 35.0625 C9.63125 35.041875 4.8875 35.02125 0 35 C0 23.45 0 11.9 0 0 Z " fill="#BBC1C5" transform="translate(338,156)"/>
<path d="M0 0 C1.75884521 0.00374634 1.75884521 0.00374634 3.55322266 0.00756836 C5.7969165 0.02122437 5.7969165 0.02122437 8.0859375 0.03515625 C15.2015625 0.06609375 15.2015625 0.06609375 22.4609375 0.09765625 C22.4609375 11.64765625 22.4609375 23.19765625 22.4609375 35.09765625 C17.7790625 35.18015625 13.0971875 35.26265625 8.2734375 35.34765625 C6.80495361 35.38407227 5.33646973 35.42048828 3.82348633 35.45800781 C2.65841553 35.46799805 1.49334473 35.47798828 0.29296875 35.48828125 C-0.89578857 35.50922852 -2.0845459 35.53017578 -3.30932617 35.55175781 C-7.17480131 35.00827125 -8.78556731 33.80613603 -11.5390625 31.09765625 C-13.52589647 27.1239883 -12.81162378 22.15445187 -12.8515625 17.78515625 C-12.88056641 16.73908203 -12.90957031 15.69300781 -12.93945312 14.61523438 C-13.00350933 6.87428797 -13.00350933 6.87428797 -10.64453125 2.9296875 C-7.02816911 -0.21701722 -4.73747111 -0.0205977 0 0 Z " fill="#BBC2C6" transform="translate(142.5390625,155.90234375)"/>
</svg>
